<svg xmlns="http://www.w3.org/2000/svg" xmlns:xlink="http://www.w3.org/1999/xlink" width="1920" zoomAndPan="magnify" viewBox="0 0 1440 540.000001" height="720" preserveAspectRatio="xMidYMid meet" version="1.0"><defs><clipPath id="4174340e76"><path d="M 682.179688 0.339844 L 1438.664062 0.339844 L 1438.664062 538.667969 L 682.179688 538.667969 Z M 682.179688 0.339844 " clip-rule="nonzero"/></clipPath></defs><g clip-path="url(#4174340e76)"><path fill="#ecc8f6" d="M 1161.199219 480.703125 C 1161.808594 481.3125 1161.050781 482.367188 1160.292969 481.914062 C 1157.113281 479.945312 1153.484375 478.285156 1149.847656 477.375 C 1146.0625 476.464844 1142.277344 476.773438 1138.492188 476.316406 C 1137.433594 476.164062 1137.132812 474.804688 1138.191406 474.503906 L 1138.347656 474.503906 C 1138.347656 474.195312 1138.347656 473.894531 1138.492188 473.746094 C 1144.851562 462.699219 1168.921875 461.03125 1173.460938 474.503906 C 1173.917969 475.863281 1172.25 477.074219 1171.039062 476.316406 C 1169.070312 475.257812 1168.3125 473.894531 1166.652344 472.234375 C 1163.769531 469.355469 1160.292969 468.597656 1156.355469 468.597656 C 1150.457031 468.597656 1145.460938 469.808594 1141.375 473.894531 C 1148.332031 472.988281 1156.203125 476.617188 1161.199219 480.703125 Z M 866.9375 389.921875 C 866.484375 388.867188 867.695312 387.652344 868.601562 388.710938 C 869.964844 390.226562 871.023438 392.046875 872.386719 393.707031 C 873.75 395.21875 875.265625 396.730469 876.777344 398.097656 C 877.535156 398.855469 876.46875 399.910156 875.566406 399.304688 C 872.539062 396.585938 868.753906 393.558594 866.9375 389.921875 Z M 906.597656 403.695312 C 905.539062 403.238281 905.988281 401.878906 907.050781 402.027344 C 912.652344 402.785156 915.980469 407.625 919.917969 411.105469 C 926.421875 416.855469 933.84375 420.035156 942.316406 422.304688 C 944.136719 422.753906 943.378906 425.332031 941.558594 425.023438 C 935.054688 423.964844 928.691406 421.242188 923.394531 417.457031 C 917.492188 413.226562 913.554688 406.265625 906.597656 403.695312 Z M 1334.214844 200.957031 C 1330.886719 201.558594 1325.890625 202.921875 1322.710938 201.410156 C 1322.261719 201.101562 1322.40625 200.347656 1322.863281 200.199219 C 1324.378906 199.746094 1326.042969 200.046875 1327.707031 200.046875 C 1329.828125 200.046875 1331.792969 199.898438 1333.761719 199.441406 C 1334.820312 199.289062 1335.273438 200.65625 1334.214844 200.957031 Z M 1179.515625 202.921875 C 1188.746094 198.835938 1198.285156 196.417969 1208.425781 196.117188 C 1220.234375 195.808594 1232.644531 201.558594 1243.996094 196.871094 C 1244.90625 196.417969 1245.664062 197.929688 1244.90625 198.53125 C 1239.007812 204.585938 1230.828125 202.011719 1223.414062 200.65625 C 1208.734375 197.929688 1194.199219 199.589844 1180.273438 204.738281 C 1179.214844 205.191406 1178.304688 203.371094 1179.515625 202.921875 Z M 1217.207031 281.898438 C 1216.601562 281.746094 1216.449219 280.84375 1217.058594 280.535156 C 1220.386719 278.875 1225.53125 279.777344 1229.167969 280.085938 C 1230.226562 280.234375 1230.226562 281.746094 1229.167969 281.746094 C 1227.046875 281.746094 1224.929688 281.746094 1222.804688 281.898438 C 1220.992188 281.898438 1219.019531 282.355469 1217.207031 281.898438 Z M 1168.3125 515.957031 C 1173.609375 511.261719 1176.335938 508.390625 1176.1875 501.28125 C 1174.21875 501.882812 1171.648438 500.523438 1169.980469 499.769531 C 1167.253906 498.554688 1164.984375 496.742188 1162.867188 494.472656 C 1162.410156 493.863281 1163.015625 492.960938 1163.625 493.414062 C 1165.742188 495.074219 1168.164062 496.441406 1170.738281 497.5 C 1172.25 498.101562 1174.367188 498.101562 1175.882812 498.859375 C 1175.882812 497.953125 1175.882812 497.195312 1176.1875 496.285156 C 1176.636719 495.230469 1178.152344 493.863281 1178.460938 492.804688 C 1178.605469 492.351562 1178.605469 491.59375 1178.605469 490.992188 C 1176.945312 490.386719 1175.578125 489.78125 1173.765625 490.082031 C 1172.550781 490.234375 1171.949219 488.566406 1173.308594 488.265625 C 1174.824219 487.964844 1176.636719 487.8125 1178.304688 488.265625 C 1177.546875 484.183594 1176.488281 479.644531 1182.089844 479.796875 C 1183.449219 479.796875 1183.449219 481.757812 1182.089844 481.914062 C 1179.515625 482.214844 1183.449219 490.386719 1183.148438 492.050781 C 1182.847656 494.171875 1182.089844 493.863281 1181.332031 495.683594 C 1179.664062 499.160156 1180.421875 500.523438 1180.421875 504.003906 C 1180.421875 510.359375 1176.035156 517.769531 1169.222656 518.226562 C 1168.164062 518.378906 1167.40625 516.710938 1168.3125 515.957031 Z M 1183.449219 477.074219 C 1183.449219 475.40625 1184.058594 473.746094 1183.757812 471.925781 C 1183.601562 471.019531 1183.300781 470.109375 1183 469.355469 C 1182.242188 467.996094 1181.632812 469.207031 1181.179688 470.265625 C 1180.273438 472.234375 1179.363281 474.648438 1176.792969 474.195312 C 1175.734375 474.046875 1175.734375 472.378906 1176.792969 472.078125 C 1178.761719 471.625 1178.761719 468.75 1179.972656 467.238281 C 1181.03125 466.027344 1182.847656 465.269531 1184.359375 466.328125 C 1187.386719 468.449219 1187.992188 475.40625 1185.570312 478.132812 C 1184.816406 478.886719 1183.449219 478.132812 1183.449219 477.074219 Z M 1138.039062 501.125 C 1137.890625 501.125 1137.738281 501.28125 1137.433594 501.429688 C 1133.953125 504.304688 1130.167969 509.449219 1128.65625 514.597656 C 1121.542969 506.273438 1116.398438 498.859375 1114.429688 487.8125 C 1114.429688 487.664062 1114.273438 487.363281 1114.273438 487.207031 C 1117.15625 476.617188 1120.785156 466.179688 1125.023438 455.890625 C 1125.929688 459.976562 1127.292969 464.058594 1128.65625 467.839844 C 1130.019531 471.925781 1131.226562 476.164062 1134.40625 479.1875 C 1131.226562 486.753906 1132.4375 495.230469 1138.039062 501.125 Z M 1139.859375 336.96875 C 1137.738281 338.9375 1135.621094 338.027344 1133.351562 337.269531 C 1131.535156 336.667969 1129.867188 338.785156 1130.625 340.449219 C 1129.714844 341.660156 1129.109375 343.175781 1128.507812 344.835938 C 1128.199219 345.59375 1127.898438 346.804688 1127.292969 347.257812 C 1127.292969 347.105469 1127.140625 347.105469 1127.140625 346.957031 C 1127.441406 346.65625 1127.441406 346.199219 1127.140625 345.898438 C 1126.082031 344.234375 1125.929688 342.417969 1125.929688 340.605469 C 1125.929688 339.394531 1126.082031 338.179688 1125.480469 337.269531 C 1125.628906 337.125 1125.628906 336.96875 1125.78125 336.820312 C 1128.199219 333.039062 1132.292969 329.859375 1133.804688 325.777344 C 1134.105469 325.019531 1133.652344 324.109375 1132.894531 323.652344 C 1133.496094 323.050781 1134.105469 322.597656 1134.5625 321.992188 C 1135.011719 321.539062 1135.164062 320.9375 1135.320312 320.480469 C 1137.433594 319.421875 1136.832031 315.941406 1134.253906 315.640625 C 1131.984375 313.519531 1129.109375 312.003906 1126.539062 310.34375 C 1125.324219 309.589844 1123.964844 308.832031 1122.753906 307.921875 C 1123.660156 308.222656 1124.871094 307.769531 1125.023438 306.410156 C 1125.171875 304.292969 1127.597656 302.023438 1129.109375 300.65625 C 1129.867188 300.054688 1131.378906 298.691406 1132.4375 298.996094 C 1133.496094 299.300781 1133.351562 300.203125 1133.652344 300.960938 C 1133.953125 301.566406 1134.253906 302.023438 1134.863281 302.324219 C 1135.164062 303.382812 1136.523438 304.140625 1137.738281 303.535156 C 1139.550781 302.625 1141.21875 301.566406 1143.335938 301.414062 C 1144.402344 301.265625 1147.273438 301.414062 1147.273438 303.082031 C 1147.273438 304.140625 1145.304688 305.953125 1145.003906 307.164062 C 1144.546875 308.832031 1145.003906 309.890625 1146.0625 311.25 C 1146.0625 311.25 1146.0625 311.25 1146.214844 311.402344 C 1146.214844 311.550781 1146.214844 311.703125 1146.214844 312.003906 C 1146.671875 313.820312 1147.429688 315.488281 1148.183594 317.300781 C 1149.390625 320.179688 1148.632812 321.691406 1146.671875 323.652344 C 1145.15625 325.019531 1143.792969 326.378906 1143.1875 328.046875 C 1142.277344 328.191406 1141.675781 328.949219 1141.675781 330.011719 C 1141.675781 332.28125 1141.976562 335 1139.859375 336.96875 Z M 1079.15625 313.972656 C 1079.003906 313.972656 1079.003906 313.972656 1079.15625 313.972656 Z M 1080.070312 316.398438 Z M 1081.429688 318.511719 C 1083.097656 319.269531 1084.757812 319.871094 1086.425781 320.328125 C 1084 320.328125 1081.582031 320.179688 1079.15625 319.722656 C 1079.914062 319.722656 1080.824219 319.269531 1081.429688 318.511719 Z M 1307.269531 323.808594 C 1301.214844 315.183594 1293.949219 306.863281 1283.808594 303.683594 C 1297.285156 303.382812 1311.8125 301.714844 1323.164062 310.039062 C 1323.921875 310.644531 1324.980469 309.28125 1324.222656 308.679688 C 1314.382812 300.203125 1300.613281 300.054688 1287.746094 300.203125 C 1288.652344 299.601562 1289.714844 298.996094 1290.773438 298.390625 C 1295.617188 295.972656 1301.214844 295.515625 1306.058594 293.246094 C 1306.210938 293.246094 1306.367188 293.394531 1306.515625 293.394531 C 1318.476562 293.851562 1326.800781 301.714844 1337.398438 305.953125 C 1345.113281 308.980469 1353.292969 311.25 1361.460938 312.160156 C 1352.378906 319.871094 1341.785156 323.507812 1329.675781 324.261719 C 1323.164062 324.5625 1314.082031 322.449219 1307.269531 323.808594 Z M 1249.75 210.335938 C 1251.117188 211.546875 1252.777344 212.304688 1254.59375 212.148438 C 1255.351562 212 1256.105469 211.695312 1256.414062 211.089844 C 1256.714844 211.546875 1257.171875 211.847656 1257.929688 211.546875 C 1258.230469 211.394531 1258.53125 211.394531 1258.832031 211.246094 C 1257.015625 212.449219 1255.351562 213.964844 1253.988281 215.328125 C 1252.175781 216.988281 1250.359375 218.65625 1248.847656 220.324219 C 1249.90625 216.988281 1250.507812 213.359375 1249.75 210.335938 Z M 1265.496094 181.433594 C 1265.496094 181.589844 1265.496094 181.742188 1265.496094 181.742188 C 1264.886719 180.378906 1264.285156 179.019531 1263.375 177.804688 C 1264.585938 177.050781 1265.042969 175.992188 1265.042969 174.625 C 1265.496094 173.871094 1265.945312 173.113281 1266.253906 172.355469 C 1265.945312 175.535156 1265.644531 178.410156 1265.496094 181.433594 Z M 1257.472656 176.59375 C 1257.773438 177.351562 1257.929688 178.109375 1258.074219 178.714844 C 1255.351562 175.234375 1252.175781 172.210938 1248.847656 169.941406 C 1251.875 171.90625 1254.746094 174.175781 1257.472656 176.59375 Z M 1243.695312 166.761719 C 1244.152344 167.0625 1244.753906 167.367188 1245.210938 167.671875 C 1245.0625 167.515625 1244.90625 167.515625 1244.605469 167.367188 C 1244.152344 167.214844 1243.847656 167.0625 1243.394531 167.214844 C 1243.546875 167.0625 1243.695312 166.914062 1243.695312 166.761719 Z M 1170.433594 525.1875 C 1171.339844 523.21875 1170.890625 521.550781 1169.679688 519.890625 C 1168.464844 518.378906 1166.800781 517.46875 1166.800781 515.199219 C 1166.800781 513.382812 1168.011719 511.871094 1168.3125 510.058594 C 1168.621094 508.84375 1166.953125 507.632812 1166.042969 508.691406 C 1165.894531 508.84375 1165.894531 508.992188 1165.742188 509.148438 C 1157.113281 510.058594 1150.90625 507.480469 1143.945312 502.339844 C 1136.378906 496.589844 1135.320312 489.78125 1136.832031 481.457031 C 1140.308594 485.847656 1144.402344 489.476562 1149.242188 492.203125 C 1150.148438 492.65625 1150.90625 491.445312 1150 490.835938 C 1145.304688 487.664062 1141.375 483.726562 1138.039062 479.1875 C 1137.890625 478.886719 1137.589844 478.734375 1137.433594 478.734375 C 1137.589844 477.527344 1136.378906 476.773438 1135.464844 477.222656 C 1130.019531 469.65625 1129.566406 459.21875 1127.292969 450.597656 C 1131.226562 441.664062 1135.769531 432.742188 1140.917969 424.117188 C 1144.703125 427.746094 1149.242188 430.925781 1154.386719 433.652344 C 1155.144531 434.101562 1155.753906 432.894531 1154.996094 432.441406 C 1149.699219 429.5625 1145.304688 426.234375 1141.824219 422.453125 C 1141.824219 422.453125 1141.824219 422.453125 1141.824219 422.304688 C 1142.886719 420.484375 1140.917969 418.972656 1139.40625 419.582031 C 1136.523438 415.945312 1134.40625 411.863281 1132.742188 407.777344 C 1133.953125 406.566406 1132.894531 404.148438 1131.378906 403.839844 C 1126.539062 388.109375 1127.597656 369.652344 1127.597656 352.707031 C 1128.65625 352.554688 1129.867188 352.097656 1130.625 351.496094 C 1130.777344 351.34375 1131.078125 351.042969 1131.226562 350.886719 C 1132.4375 356.335938 1135.320312 361.332031 1138.949219 365.414062 C 1139.707031 366.171875 1140.765625 365.113281 1140.160156 364.203125 C 1136.222656 359.0625 1134.40625 353.613281 1133.351562 347.558594 C 1133.496094 347.257812 1133.496094 346.957031 1133.652344 346.804688 C 1134.105469 345.746094 1134.253906 344.535156 1134.863281 343.476562 C 1135.164062 343.628906 1135.621094 343.628906 1135.921875 343.628906 C 1139.40625 357.09375 1152.269531 369.042969 1164.226562 374.949219 C 1164.984375 375.402344 1165.742188 374.191406 1164.984375 373.734375 C 1158.628906 369.953125 1152.726562 365.113281 1148.03125 359.363281 C 1143.945312 354.367188 1141.675781 348.925781 1139.101562 343.324219 C 1140.308594 343.019531 1141.375 342.566406 1142.277344 341.964844 C 1145.605469 348.773438 1154.6875 352.855469 1160.898438 355.582031 C 1161.65625 355.882812 1162.410156 354.824219 1161.65625 354.367188 C 1157.414062 352.253906 1152.875 350.132812 1149.390625 346.957031 C 1147.121094 344.988281 1145.761719 342.71875 1144.546875 340.148438 C 1145.15625 339.394531 1145.605469 338.636719 1145.914062 337.726562 C 1152.417969 344.234375 1160.292969 348.167969 1169.523438 349.527344 C 1183.757812 351.644531 1202.824219 348.925781 1209.335938 365.414062 C 1209.636719 366.171875 1210.851562 365.871094 1210.546875 365.113281 C 1207.667969 356.492188 1200.253906 352.097656 1191.628906 349.984375 C 1174.675781 345.898438 1159.382812 348.316406 1146.519531 334.699219 C 1146.671875 333.339844 1146.671875 332.128906 1146.363281 330.769531 C 1147.730469 330.011719 1149.089844 328.949219 1150.300781 327.742188 C 1185.117188 333.488281 1231.4375 332.429688 1238.25 376.460938 C 1238.398438 377.671875 1239.308594 378.273438 1240.367188 378.429688 C 1239.765625 378.730469 1239.15625 379.332031 1239.308594 380.242188 C 1239.308594 380.542969 1239.308594 380.699219 1239.308594 381 C 1239.15625 380.84375 1238.851562 380.699219 1238.550781 380.542969 C 1232.195312 378.730469 1226.898438 381.902344 1222.65625 386.597656 C 1219.777344 389.777344 1217.507812 393.707031 1214.179688 396.585938 C 1207.519531 402.179688 1201.769531 400.667969 1194.199219 401.570312 C 1188.144531 402.179688 1184.660156 404.90625 1181.632812 409.894531 C 1180.878906 409.445312 1180.121094 408.988281 1179.363281 408.535156 C 1178.003906 407.625 1176.636719 406.566406 1175.433594 405.355469 C 1174.675781 404.597656 1173.460938 405.808594 1174.21875 406.566406 C 1175.433594 407.929688 1176.636719 409.136719 1178.003906 410.199219 C 1178.761719 410.804688 1179.515625 411.40625 1180.421875 411.714844 C 1180.121094 412.316406 1179.820312 412.773438 1179.515625 413.375 C 1176.1875 411.714844 1173.007812 410.046875 1169.980469 407.476562 C 1166.652344 404.449219 1163.769531 401.125 1160.898438 397.640625 C 1160.292969 396.886719 1158.929688 397.945312 1159.539062 398.699219 C 1164.078125 405.054688 1170.28125 413.226562 1178.152344 415.796875 C 1173.460938 423.816406 1168.921875 429.5625 1157.871094 431.382812 C 1156.960938 431.53125 1157.265625 432.894531 1158.023438 432.894531 C 1164.378906 432.589844 1170.28125 430.472656 1174.976562 426.085938 C 1177.851562 423.363281 1179.820312 419.882812 1181.632812 416.554688 C 1182.242188 416.402344 1182.542969 415.796875 1182.390625 415.1875 C 1184.515625 411.558594 1187.085938 408.378906 1191.324219 406.867188 C 1199.34375 403.996094 1207.367188 406.417969 1214.789062 401.269531 C 1223.261719 395.519531 1226.289062 383.722656 1238.097656 383.570312 C 1238.550781 383.570312 1239.007812 383.417969 1239.308594 383.113281 C 1238.699219 392.648438 1233.402344 400.515625 1227.800781 408.234375 C 1222.65625 415.34375 1216.75 423.363281 1209.792969 428.804688 C 1202.070312 434.859375 1195.109375 431.382812 1186.628906 432.589844 C 1183.90625 433.042969 1182.691406 433.800781 1180.273438 434.554688 C 1177.394531 436.371094 1174.066406 437.734375 1170.582031 438.191406 C 1166.800781 437.582031 1163.167969 436.371094 1159.839844 434.710938 C 1158.628906 434.101562 1157.714844 435.769531 1158.78125 436.523438 C 1166.195312 441.664062 1171.492188 443.179688 1179.972656 439.550781 C 1191.019531 434.554688 1202.523438 440.761719 1212.664062 432.742188 C 1221.144531 426.085938 1228.105469 416.253906 1234.160156 407.476562 C 1240.214844 398.855469 1245.363281 390.078125 1243.695312 379.332031 C 1243.546875 378.429688 1242.9375 377.972656 1242.335938 377.820312 C 1243.242188 377.363281 1243.996094 376.609375 1243.847656 375.402344 C 1242.636719 357.246094 1230.984375 341.808594 1214.332031 334.699219 C 1214.179688 334.699219 1214.03125 334.550781 1213.722656 334.550781 C 1221.597656 334.097656 1229.925781 332.429688 1237.492188 329.257812 C 1256.105469 371.164062 1308.027344 379.488281 1346.929688 363.144531 C 1347.539062 362.84375 1347.992188 362.386719 1348.140625 361.785156 C 1348.292969 361.785156 1348.441406 361.933594 1348.597656 361.933594 C 1351.320312 362.542969 1352.535156 358.304688 1349.808594 357.695312 C 1339.515625 355.277344 1330.585938 352.707031 1322.863281 344.835938 C 1317.410156 339.238281 1313.324219 332.28125 1308.9375 325.777344 C 1329.070312 330.011719 1351.167969 327.4375 1366.605469 312.761719 C 1368.429688 310.949219 1365.703125 308.222656 1363.734375 309.890625 C 1350.566406 308.222656 1339.96875 304.140625 1328.617188 297.03125 C 1323.015625 293.546875 1317.566406 290.066406 1311.355469 289.613281 C 1314.082031 287.34375 1316.207031 284.46875 1318.320312 281.746094 C 1319.683594 279.933594 1316.507812 277.507812 1315.140625 279.328125 C 1311.511719 283.558594 1308.328125 287.195312 1303.339844 289.464844 C 1301.519531 281.445312 1298.1875 274.035156 1293.347656 267.226562 C 1292.742188 266.316406 1291.230469 267.070312 1291.832031 268.128906 C 1295.769531 275.238281 1298.796875 282.65625 1300.460938 290.523438 C 1297.585938 291.433594 1294.707031 292.035156 1291.984375 293.246094 C 1288.957031 294.605469 1286.835938 296.574219 1283.960938 298.085938 C 1283.050781 298.691406 1282.148438 298.996094 1281.238281 299.445312 C 1280.632812 297.332031 1279.722656 295.214844 1279.121094 293.09375 C 1278.054688 289.613281 1277.296875 286.136719 1276.542969 282.65625 C 1276.242188 281.597656 1274.578125 281.898438 1274.578125 282.957031 C 1274.726562 288.40625 1275.484375 294.90625 1277.90625 300.054688 C 1277.753906 300.203125 1277.605469 300.203125 1277.453125 300.355469 C 1273.367188 301.113281 1269.28125 300.511719 1264.585938 299.902344 C 1262.769531 299.601562 1262.015625 302.171875 1263.828125 302.625 C 1268.070312 303.683594 1272.457031 304.742188 1276.847656 304.292969 C 1277.605469 304.292969 1278.210938 304.140625 1278.964844 303.984375 C 1297.285156 310.492188 1304.242188 328.347656 1315.449219 342.566406 C 1322.863281 351.953125 1331.492188 357.246094 1342.386719 360.273438 C 1304.097656 374.339844 1261.257812 364.355469 1240.214844 327.742188 C 1247.933594 323.960938 1254.59375 318.359375 1258.53125 310.949219 C 1270.039062 313.820312 1276.542969 320.480469 1282.75 330.617188 C 1287.292969 338.027344 1293.042969 343.476562 1300.460938 348.015625 C 1301.519531 348.617188 1302.429688 347.105469 1301.371094 346.503906 C 1295.316406 342.566406 1290.472656 337.269531 1286.835938 331.070312 C 1284.71875 327.289062 1283.207031 323.351562 1280.480469 320.027344 C 1275.335938 313.519531 1268.214844 309.132812 1260.199219 307.464844 C 1260.800781 305.652344 1261.40625 303.835938 1261.710938 301.871094 C 1261.859375 300.960938 1260.648438 300.65625 1260.347656 301.414062 C 1259.441406 303.535156 1258.53125 305.5 1257.472656 307.320312 C 1256.863281 307.621094 1256.414062 308.222656 1256.261719 308.832031 C 1256.105469 308.832031 1256.105469 308.832031 1255.960938 308.832031 C 1245.210938 310.792969 1234.464844 311.550781 1223.714844 310.191406 C 1222.804688 310.039062 1222.65625 311.550781 1223.5625 311.703125 C 1234.011719 313.21875 1244.152344 313.519531 1254.59375 311.859375 C 1242.9375 326.378906 1223.714844 327.890625 1204.640625 330.316406 C 1204.039062 330.316406 1203.582031 330.617188 1203.28125 330.917969 C 1187.542969 326.230469 1169.375 324.5625 1153.484375 324.261719 C 1153.785156 323.652344 1154.085938 323.203125 1154.386719 322.597656 C 1155.445312 319.871094 1154.6875 317 1153.484375 314.273438 C 1160.742188 299.601562 1183.757812 287.195312 1199.195312 285.527344 C 1199.953125 285.378906 1199.953125 284.167969 1199.195312 284.316406 C 1187.992188 285.226562 1178.605469 290.222656 1169.222656 295.816406 C 1162.257812 299.902344 1155.753906 304.441406 1151.96875 311.402344 C 1151.96875 311.402344 1151.96875 311.402344 1151.96875 311.25 C 1155.753906 300.355469 1163.015625 292.035156 1170.890625 283.714844 C 1178.605469 275.546875 1189.503906 261.929688 1201.164062 260.867188 C 1201.921875 260.867188 1201.921875 259.660156 1201.164062 259.660156 C 1189.503906 260.417969 1179.515625 271.910156 1171.492188 279.476562 C 1164.984375 285.527344 1157.871094 292.492188 1153.175781 300.355469 C 1152.574219 298.84375 1151.210938 297.484375 1149.699219 296.726562 C 1149.242188 296.574219 1148.789062 296.421875 1148.332031 296.273438 C 1148.789062 295.972656 1149.242188 295.515625 1149.242188 294.90625 C 1151.816406 278.417969 1154.84375 263.589844 1160.140625 247.703125 C 1164.078125 235.902344 1165.136719 225.164062 1160.140625 213.515625 C 1157.714844 208.066406 1154.542969 202.769531 1150.757812 198.230469 C 1173.609375 166.914062 1218.875 183.859375 1249.296875 192.78125 C 1249.296875 193.089844 1249.148438 193.238281 1249.148438 193.539062 C 1246.269531 195.660156 1245.511719 199.441406 1246.269531 202.921875 C 1246.421875 203.828125 1246.875 204.886719 1247.332031 205.949219 C 1239.910156 208.820312 1229.925781 208.066406 1222.355469 208.367188 C 1221.292969 208.367188 1221.292969 210.179688 1222.355469 210.179688 C 1229.167969 210.035156 1235.980469 210.636719 1242.636719 210.179688 C 1244.90625 210.035156 1247.179688 209.730469 1248.992188 208.667969 C 1249.296875 208.976562 1249.449219 209.277344 1249.75 209.578125 C 1249.148438 209.425781 1248.539062 209.578125 1248.238281 210.035156 C 1245.664062 213.515625 1245.511719 218.808594 1244.304688 222.894531 C 1242.792969 228.035156 1240.519531 232.121094 1237.339844 236.355469 C 1232.796875 234.996094 1227.957031 234.242188 1222.65625 233.785156 C 1222.203125 233.785156 1222.046875 234.542969 1222.503906 234.695312 C 1231.132812 236.660156 1238.699219 238.929688 1244.90625 243.464844 C 1239.457031 241.953125 1231.738281 244.222656 1227.199219 245.734375 C 1226.140625 246.042969 1226.589844 247.554688 1227.652344 247.25 C 1232.953125 246.042969 1242.484375 243.164062 1247.332031 246.949219 C 1247.78125 247.402344 1248.390625 247.25 1248.847656 246.800781 C 1251.566406 249.519531 1253.835938 252.851562 1255.65625 257.082031 C 1261.558594 270.25 1262.46875 284.167969 1260.800781 298.242188 C 1260.648438 299.144531 1262.160156 299.300781 1262.316406 298.390625 C 1265.945312 282.804688 1263.828125 265.710938 1256.105469 251.488281 C 1252.175781 244.222656 1246.722656 239.839844 1240.214844 237.265625 C 1242.335938 235.453125 1243.996094 233.332031 1245.363281 230.914062 C 1245.820312 230.914062 1246.269531 230.761719 1246.574219 230.15625 C 1250.960938 222.894531 1258.832031 217.144531 1266.554688 213.664062 C 1265.644531 215.476562 1264.738281 217.296875 1263.226562 219.113281 C 1262.015625 220.625 1260.800781 221.835938 1259.589844 223.347656 C 1257.015625 226.675781 1255.65625 230.15625 1256.414062 234.390625 C 1256.5625 235.144531 1257.773438 234.84375 1257.621094 234.085938 C 1256.414062 225.917969 1265.796875 222.285156 1268.523438 215.933594 C 1270.183594 222.59375 1262.46875 238.023438 1262.015625 243.320312 C 1261.257812 250.582031 1262.160156 257.390625 1264.285156 264.347656 C 1264.585938 265.101562 1265.796875 264.800781 1265.496094 264.046875 C 1261.710938 248.914062 1265.1875 238.023438 1270.792969 224.105469 C 1272.308594 220.167969 1272.910156 216.988281 1270.792969 213.964844 C 1270.941406 213.964844 1271.097656 214.117188 1271.242188 214.117188 C 1271.699219 214.269531 1272.15625 214.117188 1272.609375 213.964844 C 1274.125 215.628906 1276.09375 216.6875 1278.363281 216.6875 C 1281.992188 220.625 1278.964844 230.003906 1280.324219 234.84375 C 1281.539062 239.082031 1284.265625 242.710938 1287.59375 245.433594 C 1288.351562 246.042969 1289.410156 244.980469 1288.652344 244.375 C 1284.71875 240.894531 1282.148438 236.355469 1281.992188 230.914062 C 1281.839844 227.132812 1283.351562 223.347656 1282.75 219.714844 C 1282.597656 218.355469 1281.992188 216.988281 1281.390625 215.933594 C 1282.597656 215.476562 1283.660156 214.71875 1284.265625 213.816406 C 1289.714844 222.136719 1296.375 228.335938 1304.097656 234.84375 C 1308.9375 238.929688 1313.933594 243.164062 1316.960938 248.761719 C 1320.894531 255.878906 1319.835938 261.929688 1318.019531 269.339844 C 1317.71875 270.855469 1319.378906 271.609375 1320.4375 270.699219 C 1328.917969 263.742188 1324.53125 250.273438 1319.078125 242.710938 C 1312.871094 234.242188 1304.398438 228.1875 1296.675781 221.078125 C 1315.449219 233.03125 1338.910156 248.613281 1358.433594 232.121094 C 1360.101562 230.761719 1361.308594 229.246094 1362.824219 227.582031 C 1367.515625 222.136719 1368.273438 220.773438 1375.386719 217.144531 C 1379.628906 214.875 1383.410156 212.757812 1386.59375 209.125 C 1387.195312 208.367188 1387.796875 207.609375 1388.40625 206.855469 C 1388.554688 206.855469 1388.710938 206.855469 1388.710938 206.855469 C 1389.765625 206.707031 1389.921875 205.796875 1389.621094 205.039062 C 1393.707031 198.230469 1395.066406 190.210938 1392.949219 182.5 C 1392.492188 181.132812 1390.679688 181.742188 1390.824219 183.101562 C 1391.890625 190.96875 1390.222656 198.386719 1386.285156 204.4375 C 1377.054688 205.796875 1367.972656 205.949219 1358.738281 204.128906 C 1357.832031 203.980469 1357.375 205.339844 1358.28125 205.640625 C 1366.761719 207.609375 1375.238281 208.21875 1383.867188 207.460938 C 1381.140625 210.335938 1377.8125 212.757812 1373.875 214.574219 C 1366.15625 217.898438 1363.886719 221.984375 1357.980469 227.734375 C 1337.699219 247.859375 1309.542969 223.953125 1290.921875 212.90625 C 1290.164062 212.449219 1289.410156 212.605469 1288.804688 213.058594 C 1288.203125 212.304688 1287.59375 211.394531 1286.988281 210.488281 C 1287.746094 209.125 1287.894531 207.609375 1287.894531 205.949219 C 1287.894531 205.191406 1287.59375 203.828125 1287.894531 203.226562 C 1288.351562 202.46875 1290.015625 202.46875 1290.773438 202.011719 C 1291.230469 201.710938 1291.679688 201.410156 1292.132812 201.101562 C 1299.703125 204.128906 1308.027344 204.585938 1316.050781 203.980469 C 1316.960938 203.980469 1316.960938 202.46875 1316.050781 202.46875 C 1308.328125 202.769531 1301.070312 201.101562 1293.648438 199.289062 C 1294.558594 197.628906 1294.707031 195.808594 1294.40625 193.992188 C 1300.460938 193.691406 1306.367188 194.75 1312.421875 193.992188 C 1319.535156 193.089844 1326.648438 191.578125 1333.761719 190.363281 C 1334.519531 190.210938 1334.214844 189 1333.460938 189.152344 C 1325.433594 190.210938 1316.808594 191.878906 1308.636719 192.179688 C 1303.488281 192.332031 1298.492188 191.269531 1293.5 191.722656 C 1293.191406 191.269531 1293.042969 190.96875 1292.742188 190.667969 C 1293.5 190.0625 1294.101562 189.308594 1294.257812 188.242188 C 1301.371094 189.152344 1308.636719 186.730469 1315.449219 183.703125 C 1332.097656 176.292969 1348.898438 167.816406 1367.363281 174.625 C 1368.121094 174.933594 1368.429688 173.722656 1367.671875 173.570312 C 1355.710938 168.882812 1343.296875 170.242188 1331.1875 174.324219 C 1318.320312 178.714844 1306.96875 186.582031 1293.800781 184.914062 C 1293.347656 183.859375 1292.589844 182.949219 1291.832031 182.191406 C 1289.261719 179.472656 1282.902344 177.804688 1281.539062 182.644531 C 1281.082031 184.3125 1282.597656 185.671875 1284.265625 185.371094 C 1284.71875 185.21875 1285.019531 185.070312 1285.324219 185.070312 C 1285.476562 185.21875 1285.476562 185.21875 1285.625 185.371094 C 1286.988281 186.128906 1288.203125 186.730469 1289.5625 187.183594 C 1289.863281 187.640625 1290.015625 188.09375 1289.863281 188.242188 C 1288.957031 187.792969 1287.894531 187.488281 1286.835938 187.488281 C 1285.019531 187.488281 1283.960938 189.910156 1285.324219 191.121094 C 1286.078125 191.722656 1287.136719 192.480469 1288.046875 193.089844 C 1287.445312 193.847656 1287.894531 195.050781 1289.105469 194.75 C 1289.261719 194.75 1289.261719 194.75 1289.410156 194.75 C 1289.5625 195.359375 1289.5625 195.808594 1289.105469 196.566406 C 1288.203125 198.078125 1286.078125 198.078125 1284.867188 199.441406 C 1283.808594 200.65625 1283.351562 202.167969 1283.351562 203.828125 C 1283.351562 205.191406 1284.265625 208.21875 1282.902344 208.976562 C 1282.148438 209.425781 1281.992188 210.035156 1281.839844 210.636719 C 1281.238281 211.089844 1280.632812 211.695312 1279.722656 212.148438 C 1277.90625 212.90625 1275.9375 212.449219 1274.726562 210.9375 C 1274.578125 210.789062 1274.425781 210.789062 1274.269531 210.636719 C 1273.066406 208.21875 1269.582031 206.855469 1267.15625 206.398438 C 1263.984375 205.949219 1260.957031 206.855469 1258.378906 208.820312 L 1258.230469 208.976562 C 1258.230469 208.820312 1258.074219 208.667969 1258.074219 208.667969 C 1256.714844 206.550781 1254.292969 205.640625 1252.777344 203.371094 C 1251.875 202.011719 1250.660156 199.441406 1250.808594 197.476562 C 1253.078125 197.320312 1253.835938 194.449219 1253.835938 192.332031 C 1253.835938 190.820312 1253.535156 189.609375 1255.203125 188.699219 C 1256.261719 188.09375 1257.472656 187.941406 1258.53125 187.488281 C 1260.046875 191.578125 1260.648438 195.808594 1262.015625 200.046875 C 1262.617188 201.859375 1264.433594 202.011719 1265.644531 201.257812 C 1266.253906 203.980469 1269.882812 204.4375 1270.941406 201.558594 C 1271.242188 200.800781 1271.398438 199.898438 1271.699219 199.140625 C 1274.578125 196.117188 1275.636719 191.269531 1277.296875 187.488281 C 1278.964844 183.554688 1280.933594 179.621094 1282.75 175.691406 C 1283.207031 175.992188 1283.808594 176.140625 1284.265625 175.691406 C 1285.324219 174.78125 1286.535156 173.871094 1287.746094 172.964844 C 1304.242188 170.394531 1314.992188 160.253906 1326.492188 147.847656 C 1327.40625 146.945312 1325.890625 145.429688 1325.132812 146.488281 C 1319.535156 152.386719 1313.628906 158.292969 1306.96875 162.828125 C 1302.582031 165.703125 1298.042969 167.367188 1293.191406 168.726562 C 1299.703125 163.277344 1305.910156 156.925781 1308.484375 149.214844 C 1310.753906 142.25 1309.84375 134.230469 1309.695312 126.96875 C 1309.542969 118.199219 1309.542969 109.421875 1309.238281 100.796875 C 1309.238281 99.585938 1307.425781 99.585938 1307.425781 100.796875 C 1307.269531 115.019531 1309.394531 131.207031 1306.210938 145.125 C 1303.789062 156.023438 1295.464844 161.617188 1288.046875 168.574219 C 1288.046875 168.273438 1288.046875 167.816406 1287.894531 167.515625 C 1287.292969 166.457031 1286.835938 165.546875 1286.382812 164.492188 C 1295.617188 158.59375 1298.34375 146.035156 1298.1875 135.746094 C 1298.1875 134.53125 1296.375 134.53125 1296.375 135.746094 C 1296.21875 146.035156 1292.890625 155.414062 1285.175781 161.917969 C 1284.109375 159.804688 1283.207031 157.835938 1282.449219 155.714844 C 1282.597656 155.265625 1282.597656 154.808594 1282.449219 154.203125 C 1278.054688 134.839844 1276.695312 111.839844 1290.015625 95.503906 C 1294.707031 89.753906 1300.613281 84.910156 1305.609375 79.308594 C 1312.722656 71.441406 1319.078125 62.519531 1329.375 65.390625 C 1328.917969 65.691406 1328.617188 66.601562 1329.21875 67.207031 C 1334.671875 74.167969 1334.671875 85.359375 1335.429688 93.683594 C 1336.03125 100.644531 1336.488281 107.753906 1336.488281 114.714844 C 1336.488281 115.621094 1338 115.621094 1338 114.714844 C 1338.152344 104.125 1338.152344 93.683594 1336.941406 83.246094 C 1336.183594 77.195312 1336.03125 70.539062 1331.644531 66.148438 C 1332.855469 66.601562 1333.914062 67.207031 1335.125 67.960938 C 1336.183594 68.570312 1337.398438 67.058594 1336.488281 66.300781 C 1330.277344 60.851562 1322.105469 59.949219 1315.140625 64.632812 C 1310.753906 67.511719 1307.878906 72.199219 1304.546875 75.980469 C 1300.3125 80.820312 1295.316406 84.910156 1290.773438 89.449219 C 1283.050781 97.015625 1278.511719 105.785156 1276.242188 115.019531 C 1275.636719 111.839844 1274.726562 108.8125 1273.066406 105.636719 C 1269.128906 97.773438 1263.828125 89.597656 1256.105469 84.910156 C 1249.90625 81.128906 1242.9375 80.066406 1235.824219 79.617188 C 1235.523438 79.160156 1235.371094 78.859375 1235.070312 78.40625 C 1234.160156 77.039062 1232.195312 78.105469 1232.644531 79.464844 C 1231.285156 79.464844 1230.074219 79.308594 1228.710938 79.308594 C 1227.199219 79.308594 1227.347656 81.429688 1228.710938 81.578125 C 1230.527344 81.730469 1232.496094 81.886719 1234.3125 82.1875 C 1238.699219 89.296875 1243.09375 96.40625 1246.269531 104.125 C 1246.574219 104.726562 1247.632812 104.273438 1247.480469 103.671875 C 1244.605469 96.40625 1241.578125 89.449219 1237.792969 82.789062 C 1248.539062 84.757812 1257.773438 88.996094 1264.285156 99.433594 C 1270.488281 109.265625 1272 118.34375 1272.15625 129.691406 C 1272.457031 141.496094 1273.214844 157.078125 1281.539062 166.613281 C 1280.78125 166.761719 1280.179688 167.214844 1279.875 167.816406 C 1279.121094 169.636719 1279.269531 171.753906 1280.632812 173.113281 C 1278.210938 176.894531 1275.9375 180.832031 1273.820312 184.769531 C 1273.96875 177.804688 1273.367188 170.84375 1272.15625 165.097656 C 1273.667969 163.886719 1274.125 161.464844 1272.457031 159.953125 C 1271.851562 159.496094 1271.242188 159.195312 1270.640625 159.046875 C 1270.339844 158.894531 1270.183594 158.894531 1269.882812 158.894531 C 1269.128906 158.742188 1268.371094 159.046875 1267.765625 159.496094 C 1265.34375 150.726562 1260.199219 141.195312 1262.316406 133.476562 C 1262.617188 132.417969 1260.957031 131.960938 1260.648438 133.019531 C 1257.320312 145.878906 1267.011719 157.835938 1264.886719 170.085938 C 1263.828125 168.425781 1262.617188 167.0625 1261.558594 166.003906 C 1260.957031 165.402344 1260.347656 164.792969 1259.742188 164.1875 C 1260.5 163.132812 1260.648438 161.917969 1260.046875 160.707031 C 1258.988281 158.894531 1256.5625 158.4375 1254.902344 159.496094 C 1254.746094 159.652344 1254.59375 159.804688 1254.445312 159.953125 C 1246.269531 153.898438 1237.339844 148.457031 1235.070312 137.558594 C 1234.914062 136.65625 1233.554688 136.957031 1233.707031 138.015625 C 1234.914062 145.277344 1238.550781 150.574219 1243.996094 155.414062 C 1245.363281 156.625 1249.601562 159.496094 1253.6875 162.828125 C 1253.6875 162.976562 1253.6875 162.976562 1253.6875 163.132812 C 1253.835938 164.035156 1254.59375 164.945312 1255.351562 165.246094 C 1255.203125 165.546875 1255.203125 166.003906 1255.351562 166.304688 C 1255.804688 167.515625 1256.261719 168.574219 1256.714844 169.785156 C 1251.265625 166.003906 1244.90625 163.132812 1239.457031 160.105469 C 1220.992188 149.96875 1209.035156 132.570312 1206.910156 111.535156 C 1206.765625 110.175781 1204.796875 110.175781 1204.796875 111.535156 C 1206.007812 126.96875 1212.363281 141.496094 1223.5625 152.386719 C 1228.257812 156.925781 1233.554688 160.253906 1238.851562 163.433594 C 1238.550781 163.585938 1238.25 163.734375 1238.097656 164.035156 C 1237.339844 164.644531 1237.1875 165.546875 1237.492188 166.457031 C 1236.882812 168.726562 1238.699219 170.996094 1241.277344 170.84375 C 1242.335938 170.84375 1243.394531 170.242188 1243.996094 169.484375 C 1243.996094 170.085938 1244.152344 170.542969 1244.753906 170.996094 C 1249.90625 174.625 1254.445312 178.863281 1257.320312 184.460938 C 1257.320312 184.613281 1257.472656 184.613281 1257.472656 184.769531 C 1255.203125 185.371094 1252.777344 187.183594 1251.71875 189 C 1251.71875 189.152344 1251.566406 189.152344 1251.566406 189.308594 C 1245.511719 185.671875 1238.398438 182.949219 1230.828125 180.984375 C 1222.503906 173.570312 1212.210938 168.425781 1203.882812 160.707031 C 1195.410156 152.84375 1188.445312 143.160156 1185.417969 131.960938 C 1181.9375 119.402344 1186.027344 110.632812 1189.054688 98.832031 C 1190.570312 92.777344 1190.414062 85.214844 1195.710938 80.675781 C 1201.613281 75.679688 1212.515625 79.617188 1218.875 80.976562 C 1220.6875 81.277344 1221.292969 78.859375 1219.628906 78.25 C 1209.9375 74.46875 1196.316406 72.5 1188.902344 81.730469 C 1184.515625 87.328125 1185.269531 95.195312 1183 101.703125 C 1180.878906 107.90625 1178.910156 113.503906 1178.910156 120.160156 C 1178.761719 143.765625 1197.226562 166.15625 1217.964844 178.410156 C 1208.425781 176.894531 1198.738281 176.445312 1190.261719 176.59375 C 1174.976562 176.894531 1157.113281 182.191406 1149.546875 196.566406 C 1138.949219 185.371094 1124.414062 178.410156 1108.375 180.984375 C 1107.617188 180.230469 1106.101562 180.53125 1105.949219 181.890625 L 1105.949219 182.042969 C 1105.949219 182.191406 1105.949219 182.5 1105.949219 182.644531 C 1105.949219 189 1107.316406 195.050781 1110.34375 200.800781 C 1110.792969 201.710938 1112.003906 200.957031 1111.550781 200.046875 C 1109.277344 194.75 1108.21875 189.152344 1108.375 183.402344 C 1133.953125 181.890625 1158.023438 202.921875 1159.382812 229.09375 C 1159.988281 241.351562 1153.328125 253.152344 1150.148438 264.648438 C 1147.429688 274.484375 1145.304688 285.074219 1145.605469 295.214844 C 1145.605469 295.972656 1145.914062 296.421875 1146.363281 296.875 C 1144.09375 296.875 1141.824219 297.484375 1139.859375 298.542969 C 1139.550781 297.632812 1139.101562 296.726562 1138.347656 296.121094 C 1137.28125 295.214844 1136.074219 294.605469 1134.710938 294.457031 C 1136.378906 287.042969 1140.765625 280.6875 1141.675781 273.125 C 1142.433594 267.371094 1141.21875 261.929688 1138.648438 256.78125 C 1138.191406 255.878906 1136.679688 256.480469 1136.980469 257.390625 C 1140.765625 267.371094 1139.101562 274.9375 1134.863281 284.46875 C 1133.351562 287.953125 1131.984375 291.125 1131.835938 294.605469 C 1131.535156 294.605469 1131.378906 294.761719 1131.078125 294.761719 C 1130.777344 294.90625 1130.46875 295.0625 1130.167969 295.214844 C 1123.210938 277.964844 1128.957031 261.777344 1128.050781 243.921875 C 1127.441406 232.726562 1125.628906 219.414062 1116.847656 211.546875 C 1116.089844 210.789062 1114.882812 212 1115.640625 212.757812 C 1128.507812 225.3125 1126.6875 247.859375 1124.722656 264.199219 C 1123.511719 273.878906 1122.144531 284.316406 1126.238281 293.246094 C 1120.328125 286.585938 1112.460938 279.023438 1115.183594 270.25 C 1115.488281 269.339844 1114.125 269.039062 1113.820312 269.945312 C 1110.34375 280.085938 1120.328125 290.523438 1126.539062 297.785156 C 1126.082031 298.242188 1125.628906 298.84375 1125.171875 299.300781 C 1124.265625 298.242188 1122.902344 297.332031 1121.695312 296.574219 C 1117.605469 293.851562 1113.371094 291.277344 1111.855469 286.285156 C 1111.550781 285.226562 1110.1875 285.683594 1110.34375 286.738281 C 1110.792969 290.066406 1112.761719 292.792969 1115.332031 294.90625 C 1117.910156 297.03125 1122.144531 298.84375 1123.660156 302.023438 C 1123.355469 302.78125 1123.210938 303.535156 1123.054688 304.140625 C 1102.621094 289.164062 1080.519531 273.578125 1068.863281 250.730469 C 1068.863281 250.429688 1068.714844 250.128906 1068.410156 249.824219 C 1066.894531 246.644531 1065.535156 243.464844 1064.324219 240.140625 C 1062.050781 233.183594 1061.148438 226.976562 1062.050781 221.378906 C 1065.234375 230.457031 1069.773438 238.78125 1075.527344 246.492188 C 1075.976562 247.101562 1076.886719 246.492188 1076.433594 245.890625 C 1070.378906 236.8125 1066.136719 226.976562 1063.265625 216.539062 C 1064.019531 214.71875 1064.933594 212.90625 1066.136719 211.246094 C 1066.445312 215.175781 1068.5625 219.257812 1070.378906 222.4375 C 1070.832031 223.195312 1071.742188 222.59375 1071.4375 221.835938 C 1070.378906 219.714844 1069.472656 217.445312 1068.863281 215.175781 C 1068.410156 213.207031 1068.410156 211.089844 1067.960938 209.125 C 1070.230469 206.550781 1073.257812 204.28125 1077.042969 202.316406 C 1084.300781 198.386719 1092.628906 195.359375 1097.777344 188.550781 C 1098.535156 187.640625 1097.019531 186.882812 1096.265625 187.488281 C 1086.269531 195.507812 1072.949219 198.835938 1063.71875 207.609375 C 1054.785156 216.234375 1055.84375 228.945312 1059.023438 239.992188 C 1059.480469 241.804688 1060.082031 243.621094 1060.839844 245.433594 C 1050.246094 239.839844 1039.648438 237.265625 1026.9375 236.964844 C 1010.132812 236.511719 993.023438 235.144531 976.226562 235.753906 C 975.167969 235.453125 973.957031 235.144531 972.742188 234.84375 C 971.230469 234.542969 970.472656 236.8125 972.140625 237.265625 C 972.441406 237.414062 972.898438 237.570312 973.199219 237.570312 C 973.347656 237.722656 973.65625 237.871094 973.957031 238.023438 C 974.105469 238.023438 974.257812 238.023438 974.410156 238.023438 C 990.753906 244.53125 998.777344 267.527344 1016.039062 272.214844 C 1005.441406 272.820312 994.539062 275.089844 986.519531 282.355469 C 975.316406 292.636719 979.554688 305.953125 973.046875 318.210938 C 972.441406 319.269531 974.105469 320.328125 974.714844 319.269531 C 981.222656 308.980469 977.4375 295.816406 986.667969 286.738281 C 996.964844 276.605469 1012.855469 275.546875 1026.632812 276.304688 C 1053.726562 277.816406 1073.859375 290.222656 1094.898438 306.105469 C 1097.019531 307.621094 1098.988281 304.441406 1097.476562 302.625 C 1080.519531 283.109375 1050.851562 273.125 1025.269531 272.214844 C 1025.570312 271.609375 1025.570312 270.699219 1024.8125 270.398438 C 1012.402344 264.957031 1003.019531 259.808594 993.78125 249.671875 C 990.152344 245.734375 986.519531 241.652344 982.28125 238.78125 C 994.539062 239.683594 1007.105469 239.535156 1019.367188 240.140625 C 1027.839844 240.441406 1036.472656 240.441406 1044.644531 243.015625 C 1051.300781 244.980469 1057.355469 248.613281 1063.566406 251.941406 C 1067.503906 260.109375 1072.648438 267.527344 1078.703125 274.335938 C 1058.570312 262.53125 1036.921875 253 1015.128906 247.101562 C 1014.070312 246.800781 1013.613281 248.3125 1014.671875 248.761719 C 1034.203125 254.8125 1052.367188 263.441406 1069.921875 273.726562 C 1078.101562 278.574219 1086.125 283.867188 1093.992188 289.3125 C 1100.652344 295.0625 1107.765625 300.203125 1114.882812 305.195312 C 1114.882812 305.652344 1114.882812 306.105469 1115.183594 306.5625 C 1115.183594 306.710938 1115.332031 306.710938 1115.488281 306.863281 L 1115.488281 307.011719 C 1115.640625 307.464844 1115.941406 308.074219 1116.398438 308.375 C 1116.546875 308.679688 1116.699219 308.980469 1117 309.132812 C 1119.574219 311.101562 1122.144531 313.21875 1124.570312 315.183594 C 1122.902344 314.882812 1121.238281 314.578125 1119.425781 313.820312 C 1115.332031 312.003906 1111.703125 309.28125 1108.375 306.5625 C 1108.828125 305.195312 1108.375 303.535156 1107.160156 302.472656 C 1105.347656 300.8125 1102.320312 301.113281 1101.105469 303.382812 C 1099.746094 305.804688 1101.710938 308.679688 1104.289062 308.679688 C 1104.589844 308.679688 1104.738281 308.679688 1105.042969 308.523438 C 1108.070312 311.703125 1112.460938 315.789062 1117.15625 318.511719 C 1115.183594 318.8125 1113.214844 318.96875 1111.246094 319.117188 C 1094.597656 317.300781 1084.757812 300.65625 1067.960938 298.84375 C 1066.894531 298.691406 1066.59375 300.65625 1067.652344 300.8125 C 1079.761719 302.472656 1089.152344 313.820312 1100.351562 319.117188 C 1094.75 318.8125 1089.296875 317.757812 1084.15625 316.242188 C 1084 314.429688 1082.640625 312.613281 1080.519531 312.761719 C 1077.644531 312.914062 1075.527344 315.941406 1076.285156 318.667969 C 1076.585938 319.570312 1077.1875 320.179688 1077.945312 320.628906 C 1077.644531 320.628906 1077.492188 320.480469 1077.1875 320.480469 C 1067.804688 317.910156 1061.449219 309.589844 1052.820312 305.652344 C 1038.589844 299.144531 1022.695312 299.445312 1007.558594 301.714844 C 1006.347656 301.871094 1006.957031 303.683594 1008.015625 303.535156 C 1019.214844 302.023438 1030.71875 301.414062 1041.769531 304.140625 C 1051.457031 306.410156 1057.8125 311.402344 1065.535156 317.300781 C 1074.617188 324.109375 1085.816406 325.472656 1096.867188 323.960938 C 1101.5625 324.5625 1106.25 324.71875 1111.246094 324.71875 C 1111.703125 324.71875 1112.003906 324.71875 1112.460938 324.71875 C 1109.734375 326.378906 1107.007812 328.191406 1104.4375 330.011719 C 1104.4375 329.40625 1103.832031 328.949219 1103.222656 329.101562 C 1097.625 330.917969 1092.324219 333.039062 1086.269531 331.527344 C 1082.488281 330.617188 1079.15625 328.347656 1075.527344 326.988281 C 1069.773438 324.867188 1064.324219 324.410156 1058.421875 325.921875 C 1057.210938 326.230469 1057.8125 327.890625 1058.878906 327.742188 C 1070.074219 325.472656 1076.734375 332.128906 1086.726562 334.398438 C 1089.753906 335.15625 1092.628906 335 1095.507812 334.246094 C 1095.507812 334.699219 1095.507812 335 1095.65625 335.457031 C 1096.410156 337.578125 1098.535156 338.335938 1100.503906 338.027344 C 1101.5625 337.878906 1102.164062 336.820312 1102.320312 335.910156 C 1109.277344 332.730469 1115.789062 329.257812 1122.753906 326.378906 C 1117.15625 331.21875 1112.15625 336.96875 1108.976562 343.324219 C 1108.675781 343.175781 1108.375 343.175781 1107.917969 343.324219 C 1095.808594 350.285156 1088.085938 360.574219 1080.070312 371.621094 C 1079.613281 372.375 1080.671875 373.132812 1081.273438 372.523438 C 1085.214844 367.835938 1089.152344 362.992188 1093.238281 358.304688 C 1096.265625 354.824219 1099.894531 352.097656 1103.53125 349.527344 C 1103.53125 349.683594 1103.53125 349.984375 1103.679688 350.132812 C 1103.980469 351.34375 1104.890625 352.253906 1105.949219 352.707031 C 1103.222656 357.394531 1100.652344 362.234375 1097.777344 367.082031 C 1091.421875 377.820312 1076.433594 384.929688 1076.433594 398.699219 C 1076.433594 399.457031 1077.644531 399.457031 1077.644531 398.699219 C 1077.945312 388.261719 1086.425781 384.171875 1092.628906 377.671875 C 1096.109375 374.039062 1098.988281 369.800781 1101.5625 365.414062 C 1104.132812 361.03125 1106.707031 356.792969 1109.433594 352.554688 C 1110.035156 352.097656 1110.492188 351.496094 1110.644531 350.738281 L 1110.644531 350.585938 C 1114.882812 344.234375 1119.269531 338.179688 1124.570312 332.28125 C 1124.722656 332.128906 1125.023438 331.976562 1125.171875 331.828125 C 1124.414062 333.039062 1123.660156 334.398438 1123.054688 335.457031 C 1121.386719 338.484375 1120.027344 341.359375 1119.117188 344.535156 C 1119.117188 343.929688 1118.96875 343.175781 1118.96875 342.566406 C 1118.816406 341.207031 1116.699219 341.054688 1116.699219 342.566406 C 1117 355.582031 1110.792969 364.203125 1106.40625 375.550781 C 1104.589844 380.242188 1104.589844 384.171875 1107.160156 388.5625 C 1107.617188 389.320312 1108.675781 388.5625 1108.21875 387.957031 C 1103.378906 379.03125 1112.613281 369.652344 1115.789062 361.785156 C 1116.699219 359.363281 1117.605469 357.09375 1118.210938 354.671875 C 1118.515625 354.824219 1118.816406 354.976562 1119.117188 354.976562 C 1121.996094 355.582031 1123.8125 352.707031 1122.453125 350.285156 C 1122.144531 349.683594 1121.542969 349.375 1120.9375 349.226562 C 1121.84375 347.257812 1122.902344 345.144531 1123.964844 343.175781 C 1124.414062 344.535156 1125.023438 345.898438 1125.78125 346.957031 C 1125.023438 347.105469 1124.265625 347.558594 1124.113281 348.617188 C 1120.9375 367.835938 1121.542969 388.710938 1128.957031 406.109375 C 1123.660156 408.6875 1119.726562 412.917969 1115.640625 417.457031 C 1107.765625 426.535156 1102.015625 431.230469 1089.296875 430.625 C 1082.03125 430.320312 1075.375 430.320312 1069.472656 435.011719 C 1066.136719 437.582031 1063.71875 441.0625 1060.992188 444.089844 C 1061.75 438.191406 1063.109375 432.742188 1065.835938 427.292969 C 1066.292969 426.535156 1065.078125 425.78125 1064.625 426.535156 C 1061.148438 432.589844 1058.722656 439.703125 1058.570312 446.660156 C 1056.152344 449.082031 1053.425781 451.050781 1049.792969 451.957031 C 1048.28125 452.410156 1048.882812 454.527344 1050.398438 454.226562 C 1057.511719 453.167969 1061.296875 448.023438 1065.988281 442.878906 C 1070.230469 438.339844 1074.160156 434.859375 1080.824219 434.410156 C 1086.425781 433.953125 1091.871094 435.921875 1097.476562 435.3125 C 1113.0625 433.800781 1118.515625 417.15625 1130.925781 410.199219 C 1131.078125 410.347656 1131.078125 410.503906 1131.078125 410.648438 C 1130.625 410.957031 1130.324219 411.558594 1130.324219 412.164062 C 1130.324219 430.472656 1116.546875 441.21875 1102.015625 449.539062 C 1086.878906 458.160156 1069.320312 462.089844 1052.667969 455.4375 C 1051.457031 454.980469 1050.699219 456.796875 1051.757812 457.40625 C 1070.230469 467.085938 1090.210938 462.246094 1107.464844 451.957031 C 1120.484375 444.089844 1134.253906 432.742188 1135.011719 416.855469 C 1136.222656 418.671875 1137.589844 420.335938 1139.101562 421.996094 C 1129.566406 437.734375 1121.84375 454.679688 1116.242188 472.234375 C 1113.214844 476.015625 1110.1875 479.34375 1105.800781 481.457031 C 1101.410156 483.578125 1096.566406 484.027344 1092.628906 487.054688 C 1091.570312 487.8125 1092.480469 489.324219 1093.539062 488.722656 C 1098.835938 486.152344 1104.738281 485.542969 1109.734375 482.515625 C 1111.246094 481.613281 1112.761719 480.554688 1114.125 479.34375 C 1108.976562 497.644531 1105.949219 516.710938 1105.347656 535.777344 C 1105.347656 536.835938 1106.859375 536.683594 1106.859375 535.777344 C 1108.070312 521.707031 1110.1875 508.089844 1113.519531 494.621094 C 1116.242188 503.25 1121.386719 512.171875 1128.808594 517.011719 C 1128.957031 517.011719 1128.957031 517.167969 1129.109375 517.167969 C 1128.808594 518.828125 1128.65625 520.339844 1128.808594 521.707031 C 1129.714844 528.207031 1136.523438 535.46875 1142.433594 537.894531 C 1143.644531 538.347656 1144.546875 536.535156 1143.644531 535.777344 C 1139.707031 532.597656 1134.710938 528.816406 1132.4375 524.277344 C 1131.535156 522.609375 1131.378906 520.648438 1131.683594 518.828125 L 1131.835938 518.980469 C 1136.523438 523.21875 1144.546875 523.671875 1150.601562 523.367188 C 1151.660156 523.367188 1151.660156 521.707031 1150.601562 521.707031 C 1147.273438 521.707031 1144.09375 521.25 1141.066406 520.191406 C 1138.347656 519.28125 1135.769531 517.769531 1133.046875 517.011719 C 1132.59375 516.859375 1132.292969 517.011719 1131.984375 517.316406 C 1132.136719 516.867188 1132.292969 516.257812 1132.4375 515.800781 C 1134.40625 515.957031 1136.378906 514.441406 1138.191406 514.140625 C 1140.617188 513.6875 1142.886719 513.832031 1145.304688 514.140625 C 1146.0625 514.289062 1146.363281 513.078125 1145.761719 512.628906 C 1143.335938 511.261719 1140.617188 510.960938 1137.890625 511.417969 C 1136.679688 511.570312 1135.164062 511.871094 1133.804688 512.472656 C 1135.464844 508.992188 1137.890625 505.820312 1139.859375 503.550781 C 1140.007812 503.394531 1140.007812 503.09375 1140.160156 502.941406 C 1140.308594 503.09375 1140.308594 503.09375 1140.460938 503.25 C 1148.03125 509.902344 1156.054688 513.382812 1165.894531 511.71875 C 1165.136719 513.382812 1164.683594 515.5 1164.984375 517.167969 C 1165.136719 518.378906 1165.742188 519.4375 1166.496094 520.339844 C 1167.554688 521.550781 1170.132812 522.917969 1169.679688 525.03125 C 1168.164062 525.488281 1169.980469 526.390625 1170.433594 525.1875 Z M 1159.539062 538.195312 C 1155.902344 537.738281 1152.117188 537.136719 1148.488281 536.378906 C 1147.574219 536.226562 1147.730469 534.566406 1148.789062 534.566406 C 1153.027344 534.867188 1157.265625 535.324219 1161.5 535.625 C 1164.226562 535.925781 1167.253906 535.625 1168.164062 532.445312 C 1168.464844 531.539062 1168.464844 530.785156 1168.769531 530.027344 C 1166.195312 530.628906 1163.46875 530.328125 1160.898438 530.027344 C 1158.472656 529.726562 1156.054688 529.417969 1153.785156 528.359375 C 1153.027344 528.058594 1153.484375 527 1154.085938 527 C 1156.660156 526.699219 1159.230469 527.300781 1161.957031 527.300781 C 1164.378906 527.457031 1166.652344 527.148438 1169.070312 527.605469 C 1169.679688 527.757812 1169.828125 528.210938 1169.980469 528.660156 C 1170.433594 528.660156 1170.738281 528.816406 1170.890625 529.269531 C 1172.097656 532.597656 1169.980469 536.984375 1166.652344 538.195312 C 1164.378906 539.105469 1161.808594 538.496094 1159.539062 538.195312 Z M 923.851562 307.320312 C 922.792969 301.414062 920.21875 297.175781 916.582031 292.792969 C 927.03125 296.121094 938.082031 297.632812 947.464844 303.683594 C 957.910156 310.34375 963.058594 320.628906 965.777344 332.28125 C 962.75 332.28125 959.878906 332.730469 957.152344 333.796875 C 952.007812 320.9375 942.316406 310.492188 930.816406 302.925781 C 929.605469 302.171875 928.546875 303.984375 929.757812 304.742188 C 940.65625 312.761719 948.070312 323.203125 953.976562 335.15625 C 951.707031 336.367188 949.582031 337.878906 947.769531 339.539062 C 947.613281 339.539062 947.464844 339.539062 947.3125 339.539062 C 946.101562 339.695312 945.042969 339.695312 943.832031 339.847656 C 943.683594 339.238281 943.226562 338.785156 942.46875 338.484375 C 927.332031 333.488281 926.121094 320.628906 923.851562 307.320312 Z M 966.6875 334.246094 C 966.84375 334.398438 966.84375 334.398438 966.992188 334.550781 C 966.085938 341.660156 967.601562 348.316406 973.347656 355.277344 C 979.402344 362.542969 986.96875 368.742188 995.75 371.921875 C 995.296875 382.660156 988.9375 387.050781 983.640625 395.21875 C 980.464844 399.910156 978.953125 405.507812 978.644531 411.105469 C 977.132812 410.804688 975.46875 410.957031 974.410156 411.257812 C 977.742188 404.597656 979.101562 396.429688 979.554688 389.320312 C 979.554688 388.410156 978.195312 388.261719 978.042969 389.167969 C 977.132812 393.558594 976.074219 397.945312 974.714844 402.179688 C 973.65625 405.507812 971.988281 408.535156 970.773438 411.714844 C 970.320312 411.714844 969.871094 411.714844 969.414062 411.714844 C 969.414062 411.714844 969.414062 411.714844 969.261719 411.714844 C 969.714844 411.558594 970.019531 411.40625 970.019531 410.804688 C 971.230469 403.996094 969.414062 398.246094 967.144531 391.738281 C 963.359375 380.699219 962.300781 371.164062 965.777344 359.816406 C 966.085938 358.761719 964.417969 358.304688 964.117188 359.363281 C 961.691406 366.324219 960.632812 373.28125 961.691406 380.699219 C 963.058594 391.136719 968.203125 399.910156 967.601562 410.648438 C 967.601562 411.105469 967.902344 411.558594 968.203125 411.714844 C 968.050781 411.714844 968.050781 411.714844 967.902344 411.714844 C 965.632812 411.40625 963.359375 411.105469 961.089844 411.257812 C 962.449219 400.058594 952.464844 389.019531 947.164062 379.941406 C 935.054688 359.0625 943.074219 338.785156 966.6875 334.246094 Z M 952.007812 412.46875 C 945.496094 398.546875 934.746094 386.441406 923.703125 375.402344 C 926.730469 378.273438 929.90625 381.148438 932.933594 384.023438 C 941.558594 392.347656 950.339844 400.515625 952.007812 412.46875 Z M 925.972656 383.269531 C 924.304688 380.84375 922.492188 378.578125 920.824219 376.160156 C 931.117188 387.808594 941.109375 399.457031 949.28125 413.074219 C 939.746094 406.265625 932.175781 391.738281 925.972656 383.269531 Z M 951.707031 421.546875 C 952.007812 421.546875 952.464844 421.546875 952.765625 421.546875 C 954.277344 421.546875 955.035156 420.183594 955.035156 418.824219 C 955.492188 418.671875 955.941406 418.214844 955.941406 417.613281 C 956.09375 417.007812 956.09375 416.554688 956.09375 415.945312 C 956.246094 415.945312 956.394531 415.945312 956.695312 415.796875 C 959.878906 413.984375 962.449219 414.132812 965.476562 414.738281 C 965.328125 415.496094 965.328125 416.253906 965.476562 417.007812 C 965.777344 418.671875 966.085938 420.183594 966.386719 421.546875 C 965.175781 420.484375 963.660156 420.035156 961.847656 420.183594 C 960.480469 420.335938 959.273438 420.9375 958.0625 421.695312 C 957.304688 421.546875 956.695312 421.996094 956.394531 422.605469 L 956.246094 422.605469 C 953.667969 423.964844 951.097656 423.964844 948.523438 423.964844 C 948.828125 423.664062 949.28125 423.363281 949.738281 422.90625 C 950.339844 422.753906 951.097656 422.152344 951.707031 421.546875 Z M 868.902344 437.28125 C 866.9375 437.128906 864.96875 437.128906 863 436.980469 L 862.847656 436.824219 C 858.160156 432.742188 852.25 430.472656 847.5625 426.234375 C 842.265625 421.394531 839.839844 416.097656 836.8125 409.746094 C 836.210938 408.535156 834.542969 409.445312 834.84375 410.648438 C 836.210938 417.3125 839.839844 423.363281 844.535156 428.050781 C 847.5625 431.074219 851.496094 434.410156 855.734375 436.824219 C 853.316406 436.824219 850.890625 436.679688 848.46875 436.679688 C 835.753906 422.605469 820.617188 411.257812 823.042969 390.832031 C 829.097656 402.636719 848.320312 400.367188 852.40625 414.433594 C 852.558594 415.1875 853.160156 415.496094 853.765625 415.644531 C 850.890625 423.664062 860.273438 431.984375 868.902344 437.28125 Z M 819.859375 435.011719 C 819.859375 435.164062 819.859375 435.164062 819.859375 435.3125 C 819.707031 435.164062 819.558594 435.011719 819.40625 434.859375 C 814.5625 432.140625 812.292969 428.503906 808.964844 424.265625 C 805.9375 420.335938 802.605469 416.855469 798.824219 413.527344 C 797.910156 412.617188 796.398438 413.984375 797.457031 414.886719 C 801.996094 419.582031 806.082031 424.722656 809.566406 430.472656 C 810.023438 431.230469 810.476562 431.984375 811.078125 432.742188 C 797.910156 422.453125 780.804688 408.378906 779.59375 392.046875 C 782.773438 398.398438 789.886719 401.570312 796.246094 404.90625 C 809.566406 411.714844 820.316406 418.523438 819.859375 435.011719 Z M 768.09375 430.625 C 768.09375 430.773438 768.09375 430.773438 768.09375 430.625 C 765.367188 427.445312 762.1875 424.574219 759.613281 421.242188 C 756.4375 417.007812 753.859375 412.316406 751.441406 407.625 C 750.6875 406.109375 748.113281 407.175781 748.71875 408.835938 C 750.832031 414.132812 753.714844 419.125 757.195312 423.816406 C 759.011719 426.234375 760.980469 428.960938 763.097656 431.230469 C 762.941406 431.230469 762.796875 431.230469 762.640625 431.074219 C 747.804688 422.605469 739.480469 407.324219 736.761719 390.980469 C 739.332031 394.316406 743.117188 396.277344 747.660156 398.855469 C 759.769531 405.355469 772.179688 415.042969 768.09375 430.625 Z M 730.097656 421.546875 C 729.949219 421.546875 729.949219 421.546875 729.796875 421.546875 C 723.136719 416.253906 714.8125 412.773438 706.332031 411.40625 C 704.972656 411.257812 704.363281 413.226562 705.730469 413.527344 C 713.445312 414.886719 720.109375 417.613281 726.464844 421.847656 C 717.382812 422.304688 708.757812 420.035156 700.433594 415.945312 C 696.191406 413.828125 692.253906 411.40625 688.015625 409.445312 C 694.980469 408.988281 701.945312 408.378906 708.90625 408.988281 C 718.597656 409.746094 724.042969 415.34375 730.097656 421.546875 Z M 763.097656 437.882812 C 760.371094 439.25 757.496094 440.609375 754.925781 442.121094 C 750.832031 444.542969 746.746094 448.023438 741.90625 448.78125 C 740.847656 448.929688 741.148438 450.597656 742.207031 450.597656 C 746.292969 450.292969 749.472656 448.023438 752.957031 446.058594 C 757.953125 443.179688 763.097656 440.761719 768.394531 438.640625 C 769 438.339844 769.304688 437.882812 769.304688 437.582031 C 769.304688 437.582031 769.304688 437.582031 769.453125 437.582031 C 770.210938 437.582031 770.664062 437.128906 770.820312 436.679688 C 771.269531 436.824219 771.574219 436.824219 772.027344 436.980469 C 765.824219 445.300781 759.613281 452.5625 750.078125 457.25 C 739.632812 462.398438 728.28125 462.699219 717.082031 463.757812 C 722.832031 457.25 726.921875 450.140625 734.636719 445.300781 C 743.417969 439.703125 753.257812 438.640625 763.097656 437.882812 Z M 816.988281 441.664062 C 817.589844 441.664062 818.191406 441.664062 818.800781 441.820312 C 816.53125 443.484375 814.410156 445.601562 812.59375 447.113281 C 806.691406 452.109375 801.851562 457.707031 797.308594 463.910156 C 796.699219 464.667969 797.910156 465.570312 798.515625 464.816406 C 802.605469 460.277344 806.996094 455.890625 811.535156 451.808594 C 815.921875 447.871094 820.769531 445.148438 825.460938 441.972656 C 826.519531 441.972656 827.582031 441.972656 828.640625 442.121094 C 821.21875 453.921875 813.960938 464.210938 800.027344 468.898438 C 792.460938 471.476562 784.289062 471.925781 779.292969 477.675781 C 781.261719 468.144531 790.191406 461.488281 797.308594 455.136719 C 803.664062 449.839844 810.023438 445.449219 816.988281 441.664062 Z M 940.351562 438.339844 C 932.175781 442.878906 925.214844 449.539062 917.339844 454.679688 C 910.078125 459.371094 902.8125 464.058594 895.546875 468.898438 C 909.015625 456.039062 921.734375 442.273438 940.351562 438.339844 Z M 915.222656 462.699219 C 906.441406 467.085938 897.359375 470.566406 888.734375 475.40625 C 898.726562 469.355469 908.714844 463 918.550781 456.648438 C 927.488281 450.898438 935.8125 443.03125 945.34375 438.492188 C 945.953125 438.191406 946.101562 437.734375 945.953125 437.28125 C 946.710938 436.980469 947.164062 436.371094 947.3125 435.613281 C 947.464844 436.222656 947.921875 436.679688 948.679688 436.371094 C 955.035156 435.011719 959.121094 442.730469 965.632812 440.609375 C 971.230469 438.949219 974.105469 432.742188 979.402344 430.625 C 979.710938 431.683594 980.011719 432.894531 980.011719 433.953125 C 980.011719 436.371094 978.496094 438.191406 978.34375 440.460938 L 978.34375 440.609375 C 978.195312 440.609375 978.042969 440.609375 977.886719 440.460938 C 977.285156 440.308594 976.683594 440.910156 976.375 441.363281 C 976.074219 441.21875 975.769531 440.910156 975.46875 440.761719 C 974.714844 440.308594 973.957031 441.363281 974.558594 441.972656 C 984.398438 450.597656 989.394531 459.820312 993.9375 471.925781 C 996.660156 479.492188 1001.050781 482.667969 1005.890625 487.664062 C 987.882812 478.285156 979.402344 462.546875 973.347656 443.03125 C 972.898438 441.519531 970.320312 441.664062 970.472656 443.484375 C 970.472656 443.632812 970.472656 443.789062 970.472656 443.789062 C 969.871094 443.933594 969.261719 444.390625 968.960938 445.300781 C 968.660156 446.058594 968.503906 446.660156 968.355469 447.417969 C 966.992188 447.417969 965.933594 447.113281 965.023438 446.511719 C 964.875 445.601562 964.71875 444.84375 964.417969 443.933594 C 964.117188 443.03125 962.601562 443.03125 962.601562 444.242188 C 962.601562 444.390625 962.601562 444.542969 962.601562 444.84375 C 962.300781 444.542969 961.847656 444.390625 961.546875 444.242188 C 961.390625 443.179688 960.03125 442.730469 959.273438 443.484375 C 956.394531 442.878906 953.519531 443.484375 951.097656 441.363281 C 950.949219 440.308594 950.191406 439.550781 949.28125 439.550781 C 948.679688 438.492188 947.011719 437.882812 945.953125 438.792969 C 936.261719 448.328125 927.332031 456.796875 915.222656 462.699219 Z M 1011.34375 490.691406 C 1010.886719 490.535156 1010.285156 490.234375 1009.828125 489.933594 C 1009.828125 489.933594 1009.828125 489.78125 1009.675781 489.78125 C 1009.375 489.324219 1009.074219 489.023438 1008.769531 488.722656 C 1009.675781 489.476562 1010.433594 490.082031 1011.34375 490.691406 Z M 998.933594 471.625 C 1000.902344 476.316406 1003.472656 482.214844 1006.957031 486.605469 C 1004.230469 484.027344 1001.050781 482.066406 998.933594 478.886719 C 995.601562 473.746094 994.691406 467.238281 992.121094 461.640625 C 989.09375 454.832031 984.699219 448.78125 979.101562 444.089844 C 985.765625 446.960938 991.210938 448.929688 994.390625 456.949219 C 996.207031 461.640625 996.964844 466.785156 998.933594 471.625 Z M 1010.585938 450.140625 C 1001.351562 446.660156 992.121094 443.179688 982.738281 440.152344 C 983.796875 438.492188 984.25 436.222656 984.25 434.410156 C 984.25 434.410156 984.25 434.410156 984.25 434.253906 C 988.183594 435.769531 992.722656 435.613281 996.964844 435.613281 C 1004.988281 435.613281 1013.011719 435.613281 1020.878906 435.464844 C 1021.9375 435.464844 1021.9375 433.800781 1020.878906 433.800781 C 1008.46875 433.34375 995.75 434.410156 983.796875 431.53125 C 983.339844 430.015625 982.738281 428.503906 982.128906 426.992188 C 989.242188 428.503906 996.964844 427.601562 1004.078125 426.691406 C 1004.988281 426.535156 1004.988281 425.175781 1004.078125 425.175781 C 996.507812 425.933594 989.09375 425.023438 981.671875 424.574219 C 981.523438 423.207031 981.828125 421.695312 982.738281 420.183594 L 982.882812 420.183594 C 991.664062 417.613281 1001.804688 415.496094 1009.527344 410.347656 C 1014.671875 406.867188 1018.15625 402.179688 1024.511719 400.667969 C 1029.355469 399.609375 1034.351562 399.910156 1039.347656 400.515625 C 1036.773438 407.019531 1034.652344 414.132812 1034.046875 421.09375 C 1029.660156 421.546875 1025.421875 421.695312 1021.027344 421.847656 C 1020.125 421.847656 1019.96875 423.207031 1020.878906 423.363281 C 1025.121094 424.117188 1029.660156 424.117188 1033.894531 423.664062 C 1033.445312 433.652344 1035.714844 443.179688 1042.675781 450.597656 C 1032.535156 458.765625 1021.183594 454.078125 1010.585938 450.140625 Z M 960.632812 424.574219 C 962.601562 423.816406 964.574219 423.816406 965.632812 426.085938 L 965.777344 426.234375 C 964.417969 430.171875 964.417969 433.652344 967.601562 436.523438 C 964.117188 438.792969 961.238281 437.882812 958.210938 436.523438 C 958.210938 436.222656 958.210938 436.070312 958.0625 435.769531 C 956.851562 433.34375 957.152344 431.230469 958.820312 429.261719 C 959.421875 428.355469 960.179688 427.601562 960.632812 426.535156 C 960.789062 425.933594 960.789062 425.175781 960.632812 424.574219 Z M 946.253906 429.113281 C 946.710938 428.65625 947.011719 427.902344 946.710938 427.292969 C 949.128906 428.203125 951.855469 428.050781 954.425781 427.445312 C 955.183594 427.292969 955.941406 426.84375 956.695312 426.535156 C 956.246094 428.050781 955.183594 430.171875 955.035156 431.074219 C 954.734375 432.589844 955.035156 433.953125 955.492188 435.3125 C 953.367188 434.410156 951.097656 433.652344 948.679688 434.101562 C 948.679688 433.800781 948.523438 433.5 948.371094 433.195312 C 947.011719 431.832031 946.40625 430.472656 946.253906 429.113281 Z M 988.183594 413.527344 C 987.578125 413.675781 987.425781 414.285156 987.425781 414.738281 C 985.457031 415.496094 983.339844 416.253906 981.371094 417.15625 C 980.769531 417.457031 980.464844 418.066406 980.613281 418.671875 C 978.195312 420.484375 977.886719 423.511719 978.34375 426.535156 C 978.34375 426.691406 978.34375 426.691406 978.34375 426.84375 C 974.105469 428.804688 972.441406 432.441406 969.261719 435.3125 C 965.175781 431.074219 968.960938 428.355469 970.019531 424.265625 C 970.628906 421.394531 968.960938 418.671875 969.261719 415.796875 C 969.414062 415.796875 969.5625 415.796875 969.714844 415.796875 C 970.171875 416.097656 970.929688 416.097656 971.230469 415.644531 C 973.65625 415.1875 976.375 413.675781 978.34375 414.585938 C 978.34375 414.738281 978.496094 414.886719 978.496094 414.886719 C 978.496094 415.042969 978.34375 415.1875 978.34375 415.34375 C 977.886719 417.457031 981.070312 418.367188 981.671875 416.253906 C 981.980469 415.042969 982.28125 413.984375 982.582031 412.917969 C 988.9375 404.449219 999.535156 399.757812 1008.316406 394.007812 C 1015.128906 389.621094 1022.242188 385.082031 1028.597656 380.089844 C 1029.808594 379.632812 1031.019531 379.03125 1032.078125 378.429688 C 1019.214844 392.347656 1007.710938 407.625 988.183594 413.527344 Z M 1018 384.328125 C 1012.101562 388.5625 1006.046875 392.949219 999.992188 396.886719 C 994.691406 400.367188 989.546875 403.539062 985.15625 407.777344 C 991.511719 396.277344 1004.078125 389.46875 1016.488281 384.78125 C 1017.097656 384.78125 1017.550781 384.480469 1018 384.328125 Z M 968.960938 334.699219 L 968.960938 334.550781 C 969.113281 334.550781 969.113281 334.398438 969.261719 334.398438 C 969.113281 334.398438 969.113281 334.550781 968.960938 334.699219 Z M 883.28125 314.429688 C 875.867188 310.644531 866.9375 308.980469 859.0625 308.074219 C 858.003906 307.921875 857.855469 309.589844 858.761719 309.890625 C 865.726562 311.550781 873.441406 313.371094 879.804688 316.542969 C 886.765625 320.027344 889.792969 325.320312 893.273438 331.527344 C 878.441406 332.128906 865.117188 330.011719 854.074219 319.117188 C 848.621094 313.820312 844.992188 307.464844 839.082031 303.230469 C 849.980469 304.441406 861.488281 305.195312 871.78125 308.074219 C 876.777344 309.28125 880.410156 311.550781 883.28125 314.429688 Z M 860.273438 458.160156 C 862.699219 457.101562 865.425781 456.039062 867.996094 454.832031 C 861.03125 463.15625 853.464844 469.808594 843.019531 473.59375 C 841.964844 473.894531 842.414062 475.558594 843.476562 475.257812 C 853.464844 472.078125 863.15625 466.328125 869.660156 458.007812 C 866.027344 466.027344 861.1875 473.289062 854.21875 479.34375 C 846.804688 485.695312 836.964844 488.566406 830 495.230469 C 829.246094 485.394531 831.816406 478.734375 839.839844 472.078125 C 846.195312 466.480469 852.707031 461.640625 860.273438 458.160156 Z M 870.414062 453.769531 C 870.871094 453.621094 871.328125 453.320312 871.628906 453.167969 C 871.480469 453.621094 871.328125 454.078125 871.171875 454.378906 C 871.023438 454.226562 870.722656 453.921875 870.414062 453.769531 Z M 913.710938 289.164062 C 912.351562 288.855469 911.742188 290.523438 912.652344 291.277344 C 912.652344 291.433594 912.652344 291.734375 912.800781 291.882812 C 920.367188 302.472656 918.40625 314.128906 922.945312 325.621094 C 925.214844 331.371094 929 336.367188 933.992188 339.394531 C 921.882812 338.636719 909.773438 335.609375 898.117188 333.339844 C 898.574219 332.886719 898.875 332.128906 898.726562 331.371094 C 892.820312 301.414062 859.371094 302.472656 835.601562 300.8125 C 835.152344 300.511719 834.542969 300.355469 833.9375 300.054688 C 832.425781 299.445312 831.515625 301.871094 832.878906 302.625 C 844.683594 307.921875 849.679688 322.75 861.1875 329.40625 C 870.871094 335 883.589844 338.027344 894.488281 334.855469 C 894.941406 334.699219 895.242188 334.398438 895.546875 334.097656 C 895.699219 334.097656 895.847656 334.097656 896 334.097656 C 896.148438 334.097656 896.300781 334.097656 896.457031 334.097656 C 896.457031 334.398438 896.605469 334.550781 897.058594 334.699219 C 906.597656 337.578125 916.582031 339.539062 926.421875 341.359375 C 932.027344 342.417969 938.230469 344.078125 943.984375 343.476562 C 940.351562 348.316406 938.082031 354.066406 937.628906 360.121094 C 937.019531 368.894531 940.65625 376.761719 944.894531 384.171875 C 947.3125 388.410156 950.039062 392.496094 952.308594 396.730469 C 954.882812 401.570312 955.792969 406.71875 957.761719 411.558594 C 957.304688 411.863281 956.851562 412.015625 956.394531 412.316406 C 955.941406 403.238281 950.796875 395.828125 944.136719 389.320312 C 932.027344 377.21875 919.007812 365.261719 905.6875 354.523438 C 904.78125 353.765625 903.570312 354.976562 904.472656 355.734375 L 904.628906 355.882812 C 904.472656 356.183594 904.472656 356.492188 904.628906 356.941406 C 912.351562 370.554688 921.882812 383.269531 931.117188 395.675781 C 935.960938 402.027344 940.5 410.046875 947.011719 414.886719 C 927.03125 408.078125 914.164062 384.480469 894.03125 377.21875 C 886.917969 374.644531 878.136719 374.492188 871.480469 378.730469 C 863 384.171875 863.910156 394.007812 859.671875 402.027344 C 859.0625 403.085938 860.730469 404.148438 861.332031 403.085938 C 862.089844 402.027344 862.546875 400.96875 863.15625 399.757812 C 872.082031 408.234375 883.4375 413.527344 895.699219 415.34375 C 897.058594 415.496094 897.664062 413.375 896.300781 413.226562 C 884.191406 411.558594 873.75 406.265625 865.117188 397.789062 C 864.816406 397.488281 864.515625 397.339844 864.214844 397.339844 C 864.816406 395.519531 865.273438 393.558594 865.875 391.4375 C 868.144531 383.570312 873.898438 378.121094 882.378906 377.671875 C 895.089844 377.0625 904.628906 386.441406 913.253906 394.160156 C 922.492188 402.480469 934.144531 417.007812 947.3125 420.335938 C 947.164062 420.484375 947.011719 420.636719 946.859375 420.792969 C 945.496094 422.152344 944.285156 423.511719 943.832031 425.332031 C 943.832031 425.476562 943.832031 425.632812 943.683594 425.933594 C 935.8125 424.875 927.9375 424.117188 920.066406 423.0625 C 919.007812 422.90625 918.707031 424.875 919.765625 425.023438 C 927.632812 426.234375 935.503906 427.601562 943.527344 428.804688 C 943.683594 429.5625 943.832031 430.320312 943.984375 430.925781 C 929.148438 431.832031 915.070312 439.09375 899.785156 439.550781 C 888.433594 439.851562 844.234375 430.625 859.371094 410.648438 C 859.972656 409.746094 858.761719 408.988281 858.003906 409.59375 C 857.246094 410.199219 856.644531 410.804688 856.035156 411.558594 C 852.859375 396.585938 830 399 823.945312 385.6875 C 823.796875 385.382812 823.644531 385.230469 823.492188 385.230469 C 822.886719 384.328125 821.21875 384.328125 820.917969 385.539062 C 815.773438 407.019531 826.972656 422.453125 841.507812 435.914062 C 834.84375 435.769531 828.339844 435.769531 821.675781 435.613281 C 821.976562 435.464844 822.132812 435.3125 822.285156 435.160156 C 826.824219 427.59375 822.734375 418.515625 817.136719 412.617188 C 807.296875 402.328125 784.742188 401.269531 780.351562 386.597656 C 780.050781 385.539062 778.992188 385.539062 778.386719 386.140625 C 778.386719 386.140625 778.234375 386.140625 778.234375 386.292969 C 772.332031 394.917969 781.414062 406.566406 786.558594 413.375 C 792.914062 421.695312 800.484375 428.960938 808.507812 435.464844 C 795.640625 435.011719 782.929688 433.953125 770.363281 431.984375 C 770.511719 431.832031 770.664062 431.683594 770.820312 431.53125 C 774.605469 423.964844 772.78125 415.496094 767.792969 408.835938 C 759.613281 398.097656 740.546875 395.828125 735.851562 383.113281 L 735.851562 382.96875 C 735.695312 380.542969 731.914062 380.542969 732.066406 382.96875 C 733.578125 402.179688 742.664062 419.125 758.554688 429.714844 C 749.773438 427.746094 740.996094 425.023438 732.367188 421.546875 C 728.28125 415.945312 723.285156 410.347656 716.777344 407.929688 C 706.9375 404.148438 694.070312 406.71875 683.78125 407.019531 C 683.472656 407.019531 683.171875 407.175781 683.023438 407.324219 C 682.113281 407.175781 681.8125 408.378906 682.71875 408.6875 C 682.871094 409.136719 683.171875 409.445312 683.78125 409.445312 C 683.929688 409.445312 684.230469 409.445312 684.386719 409.445312 C 691.800781 412.316406 698.160156 417.765625 705.578125 420.9375 C 713.601562 424.265625 721.316406 425.476562 729.949219 424.421875 C 730.398438 424.421875 730.550781 424.117188 730.855469 423.964844 C 740.390625 428.203125 750.230469 431.53125 760.222656 433.953125 C 751.746094 434.710938 743.417969 437.28125 736.003906 441.363281 C 725.710938 446.960938 721.46875 455.589844 713.902344 463.910156 C 712.992188 464.359375 713.144531 466.027344 714.355469 466.179688 C 738.121094 468.144531 765.667969 461.03125 776.417969 437.582031 C 787.316406 439.398438 798.367188 440.609375 809.566406 441.363281 C 802.753906 445.753906 796.699219 451.351562 790.800781 456.949219 C 784.136719 463.457031 774.75 471.324219 777.023438 481.457031 C 777.023438 481.613281 776.875 481.757812 776.875 481.914062 C 776.417969 482.824219 777.324219 483.726562 778.082031 483.726562 C 778.6875 483.882812 779.292969 483.726562 779.292969 482.972656 C 779.292969 482.824219 779.292969 482.824219 779.292969 482.667969 C 784.289062 474.046875 794.429688 474.953125 802.753906 472.234375 C 807.449219 470.71875 811.835938 468.449219 815.921875 465.570312 C 823.34375 460.128906 830.609375 451.957031 832.726562 442.878906 C 832.726562 442.730469 832.726562 442.574219 832.726562 442.421875 C 848.164062 442.878906 863.605469 442.878906 878.894531 443.332031 C 859.0625 458.917969 821.527344 466.027344 828.1875 497.800781 C 828.488281 499.011719 830.457031 498.710938 830.304688 497.5 C 835.453125 492.503906 842.414062 490.835938 848.46875 487.207031 C 852.859375 484.636719 856.792969 481.457031 860.429688 477.976562 C 867.996094 470.566406 874.050781 461.1875 876.777344 451.050781 C 876.777344 450.898438 876.777344 450.742188 876.777344 450.597656 C 879.652344 448.78125 882.074219 446.511719 883.738281 443.484375 C 884.039062 443.484375 884.347656 443.484375 884.648438 443.484375 C 893.121094 445.300781 902.054688 445.300781 910.683594 444.242188 C 913.554688 443.933594 916.738281 443.484375 919.917969 442.878906 C 905.382812 452.867188 893.878906 468.296875 880.710938 479.644531 C 879.804688 480.402344 881.164062 481.757812 882.074219 481.003906 C 882.523438 480.703125 882.832031 480.402344 883.28125 479.945312 C 883.4375 479.945312 883.589844 479.945312 883.890625 479.945312 C 901.902344 470.414062 923.550781 465.425781 939.140625 452.109375 C 935.054688 456.949219 930.964844 461.789062 927.632812 467.238281 C 922.035156 476.316406 921.277344 488.117188 922.035156 498.554688 C 923.394531 517.316406 943.074219 524.578125 959.273438 518.226562 C 960.179688 517.921875 959.722656 516.558594 958.820312 516.867188 C 947.921875 520.648438 930.964844 517.46875 927.179688 505.0625 C 924.761719 497.5 926.121094 484.636719 928.242188 477.375 C 932.027344 464.667969 945.34375 457.40625 949.738281 445.449219 C 951.707031 446.8125 954.125 447.269531 956.851562 447.71875 C 957.003906 447.71875 957.003906 447.71875 957.152344 447.871094 C 953.824219 454.980469 947.464844 460.128906 943.832031 467.238281 C 940.65625 473.4375 939.441406 479.945312 939.597656 486.90625 C 939.597656 487.8125 940.800781 487.8125 940.957031 486.90625 C 941.410156 476.617188 945.042969 467.695312 951.855469 459.976562 C 955.183594 456.191406 957.910156 453.167969 959.574219 448.929688 C 960.332031 449.382812 960.9375 449.988281 961.691406 450.597656 C 959.574219 461.488281 951.25 471.324219 954.578125 482.824219 C 954.882812 483.726562 956.09375 483.273438 955.941406 482.515625 C 953.21875 471.324219 963.207031 462.398438 964.71875 452.109375 C 965.632812 452.410156 966.6875 452.410156 967.746094 452.410156 C 967.902344 459.976562 971.832031 467.238281 973.046875 474.804688 C 975.316406 488.265625 974.105469 505.519531 962.449219 514.289062 C 961.390625 515.046875 962.300781 516.867188 963.507812 516.109375 C 972.589844 510.507812 975.925781 500.222656 977.4375 490.234375 C 978.195312 484.785156 978.496094 479.34375 977.742188 473.894531 C 976.828125 467.839844 974.410156 462.398438 973.199219 456.648438 C 979.710938 472.988281 995.296875 486.453125 1010.886719 492.503906 C 1011.796875 492.804688 1012.101562 491.59375 1011.496094 491.144531 C 1012.101562 491.292969 1012.554688 490.386719 1012.101562 489.933594 C 1001.351562 480.097656 1001.503906 465.570312 995.75 453.320312 C 994.691406 450.898438 993.023438 448.929688 991.210938 447.269531 C 1001.351562 451.199219 1011.796875 455.136719 1022.09375 457.25 C 1029.964844 458.917969 1037.832031 458.308594 1043.433594 452.109375 C 1044.1875 452.867188 1045.101562 453.621094 1046.003906 454.378906 C 1046.761719 454.980469 1047.671875 453.621094 1047.070312 453.011719 C 1026.328125 435.3125 1039.949219 402.9375 1053.726562 384.929688 C 1060.839844 375.703125 1069.320312 368.441406 1078.855469 362.085938 C 1085.667969 357.546875 1092.933594 353.15625 1097.925781 346.65625 C 1099.292969 344.835938 1096.566406 342.117188 1094.75 343.476562 C 1074.160156 358.761719 1052.816406 371.621094 1041.160156 395.519531 C 1040.707031 396.585938 1040.105469 397.640625 1039.648438 398.855469 C 1031.324219 397.488281 1022.996094 396.429688 1015.730469 400.816406 C 1025.421875 391.589844 1035.261719 381.300781 1043.132812 370.554688 C 1043.433594 370.253906 1043.285156 369.800781 1042.976562 369.652344 C 1042.828125 368.894531 1041.917969 368.441406 1041.160156 369.042969 C 1038.742188 371.3125 1036.019531 373.28125 1033.136719 375.09375 C 1032.835938 374.792969 1032.382812 374.644531 1031.933594 374.949219 C 1029.808594 376.308594 1027.839844 377.671875 1025.722656 379.03125 C 1010.585938 386.140625 992.722656 390.679688 983.492188 403.839844 C 983.941406 401.878906 984.550781 400.058594 985.609375 398.246094 C 987.277344 395.21875 989.546875 392.648438 991.511719 389.921875 C 995.449219 384.628906 997.71875 379.332031 997.566406 372.824219 C 999.386719 373.433594 1001.351562 373.890625 1003.171875 374.039062 C 1017.550781 376.003906 1033.136719 372.070312 1046.3125 366.472656 C 1059.933594 360.722656 1071.4375 348.773438 1086.269531 346.046875 C 1088.542969 345.59375 1088.085938 341.660156 1085.667969 341.964844 C 1076.128906 343.019531 1069.015625 348.316406 1061.148438 353.464844 C 1050.699219 360.273438 1039.347656 365.414062 1027.082031 368.285156 C 1011.796875 371.769531 997.117188 371.921875 984.25 361.632812 C 979.710938 358.003906 974.558594 353.464844 971.53125 348.617188 C 968.804688 344.234375 968.050781 339.847656 968.503906 335.609375 C 968.503906 335.910156 968.804688 336.214844 969.261719 336.367188 C 978.34375 339.847656 988.035156 339.847656 997.566406 339.695312 C 998.628906 339.695312 998.628906 338.179688 997.566406 338.179688 C 988.035156 337.878906 978.953125 337.425781 969.871094 334.398438 C 969.5625 334.246094 969.261719 334.398438 969.113281 334.398438 C 969.5625 334.097656 969.714844 333.640625 969.714844 333.039062 C 969.714844 332.28125 969.5625 331.675781 969.5625 330.917969 C 969.714844 330.316406 969.871094 329.558594 970.171875 328.949219 C 973.046875 330.316406 976.984375 330.160156 979.710938 330.011719 C 980.613281 329.859375 980.613281 328.648438 979.710938 328.648438 C 977.585938 328.648438 975.46875 328.347656 973.5 327.742188 C 972.589844 327.4375 971.832031 327.136719 970.929688 326.679688 C 971.382812 325.621094 971.6875 324.410156 972.140625 323.351562 C 972.589844 321.992188 970.628906 321.539062 970.019531 322.75 C 969.5625 323.808594 969.261719 325.019531 968.804688 326.078125 L 968.660156 326.078125 C 963.058594 301.871094 936.261719 293.246094 913.710938 289.164062 Z M 1376.144531 151.933594 C 1371.300781 148 1365.546875 145.578125 1358.890625 146.488281 C 1356.621094 146.789062 1354.195312 147.394531 1351.925781 148 C 1365.851562 139.226562 1379.929688 130.75 1397.035156 128.632812 C 1398.09375 128.480469 1398.246094 126.820312 1397.035156 126.820312 C 1385.226562 126.519531 1374.328125 131.359375 1364.1875 137.109375 C 1355.40625 141.949219 1346.480469 146.945312 1337.699219 152.386719 C 1345.570312 144.976562 1352.835938 136.65625 1359.039062 128.480469 C 1359.347656 128.632812 1359.796875 128.632812 1360.101562 128.480469 C 1367.0625 124.851562 1372.515625 120.46875 1380.230469 117.890625 C 1387.042969 115.621094 1394.308594 114.261719 1401.421875 114.109375 C 1411.261719 113.960938 1420.953125 117.132812 1430.183594 114.109375 C 1414.742188 130.75 1400.363281 149.664062 1376.144531 151.933594 Z M 1391.890625 74.925781 C 1396.734375 69.78125 1402.484375 65.847656 1407.476562 60.703125 C 1414.140625 53.894531 1419.585938 46.023438 1424.882812 38.15625 C 1425.339844 37.402344 1424.128906 36.496094 1423.523438 37.101562 C 1416.558594 45.875 1409.445312 54.652344 1400.820312 61.910156 C 1396.429688 65.542969 1391.433594 68.71875 1387.652344 73.109375 C 1390.679688 57.980469 1398.394531 46.480469 1411.570312 36.496094 C 1421.855469 28.625 1428.519531 19.398438 1434.273438 8.199219 C 1435.332031 23.636719 1432.003906 38.3125 1422.464844 51.320312 C 1414.140625 62.972656 1403.390625 68.570312 1391.890625 74.925781 Z M 1363.578125 77.195312 C 1364.035156 73.109375 1363.886719 68.871094 1363.429688 64.632812 C 1361.917969 52.074219 1359.191406 39.523438 1357.074219 26.964844 C 1356.921875 25.753906 1354.804688 26.054688 1354.953125 27.265625 C 1356.921875 45.722656 1362.519531 67.359375 1356.464844 85.359375 C 1356.320312 75.835938 1353.136719 67.207031 1349.351562 57.980469 C 1342.238281 41.035156 1346.628906 26.355469 1356.621094 12.4375 C 1360.101562 25.753906 1372.660156 34.226562 1372.816406 49.203125 C 1372.96875 59.949219 1368.878906 68.871094 1363.578125 77.195312 Z M 1356.464844 87.9375 C 1356.464844 87.785156 1356.464844 87.628906 1356.464844 87.484375 L 1356.621094 87.628906 C 1356.621094 87.785156 1356.464844 87.9375 1356.464844 87.9375 Z M 1390.523438 172.054688 C 1388.105469 166.613281 1384.625 160.40625 1379.929688 155.566406 C 1403.542969 153.898438 1421.707031 128.632812 1435.332031 112.144531 C 1436.238281 111.082031 1434.875 109.570312 1433.820312 110.324219 C 1433.515625 110.175781 1433.0625 110.023438 1432.605469 110.324219 C 1419.894531 116.53125 1402.332031 109.875 1388.40625 111.839844 C 1380.988281 112.902344 1372.359375 115.320312 1365.546875 119.710938 C 1373.570312 108.210938 1380.683594 95.652344 1385.527344 82.789062 C 1385.984375 82.789062 1386.4375 82.488281 1386.4375 81.886719 C 1386.59375 81.730469 1386.894531 81.578125 1387.042969 81.277344 C 1387.042969 81.128906 1387.195312 81.128906 1387.195312 81.128906 C 1420.652344 75.226562 1446.683594 33.921875 1436.992188 1.542969 C 1436.390625 -0.570312 1433.363281 0.332031 1433.664062 2.453125 C 1433.664062 2.601562 1433.664062 2.757812 1433.664062 3.058594 C 1433.515625 3.210938 1433.210938 3.359375 1433.0625 3.660156 C 1428.519531 12.289062 1424.128906 21.058594 1417.167969 28.175781 C 1411.261719 34.226562 1403.691406 38.460938 1398.09375 44.964844 C 1390.375 54.042969 1385.378906 65.542969 1384.625 77.347656 C 1384.167969 78.105469 1383.710938 79.007812 1383.410156 79.917969 C 1383.109375 80.675781 1383.410156 81.277344 1383.710938 81.578125 C 1375.6875 97.464844 1367.363281 112.292969 1356.164062 126.210938 C 1358.738281 119.710938 1360.101562 112.902344 1358.890625 106.394531 C 1358.28125 102.613281 1357.222656 98.832031 1355.710938 95.195312 C 1355.863281 95.195312 1355.863281 95.046875 1356.011719 95.046875 C 1366.15625 83.089844 1375.6875 68.71875 1376.445312 52.683594 C 1376.902344 45.265625 1375.085938 38.3125 1371.148438 32.105469 C 1366.460938 24.695312 1362.066406 18.035156 1357.980469 10.167969 C 1358.132812 9.566406 1357.222656 8.957031 1356.621094 9.261719 C 1346.023438 14.707031 1341.328125 29.835938 1340.574219 40.882812 C 1340.117188 47.992188 1342.085938 54.199219 1344.964844 60.550781 C 1348.898438 69.628906 1351.167969 77.496094 1351.777344 86.726562 C 1348.292969 80.375 1343.753906 74.769531 1338.457031 70.539062 C 1337.546875 69.78125 1336.332031 70.988281 1337.089844 71.898438 C 1345.871094 81.578125 1354.496094 97.316406 1354.496094 110.78125 C 1354.496094 123.039062 1345.722656 138.925781 1335.429688 145.429688 C 1328.460938 149.816406 1322.261719 152.539062 1317.109375 159.195312 C 1308.484375 169.941406 1299.402344 172.054688 1286.988281 176.292969 C 1285.175781 176.894531 1285.476562 179.773438 1287.445312 179.773438 C 1297.433594 179.320312 1306.96875 176.292969 1314.382812 169.941406 C 1324.980469 165.855469 1334.214844 159.195312 1344.660156 154.507812 C 1353.894531 150.417969 1362.675781 148.304688 1371 154.054688 C 1371.148438 154.65625 1371.601562 155.414062 1372.515625 155.414062 C 1372.660156 155.414062 1372.816406 155.414062 1372.96875 155.414062 C 1373.117188 155.566406 1373.417969 155.714844 1373.570312 155.867188 C 1379.023438 160.863281 1382.808594 167.972656 1385.683594 174.78125 C 1387.195312 177.804688 1391.890625 175.234375 1390.523438 172.054688 Z M 1154.996094 290.976562 C 1160.292969 280.988281 1162.257812 269.945312 1169.070312 260.5625 C 1176.636719 249.972656 1187.992188 241.050781 1200.710938 237.871094 C 1201.011719 237.871094 1200.855469 237.414062 1200.554688 237.570312 C 1187.6875 240.441406 1177.246094 245.890625 1168.621094 256.027344 C 1160.898438 264.957031 1152.726562 278.265625 1152.117188 290.367188 C 1151.96875 291.734375 1154.238281 292.335938 1154.996094 290.976562 " fill-opacity="1" fill-rule="nonzero"/></g></svg>