<svg xmlns="http://www.w3.org/2000/svg" xmlns:xlink="http://www.w3.org/1999/xlink" width="1920" zoomAndPan="magnify" viewBox="0 0 1440 540.000001" height="720" preserveAspectRatio="xMidYMid meet" version="1.0"><defs><clipPath id="4370dc4752"><path d="M 1.332031 0.339844 L 757.820312 0.339844 L 757.820312 538.667969 L 1.332031 538.667969 Z M 1.332031 0.339844 " clip-rule="nonzero"/></clipPath></defs><g clip-path="url(#4370dc4752)"><path fill="#ecc8f6" d="M 278.800781 480.703125 C 278.191406 481.3125 278.949219 482.367188 279.707031 481.914062 C 282.886719 479.945312 286.515625 478.285156 290.152344 477.375 C 293.9375 476.464844 297.722656 476.773438 301.507812 476.316406 C 302.566406 476.164062 302.867188 474.804688 301.808594 474.503906 L 301.652344 474.503906 C 301.652344 474.195312 301.652344 473.894531 301.507812 473.746094 C 295.148438 462.699219 271.078125 461.035156 266.539062 474.503906 C 266.082031 475.863281 267.75 477.074219 268.960938 476.316406 C 270.929688 475.257812 271.6875 473.894531 273.347656 472.234375 C 276.230469 469.355469 279.707031 468.597656 283.644531 468.597656 C 289.542969 468.597656 294.539062 469.808594 298.625 473.894531 C 291.667969 472.988281 283.796875 476.617188 278.800781 480.703125 Z M 573.0625 389.921875 C 573.515625 388.867188 572.304688 387.652344 571.398438 388.710938 C 570.035156 390.226562 568.976562 392.046875 567.613281 393.707031 C 566.25 395.21875 564.734375 396.730469 563.222656 398.097656 C 562.464844 398.855469 563.53125 399.910156 564.433594 399.304688 C 567.460938 396.585938 571.246094 393.558594 573.0625 389.921875 Z M 533.402344 403.695312 C 534.460938 403.238281 534.011719 401.878906 532.949219 402.027344 C 527.347656 402.785156 524.019531 407.625 520.082031 411.105469 C 513.578125 416.855469 506.15625 420.035156 497.683594 422.304688 C 495.863281 422.753906 496.621094 425.332031 498.441406 425.023438 C 504.945312 423.964844 511.308594 421.242188 516.605469 417.457031 C 522.507812 413.226562 526.445312 406.265625 533.402344 403.695312 Z M 105.785156 200.957031 C 109.113281 201.558594 114.109375 202.921875 117.289062 201.410156 C 117.738281 201.105469 117.59375 200.347656 117.136719 200.199219 C 115.621094 199.746094 113.957031 200.046875 112.292969 200.046875 C 110.171875 200.046875 108.207031 199.898438 106.238281 199.441406 C 105.179688 199.289062 104.726562 200.65625 105.785156 200.957031 Z M 260.484375 202.921875 C 251.253906 198.835938 241.714844 196.417969 231.574219 196.117188 C 219.765625 195.808594 207.355469 201.558594 196.003906 196.871094 C 195.09375 196.417969 194.335938 197.929688 195.09375 198.53125 C 200.992188 204.585938 209.171875 202.015625 216.585938 200.65625 C 231.265625 197.929688 245.800781 199.589844 259.726562 204.738281 C 260.785156 205.191406 261.695312 203.371094 260.484375 202.921875 Z M 222.792969 281.898438 C 223.398438 281.746094 223.550781 280.84375 222.941406 280.535156 C 219.613281 278.875 214.46875 279.777344 210.832031 280.085938 C 209.773438 280.234375 209.773438 281.746094 210.832031 281.746094 C 212.953125 281.746094 215.070312 281.746094 217.195312 281.898438 C 219.007812 281.898438 220.980469 282.355469 222.792969 281.898438 Z M 271.6875 515.957031 C 266.390625 511.261719 263.664062 508.390625 263.8125 501.28125 C 265.78125 501.882812 268.351562 500.523438 270.019531 499.769531 C 272.746094 498.554688 275.015625 496.742188 277.132812 494.472656 C 277.589844 493.863281 276.984375 492.960938 276.375 493.414062 C 274.257812 495.074219 271.835938 496.441406 269.261719 497.5 C 267.75 498.101562 265.632812 498.101562 264.117188 498.859375 C 264.117188 497.953125 264.117188 497.195312 263.8125 496.285156 C 263.363281 495.230469 261.847656 493.863281 261.539062 492.804688 C 261.394531 492.351562 261.394531 491.59375 261.394531 490.992188 C 263.054688 490.386719 264.421875 489.78125 266.234375 490.082031 C 267.449219 490.234375 268.050781 488.566406 266.691406 488.265625 C 265.175781 487.964844 263.363281 487.8125 261.695312 488.265625 C 262.453125 484.183594 263.511719 479.644531 257.910156 479.796875 C 256.550781 479.796875 256.550781 481.757812 257.910156 481.914062 C 260.484375 482.214844 256.550781 490.386719 256.851562 492.050781 C 257.152344 494.171875 257.910156 493.863281 258.667969 495.683594 C 260.335938 499.160156 259.578125 500.523438 259.578125 504.003906 C 259.578125 510.359375 263.964844 517.769531 270.777344 518.226562 C 271.835938 518.378906 272.59375 516.710938 271.6875 515.957031 Z M 256.550781 477.074219 C 256.550781 475.40625 255.941406 473.746094 256.242188 471.925781 C 256.398438 471.019531 256.699219 470.109375 257 469.355469 C 257.757812 467.996094 258.367188 469.207031 258.820312 470.265625 C 259.726562 472.234375 260.636719 474.648438 263.207031 474.195312 C 264.265625 474.046875 264.265625 472.378906 263.207031 472.078125 C 261.238281 471.625 261.238281 468.75 260.027344 467.238281 C 258.96875 466.027344 257.152344 465.269531 255.640625 466.328125 C 252.613281 468.449219 252.007812 475.40625 254.429688 478.132812 C 255.183594 478.886719 256.550781 478.132812 256.550781 477.074219 Z M 301.960938 501.128906 C 302.109375 501.128906 302.261719 501.28125 302.566406 501.429688 C 306.046875 504.304688 309.832031 509.449219 311.34375 514.597656 C 318.457031 506.273438 323.601562 498.859375 325.570312 487.8125 C 325.570312 487.664062 325.726562 487.363281 325.726562 487.207031 C 322.84375 476.617188 319.214844 466.179688 314.976562 455.890625 C 314.070312 459.976562 312.707031 464.058594 311.34375 467.839844 C 309.980469 471.925781 308.773438 476.164062 305.59375 479.1875 C 308.773438 486.753906 307.5625 495.230469 301.960938 501.128906 Z M 300.140625 336.96875 C 302.261719 338.9375 304.378906 338.027344 306.648438 337.269531 C 308.464844 336.667969 310.132812 338.785156 309.375 340.449219 C 310.285156 341.664062 310.890625 343.175781 311.492188 344.835938 C 311.800781 345.59375 312.101562 346.804688 312.707031 347.257812 C 312.707031 347.105469 312.859375 347.105469 312.859375 346.957031 C 312.558594 346.65625 312.558594 346.199219 312.859375 345.898438 C 313.917969 344.234375 314.070312 342.417969 314.070312 340.605469 C 314.070312 339.394531 313.917969 338.179688 314.519531 337.269531 C 314.371094 337.125 314.371094 336.96875 314.21875 336.820312 C 311.800781 333.039062 307.707031 329.859375 306.195312 325.777344 C 305.894531 325.019531 306.347656 324.109375 307.105469 323.652344 C 306.503906 323.050781 305.894531 322.597656 305.4375 321.992188 C 304.988281 321.539062 304.835938 320.9375 304.679688 320.480469 C 302.566406 319.421875 303.167969 315.941406 305.746094 315.640625 C 308.015625 313.519531 310.890625 312.003906 313.460938 310.34375 C 314.675781 309.589844 316.035156 308.832031 317.246094 307.921875 C 316.339844 308.222656 315.128906 307.769531 314.976562 306.410156 C 314.828125 304.292969 312.402344 302.023438 310.890625 300.660156 C 310.132812 300.054688 308.621094 298.691406 307.5625 298.996094 C 306.503906 299.300781 306.648438 300.203125 306.347656 300.960938 C 306.046875 301.570312 305.746094 302.023438 305.136719 302.324219 C 304.835938 303.382812 303.476562 304.140625 302.261719 303.535156 C 300.449219 302.625 298.78125 301.570312 296.664062 301.414062 C 295.597656 301.265625 292.726562 301.414062 292.726562 303.082031 C 292.726562 304.140625 294.695312 305.953125 294.996094 307.164062 C 295.453125 308.832031 294.996094 309.890625 293.9375 311.25 C 293.9375 311.25 293.9375 311.25 293.785156 311.402344 C 293.785156 311.550781 293.785156 311.703125 293.785156 312.003906 C 293.328125 313.820312 292.570312 315.488281 291.816406 317.300781 C 290.609375 320.179688 291.367188 321.691406 293.328125 323.652344 C 294.84375 325.019531 296.207031 326.378906 296.8125 328.046875 C 297.722656 328.191406 298.324219 328.949219 298.324219 330.011719 C 298.324219 332.28125 298.023438 335 300.140625 336.96875 Z M 360.84375 313.972656 C 360.996094 313.972656 360.996094 313.972656 360.84375 313.972656 Z M 359.929688 316.398438 Z M 358.570312 318.511719 C 356.902344 319.269531 355.242188 319.871094 353.574219 320.328125 C 356 320.328125 358.417969 320.179688 360.84375 319.722656 C 360.085938 319.722656 359.175781 319.269531 358.570312 318.511719 Z M 132.730469 323.808594 C 138.785156 315.183594 146.050781 306.863281 156.191406 303.683594 C 142.714844 303.382812 128.1875 301.714844 116.835938 310.039062 C 116.078125 310.644531 115.019531 309.28125 115.777344 308.679688 C 125.617188 300.203125 139.386719 300.054688 152.253906 300.203125 C 151.347656 299.601562 150.285156 298.996094 149.226562 298.390625 C 144.382812 295.972656 138.785156 295.515625 133.941406 293.246094 C 133.789062 293.246094 133.632812 293.394531 133.484375 293.394531 C 121.523438 293.851562 113.199219 301.714844 102.601562 305.953125 C 94.886719 308.980469 86.707031 311.25 78.539062 312.160156 C 87.621094 319.871094 98.214844 323.507812 110.324219 324.261719 C 116.835938 324.5625 125.917969 322.449219 132.730469 323.808594 Z M 190.25 210.335938 C 188.882812 211.546875 187.222656 212.304688 185.40625 212.148438 C 184.648438 212 183.894531 211.695312 183.585938 211.089844 C 183.285156 211.546875 182.828125 211.847656 182.070312 211.546875 C 181.769531 211.394531 181.46875 211.394531 181.167969 211.246094 C 182.984375 212.449219 184.648438 213.964844 186.011719 215.328125 C 187.824219 216.988281 189.640625 218.65625 191.152344 220.324219 C 190.09375 216.988281 189.492188 213.359375 190.25 210.335938 Z M 174.503906 181.433594 C 174.503906 181.589844 174.503906 181.742188 174.503906 181.742188 C 175.113281 180.378906 175.714844 179.019531 176.625 177.804688 C 175.414062 177.050781 174.957031 175.992188 174.957031 174.625 C 174.503906 173.871094 174.054688 173.113281 173.746094 172.355469 C 174.054688 175.535156 174.355469 178.410156 174.503906 181.433594 Z M 182.527344 176.59375 C 182.226562 177.351562 182.070312 178.109375 181.925781 178.714844 C 184.648438 175.234375 187.824219 172.210938 191.152344 169.941406 C 188.125 171.90625 185.253906 174.175781 182.527344 176.59375 Z M 196.304688 166.761719 C 195.847656 167.0625 195.246094 167.367188 194.789062 167.671875 C 194.9375 167.515625 195.09375 167.515625 195.394531 167.367188 C 195.847656 167.214844 196.152344 167.0625 196.605469 167.214844 C 196.453125 167.0625 196.304688 166.914062 196.304688 166.761719 Z M 269.566406 525.1875 C 268.660156 523.21875 269.109375 521.550781 270.320312 519.890625 C 271.535156 518.378906 273.203125 517.46875 273.203125 515.199219 C 273.203125 513.382812 271.988281 511.871094 271.6875 510.058594 C 271.378906 508.84375 273.046875 507.632812 273.957031 508.691406 C 274.105469 508.84375 274.105469 508.992188 274.257812 509.148438 C 282.886719 510.058594 289.09375 507.480469 296.054688 502.339844 C 303.621094 496.589844 304.679688 489.78125 303.167969 481.457031 C 299.691406 485.847656 295.597656 489.476562 290.757812 492.203125 C 289.851562 492.65625 289.09375 491.445312 290 490.835938 C 294.695312 487.664062 298.625 483.726562 301.960938 479.1875 C 302.109375 478.886719 302.410156 478.734375 302.566406 478.734375 C 302.410156 477.527344 303.621094 476.773438 304.535156 477.222656 C 309.980469 469.65625 310.433594 459.21875 312.707031 450.597656 C 308.773438 441.664062 304.230469 432.742188 299.082031 424.117188 C 295.296875 427.746094 290.757812 430.925781 285.613281 433.652344 C 284.855469 434.101562 284.246094 432.894531 285.003906 432.441406 C 290.300781 429.5625 294.695312 426.234375 298.175781 422.453125 C 298.175781 422.453125 298.175781 422.453125 298.175781 422.304688 C 297.113281 420.484375 299.082031 418.972656 300.59375 419.582031 C 303.476562 415.945312 305.59375 411.863281 307.257812 407.777344 C 306.046875 406.566406 307.105469 404.148438 308.621094 403.839844 C 313.460938 388.109375 312.402344 369.652344 312.402344 352.707031 C 311.34375 352.554688 310.132812 352.097656 309.375 351.496094 C 309.222656 351.34375 308.921875 351.042969 308.773438 350.886719 C 307.5625 356.335938 304.679688 361.332031 301.050781 365.414062 C 300.292969 366.171875 299.234375 365.113281 299.839844 364.203125 C 303.777344 359.0625 305.59375 353.613281 306.648438 347.558594 C 306.503906 347.257812 306.503906 346.957031 306.347656 346.804688 C 305.894531 345.746094 305.746094 344.535156 305.136719 343.476562 C 304.835938 343.628906 304.378906 343.628906 304.078125 343.628906 C 300.59375 357.09375 287.730469 369.042969 275.773438 374.949219 C 275.015625 375.402344 274.257812 374.191406 275.015625 373.734375 C 281.371094 369.953125 287.273438 365.113281 291.96875 359.363281 C 296.054688 354.367188 298.324219 348.925781 300.898438 343.324219 C 299.691406 343.019531 298.625 342.566406 297.722656 341.964844 C 294.394531 348.773438 285.3125 352.855469 279.101562 355.582031 C 278.34375 355.882812 277.589844 354.824219 278.34375 354.367188 C 282.585938 352.253906 287.125 350.132812 290.609375 346.957031 C 292.878906 344.988281 294.238281 342.71875 295.453125 340.148438 C 294.84375 339.394531 294.394531 338.636719 294.085938 337.726562 C 287.582031 344.234375 279.707031 348.167969 270.476562 349.527344 C 256.242188 351.644531 237.175781 348.925781 230.664062 365.414062 C 230.363281 366.171875 229.148438 365.871094 229.453125 365.113281 C 232.332031 356.492188 239.746094 352.097656 248.371094 349.984375 C 265.324219 345.898438 280.617188 348.316406 293.480469 334.699219 C 293.328125 333.339844 293.328125 332.128906 293.636719 330.769531 C 292.269531 330.011719 290.910156 328.949219 289.699219 327.742188 C 254.882812 333.488281 208.5625 332.429688 201.75 376.460938 C 201.601562 377.671875 200.691406 378.273438 199.632812 378.429688 C 200.234375 378.730469 200.84375 379.332031 200.691406 380.242188 C 200.691406 380.542969 200.691406 380.699219 200.691406 381 C 200.84375 380.847656 201.148438 380.699219 201.449219 380.542969 C 207.804688 378.730469 213.101562 381.902344 217.34375 386.597656 C 220.222656 389.777344 222.492188 393.707031 225.820312 396.585938 C 232.480469 402.179688 238.230469 400.667969 245.800781 401.570312 C 251.855469 402.179688 255.339844 404.90625 258.367188 409.894531 C 259.121094 409.445312 259.878906 408.988281 260.636719 408.535156 C 261.996094 407.625 263.363281 406.566406 264.570312 405.355469 C 265.324219 404.597656 266.539062 405.808594 265.78125 406.566406 C 264.570312 407.929688 263.363281 409.136719 261.996094 410.199219 C 261.238281 410.804688 260.484375 411.40625 259.578125 411.714844 C 259.878906 412.316406 260.179688 412.773438 260.484375 413.375 C 263.8125 411.714844 266.992188 410.046875 270.019531 407.476562 C 273.347656 404.449219 276.230469 401.125 279.101562 397.640625 C 279.707031 396.886719 281.070312 397.945312 280.460938 398.699219 C 275.921875 405.054688 269.71875 413.226562 261.847656 415.796875 C 266.539062 423.816406 271.078125 429.5625 282.128906 431.382812 C 283.039062 431.53125 282.734375 432.894531 281.976562 432.894531 C 275.621094 432.589844 269.71875 430.472656 265.023438 426.085938 C 262.148438 423.363281 260.179688 419.882812 258.367188 416.554688 C 257.757812 416.402344 257.457031 415.796875 257.609375 415.1875 C 255.484375 411.558594 252.914062 408.378906 248.675781 406.867188 C 240.65625 403.996094 232.632812 406.417969 225.210938 401.269531 C 216.738281 395.519531 213.710938 383.722656 201.902344 383.570312 C 201.449219 383.570312 200.992188 383.417969 200.691406 383.113281 C 201.300781 392.648438 206.597656 400.515625 212.199219 408.234375 C 217.34375 415.34375 223.25 423.363281 230.207031 428.804688 C 237.929688 434.859375 244.890625 431.382812 253.371094 432.589844 C 256.09375 433.042969 257.308594 433.800781 259.726562 434.554688 C 262.605469 436.371094 265.933594 437.734375 269.417969 438.191406 C 273.203125 437.582031 276.832031 436.371094 280.160156 434.710938 C 281.371094 434.101562 282.285156 435.769531 281.21875 436.523438 C 273.804688 441.664062 268.507812 443.179688 260.027344 439.550781 C 248.980469 434.554688 237.476562 440.761719 227.335938 432.742188 C 218.855469 426.085938 211.894531 416.253906 205.839844 407.476562 C 199.785156 398.855469 194.636719 390.078125 196.304688 379.332031 C 196.453125 378.429688 197.0625 377.972656 197.664062 377.820312 C 196.757812 377.363281 196.003906 376.609375 196.152344 375.402344 C 197.363281 357.246094 209.015625 341.808594 225.667969 334.699219 C 225.820312 334.699219 225.96875 334.550781 226.277344 334.550781 C 218.402344 334.097656 210.074219 332.429688 202.507812 329.257812 C 183.894531 371.164062 131.972656 379.488281 93.070312 363.144531 C 92.460938 362.84375 92.007812 362.386719 91.859375 361.785156 C 91.707031 361.785156 91.558594 361.933594 91.402344 361.933594 C 88.679688 362.542969 87.464844 358.304688 90.191406 357.695312 C 100.484375 355.277344 109.414062 352.707031 117.136719 344.835938 C 122.589844 339.238281 126.675781 332.28125 131.0625 325.777344 C 110.929688 330.011719 88.832031 327.4375 73.394531 312.761719 C 71.570312 310.949219 74.296875 308.222656 76.265625 309.890625 C 89.433594 308.222656 100.03125 304.140625 111.382812 297.03125 C 116.984375 293.546875 122.433594 290.066406 128.644531 289.613281 C 125.917969 287.34375 123.792969 284.46875 121.679688 281.746094 C 120.316406 279.933594 123.492188 277.507812 124.859375 279.328125 C 128.488281 283.558594 131.671875 287.195312 136.660156 289.464844 C 138.480469 281.445312 141.8125 274.035156 146.652344 267.226562 C 147.257812 266.316406 148.769531 267.070312 148.167969 268.128906 C 144.230469 275.238281 141.203125 282.65625 139.539062 290.523438 C 142.414062 291.433594 145.292969 292.035156 148.015625 293.246094 C 151.042969 294.605469 153.164062 296.574219 156.039062 298.085938 C 156.949219 298.691406 157.851562 298.996094 158.761719 299.445312 C 159.367188 297.332031 160.277344 295.214844 160.878906 293.09375 C 161.945312 289.613281 162.703125 286.136719 163.457031 282.65625 C 163.757812 281.597656 165.421875 281.898438 165.421875 282.957031 C 165.273438 288.40625 164.515625 294.90625 162.09375 300.054688 C 162.246094 300.203125 162.394531 300.203125 162.546875 300.355469 C 166.632812 301.113281 170.71875 300.511719 175.414062 299.902344 C 177.230469 299.601562 177.984375 302.171875 176.171875 302.625 C 171.929688 303.683594 167.542969 304.742188 163.152344 304.292969 C 162.394531 304.292969 161.789062 304.140625 161.035156 303.984375 C 142.714844 310.492188 135.757812 328.347656 124.550781 342.566406 C 117.136719 351.953125 108.511719 357.246094 97.613281 360.273438 C 135.902344 374.339844 178.742188 364.355469 199.785156 327.742188 C 192.066406 323.960938 185.40625 318.359375 181.46875 310.949219 C 169.960938 313.820312 163.457031 320.480469 157.25 330.617188 C 152.707031 338.027344 146.957031 343.476562 139.539062 348.015625 C 138.480469 348.617188 137.570312 347.105469 138.628906 346.503906 C 144.683594 342.566406 149.527344 337.269531 153.164062 331.070312 C 155.28125 327.289062 156.792969 323.351562 159.519531 320.027344 C 164.664062 313.519531 171.785156 309.132812 179.800781 307.464844 C 179.199219 305.652344 178.59375 303.835938 178.289062 301.871094 C 178.140625 300.960938 179.351562 300.660156 179.652344 301.414062 C 180.558594 303.535156 181.46875 305.5 182.527344 307.320312 C 183.136719 307.621094 183.585938 308.222656 183.738281 308.832031 C 183.894531 308.832031 183.894531 308.832031 184.039062 308.832031 C 194.789062 310.792969 205.535156 311.550781 216.285156 310.191406 C 217.195312 310.039062 217.34375 311.550781 216.4375 311.703125 C 205.988281 313.21875 195.847656 313.519531 185.40625 311.859375 C 197.0625 326.378906 216.285156 327.890625 235.359375 330.316406 C 235.960938 330.316406 236.417969 330.617188 236.71875 330.917969 C 252.457031 326.230469 270.625 324.5625 286.515625 324.261719 C 286.214844 323.652344 285.914062 323.203125 285.613281 322.597656 C 284.554688 319.871094 285.3125 317 286.515625 314.273438 C 279.257812 299.601562 256.242188 287.195312 240.804688 285.527344 C 240.046875 285.378906 240.046875 284.167969 240.804688 284.316406 C 252.007812 285.226562 261.394531 290.222656 270.777344 295.816406 C 277.742188 299.902344 284.246094 304.441406 288.03125 311.402344 C 288.03125 311.402344 288.03125 311.402344 288.03125 311.25 C 284.246094 300.355469 276.984375 292.035156 269.109375 283.714844 C 261.394531 275.546875 250.496094 261.929688 238.835938 260.867188 C 238.078125 260.867188 238.078125 259.660156 238.835938 259.660156 C 250.496094 260.417969 260.484375 271.910156 268.507812 279.476562 C 275.015625 285.527344 282.128906 292.492188 286.824219 300.355469 C 287.425781 298.84375 288.789062 297.484375 290.300781 296.726562 C 290.757812 296.574219 291.210938 296.421875 291.667969 296.273438 C 291.210938 295.972656 290.757812 295.515625 290.757812 294.90625 C 288.183594 278.417969 285.15625 263.589844 279.859375 247.703125 C 275.921875 235.902344 274.863281 225.164062 279.859375 213.515625 C 282.285156 208.066406 285.457031 202.769531 289.242188 198.230469 C 266.390625 166.914062 221.125 183.859375 190.703125 192.78125 C 190.703125 193.089844 190.851562 193.238281 190.851562 193.539062 C 193.730469 195.660156 194.488281 199.441406 193.730469 202.921875 C 193.578125 203.828125 193.125 204.886719 192.667969 205.949219 C 200.089844 208.820312 210.074219 208.066406 217.644531 208.367188 C 218.707031 208.367188 218.707031 210.179688 217.644531 210.179688 C 210.832031 210.035156 204.019531 210.636719 197.363281 210.179688 C 195.09375 210.035156 192.820312 209.730469 191.007812 208.667969 C 190.703125 208.976562 190.550781 209.277344 190.25 209.578125 C 190.851562 209.425781 191.460938 209.578125 191.761719 210.035156 C 194.335938 213.515625 194.488281 218.808594 195.695312 222.894531 C 197.207031 228.035156 199.480469 232.121094 202.660156 236.355469 C 207.203125 234.996094 212.042969 234.242188 217.34375 233.785156 C 217.796875 233.785156 217.953125 234.542969 217.496094 234.695312 C 208.867188 236.660156 201.300781 238.929688 195.09375 243.464844 C 200.542969 241.953125 208.261719 244.222656 212.800781 245.734375 C 213.859375 246.042969 213.410156 247.554688 212.347656 247.25 C 207.046875 246.042969 197.515625 243.164062 192.667969 246.949219 C 192.21875 247.402344 191.609375 247.25 191.152344 246.800781 C 188.433594 249.519531 186.164062 252.851562 184.34375 257.082031 C 178.441406 270.25 177.53125 284.167969 179.199219 298.242188 C 179.351562 299.144531 177.839844 299.300781 177.683594 298.390625 C 174.054688 282.804688 176.171875 265.710938 183.894531 251.488281 C 187.824219 244.222656 193.277344 239.839844 199.785156 237.265625 C 197.664062 235.453125 196.003906 233.332031 194.636719 230.914062 C 194.179688 230.914062 193.730469 230.761719 193.425781 230.15625 C 189.039062 222.894531 181.167969 217.144531 173.445312 213.664062 C 174.355469 215.476562 175.261719 217.296875 176.773438 219.113281 C 177.984375 220.625 179.199219 221.835938 180.410156 223.347656 C 182.984375 226.675781 184.34375 230.15625 183.585938 234.390625 C 183.4375 235.144531 182.226562 234.84375 182.378906 234.085938 C 183.585938 225.917969 174.203125 222.285156 171.476562 215.933594 C 169.816406 222.59375 177.53125 238.023438 177.984375 243.320312 C 178.742188 250.582031 177.839844 257.390625 175.714844 264.347656 C 175.414062 265.101562 174.203125 264.800781 174.503906 264.046875 C 178.289062 248.914062 174.8125 238.023438 169.207031 224.105469 C 167.691406 220.167969 167.089844 216.988281 169.207031 213.964844 C 169.058594 213.964844 168.902344 214.117188 168.757812 214.117188 C 168.300781 214.269531 167.84375 214.117188 167.390625 213.964844 C 165.875 215.628906 163.90625 216.6875 161.636719 216.6875 C 158.007812 220.625 161.035156 230.003906 159.675781 234.84375 C 158.460938 239.082031 155.734375 242.710938 152.40625 245.433594 C 151.648438 246.042969 150.589844 244.980469 151.347656 244.375 C 155.28125 240.894531 157.851562 236.355469 158.007812 230.914062 C 158.160156 227.132812 156.648438 223.347656 157.25 219.714844 C 157.402344 218.355469 158.007812 216.988281 158.609375 215.933594 C 157.402344 215.476562 156.339844 214.71875 155.734375 213.816406 C 150.285156 222.136719 143.625 228.335938 135.902344 234.84375 C 131.0625 238.929688 126.066406 243.164062 123.039062 248.761719 C 119.105469 255.878906 120.164062 261.929688 121.980469 269.339844 C 122.28125 270.855469 120.621094 271.609375 119.5625 270.699219 C 111.082031 263.742188 115.46875 250.273438 120.921875 242.710938 C 127.128906 234.242188 135.601562 228.1875 143.324219 221.078125 C 124.550781 233.03125 101.089844 248.613281 81.566406 232.121094 C 79.898438 230.761719 78.691406 229.246094 77.175781 227.582031 C 72.484375 222.136719 71.726562 220.773438 64.613281 217.144531 C 60.371094 214.875 56.589844 212.757812 53.40625 209.125 C 52.804688 208.367188 52.203125 207.609375 51.59375 206.855469 C 51.445312 206.855469 51.289062 206.855469 51.289062 206.855469 C 50.234375 206.707031 50.078125 205.796875 50.378906 205.039062 C 46.292969 198.230469 44.933594 190.210938 47.050781 182.5 C 47.507812 181.132812 49.320312 181.742188 49.175781 183.101562 C 48.109375 190.96875 49.777344 198.386719 53.714844 204.4375 C 62.945312 205.796875 72.027344 205.949219 81.261719 204.128906 C 82.167969 203.980469 82.625 205.339844 81.71875 205.640625 C 73.238281 207.609375 64.761719 208.21875 56.132812 207.460938 C 58.859375 210.335938 62.1875 212.757812 66.125 214.574219 C 73.84375 217.898438 76.113281 221.984375 82.019531 227.734375 C 102.300781 247.859375 130.457031 223.953125 149.078125 212.90625 C 149.835938 212.449219 150.589844 212.605469 151.195312 213.058594 C 151.796875 212.304688 152.40625 211.394531 153.011719 210.488281 C 152.253906 209.125 152.105469 207.609375 152.105469 205.949219 C 152.105469 205.191406 152.40625 203.828125 152.105469 203.226562 C 151.648438 202.46875 149.984375 202.46875 149.226562 202.015625 C 148.769531 201.710938 148.320312 201.410156 147.867188 201.105469 C 140.296875 204.128906 131.972656 204.585938 123.949219 203.980469 C 123.039062 203.980469 123.039062 202.46875 123.949219 202.46875 C 131.671875 202.769531 138.929688 201.105469 146.351562 199.289062 C 145.441406 197.628906 145.292969 195.808594 145.59375 193.992188 C 139.539062 193.691406 133.632812 194.75 127.578125 193.992188 C 120.464844 193.089844 113.351562 191.578125 106.238281 190.363281 C 105.480469 190.210938 105.785156 189 106.539062 189.152344 C 114.566406 190.210938 123.191406 191.878906 131.363281 192.179688 C 136.511719 192.332031 141.507812 191.269531 146.5 191.722656 C 146.808594 191.269531 146.957031 190.96875 147.257812 190.667969 C 146.5 190.0625 145.898438 189.308594 145.742188 188.242188 C 138.628906 189.152344 131.363281 186.730469 124.550781 183.703125 C 107.902344 176.292969 91.101562 167.816406 72.636719 174.625 C 71.878906 174.933594 71.570312 173.722656 72.328125 173.570312 C 84.289062 168.882812 96.703125 170.242188 108.8125 174.324219 C 121.679688 178.714844 133.03125 186.582031 146.199219 184.914062 C 146.652344 183.859375 147.410156 182.949219 148.167969 182.191406 C 150.738281 179.472656 157.097656 177.804688 158.460938 182.644531 C 158.917969 184.3125 157.402344 185.671875 155.734375 185.371094 C 155.28125 185.21875 154.980469 185.070312 154.675781 185.070312 C 154.523438 185.21875 154.523438 185.21875 154.375 185.371094 C 153.011719 186.128906 151.796875 186.730469 150.4375 187.183594 C 150.136719 187.640625 149.984375 188.09375 150.136719 188.242188 C 151.042969 187.792969 152.105469 187.488281 153.164062 187.488281 C 154.980469 187.488281 156.039062 189.910156 154.675781 191.121094 C 153.921875 191.722656 152.863281 192.480469 151.953125 193.089844 C 152.554688 193.847656 152.105469 195.050781 150.894531 194.75 C 150.738281 194.75 150.738281 194.75 150.589844 194.75 C 150.4375 195.359375 150.4375 195.808594 150.894531 196.566406 C 151.796875 198.078125 153.921875 198.078125 155.132812 199.441406 C 156.191406 200.65625 156.648438 202.167969 156.648438 203.828125 C 156.648438 205.191406 155.734375 208.21875 157.097656 208.976562 C 157.851562 209.425781 158.007812 210.035156 158.160156 210.636719 C 158.761719 211.089844 159.367188 211.695312 160.277344 212.148438 C 162.09375 212.90625 164.0625 212.449219 165.273438 210.9375 C 165.421875 210.789062 165.574219 210.789062 165.730469 210.636719 C 166.933594 208.21875 170.417969 206.855469 172.84375 206.398438 C 176.015625 205.949219 179.042969 206.855469 181.621094 208.820312 L 181.769531 208.976562 C 181.769531 208.820312 181.925781 208.667969 181.925781 208.667969 C 183.285156 206.550781 185.707031 205.640625 187.222656 203.371094 C 188.125 202.015625 189.339844 199.441406 189.191406 197.476562 C 186.921875 197.320312 186.164062 194.449219 186.164062 192.332031 C 186.164062 190.820312 186.464844 189.609375 184.796875 188.699219 C 183.738281 188.09375 182.527344 187.941406 181.46875 187.488281 C 179.957031 191.578125 179.351562 195.808594 177.984375 200.046875 C 177.382812 201.859375 175.566406 202.015625 174.355469 201.257812 C 173.746094 203.980469 170.117188 204.4375 169.058594 201.558594 C 168.757812 200.800781 168.601562 199.898438 168.300781 199.140625 C 165.421875 196.117188 164.363281 191.269531 162.703125 187.488281 C 161.035156 183.554688 159.066406 179.621094 157.25 175.691406 C 156.792969 175.992188 156.191406 176.140625 155.734375 175.691406 C 154.675781 174.78125 153.464844 173.871094 152.253906 172.964844 C 135.757812 170.394531 125.007812 160.253906 113.507812 147.847656 C 112.59375 146.945312 114.109375 145.429688 114.867188 146.488281 C 120.464844 152.386719 126.371094 158.292969 133.03125 162.832031 C 137.417969 165.703125 141.957031 167.367188 146.808594 168.726562 C 140.296875 163.277344 134.089844 156.925781 131.515625 149.214844 C 129.246094 142.25 130.15625 134.230469 130.304688 126.96875 C 130.457031 118.199219 130.457031 109.421875 130.761719 100.796875 C 130.761719 99.585938 132.574219 99.585938 132.574219 100.796875 C 132.730469 115.019531 130.605469 131.207031 133.789062 145.125 C 136.210938 156.023438 144.535156 161.617188 151.953125 168.574219 C 151.953125 168.273438 151.953125 167.816406 152.105469 167.515625 C 152.707031 166.457031 153.164062 165.546875 153.617188 164.492188 C 144.382812 158.59375 141.65625 146.035156 141.8125 135.746094 C 141.8125 134.53125 143.625 134.53125 143.625 135.746094 C 143.78125 146.035156 147.109375 155.414062 154.824219 161.921875 C 155.890625 159.804688 156.792969 157.835938 157.550781 155.714844 C 157.402344 155.265625 157.402344 154.808594 157.550781 154.203125 C 161.945312 134.839844 163.304688 111.839844 149.984375 95.503906 C 145.292969 89.753906 139.386719 84.910156 134.390625 79.308594 C 127.277344 71.441406 120.921875 62.519531 110.625 65.390625 C 111.082031 65.691406 111.382812 66.601562 110.78125 67.207031 C 105.328125 74.167969 105.328125 85.359375 104.570312 93.683594 C 103.96875 100.644531 103.511719 107.753906 103.511719 114.714844 C 103.511719 115.621094 102 115.621094 102 114.714844 C 101.847656 104.125 101.847656 93.683594 103.058594 83.246094 C 103.816406 77.195312 103.96875 70.539062 108.355469 66.148438 C 107.144531 66.601562 106.085938 67.207031 104.875 67.960938 C 103.816406 68.570312 102.601562 67.058594 103.511719 66.300781 C 109.722656 60.851562 117.894531 59.949219 124.859375 64.632812 C 129.246094 67.511719 132.121094 72.199219 135.453125 75.980469 C 139.6875 80.824219 144.683594 84.910156 149.226562 89.449219 C 156.949219 97.015625 161.488281 105.785156 163.757812 115.019531 C 164.363281 111.839844 165.273438 108.8125 166.933594 105.636719 C 170.871094 97.773438 176.171875 89.597656 183.894531 84.910156 C 190.09375 81.128906 197.0625 80.066406 204.175781 79.617188 C 204.476562 79.160156 204.628906 78.859375 204.929688 78.40625 C 205.839844 77.039062 207.804688 78.105469 207.355469 79.464844 C 208.714844 79.464844 209.925781 79.308594 211.289062 79.308594 C 212.800781 79.308594 212.652344 81.429688 211.289062 81.578125 C 209.472656 81.734375 207.503906 81.886719 205.6875 82.1875 C 201.300781 89.296875 196.90625 96.40625 193.730469 104.125 C 193.425781 104.726562 192.367188 104.273438 192.519531 103.671875 C 195.394531 96.40625 198.421875 89.449219 202.207031 82.789062 C 191.460938 84.757812 182.226562 88.996094 175.714844 99.433594 C 169.511719 109.265625 168 118.34375 167.84375 129.691406 C 167.542969 141.496094 166.785156 157.078125 158.460938 166.613281 C 159.21875 166.761719 159.820312 167.214844 160.125 167.816406 C 160.878906 169.636719 160.730469 171.753906 159.367188 173.113281 C 161.789062 176.894531 164.0625 180.832031 166.179688 184.769531 C 166.03125 177.804688 166.632812 170.84375 167.84375 165.097656 C 166.332031 163.886719 165.875 161.464844 167.542969 159.953125 C 168.148438 159.496094 168.757812 159.195312 169.359375 159.046875 C 169.660156 158.894531 169.816406 158.894531 170.117188 158.894531 C 170.871094 158.742188 171.628906 159.046875 172.234375 159.496094 C 174.65625 150.726562 179.800781 141.195312 177.683594 133.476562 C 177.382812 132.417969 179.042969 131.960938 179.351562 133.019531 C 182.679688 145.878906 172.988281 157.835938 175.113281 170.085938 C 176.171875 168.425781 177.382812 167.0625 178.441406 166.003906 C 179.042969 165.402344 179.652344 164.792969 180.257812 164.1875 C 179.5 163.132812 179.351562 161.921875 179.957031 160.707031 C 181.011719 158.894531 183.4375 158.4375 185.097656 159.496094 C 185.253906 159.652344 185.40625 159.804688 185.554688 159.953125 C 193.730469 153.898438 202.660156 148.457031 204.929688 137.558594 C 205.085938 136.65625 206.445312 136.957031 206.292969 138.015625 C 205.085938 145.277344 201.449219 150.574219 196.003906 155.414062 C 194.636719 156.625 190.398438 159.496094 186.3125 162.832031 C 186.3125 162.976562 186.3125 162.976562 186.3125 163.132812 C 186.164062 164.035156 185.40625 164.945312 184.648438 165.246094 C 184.796875 165.546875 184.796875 166.003906 184.648438 166.304688 C 184.195312 167.515625 183.738281 168.574219 183.285156 169.785156 C 188.734375 166.003906 195.09375 163.132812 200.542969 160.105469 C 219.007812 149.96875 230.964844 132.570312 233.089844 111.535156 C 233.234375 110.175781 235.203125 110.175781 235.203125 111.535156 C 233.992188 126.96875 227.636719 141.496094 216.4375 152.386719 C 211.742188 156.925781 206.445312 160.253906 201.148438 163.433594 C 201.449219 163.585938 201.75 163.734375 201.902344 164.035156 C 202.660156 164.644531 202.8125 165.546875 202.507812 166.457031 C 203.117188 168.726562 201.300781 170.996094 198.722656 170.84375 C 197.664062 170.84375 196.605469 170.242188 196.003906 169.484375 C 196.003906 170.085938 195.847656 170.542969 195.246094 170.996094 C 190.09375 174.625 185.554688 178.863281 182.679688 184.460938 C 182.679688 184.613281 182.527344 184.613281 182.527344 184.769531 C 184.796875 185.371094 187.222656 187.183594 188.28125 189 C 188.28125 189.152344 188.433594 189.152344 188.433594 189.308594 C 194.488281 185.671875 201.601562 182.949219 209.171875 180.984375 C 217.496094 173.570312 227.789062 168.425781 236.117188 160.707031 C 244.589844 152.84375 251.554688 143.160156 254.582031 131.960938 C 258.0625 119.402344 253.972656 110.632812 250.945312 98.832031 C 249.429688 92.777344 249.585938 85.214844 244.289062 80.675781 C 238.386719 75.679688 227.484375 79.617188 221.125 80.976562 C 219.3125 81.277344 218.707031 78.859375 220.371094 78.25 C 230.0625 74.46875 243.683594 72.5 251.097656 81.734375 C 255.484375 87.328125 254.730469 95.195312 257 101.703125 C 259.121094 107.90625 261.089844 113.503906 261.089844 120.160156 C 261.238281 143.765625 242.773438 166.15625 222.035156 178.410156 C 231.574219 176.894531 241.261719 176.445312 249.738281 176.59375 C 265.023438 176.894531 282.886719 182.191406 290.453125 196.566406 C 301.050781 185.371094 315.585938 178.410156 331.625 180.984375 C 332.382812 180.230469 333.898438 180.53125 334.050781 181.890625 L 334.050781 182.042969 C 334.050781 182.191406 334.050781 182.5 334.050781 182.644531 C 334.050781 189 332.683594 195.050781 329.65625 200.800781 C 329.207031 201.710938 327.996094 200.957031 328.449219 200.046875 C 330.722656 194.75 331.78125 189.152344 331.625 183.402344 C 306.046875 181.890625 281.976562 202.921875 280.617188 229.09375 C 280.011719 241.351562 286.671875 253.152344 289.851562 264.648438 C 292.570312 274.484375 294.695312 285.074219 294.394531 295.214844 C 294.394531 295.972656 294.085938 296.421875 293.636719 296.875 C 295.90625 296.875 298.175781 297.484375 300.140625 298.542969 C 300.449219 297.632812 300.898438 296.726562 301.652344 296.121094 C 302.71875 295.214844 303.925781 294.605469 305.289062 294.457031 C 303.621094 287.042969 299.234375 280.6875 298.324219 273.125 C 297.566406 267.371094 298.78125 261.929688 301.351562 256.78125 C 301.808594 255.878906 303.320312 256.480469 303.019531 257.390625 C 299.234375 267.371094 300.898438 274.9375 305.136719 284.46875 C 306.648438 287.953125 308.015625 291.125 308.164062 294.605469 C 308.464844 294.605469 308.621094 294.761719 308.921875 294.761719 C 309.222656 294.90625 309.53125 295.0625 309.832031 295.214844 C 316.789062 277.964844 311.042969 261.777344 311.949219 243.921875 C 312.558594 232.726562 314.371094 219.414062 323.152344 211.546875 C 323.910156 210.789062 325.117188 212 324.359375 212.757812 C 311.492188 225.3125 313.3125 247.859375 315.277344 264.199219 C 316.488281 273.878906 317.855469 284.316406 313.761719 293.246094 C 319.671875 286.585938 327.539062 279.023438 324.816406 270.25 C 324.511719 269.339844 325.875 269.039062 326.179688 269.945312 C 329.65625 280.085938 319.671875 290.523438 313.460938 297.785156 C 313.917969 298.242188 314.371094 298.84375 314.828125 299.300781 C 315.734375 298.242188 317.097656 297.332031 318.304688 296.574219 C 322.394531 293.851562 326.628906 291.277344 328.144531 286.285156 C 328.449219 285.226562 329.8125 285.683594 329.65625 286.738281 C 329.207031 290.066406 327.238281 292.792969 324.667969 294.90625 C 322.089844 297.03125 317.855469 298.84375 316.339844 302.023438 C 316.644531 302.78125 316.789062 303.535156 316.945312 304.140625 C 337.378906 289.164062 359.480469 273.578125 371.136719 250.730469 C 371.136719 250.429688 371.285156 250.128906 371.589844 249.824219 C 373.105469 246.644531 374.464844 243.464844 375.675781 240.140625 C 377.949219 233.183594 378.851562 226.976562 377.949219 221.382812 C 374.765625 230.457031 370.226562 238.78125 364.472656 246.492188 C 364.023438 247.101562 363.113281 246.492188 363.566406 245.890625 C 369.621094 236.8125 373.863281 226.976562 376.734375 216.539062 C 375.980469 214.71875 375.066406 212.90625 373.863281 211.246094 C 373.554688 215.175781 371.4375 219.257812 369.621094 222.4375 C 369.167969 223.195312 368.257812 222.59375 368.5625 221.835938 C 369.621094 219.714844 370.527344 217.445312 371.136719 215.175781 C 371.589844 213.207031 371.589844 211.089844 372.039062 209.125 C 369.769531 206.550781 366.742188 204.28125 362.957031 202.316406 C 355.699219 198.386719 347.371094 195.359375 342.222656 188.550781 C 341.464844 187.640625 342.980469 186.882812 343.734375 187.488281 C 353.730469 195.507812 367.050781 198.835938 376.28125 207.609375 C 385.214844 216.234375 384.15625 228.945312 380.976562 239.992188 C 380.519531 241.804688 379.917969 243.621094 379.160156 245.433594 C 389.753906 239.839844 400.351562 237.265625 413.0625 236.964844 C 429.867188 236.511719 446.976562 235.144531 463.773438 235.753906 C 464.832031 235.453125 466.042969 235.144531 467.257812 234.84375 C 468.769531 234.542969 469.527344 236.8125 467.859375 237.265625 C 467.558594 237.414062 467.101562 237.570312 466.800781 237.570312 C 466.652344 237.722656 466.34375 237.871094 466.042969 238.023438 C 465.894531 238.023438 465.742188 238.023438 465.589844 238.023438 C 449.246094 244.53125 441.222656 267.527344 423.960938 272.214844 C 434.558594 272.820312 445.460938 275.089844 453.480469 282.355469 C 464.683594 292.636719 460.445312 305.953125 466.953125 318.210938 C 467.558594 319.269531 465.894531 320.328125 465.285156 319.269531 C 458.777344 308.980469 462.5625 295.816406 453.332031 286.738281 C 443.035156 276.605469 427.144531 275.546875 413.367188 276.304688 C 386.273438 277.816406 366.140625 290.222656 345.101562 306.105469 C 342.980469 307.621094 341.011719 304.441406 342.523438 302.625 C 359.480469 283.109375 389.148438 273.125 414.730469 272.214844 C 414.429688 271.609375 414.429688 270.699219 415.1875 270.398438 C 427.597656 264.957031 436.980469 259.808594 446.21875 249.671875 C 449.847656 245.734375 453.480469 241.652344 457.71875 238.78125 C 445.460938 239.683594 432.894531 239.535156 420.632812 240.140625 C 412.160156 240.441406 403.527344 240.441406 395.355469 243.015625 C 388.699219 244.980469 382.644531 248.613281 376.433594 251.941406 C 372.496094 260.109375 367.351562 267.527344 361.296875 274.335938 C 381.429688 262.53125 403.078125 253 424.871094 247.101562 C 425.929688 246.800781 426.386719 248.3125 425.328125 248.761719 C 405.796875 254.8125 387.632812 263.441406 370.078125 273.726562 C 361.898438 278.574219 353.875 283.867188 346.007812 289.3125 C 339.347656 295.0625 332.234375 300.203125 325.117188 305.195312 C 325.117188 305.652344 325.117188 306.105469 324.816406 306.5625 C 324.816406 306.710938 324.667969 306.710938 324.511719 306.863281 L 324.511719 307.011719 C 324.359375 307.464844 324.058594 308.074219 323.601562 308.375 C 323.453125 308.679688 323.300781 308.980469 323 309.132812 C 320.425781 311.101562 317.855469 313.21875 315.429688 315.183594 C 317.097656 314.882812 318.761719 314.578125 320.574219 313.820312 C 324.667969 312.003906 328.296875 309.28125 331.625 306.5625 C 331.171875 305.195312 331.625 303.535156 332.839844 302.472656 C 334.652344 300.8125 337.679688 301.113281 338.894531 303.382812 C 340.253906 305.804688 338.289062 308.679688 335.710938 308.679688 C 335.410156 308.679688 335.261719 308.679688 334.957031 308.523438 C 331.929688 311.703125 327.539062 315.789062 322.84375 318.511719 C 324.816406 318.8125 326.785156 318.96875 328.753906 319.117188 C 345.402344 317.300781 355.242188 300.660156 372.039062 298.84375 C 373.105469 298.691406 373.40625 300.660156 372.347656 300.8125 C 360.238281 302.472656 350.847656 313.820312 339.648438 319.117188 C 345.25 318.8125 350.703125 317.757812 355.84375 316.242188 C 356 314.429688 357.359375 312.613281 359.480469 312.761719 C 362.355469 312.914062 364.472656 315.941406 363.714844 318.667969 C 363.414062 319.570312 362.8125 320.179688 362.054688 320.628906 C 362.355469 320.628906 362.507812 320.480469 362.8125 320.480469 C 372.195312 317.910156 378.550781 309.589844 387.179688 305.652344 C 401.410156 299.144531 417.304688 299.445312 432.441406 301.714844 C 433.652344 301.871094 433.042969 303.683594 431.984375 303.535156 C 420.785156 302.023438 409.28125 301.414062 398.230469 304.140625 C 388.542969 306.410156 382.1875 311.402344 374.464844 317.300781 C 365.382812 324.109375 354.183594 325.472656 343.132812 323.960938 C 338.4375 324.5625 333.75 324.71875 328.753906 324.71875 C 328.296875 324.71875 327.996094 324.71875 327.539062 324.71875 C 330.265625 326.378906 332.992188 328.191406 335.5625 330.011719 C 335.5625 329.40625 336.167969 328.949219 336.777344 329.101562 C 342.375 330.917969 347.675781 333.039062 353.730469 331.527344 C 357.511719 330.617188 360.84375 328.347656 364.472656 326.988281 C 370.226562 324.867188 375.675781 324.410156 381.578125 325.921875 C 382.789062 326.230469 382.1875 327.890625 381.121094 327.742188 C 369.925781 325.472656 363.265625 332.128906 353.273438 334.398438 C 350.246094 335.15625 347.371094 335 344.492188 334.246094 C 344.492188 334.699219 344.492188 335 344.34375 335.457031 C 343.589844 337.578125 341.464844 338.335938 339.496094 338.027344 C 338.4375 337.878906 337.835938 336.820312 337.679688 335.910156 C 330.722656 332.730469 324.210938 329.257812 317.246094 326.378906 C 322.84375 331.21875 327.84375 336.96875 331.023438 343.324219 C 331.324219 343.175781 331.625 343.175781 332.082031 343.324219 C 344.191406 350.285156 351.914062 360.574219 359.929688 371.621094 C 360.386719 372.375 359.328125 373.132812 358.726562 372.523438 C 354.785156 367.835938 350.847656 362.992188 346.761719 358.304688 C 343.734375 354.824219 340.105469 352.097656 336.46875 349.527344 C 336.46875 349.683594 336.46875 349.984375 336.320312 350.132812 C 336.019531 351.34375 335.109375 352.253906 334.050781 352.707031 C 336.777344 357.394531 339.347656 362.234375 342.222656 367.082031 C 348.578125 377.820312 363.566406 384.929688 363.566406 398.699219 C 363.566406 399.457031 362.355469 399.457031 362.355469 398.699219 C 362.054688 388.261719 353.574219 384.171875 347.371094 377.671875 C 343.890625 374.039062 341.011719 369.800781 338.4375 365.414062 C 335.867188 361.03125 333.292969 356.792969 330.566406 352.554688 C 329.964844 352.097656 329.507812 351.496094 329.355469 350.738281 L 329.355469 350.585938 C 325.117188 344.234375 320.730469 338.179688 315.429688 332.28125 C 315.277344 332.128906 314.976562 331.976562 314.828125 331.828125 C 315.585938 333.039062 316.339844 334.398438 316.945312 335.457031 C 318.613281 338.484375 319.972656 341.359375 320.882812 344.535156 C 320.882812 343.929688 321.03125 343.175781 321.03125 342.566406 C 321.183594 341.207031 323.300781 341.054688 323.300781 342.566406 C 323 355.582031 329.207031 364.203125 333.59375 375.550781 C 335.410156 380.242188 335.410156 384.171875 332.839844 388.5625 C 332.382812 389.320312 331.324219 388.5625 331.78125 387.957031 C 336.621094 379.03125 327.386719 369.652344 324.210938 361.785156 C 323.300781 359.363281 322.394531 357.09375 321.789062 354.671875 C 321.484375 354.824219 321.183594 354.976562 320.882812 354.976562 C 318.003906 355.582031 316.1875 352.707031 317.546875 350.285156 C 317.855469 349.683594 318.457031 349.375 319.0625 349.226562 C 318.15625 347.257812 317.097656 345.144531 316.035156 343.175781 C 315.585938 344.535156 314.976562 345.898438 314.21875 346.957031 C 314.976562 347.105469 315.734375 347.558594 315.886719 348.617188 C 319.0625 367.835938 318.457031 388.710938 311.042969 406.109375 C 316.339844 408.6875 320.273438 412.917969 324.359375 417.457031 C 332.234375 426.535156 337.984375 431.230469 350.703125 430.625 C 357.96875 430.320312 364.625 430.320312 370.527344 435.011719 C 373.863281 437.582031 376.28125 441.0625 379.007812 444.089844 C 378.25 438.191406 376.890625 432.742188 374.164062 427.292969 C 373.707031 426.535156 374.921875 425.78125 375.375 426.535156 C 378.851562 432.589844 381.277344 439.703125 381.429688 446.660156 C 383.847656 449.082031 386.574219 451.050781 390.207031 451.957031 C 391.71875 452.410156 391.117188 454.527344 389.601562 454.226562 C 382.488281 453.167969 378.703125 448.023438 374.011719 442.878906 C 369.769531 438.339844 365.839844 434.859375 359.175781 434.410156 C 353.574219 433.953125 348.128906 435.921875 342.523438 435.3125 C 326.9375 433.800781 321.484375 417.15625 309.074219 410.199219 C 308.921875 410.347656 308.921875 410.503906 308.921875 410.648438 C 309.375 410.957031 309.675781 411.558594 309.675781 412.164062 C 309.675781 430.472656 323.453125 441.21875 337.984375 449.539062 C 353.121094 458.160156 370.679688 462.089844 387.332031 455.4375 C 388.542969 454.980469 389.300781 456.796875 388.242188 457.40625 C 369.769531 467.085938 349.789062 462.246094 332.535156 451.957031 C 319.515625 444.089844 305.746094 432.742188 304.988281 416.855469 C 303.777344 418.671875 302.410156 420.335938 300.898438 421.996094 C 310.433594 437.734375 318.15625 454.679688 323.757812 472.234375 C 326.785156 476.015625 329.8125 479.34375 334.199219 481.457031 C 338.589844 483.578125 343.433594 484.027344 347.371094 487.054688 C 348.429688 487.8125 347.519531 489.324219 346.460938 488.722656 C 341.164062 486.152344 335.261719 485.542969 330.265625 482.515625 C 328.753906 481.613281 327.238281 480.554688 325.875 479.34375 C 331.023438 497.644531 334.050781 516.710938 334.652344 535.777344 C 334.652344 536.835938 333.140625 536.683594 333.140625 535.777344 C 331.929688 521.707031 329.8125 508.089844 326.480469 494.621094 C 323.757812 503.25 318.613281 512.171875 311.191406 517.011719 C 311.042969 517.011719 311.042969 517.167969 310.890625 517.167969 C 311.191406 518.828125 311.34375 520.339844 311.191406 521.707031 C 310.285156 528.207031 303.476562 535.46875 297.566406 537.894531 C 296.355469 538.347656 295.453125 536.535156 296.355469 535.777344 C 300.292969 532.597656 305.289062 528.816406 307.5625 524.277344 C 308.464844 522.609375 308.621094 520.648438 308.316406 518.828125 L 308.164062 518.980469 C 303.476562 523.21875 295.453125 523.671875 289.398438 523.367188 C 288.339844 523.367188 288.339844 521.707031 289.398438 521.707031 C 292.726562 521.707031 295.90625 521.25 298.933594 520.191406 C 301.652344 519.28125 304.230469 517.769531 306.953125 517.011719 C 307.40625 516.859375 307.707031 517.011719 308.015625 517.316406 C 307.863281 516.867188 307.707031 516.257812 307.5625 515.800781 C 305.59375 515.957031 303.621094 514.441406 301.808594 514.140625 C 299.382812 513.6875 297.113281 513.832031 294.695312 514.140625 C 293.9375 514.289062 293.636719 513.078125 294.238281 512.628906 C 296.664062 511.261719 299.382812 510.960938 302.109375 511.417969 C 303.320312 511.570312 304.835938 511.871094 306.195312 512.472656 C 304.535156 508.992188 302.109375 505.820312 300.140625 503.550781 C 299.992188 503.394531 299.992188 503.09375 299.839844 502.941406 C 299.691406 503.09375 299.691406 503.09375 299.539062 503.25 C 291.96875 509.902344 283.945312 513.382812 274.105469 511.71875 C 274.863281 513.382812 275.316406 515.5 275.015625 517.167969 C 274.863281 518.378906 274.257812 519.4375 273.503906 520.339844 C 272.445312 521.550781 269.867188 522.917969 270.320312 525.03125 C 271.835938 525.488281 270.019531 526.390625 269.566406 525.1875 Z M 280.460938 538.195312 C 284.097656 537.738281 287.882812 537.136719 291.511719 536.378906 C 292.425781 536.226562 292.269531 534.566406 291.210938 534.566406 C 286.972656 534.867188 282.734375 535.324219 278.5 535.625 C 275.773438 535.925781 272.746094 535.625 271.835938 532.445312 C 271.535156 531.539062 271.535156 530.785156 271.230469 530.027344 C 273.804688 530.628906 276.53125 530.328125 279.101562 530.027344 C 281.527344 529.726562 283.945312 529.417969 286.214844 528.359375 C 286.972656 528.058594 286.515625 527 285.914062 527 C 283.339844 526.699219 280.769531 527.300781 278.042969 527.300781 C 275.621094 527.457031 273.347656 527.148438 270.929688 527.605469 C 270.320312 527.757812 270.171875 528.210938 270.019531 528.660156 C 269.566406 528.660156 269.261719 528.816406 269.109375 529.269531 C 267.902344 532.597656 270.019531 536.984375 273.347656 538.195312 C 275.621094 539.105469 278.191406 538.496094 280.460938 538.195312 Z M 516.148438 307.320312 C 517.207031 301.414062 519.78125 297.175781 523.417969 292.792969 C 512.96875 296.121094 501.917969 297.632812 492.535156 303.683594 C 482.089844 310.34375 476.941406 320.628906 474.222656 332.28125 C 477.25 332.28125 480.121094 332.730469 482.847656 333.796875 C 487.992188 320.9375 497.683594 310.492188 509.183594 302.925781 C 510.394531 302.171875 511.453125 303.984375 510.242188 304.742188 C 499.34375 312.761719 491.929688 323.203125 486.023438 335.15625 C 488.292969 336.367188 490.417969 337.878906 492.230469 339.539062 C 492.386719 339.539062 492.535156 339.539062 492.6875 339.539062 C 493.898438 339.695312 494.957031 339.695312 496.167969 339.847656 C 496.316406 339.238281 496.773438 338.785156 497.53125 338.484375 C 512.667969 333.488281 513.878906 320.628906 516.148438 307.320312 Z M 473.3125 334.246094 C 473.15625 334.398438 473.15625 334.398438 473.007812 334.550781 C 473.914062 341.664062 472.398438 348.316406 466.652344 355.277344 C 460.597656 362.542969 453.03125 368.742188 444.25 371.921875 C 444.703125 382.660156 451.0625 387.050781 456.359375 395.21875 C 459.535156 399.910156 461.046875 405.507812 461.355469 411.105469 C 462.867188 410.804688 464.53125 410.957031 465.589844 411.257812 C 462.257812 404.597656 460.898438 396.429688 460.445312 389.320312 C 460.445312 388.410156 461.804688 388.261719 461.957031 389.167969 C 462.867188 393.558594 463.925781 397.945312 465.285156 402.179688 C 466.34375 405.507812 468.011719 408.535156 469.226562 411.714844 C 469.679688 411.714844 470.128906 411.714844 470.585938 411.714844 C 470.585938 411.714844 470.585938 411.714844 470.738281 411.714844 C 470.285156 411.558594 469.980469 411.40625 469.980469 410.804688 C 468.769531 403.996094 470.585938 398.246094 472.855469 391.738281 C 476.640625 380.699219 477.699219 371.164062 474.222656 359.816406 C 473.914062 358.761719 475.582031 358.304688 475.882812 359.363281 C 478.308594 366.324219 479.367188 373.28125 478.308594 380.699219 C 476.941406 391.136719 471.796875 399.910156 472.398438 410.648438 C 472.398438 411.105469 472.097656 411.558594 471.796875 411.714844 C 471.949219 411.714844 471.949219 411.714844 472.097656 411.714844 C 474.367188 411.40625 476.640625 411.105469 478.910156 411.257812 C 477.550781 400.058594 487.539062 389.019531 492.835938 379.941406 C 504.945312 359.0625 496.925781 338.785156 473.3125 334.246094 Z M 487.992188 412.46875 C 494.503906 398.546875 505.253906 386.441406 516.296875 375.402344 C 513.269531 378.273438 510.09375 381.148438 507.066406 384.023438 C 498.441406 392.347656 489.660156 400.515625 487.992188 412.46875 Z M 514.027344 383.269531 C 515.695312 380.847656 517.507812 378.578125 519.175781 376.160156 C 508.882812 387.808594 498.890625 399.457031 490.71875 413.074219 C 500.253906 406.265625 507.824219 391.738281 514.027344 383.269531 Z M 488.292969 421.546875 C 487.992188 421.546875 487.539062 421.546875 487.234375 421.546875 C 485.722656 421.546875 484.964844 420.183594 484.964844 418.824219 C 484.507812 418.671875 484.058594 418.214844 484.058594 417.613281 C 483.90625 417.007812 483.90625 416.554688 483.90625 415.945312 C 483.753906 415.945312 483.605469 415.945312 483.304688 415.796875 C 480.121094 413.984375 477.550781 414.132812 474.523438 414.738281 C 474.671875 415.496094 474.671875 416.253906 474.523438 417.007812 C 474.222656 418.671875 473.914062 420.183594 473.613281 421.546875 C 474.824219 420.484375 476.339844 420.035156 478.152344 420.183594 C 479.519531 420.335938 480.726562 420.941406 481.9375 421.695312 C 482.695312 421.546875 483.304688 421.996094 483.605469 422.605469 L 483.753906 422.605469 C 486.332031 423.964844 488.902344 423.964844 491.476562 423.964844 C 491.171875 423.664062 490.71875 423.363281 490.261719 422.90625 C 489.660156 422.753906 488.902344 422.152344 488.292969 421.546875 Z M 571.097656 437.28125 C 573.0625 437.128906 575.03125 437.128906 577 436.980469 L 577.152344 436.824219 C 581.839844 432.742188 587.75 430.472656 592.4375 426.234375 C 597.734375 421.394531 600.160156 416.097656 603.1875 409.746094 C 603.789062 408.535156 605.457031 409.445312 605.15625 410.648438 C 603.789062 417.3125 600.160156 423.363281 595.464844 428.050781 C 592.4375 431.074219 588.503906 434.410156 584.265625 436.824219 C 586.683594 436.824219 589.109375 436.679688 591.53125 436.679688 C 604.246094 422.605469 619.382812 411.257812 616.957031 390.832031 C 610.902344 402.636719 591.679688 400.367188 587.59375 414.433594 C 587.441406 415.1875 586.839844 415.496094 586.234375 415.644531 C 589.109375 423.664062 579.726562 431.984375 571.097656 437.28125 Z M 620.140625 435.011719 C 620.140625 435.164062 620.140625 435.164062 620.140625 435.3125 C 620.292969 435.164062 620.441406 435.011719 620.59375 434.859375 C 625.4375 432.140625 627.707031 428.503906 631.035156 424.265625 C 634.0625 420.335938 637.394531 416.855469 641.175781 413.527344 C 642.089844 412.617188 643.601562 413.984375 642.542969 414.886719 C 638.003906 419.582031 633.917969 424.722656 630.433594 430.472656 C 629.976562 431.230469 629.523438 431.984375 628.921875 432.742188 C 642.089844 422.453125 659.195312 408.378906 660.40625 392.046875 C 657.226562 398.398438 650.113281 401.570312 643.753906 404.90625 C 630.433594 411.714844 619.683594 418.523438 620.140625 435.011719 Z M 671.90625 430.625 C 671.90625 430.773438 671.90625 430.773438 671.90625 430.625 C 674.632812 427.445312 677.8125 424.574219 680.386719 421.242188 C 683.5625 417.007812 686.140625 412.316406 688.558594 407.625 C 689.3125 406.109375 691.886719 407.175781 691.28125 408.835938 C 689.167969 414.132812 686.285156 419.125 682.804688 423.816406 C 680.988281 426.234375 679.019531 428.960938 676.902344 431.230469 C 677.058594 431.230469 677.203125 431.230469 677.359375 431.074219 C 692.195312 422.605469 700.519531 407.324219 703.238281 390.980469 C 700.667969 394.316406 696.882812 396.277344 692.339844 398.855469 C 680.230469 405.355469 667.820312 415.042969 671.90625 430.625 Z M 709.902344 421.546875 C 710.050781 421.546875 710.050781 421.546875 710.203125 421.546875 C 716.863281 416.253906 725.1875 412.773438 733.667969 411.40625 C 735.027344 411.257812 735.636719 413.226562 734.269531 413.527344 C 726.554688 414.886719 719.890625 417.613281 713.535156 421.851562 C 722.617188 422.304688 731.242188 420.035156 739.566406 415.945312 C 743.808594 413.828125 747.746094 411.40625 751.984375 409.445312 C 745.019531 408.988281 738.054688 408.378906 731.09375 408.988281 C 721.402344 409.746094 715.957031 415.34375 709.902344 421.546875 Z M 676.902344 437.882812 C 679.628906 439.25 682.503906 440.609375 685.074219 442.121094 C 689.167969 444.542969 693.253906 448.023438 698.09375 448.78125 C 699.152344 448.929688 698.851562 450.597656 697.792969 450.597656 C 693.707031 450.292969 690.527344 448.023438 687.042969 446.058594 C 682.046875 443.179688 676.902344 440.761719 671.605469 438.640625 C 671 438.339844 670.695312 437.882812 670.695312 437.582031 C 670.695312 437.582031 670.695312 437.582031 670.546875 437.582031 C 669.789062 437.582031 669.335938 437.128906 669.179688 436.679688 C 668.730469 436.824219 668.425781 436.824219 667.972656 436.980469 C 674.175781 445.300781 680.386719 452.5625 689.921875 457.25 C 700.367188 462.398438 711.71875 462.699219 722.917969 463.757812 C 717.167969 457.25 713.078125 450.140625 705.363281 445.300781 C 696.582031 439.703125 686.742188 438.640625 676.902344 437.882812 Z M 623.011719 441.664062 C 622.410156 441.664062 621.808594 441.664062 621.199219 441.820312 C 623.46875 443.484375 625.589844 445.601562 627.40625 447.113281 C 633.308594 452.109375 638.148438 457.707031 642.691406 463.910156 C 643.300781 464.667969 642.089844 465.570312 641.484375 464.816406 C 637.394531 460.277344 633.003906 455.890625 628.464844 451.808594 C 624.078125 447.871094 619.230469 445.148438 614.539062 441.972656 C 613.480469 441.972656 612.417969 441.972656 611.359375 442.121094 C 618.78125 453.921875 626.039062 464.210938 639.972656 468.898438 C 647.539062 471.476562 655.710938 471.925781 660.707031 477.675781 C 658.738281 468.144531 649.808594 461.488281 642.691406 455.136719 C 636.335938 449.839844 629.976562 445.449219 623.011719 441.664062 Z M 499.648438 438.339844 C 507.824219 442.878906 514.785156 449.539062 522.660156 454.679688 C 529.921875 459.371094 537.1875 464.058594 544.453125 468.898438 C 530.984375 456.039062 518.265625 442.273438 499.648438 438.339844 Z M 524.777344 462.699219 C 533.558594 467.085938 542.640625 470.566406 551.265625 475.40625 C 541.273438 469.355469 531.285156 463 521.449219 456.648438 C 512.511719 450.898438 504.1875 443.03125 494.65625 438.492188 C 494.046875 438.191406 493.898438 437.734375 494.046875 437.28125 C 493.289062 436.980469 492.835938 436.371094 492.6875 435.613281 C 492.535156 436.222656 492.078125 436.679688 491.320312 436.371094 C 484.964844 435.011719 480.878906 442.730469 474.367188 440.609375 C 468.769531 438.949219 465.894531 432.742188 460.597656 430.625 C 460.289062 431.683594 459.988281 432.894531 459.988281 433.953125 C 459.988281 436.371094 461.503906 438.191406 461.65625 440.460938 L 461.65625 440.609375 C 461.804688 440.609375 461.957031 440.609375 462.113281 440.460938 C 462.714844 440.308594 463.316406 440.910156 463.625 441.363281 C 463.925781 441.21875 464.230469 440.910156 464.53125 440.761719 C 465.285156 440.308594 466.042969 441.363281 465.441406 441.972656 C 455.601562 450.597656 450.605469 459.820312 446.0625 471.925781 C 443.339844 479.492188 438.949219 482.667969 434.109375 487.664062 C 452.117188 478.285156 460.597656 462.546875 466.652344 443.03125 C 467.101562 441.519531 469.679688 441.664062 469.527344 443.484375 C 469.527344 443.632812 469.527344 443.789062 469.527344 443.789062 C 470.128906 443.933594 470.738281 444.390625 471.039062 445.300781 C 471.339844 446.058594 471.496094 446.660156 471.644531 447.417969 C 473.007812 447.417969 474.066406 447.113281 474.976562 446.511719 C 475.125 445.601562 475.28125 444.84375 475.582031 443.933594 C 475.882812 443.03125 477.398438 443.03125 477.398438 444.242188 C 477.398438 444.390625 477.398438 444.542969 477.398438 444.84375 C 477.699219 444.542969 478.152344 444.390625 478.453125 444.242188 C 478.609375 443.179688 479.96875 442.730469 480.726562 443.484375 C 483.605469 442.878906 486.480469 443.484375 488.902344 441.363281 C 489.050781 440.308594 489.808594 439.550781 490.71875 439.550781 C 491.320312 438.492188 492.988281 437.882812 494.046875 438.792969 C 503.738281 448.328125 512.667969 456.796875 524.777344 462.699219 Z M 428.65625 490.691406 C 429.113281 490.535156 429.714844 490.234375 430.171875 489.933594 C 430.171875 489.933594 430.171875 489.78125 430.324219 489.78125 C 430.625 489.324219 430.925781 489.023438 431.230469 488.722656 C 430.324219 489.476562 429.566406 490.082031 428.65625 490.691406 Z M 441.066406 471.625 C 439.097656 476.316406 436.527344 482.214844 433.042969 486.605469 C 435.769531 484.027344 438.949219 482.066406 441.066406 478.886719 C 444.398438 473.746094 445.308594 467.238281 447.878906 461.640625 C 450.90625 454.832031 455.300781 448.78125 460.898438 444.089844 C 454.234375 446.960938 448.789062 448.929688 445.609375 456.949219 C 443.792969 461.640625 443.035156 466.785156 441.066406 471.625 Z M 429.414062 450.140625 C 438.648438 446.660156 447.878906 443.179688 457.261719 440.152344 C 456.203125 438.492188 455.75 436.222656 455.75 434.410156 C 455.75 434.410156 455.75 434.410156 455.75 434.253906 C 451.816406 435.769531 447.277344 435.613281 443.035156 435.613281 C 435.011719 435.613281 426.988281 435.613281 419.121094 435.464844 C 418.0625 435.464844 418.0625 433.800781 419.121094 433.800781 C 431.53125 433.34375 444.25 434.410156 456.203125 431.53125 C 456.660156 430.015625 457.261719 428.503906 457.871094 426.992188 C 450.757812 428.503906 443.035156 427.601562 435.921875 426.691406 C 435.011719 426.535156 435.011719 425.175781 435.921875 425.175781 C 443.492188 425.933594 450.90625 425.023438 458.328125 424.574219 C 458.476562 423.207031 458.171875 421.695312 457.261719 420.183594 L 457.117188 420.183594 C 448.335938 417.613281 438.195312 415.496094 430.472656 410.347656 C 425.328125 406.867188 421.84375 402.179688 415.488281 400.667969 C 410.644531 399.609375 405.648438 399.910156 400.652344 400.515625 C 403.226562 407.019531 405.347656 414.132812 405.953125 421.09375 C 410.339844 421.546875 414.578125 421.695312 418.972656 421.851562 C 419.875 421.851562 420.03125 423.207031 419.121094 423.363281 C 414.878906 424.117188 410.339844 424.117188 406.105469 423.664062 C 406.554688 433.652344 404.285156 443.179688 397.324219 450.597656 C 407.464844 458.765625 418.816406 454.078125 429.414062 450.140625 Z M 479.367188 424.574219 C 477.398438 423.816406 475.425781 423.816406 474.367188 426.085938 L 474.222656 426.234375 C 475.582031 430.171875 475.582031 433.652344 472.398438 436.523438 C 475.882812 438.792969 478.761719 437.882812 481.789062 436.523438 C 481.789062 436.222656 481.789062 436.070312 481.9375 435.769531 C 483.148438 433.34375 482.847656 431.230469 481.179688 429.261719 C 480.578125 428.355469 479.820312 427.601562 479.367188 426.535156 C 479.210938 425.933594 479.210938 425.175781 479.367188 424.574219 Z M 493.746094 429.113281 C 493.289062 428.65625 492.988281 427.902344 493.289062 427.292969 C 490.871094 428.203125 488.144531 428.050781 485.574219 427.445312 C 484.816406 427.292969 484.058594 426.84375 483.304688 426.535156 C 483.753906 428.050781 484.816406 430.171875 484.964844 431.074219 C 485.265625 432.589844 484.964844 433.953125 484.507812 435.3125 C 486.632812 434.410156 488.902344 433.652344 491.320312 434.101562 C 491.320312 433.800781 491.476562 433.5 491.628906 433.195312 C 492.988281 431.832031 493.59375 430.472656 493.746094 429.113281 Z M 451.816406 413.527344 C 452.421875 413.675781 452.574219 414.285156 452.574219 414.738281 C 454.542969 415.496094 456.660156 416.253906 458.628906 417.15625 C 459.230469 417.457031 459.535156 418.066406 459.386719 418.671875 C 461.804688 420.484375 462.113281 423.511719 461.65625 426.535156 C 461.65625 426.691406 461.65625 426.691406 461.65625 426.84375 C 465.894531 428.804688 467.558594 432.441406 470.738281 435.3125 C 474.824219 431.074219 471.039062 428.355469 469.980469 424.265625 C 469.371094 421.394531 471.039062 418.671875 470.738281 415.796875 C 470.585938 415.796875 470.4375 415.796875 470.285156 415.796875 C 469.828125 416.097656 469.070312 416.097656 468.769531 415.644531 C 466.34375 415.1875 463.625 413.675781 461.65625 414.585938 C 461.65625 414.738281 461.503906 414.886719 461.503906 414.886719 C 461.503906 415.042969 461.65625 415.1875 461.65625 415.34375 C 462.113281 417.457031 458.929688 418.367188 458.328125 416.253906 C 458.019531 415.042969 457.71875 413.984375 457.417969 412.917969 C 451.0625 404.449219 440.464844 399.757812 431.683594 394.007812 C 424.871094 389.621094 417.757812 385.082031 411.402344 380.089844 C 410.191406 379.632812 408.980469 379.03125 407.921875 378.429688 C 420.785156 392.347656 432.289062 407.625 451.816406 413.527344 Z M 422 384.328125 C 427.898438 388.5625 433.953125 392.949219 440.007812 396.886719 C 445.308594 400.367188 450.453125 403.539062 454.84375 407.777344 C 448.488281 396.277344 435.921875 389.46875 423.511719 384.78125 C 422.902344 384.78125 422.449219 384.480469 422 384.328125 Z M 471.039062 334.699219 L 471.039062 334.550781 C 470.886719 334.550781 470.886719 334.398438 470.738281 334.398438 C 470.886719 334.398438 470.886719 334.550781 471.039062 334.699219 Z M 556.71875 314.429688 C 564.132812 310.644531 573.0625 308.980469 580.9375 308.074219 C 581.996094 307.921875 582.144531 309.589844 581.238281 309.890625 C 574.273438 311.550781 566.558594 313.371094 560.195312 316.542969 C 553.234375 320.027344 550.207031 325.320312 546.726562 331.527344 C 561.558594 332.128906 574.882812 330.011719 585.925781 319.117188 C 591.378906 313.820312 595.007812 307.464844 600.917969 303.230469 C 590.019531 304.441406 578.511719 305.195312 568.21875 308.074219 C 563.222656 309.28125 559.589844 311.550781 556.71875 314.429688 Z M 579.726562 458.160156 C 577.300781 457.101562 574.574219 456.039062 572.003906 454.832031 C 578.96875 463.15625 586.535156 469.808594 596.980469 473.59375 C 598.035156 473.894531 597.585938 475.558594 596.523438 475.257812 C 586.535156 472.078125 576.84375 466.328125 570.339844 458.007812 C 573.972656 466.027344 578.8125 473.289062 585.78125 479.34375 C 593.195312 485.695312 603.035156 488.566406 610 495.230469 C 610.753906 485.394531 608.183594 478.734375 600.160156 472.078125 C 593.804688 466.480469 587.292969 461.640625 579.726562 458.160156 Z M 569.585938 453.769531 C 569.128906 453.621094 568.671875 453.320312 568.371094 453.167969 C 568.519531 453.621094 568.671875 454.078125 568.828125 454.378906 C 568.976562 454.226562 569.277344 453.921875 569.585938 453.769531 Z M 526.289062 289.164062 C 527.648438 288.855469 528.257812 290.523438 527.347656 291.277344 C 527.347656 291.433594 527.347656 291.734375 527.199219 291.882812 C 519.632812 302.472656 521.59375 314.128906 517.054688 325.621094 C 514.785156 331.371094 511 336.367188 506.007812 339.394531 C 518.117188 338.636719 530.226562 335.609375 541.882812 333.339844 C 541.425781 332.886719 541.125 332.128906 541.273438 331.371094 C 547.179688 301.414062 580.628906 302.472656 604.398438 300.8125 C 604.847656 300.511719 605.457031 300.355469 606.0625 300.054688 C 607.574219 299.445312 608.484375 301.871094 607.121094 302.625 C 595.316406 307.921875 590.320312 322.75 578.8125 329.40625 C 569.128906 335 556.410156 338.027344 545.511719 334.855469 C 545.058594 334.699219 544.757812 334.398438 544.453125 334.097656 C 544.300781 334.097656 544.152344 334.097656 544 334.097656 C 543.851562 334.097656 543.699219 334.097656 543.542969 334.097656 C 543.542969 334.398438 543.394531 334.550781 542.941406 334.699219 C 533.402344 337.578125 523.417969 339.539062 513.578125 341.359375 C 507.972656 342.417969 501.769531 344.078125 496.015625 343.476562 C 499.648438 348.316406 501.917969 354.066406 502.371094 360.121094 C 502.980469 368.894531 499.34375 376.761719 495.105469 384.171875 C 492.6875 388.410156 489.960938 392.496094 487.691406 396.730469 C 485.117188 401.570312 484.207031 406.71875 482.238281 411.558594 C 482.695312 411.863281 483.148438 412.015625 483.605469 412.316406 C 484.058594 403.238281 489.203125 395.828125 495.863281 389.320312 C 507.972656 377.21875 520.992188 365.261719 534.3125 354.523438 C 535.21875 353.765625 536.429688 354.976562 535.527344 355.734375 L 535.371094 355.882812 C 535.527344 356.183594 535.527344 356.492188 535.371094 356.941406 C 527.648438 370.554688 518.117188 383.269531 508.882812 395.675781 C 504.039062 402.027344 499.5 410.046875 492.988281 414.886719 C 512.96875 408.078125 525.835938 384.480469 545.96875 377.21875 C 553.082031 374.644531 561.863281 374.492188 568.519531 378.730469 C 577 384.171875 576.089844 394.007812 580.328125 402.027344 C 580.9375 403.085938 579.269531 404.148438 578.667969 403.085938 C 577.910156 402.027344 577.453125 400.96875 576.84375 399.757812 C 567.917969 408.234375 556.5625 413.527344 544.300781 415.34375 C 542.941406 415.496094 542.335938 413.375 543.699219 413.226562 C 555.808594 411.558594 566.25 406.265625 574.882812 397.789062 C 575.183594 397.488281 575.484375 397.339844 575.785156 397.339844 C 575.183594 395.519531 574.726562 393.558594 574.125 391.4375 C 571.855469 383.570312 566.101562 378.121094 557.621094 377.671875 C 544.910156 377.0625 535.371094 386.441406 526.746094 394.160156 C 517.507812 402.480469 505.855469 417.007812 492.6875 420.335938 C 492.835938 420.484375 492.988281 420.636719 493.140625 420.792969 C 494.503906 422.152344 495.714844 423.511719 496.167969 425.332031 C 496.167969 425.476562 496.167969 425.632812 496.316406 425.933594 C 504.1875 424.875 512.0625 424.117188 519.933594 423.0625 C 520.992188 422.90625 521.292969 424.875 520.234375 425.023438 C 512.367188 426.234375 504.496094 427.601562 496.472656 428.804688 C 496.316406 429.5625 496.167969 430.320312 496.015625 430.925781 C 510.851562 431.832031 524.929688 439.09375 540.214844 439.550781 C 551.566406 439.851562 595.765625 430.625 580.628906 410.648438 C 580.027344 409.746094 581.238281 408.988281 581.996094 409.59375 C 582.753906 410.199219 583.355469 410.804688 583.964844 411.558594 C 587.140625 396.585938 610 399 616.054688 385.6875 C 616.203125 385.382812 616.355469 385.230469 616.507812 385.230469 C 617.113281 384.328125 618.78125 384.328125 619.082031 385.539062 C 624.226562 407.019531 613.027344 422.453125 598.492188 435.914062 C 605.15625 435.769531 611.660156 435.769531 618.324219 435.613281 C 618.023438 435.464844 617.867188 435.3125 617.714844 435.160156 C 613.175781 427.59375 617.265625 418.515625 622.863281 412.617188 C 632.703125 402.328125 655.257812 401.269531 659.648438 386.597656 C 659.949219 385.539062 661.007812 385.539062 661.613281 386.140625 C 661.613281 386.140625 661.765625 386.140625 661.765625 386.292969 C 667.667969 394.917969 658.585938 406.566406 653.441406 413.375 C 647.085938 421.695312 639.515625 428.960938 631.492188 435.464844 C 644.359375 435.011719 657.070312 433.953125 669.636719 431.984375 C 669.488281 431.832031 669.335938 431.683594 669.179688 431.53125 C 665.398438 423.964844 667.21875 415.496094 672.207031 408.835938 C 680.386719 398.097656 699.453125 395.828125 704.148438 383.113281 L 704.148438 382.96875 C 704.304688 380.542969 708.085938 380.542969 707.933594 382.96875 C 706.421875 402.179688 697.335938 419.125 681.445312 429.714844 C 690.226562 427.746094 699.003906 425.023438 707.632812 421.546875 C 711.71875 415.945312 716.714844 410.347656 723.222656 407.929688 C 733.0625 404.148438 745.929688 406.71875 756.21875 407.019531 C 756.527344 407.019531 756.828125 407.175781 756.976562 407.324219 C 757.886719 407.175781 758.1875 408.378906 757.28125 408.6875 C 757.128906 409.136719 756.828125 409.445312 756.21875 409.445312 C 756.070312 409.445312 755.769531 409.445312 755.613281 409.445312 C 748.199219 412.316406 741.839844 417.765625 734.421875 420.941406 C 726.398438 424.265625 718.683594 425.476562 710.050781 424.421875 C 709.601562 424.421875 709.449219 424.117188 709.144531 423.964844 C 699.609375 428.203125 689.769531 431.53125 679.777344 433.953125 C 688.253906 434.710938 696.582031 437.28125 703.996094 441.363281 C 714.289062 446.960938 718.53125 455.589844 726.097656 463.910156 C 727.007812 464.359375 726.855469 466.027344 725.644531 466.179688 C 701.878906 468.144531 674.332031 461.035156 663.582031 437.582031 C 652.683594 439.398438 641.632812 440.609375 630.433594 441.363281 C 637.246094 445.753906 643.300781 451.351562 649.199219 456.949219 C 655.863281 463.457031 665.25 471.324219 662.976562 481.457031 C 662.976562 481.613281 663.125 481.757812 663.125 481.914062 C 663.582031 482.824219 662.675781 483.726562 661.917969 483.726562 C 661.3125 483.882812 660.707031 483.726562 660.707031 482.972656 C 660.707031 482.824219 660.707031 482.824219 660.707031 482.667969 C 655.710938 474.046875 645.570312 474.953125 637.246094 472.234375 C 632.550781 470.71875 628.164062 468.449219 624.078125 465.570312 C 616.65625 460.128906 609.390625 451.957031 607.273438 442.878906 C 607.273438 442.730469 607.273438 442.574219 607.273438 442.421875 C 591.835938 442.878906 576.394531 442.878906 561.105469 443.332031 C 580.9375 458.917969 618.472656 466.027344 611.8125 497.800781 C 611.511719 499.011719 609.542969 498.710938 609.695312 497.5 C 604.546875 492.503906 597.585938 490.835938 591.53125 487.207031 C 587.140625 484.636719 583.207031 481.457031 579.570312 477.976562 C 572.003906 470.566406 565.949219 461.1875 563.222656 451.050781 C 563.222656 450.898438 563.222656 450.742188 563.222656 450.597656 C 560.347656 448.78125 557.925781 446.511719 556.261719 443.484375 C 555.960938 443.484375 555.652344 443.484375 555.351562 443.484375 C 546.878906 445.300781 537.945312 445.300781 529.316406 444.242188 C 526.445312 443.933594 523.261719 443.484375 520.082031 442.878906 C 534.617188 452.867188 546.121094 468.296875 559.289062 479.644531 C 560.195312 480.402344 558.835938 481.757812 557.925781 481.003906 C 557.476562 480.703125 557.167969 480.402344 556.71875 479.945312 C 556.5625 479.945312 556.410156 479.945312 556.109375 479.945312 C 538.097656 470.414062 516.449219 465.425781 500.859375 452.109375 C 504.945312 456.949219 509.035156 461.789062 512.367188 467.238281 C 517.964844 476.316406 518.722656 488.117188 517.964844 498.554688 C 516.605469 517.316406 496.925781 524.578125 480.726562 518.226562 C 479.820312 517.921875 480.277344 516.558594 481.179688 516.867188 C 492.078125 520.648438 509.035156 517.46875 512.820312 505.0625 C 515.238281 497.5 513.878906 484.636719 511.757812 477.375 C 507.972656 464.667969 494.65625 457.40625 490.261719 445.449219 C 488.292969 446.8125 485.875 447.269531 483.148438 447.71875 C 482.996094 447.71875 482.996094 447.71875 482.847656 447.871094 C 486.175781 454.980469 492.535156 460.128906 496.167969 467.238281 C 499.34375 473.4375 500.558594 479.945312 500.402344 486.90625 C 500.402344 487.8125 499.199219 487.8125 499.042969 486.90625 C 498.589844 476.617188 494.957031 467.695312 488.144531 459.976562 C 484.816406 456.191406 482.089844 453.167969 480.425781 448.929688 C 479.667969 449.382812 479.0625 449.988281 478.308594 450.597656 C 480.425781 461.488281 488.75 471.324219 485.421875 482.824219 C 485.117188 483.726562 483.90625 483.273438 484.058594 482.515625 C 486.78125 471.324219 476.792969 462.398438 475.28125 452.109375 C 474.367188 452.410156 473.3125 452.410156 472.253906 452.410156 C 472.097656 459.976562 468.167969 467.238281 466.953125 474.804688 C 464.683594 488.265625 465.894531 505.519531 477.550781 514.289062 C 478.609375 515.046875 477.699219 516.867188 476.492188 516.109375 C 467.410156 510.507812 464.074219 500.222656 462.5625 490.234375 C 461.804688 484.785156 461.503906 479.34375 462.257812 473.894531 C 463.171875 467.839844 465.589844 462.398438 466.800781 456.648438 C 460.289062 472.988281 444.703125 486.453125 429.113281 492.503906 C 428.203125 492.804688 427.898438 491.59375 428.503906 491.144531 C 427.898438 491.292969 427.445312 490.386719 427.898438 489.933594 C 438.648438 480.097656 438.496094 465.570312 444.25 453.320312 C 445.308594 450.898438 446.976562 448.929688 448.789062 447.269531 C 438.648438 451.199219 428.203125 455.136719 417.90625 457.25 C 410.035156 458.917969 402.167969 458.308594 396.566406 452.109375 C 395.8125 452.867188 394.898438 453.621094 393.996094 454.378906 C 393.238281 454.980469 392.328125 453.621094 392.929688 453.011719 C 413.671875 435.3125 400.050781 402.9375 386.273438 384.929688 C 379.160156 375.703125 370.679688 368.441406 361.144531 362.085938 C 354.332031 357.546875 347.066406 353.15625 342.074219 346.65625 C 340.707031 344.835938 343.433594 342.117188 345.25 343.476562 C 365.839844 358.761719 387.183594 371.621094 398.839844 395.519531 C 399.292969 396.585938 399.894531 397.640625 400.351562 398.855469 C 408.675781 397.488281 417.003906 396.429688 424.269531 400.816406 C 414.578125 391.589844 404.738281 381.300781 396.867188 370.554688 C 396.566406 370.253906 396.714844 369.800781 397.023438 369.652344 C 397.171875 368.894531 398.082031 368.441406 398.839844 369.042969 C 401.257812 371.3125 403.980469 373.28125 406.863281 375.09375 C 407.164062 374.792969 407.617188 374.644531 408.066406 374.949219 C 410.191406 376.308594 412.160156 377.671875 414.277344 379.03125 C 429.414062 386.140625 447.277344 390.679688 456.507812 403.839844 C 456.058594 401.878906 455.449219 400.058594 454.390625 398.246094 C 452.722656 395.21875 450.453125 392.648438 448.488281 389.921875 C 444.550781 384.628906 442.28125 379.332031 442.433594 372.824219 C 440.613281 373.433594 438.648438 373.890625 436.828125 374.039062 C 422.449219 376.003906 406.863281 372.070312 393.6875 366.472656 C 380.066406 360.722656 368.5625 348.773438 353.730469 346.046875 C 351.457031 345.59375 351.914062 341.664062 354.332031 341.964844 C 363.871094 343.019531 370.984375 348.316406 378.851562 353.464844 C 389.300781 360.273438 400.652344 365.414062 412.917969 368.285156 C 428.203125 371.769531 442.882812 371.921875 455.75 361.632812 C 460.289062 358.003906 465.441406 353.464844 468.46875 348.617188 C 471.195312 344.234375 471.949219 339.847656 471.496094 335.609375 C 471.496094 335.910156 471.195312 336.214844 470.738281 336.367188 C 461.65625 339.847656 451.964844 339.847656 442.433594 339.695312 C 441.371094 339.695312 441.371094 338.179688 442.433594 338.179688 C 451.964844 337.878906 461.046875 337.425781 470.128906 334.398438 C 470.4375 334.246094 470.738281 334.398438 470.886719 334.398438 C 470.4375 334.097656 470.285156 333.640625 470.285156 333.039062 C 470.285156 332.28125 470.4375 331.675781 470.4375 330.917969 C 470.285156 330.316406 470.128906 329.558594 469.828125 328.949219 C 466.953125 330.316406 463.015625 330.160156 460.289062 330.011719 C 459.386719 329.859375 459.386719 328.648438 460.289062 328.648438 C 462.414062 328.648438 464.53125 328.347656 466.5 327.742188 C 467.410156 327.4375 468.167969 327.136719 469.070312 326.679688 C 468.617188 325.621094 468.3125 324.410156 467.859375 323.351562 C 467.410156 321.992188 469.371094 321.539062 469.980469 322.75 C 470.4375 323.808594 470.738281 325.019531 471.195312 326.078125 L 471.339844 326.078125 C 476.941406 301.871094 503.738281 293.246094 526.289062 289.164062 Z M 63.855469 151.933594 C 68.699219 148 74.453125 145.578125 81.109375 146.488281 C 83.378906 146.789062 85.804688 147.394531 88.074219 148 C 74.148438 139.226562 60.070312 130.75 42.964844 128.632812 C 41.90625 128.480469 41.753906 126.820312 42.964844 126.820312 C 54.773438 126.519531 65.671875 131.359375 75.8125 137.109375 C 84.59375 141.949219 93.519531 146.945312 102.300781 152.386719 C 94.429688 144.976562 87.164062 136.65625 80.960938 128.480469 C 80.652344 128.632812 80.203125 128.632812 79.898438 128.480469 C 72.9375 124.851562 67.484375 120.46875 59.769531 117.890625 C 52.957031 115.621094 45.691406 114.261719 38.578125 114.109375 C 28.738281 113.960938 19.046875 117.132812 9.816406 114.109375 C 25.257812 130.75 39.636719 149.664062 63.855469 151.933594 Z M 48.109375 74.925781 C 43.265625 69.78125 37.515625 65.847656 32.523438 60.703125 C 25.859375 53.894531 20.414062 46.023438 15.117188 38.15625 C 14.660156 37.402344 15.871094 36.496094 16.476562 37.101562 C 23.441406 45.875 30.554688 54.652344 39.179688 61.910156 C 43.570312 65.542969 48.566406 68.71875 52.347656 73.109375 C 49.320312 57.980469 41.605469 46.480469 28.433594 36.496094 C 18.144531 28.625 11.480469 19.398438 5.726562 8.199219 C 4.667969 23.636719 7.996094 38.3125 17.535156 51.320312 C 25.859375 62.972656 36.609375 68.570312 48.109375 74.925781 Z M 76.421875 77.195312 C 75.964844 73.109375 76.113281 68.871094 76.570312 64.632812 C 78.082031 52.074219 80.808594 39.523438 82.925781 26.964844 C 83.078125 25.753906 85.195312 26.054688 85.046875 27.265625 C 83.078125 45.722656 77.480469 67.359375 83.535156 85.359375 C 83.679688 75.835938 86.863281 67.207031 90.648438 57.980469 C 97.761719 41.035156 93.371094 26.355469 83.378906 12.4375 C 79.898438 25.753906 67.339844 34.226562 67.183594 49.203125 C 67.03125 59.949219 71.121094 68.871094 76.421875 77.195312 Z M 83.535156 87.9375 C 83.535156 87.785156 83.535156 87.628906 83.535156 87.484375 L 83.378906 87.628906 C 83.378906 87.785156 83.535156 87.9375 83.535156 87.9375 Z M 49.476562 172.054688 C 51.894531 166.613281 55.375 160.40625 60.070312 155.566406 C 36.457031 153.898438 18.292969 128.632812 4.667969 112.144531 C 3.761719 111.082031 5.125 109.570312 6.179688 110.324219 C 6.484375 110.175781 6.9375 110.023438 7.394531 110.324219 C 20.105469 116.53125 37.667969 109.875 51.59375 111.839844 C 59.011719 112.902344 67.640625 115.320312 74.453125 119.710938 C 66.429688 108.210938 59.316406 95.652344 54.472656 82.789062 C 54.015625 82.789062 53.5625 82.488281 53.5625 81.886719 C 53.40625 81.734375 53.105469 81.578125 52.957031 81.277344 C 52.957031 81.128906 52.804688 81.128906 52.804688 81.128906 C 19.347656 75.226562 -6.683594 33.921875 3.007812 1.546875 C 3.609375 -0.570312 6.636719 0.332031 6.335938 2.457031 C 6.335938 2.601562 6.335938 2.757812 6.335938 3.058594 C 6.484375 3.210938 6.789062 3.359375 6.9375 3.660156 C 11.480469 12.289062 15.871094 21.058594 22.832031 28.175781 C 28.738281 34.226562 36.308594 38.460938 41.90625 44.964844 C 49.625 54.042969 54.621094 65.542969 55.375 77.347656 C 55.832031 78.105469 56.289062 79.007812 56.589844 79.917969 C 56.890625 80.675781 56.589844 81.277344 56.289062 81.578125 C 64.3125 97.464844 72.636719 112.292969 83.835938 126.210938 C 81.261719 119.710938 79.898438 112.902344 81.109375 106.394531 C 81.71875 102.613281 82.777344 98.832031 84.289062 95.195312 C 84.136719 95.195312 84.136719 95.046875 83.988281 95.046875 C 73.84375 83.089844 64.3125 68.71875 63.554688 52.683594 C 63.097656 45.265625 64.914062 38.3125 68.851562 32.105469 C 73.539062 24.695312 77.933594 18.035156 82.019531 10.167969 C 81.867188 9.566406 82.777344 8.957031 83.378906 9.261719 C 93.976562 14.707031 98.671875 29.835938 99.425781 40.882812 C 99.882812 47.992188 97.914062 54.199219 95.035156 60.550781 C 91.101562 69.628906 88.832031 77.496094 88.222656 86.726562 C 91.707031 80.375 96.246094 74.769531 101.542969 70.539062 C 102.453125 69.78125 103.667969 70.988281 102.910156 71.898438 C 94.128906 81.578125 85.503906 97.316406 85.503906 110.78125 C 85.503906 123.039062 94.277344 138.925781 104.570312 145.429688 C 111.539062 149.816406 117.738281 152.539062 122.890625 159.195312 C 131.515625 169.941406 140.597656 172.054688 153.011719 176.292969 C 154.824219 176.894531 154.523438 179.773438 152.554688 179.773438 C 142.566406 179.320312 133.03125 176.292969 125.617188 169.941406 C 115.019531 165.855469 105.785156 159.195312 95.339844 154.507812 C 86.105469 150.417969 77.324219 148.304688 69 154.054688 C 68.851562 154.65625 68.398438 155.414062 67.484375 155.414062 C 67.339844 155.414062 67.183594 155.414062 67.03125 155.414062 C 66.882812 155.566406 66.582031 155.714844 66.429688 155.867188 C 60.976562 160.863281 57.191406 167.972656 54.316406 174.78125 C 52.804688 177.804688 48.109375 175.234375 49.476562 172.054688 Z M 285.003906 290.976562 C 279.707031 280.988281 277.742188 269.945312 270.929688 260.566406 C 263.363281 249.972656 252.007812 241.050781 239.289062 237.871094 C 238.988281 237.871094 239.144531 237.414062 239.445312 237.570312 C 252.3125 240.441406 262.753906 245.890625 271.378906 256.027344 C 279.101562 264.957031 287.273438 278.265625 287.882812 290.367188 C 288.03125 291.734375 285.761719 292.335938 285.003906 290.976562 " fill-opacity="1" fill-rule="nonzero"/></g></svg>