<svg xmlns="http://www.w3.org/2000/svg" xmlns:xlink="http://www.w3.org/1999/xlink" width="1122" zoomAndPan="magnify" viewBox="0 0 841.92 595.499987" height="793" preserveAspectRatio="xMidYMid meet" version="1.0"><defs><g/><clipPath id="961444bf7f"><path d="M 118.03125 167.777344 L 355.339844 167.777344 L 355.339844 426.921875 L 118.03125 426.921875 Z M 118.03125 167.777344 " clip-rule="nonzero"/></clipPath><clipPath id="77a59c8976"><path d="M 133 167.777344 L 370.308594 167.777344 L 370.308594 426.921875 L 133 426.921875 Z M 133 167.777344 " clip-rule="nonzero"/></clipPath></defs><g fill="#000000" fill-opacity="1"><g transform="translate(391.553307, 482.492744)"><g/></g></g><g clip-path="url(#961444bf7f)"><path fill="#0d0d0d" d="M 353.144531 218.898438 L 314.542969 196.648438 C 315.265625 194.472656 315.753906 192.1875 315.753906 189.773438 C 315.753906 177.667969 305.898438 167.816406 293.78125 167.816406 C 281.667969 167.816406 271.808594 177.667969 271.808594 189.773438 C 271.808594 201.878906 281.667969 211.726562 293.78125 211.726562 C 300.316406 211.726562 306.132812 208.804688 310.160156 204.261719 L 346.550781 225.238281 L 346.550781 286.03125 L 293.816406 316.429688 L 241.089844 286.035156 L 241.089844 222.714844 C 241.089844 221.144531 240.25 219.695312 238.890625 218.910156 L 181.761719 185.976562 C 180.398438 185.191406 178.730469 185.191406 177.367188 185.976562 L 120.238281 218.910156 C 118.875 219.695312 118.039062 221.144531 118.039062 222.714844 L 118.039062 288.578125 C 118.039062 290.148438 118.875 291.597656 120.238281 292.382812 L 175.160156 324.042969 L 175.160156 389.558594 C 175.160156 391.128906 175.996094 392.578125 177.359375 393.363281 L 234.488281 426.296875 C 235.171875 426.6875 235.925781 426.882812 236.683594 426.882812 C 237.445312 426.882812 238.203125 426.6875 238.882812 426.296875 L 278.761719 403.292969 C 282.699219 406.996094 287.960938 409.308594 293.78125 409.308594 C 305.898438 409.308594 315.753906 399.457031 315.753906 387.351562 C 315.753906 375.246094 305.898438 365.398438 293.78125 365.398438 C 281.664062 365.398438 271.808594 375.246094 271.808594 387.351562 C 271.808594 390.464844 272.476562 393.414062 273.652344 396.097656 L 236.683594 417.421875 L 183.949219 387.023438 L 183.949219 324.050781 L 236.699219 293.644531 L 291.617188 325.304688 C 292.300781 325.695312 293.054688 325.890625 293.816406 325.890625 C 294.574219 325.890625 295.332031 325.695312 296.011719 325.304688 L 353.144531 292.371094 C 354.503906 291.585938 355.339844 290.136719 355.339844 288.566406 L 355.339844 222.703125 C 355.339844 221.132812 354.503906 219.683594 353.144531 218.898438 Z M 293.78125 202.945312 C 286.511719 202.945312 280.597656 197.035156 280.597656 189.773438 C 280.597656 182.507812 286.511719 176.597656 293.78125 176.597656 C 301.050781 176.597656 306.964844 182.507812 306.964844 189.773438 C 306.964844 197.035156 301.050781 202.945312 293.78125 202.945312 Z M 293.78125 374.179688 C 301.050781 374.179688 306.964844 380.089844 306.964844 387.351562 C 306.964844 394.617188 301.050781 400.527344 293.78125 400.527344 C 286.511719 400.527344 280.597656 394.617188 280.597656 387.351562 C 280.597656 380.089844 286.511719 374.179688 293.78125 374.179688 Z M 232.300781 286.042969 L 179.5625 316.441406 L 126.828125 286.042969 L 126.828125 225.25 L 179.5625 194.847656 L 232.300781 225.25 Z M 232.300781 286.042969 " fill-opacity="1" fill-rule="nonzero"/></g><g clip-path="url(#77a59c8976)"><path fill="#fee600" d="M 368.109375 218.898438 L 329.507812 196.648438 C 330.234375 194.472656 330.722656 192.1875 330.722656 189.773438 C 330.722656 177.667969 320.863281 167.816406 308.75 167.816406 C 296.632812 167.816406 286.773438 177.667969 286.773438 189.773438 C 286.773438 201.878906 296.632812 211.726562 308.75 211.726562 C 315.285156 211.726562 321.097656 208.804688 325.128906 204.261719 L 361.519531 225.238281 L 361.519531 286.03125 L 308.78125 316.429688 L 256.054688 286.035156 L 256.054688 222.714844 C 256.054688 221.144531 255.21875 219.695312 253.859375 218.910156 L 196.726562 185.976562 C 195.363281 185.191406 193.699219 185.191406 192.332031 185.976562 L 135.203125 218.910156 C 133.84375 219.695312 133.007812 221.144531 133.007812 222.714844 L 133.007812 288.578125 C 133.007812 290.148438 133.84375 291.597656 135.203125 292.382812 L 190.128906 324.042969 L 190.128906 389.558594 C 190.128906 391.128906 190.964844 392.578125 192.324219 393.363281 L 249.457031 426.296875 C 250.136719 426.6875 250.894531 426.882812 251.652344 426.882812 C 252.410156 426.882812 253.171875 426.6875 253.851562 426.296875 L 293.730469 403.292969 C 297.664062 406.996094 302.929688 409.308594 308.75 409.308594 C 320.863281 409.308594 330.722656 399.457031 330.722656 387.351562 C 330.722656 375.246094 320.863281 365.398438 308.75 365.398438 C 296.632812 365.398438 286.773438 375.246094 286.773438 387.351562 C 286.773438 390.464844 287.445312 393.414062 288.617188 396.097656 L 251.652344 417.421875 L 198.917969 387.023438 L 198.917969 324.050781 L 251.667969 293.644531 L 306.585938 325.304688 C 307.265625 325.695312 308.023438 325.890625 308.78125 325.890625 C 309.542969 325.890625 310.296875 325.695312 310.980469 325.304688 L 368.109375 292.371094 C 369.46875 291.585938 370.308594 290.136719 370.308594 288.566406 L 370.308594 222.703125 C 370.308594 221.132812 369.46875 219.683594 368.109375 218.898438 Z M 308.75 202.945312 C 301.476562 202.945312 295.5625 197.035156 295.5625 189.773438 C 295.5625 182.507812 301.476562 176.597656 308.75 176.597656 C 316.019531 176.597656 321.933594 182.507812 321.933594 189.773438 C 321.933594 197.035156 316.019531 202.945312 308.75 202.945312 Z M 308.75 374.179688 C 316.019531 374.179688 321.933594 380.089844 321.933594 387.351562 C 321.933594 394.617188 316.019531 400.527344 308.75 400.527344 C 301.476562 400.527344 295.5625 394.617188 295.5625 387.351562 C 295.5625 380.089844 301.476562 374.179688 308.75 374.179688 Z M 247.265625 286.042969 L 194.53125 316.441406 L 141.796875 286.042969 L 141.796875 225.25 L 194.53125 194.847656 L 247.265625 225.25 Z M 247.265625 286.042969 " fill-opacity="1" fill-rule="nonzero"/></g><g fill="#000000" fill-opacity="1"><g transform="translate(442.99734, 319.695457)"><g><path d="M 9.4375 -66.03125 L 18.859375 -66.03125 L 18.859375 -37.734375 L 47.171875 -37.734375 L 47.171875 -66.03125 L 56.59375 -66.03125 L 56.59375 0 L 47.171875 0 L 47.171875 -28.296875 L 18.859375 -28.296875 L 18.859375 0 L 9.4375 0 Z M 9.4375 -66.03125 "/></g></g></g><g fill="#000000" fill-opacity="1"><g transform="translate(499.593116, 319.695457)"><g><path d="M 9.4375 -47.171875 L 28.296875 -47.171875 L 28.296875 -9.4375 L 37.734375 -9.4375 L 37.734375 0 L 18.859375 0 L 18.859375 -37.734375 L 9.4375 -37.734375 Z M 18.859375 -66.03125 L 28.296875 -66.03125 L 28.296875 -56.59375 L 18.859375 -56.59375 Z M 18.859375 -66.03125 "/></g></g></g><g fill="#000000" fill-opacity="1"><g transform="translate(537.323619, 319.695457)"><g><path d="M 9.4375 -47.171875 L 18.859375 -47.171875 L 18.859375 -25.65625 L 33.015625 -11.515625 L 47.171875 -25.65625 L 47.171875 -47.171875 L 56.59375 -47.171875 L 56.59375 -21.515625 L 35.09375 0 L 30.9375 0 L 9.4375 -21.515625 Z M 9.4375 -47.171875 "/></g></g></g><g fill="#000000" fill-opacity="1"><g transform="translate(593.919395, 319.695457)"><g><path d="M 9.4375 -47.171875 L 56.59375 -47.171875 L 56.59375 -18.859375 L 18.859375 -18.859375 L 18.859375 -9.4375 L 56.59375 -9.4375 L 56.59375 0 L 9.4375 0 Z M 18.859375 -37.734375 L 18.859375 -28.296875 L 47.171875 -28.296875 L 47.171875 -37.734375 Z M 18.859375 -37.734375 "/></g></g></g></svg>