<svg xmlns="http://www.w3.org/2000/svg" xmlns:xlink="http://www.w3.org/1999/xlink" width="1122" zoomAndPan="magnify" viewBox="0 0 841.92 595.499987" height="793" preserveAspectRatio="xMidYMid meet" version="1.0"><defs><clipPath id="33e451cab4"><path d="M 0.3125 365 L 841.527344 365 L 841.527344 594.824219 L 0.3125 594.824219 Z M 0.3125 365 " clip-rule="nonzero"/></clipPath><clipPath id="4af836c737"><path d="M -62.363281 428.054688 L 857.5 328.871094 L 904.082031 760.875 L -15.785156 860.058594 Z M -62.363281 428.054688 " clip-rule="nonzero"/></clipPath><clipPath id="cd2323f195"><path d="M -62.363281 428.054688 L 857.5 328.871094 L 904.082031 760.875 L -15.785156 860.058594 Z M -62.363281 428.054688 " clip-rule="nonzero"/></clipPath></defs><g clip-path="url(#33e451cab4)"><g clip-path="url(#4af836c737)"><g clip-path="url(#cd2323f195)"><path fill="#bfa8d1" d="M -59.671875 438.765625 L -14.246094 860.09375 L 902.332031 761.265625 L 859.691406 365.796875 C 848.769531 375.085938 839.261719 384.78125 831.652344 394.679688 C 718.414062 542.507812 487.355469 533.097656 331.675781 477.890625 C 214.554688 436.324219 69.761719 413.859375 -59.671875 438.765625 Z M -59.671875 438.765625 " fill-opacity="1" fill-rule="evenodd"/></g></g></g></svg>