<svg xmlns="http://www.w3.org/2000/svg" xmlns:xlink="http://www.w3.org/1999/xlink" width="1920" zoomAndPan="magnify" viewBox="0 0 1440 540.000001" height="720" preserveAspectRatio="xMidYMid meet" version="1.0"><defs><clipPath id="ccd27dae58"><path d="M 497.085938 54 L 943.179688 54 L 943.179688 488.972656 L 497.085938 488.972656 Z M 497.085938 54 " clip-rule="nonzero"/></clipPath><clipPath id="52a462d2af"><path d="M 773 53.898438 L 943.179688 53.898438 L 943.179688 157 L 773 157 Z M 773 53.898438 " clip-rule="nonzero"/></clipPath><clipPath id="0d24688e0f"><path d="M 497.085938 189 L 667 189 L 667 488.972656 L 497.085938 488.972656 Z M 497.085938 189 " clip-rule="nonzero"/></clipPath><clipPath id="a54ce3a07a"><path d="M 825 318 L 943.179688 318 L 943.179688 488.972656 L 825 488.972656 Z M 825 318 " clip-rule="nonzero"/></clipPath><clipPath id="877afd9ba6"><path d="M 497.085938 54 L 616 54 L 616 273 L 497.085938 273 Z M 497.085938 54 " clip-rule="nonzero"/></clipPath><clipPath id="2befff0c39"><path d="M 636 421 L 739 421 L 739 488.972656 L 636 488.972656 Z M 636 421 " clip-rule="nonzero"/></clipPath><clipPath id="6eba306b48"><path d="M 654 454 L 727 454 L 727 488.972656 L 654 488.972656 Z M 654 454 " clip-rule="nonzero"/></clipPath><clipPath id="dfe3a8d1a6"><path d="M 676 475 L 703 475 L 703 488.972656 L 676 488.972656 Z M 676 475 " clip-rule="nonzero"/></clipPath><clipPath id="81be7825f5"><path d="M 731 143 L 748 143 L 748 157.789062 L 731 157.789062 Z M 731 143 " clip-rule="nonzero"/></clipPath><clipPath id="9f5b8e8899"><path d="M 734.996094 157.230469 C 733.453125 157.230469 732.21875 156.75 731.578125 155.757812 C 730.066406 153.425781 732.402344 149.152344 736.800781 146.210938 C 739.328125 144.523438 741.984375 143.636719 744.074219 143.636719 C 745.617188 143.636719 746.851562 144.117188 747.496094 145.113281 C 749.003906 147.445312 746.667969 151.71875 742.269531 154.660156 C 739.742188 156.347656 737.085938 157.230469 734.996094 157.230469 " clip-rule="nonzero"/></clipPath><clipPath id="ea0d107786"><path d="M 734.996094 157.230469 C 733.453125 157.230469 732.21875 156.75 731.578125 155.757812 C 730.066406 153.425781 732.402344 149.152344 736.800781 146.210938 C 739.328125 144.523438 741.984375 143.636719 744.074219 143.636719 C 745.617188 143.636719 746.851562 144.117188 747.496094 145.113281 C 749.003906 147.445312 746.667969 151.71875 742.269531 154.660156 C 739.742188 156.347656 737.085938 157.230469 734.996094 157.230469 " clip-rule="nonzero"/></clipPath><clipPath id="d9bb987da2"><path d="M 723.925781 147.75 L 735.789062 166.070312 L 755.148438 153.121094 L 743.28125 134.800781 Z M 723.925781 147.75 " clip-rule="nonzero"/></clipPath><radialGradient gradientTransform="matrix(1.089649, -0.728783, 0.374566, 0.57841, 739.535543, 150.435177)" gradientUnits="userSpaceOnUse" r="7.303285" cx="0" id="b623f41b05" cy="0" fx="0" fy="0"><stop stop-opacity="1" stop-color="rgb(96.899414%, 40.194702%, 45.098877%)" offset="0"/><stop stop-opacity="1" stop-color="rgb(96.899414%, 40.400696%, 45.098877%)" offset="0.015625"/><stop stop-opacity="1" stop-color="rgb(96.899414%, 40.605164%, 45.098877%)" offset="0.0273438"/><stop stop-opacity="1" stop-color="rgb(96.899414%, 40.79895%, 45.098877%)" offset="0.0390625"/><stop stop-opacity="1" stop-color="rgb(96.899414%, 40.989685%, 45.098877%)" offset="0.0507812"/><stop stop-opacity="1" stop-color="rgb(96.894836%, 41.189575%, 45.094299%)" offset="0.0625"/><stop stop-opacity="1" stop-color="rgb(96.696472%, 41.19873%, 44.895935%)" offset="0.0742188"/><stop stop-opacity="1" stop-color="rgb(96.499634%, 41.392517%, 44.699097%)" offset="0.0859375"/><stop stop-opacity="1" stop-color="rgb(96.499634%, 41.600037%, 44.699097%)" offset="0.0976562"/><stop stop-opacity="1" stop-color="rgb(96.499634%, 41.80603%, 44.699097%)" offset="0.109375"/><stop stop-opacity="1" stop-color="rgb(96.499634%, 42.134094%, 44.699097%)" offset="0.121094"/><stop stop-opacity="1" stop-color="rgb(96.499634%, 42.433167%, 44.699097%)" offset="0.148438"/><stop stop-opacity="1" stop-color="rgb(96.499634%, 42.781067%, 44.699097%)" offset="0.171875"/><stop stop-opacity="1" stop-color="rgb(96.499634%, 43.066406%, 44.699097%)" offset="0.195312"/><stop stop-opacity="1" stop-color="rgb(96.499634%, 43.264771%, 44.699097%)" offset="0.207031"/><stop stop-opacity="1" stop-color="rgb(96.469116%, 43.460083%, 44.668579%)" offset="0.21875"/><stop stop-opacity="1" stop-color="rgb(96.336365%, 43.661499%, 44.537354%)" offset="0.230469"/><stop stop-opacity="1" stop-color="rgb(96.166992%, 43.864441%, 44.366455%)" offset="0.242188"/><stop stop-opacity="1" stop-color="rgb(96.099854%, 44.137573%, 44.299316%)" offset="0.253906"/><stop stop-opacity="1" stop-color="rgb(96.099854%, 44.503784%, 44.299316%)" offset="0.273438"/><stop stop-opacity="1" stop-color="rgb(96.099854%, 44.699097%, 44.299316%)" offset="0.292969"/><stop stop-opacity="1" stop-color="rgb(96.099854%, 44.775391%, 44.299316%)" offset="0.3125"/><stop stop-opacity="1" stop-color="rgb(96.099854%, 44.935608%, 44.299316%)" offset="0.320312"/><stop stop-opacity="1" stop-color="rgb(96.099854%, 45.097351%, 44.299316%)" offset="0.328125"/><stop stop-opacity="1" stop-color="rgb(96.099854%, 45.33844%, 44.299316%)" offset="0.335938"/><stop stop-opacity="1" stop-color="rgb(96.099854%, 45.53833%, 44.299316%)" offset="0.355469"/><stop stop-opacity="1" stop-color="rgb(96.099854%, 45.657349%, 44.299316%)" offset="0.375"/><stop stop-opacity="1" stop-color="rgb(96.099854%, 45.916748%, 44.299316%)" offset="0.382812"/><stop stop-opacity="1" stop-color="rgb(95.999146%, 46.199036%, 44.198608%)" offset="0.398438"/><stop stop-opacity="1" stop-color="rgb(95.797729%, 46.395874%, 43.998718%)" offset="0.414062"/><stop stop-opacity="1" stop-color="rgb(95.698547%, 46.589661%, 43.899536%)" offset="0.429688"/><stop stop-opacity="1" stop-color="rgb(95.698547%, 46.791077%, 43.899536%)" offset="0.4375"/><stop stop-opacity="1" stop-color="rgb(95.698547%, 46.99707%, 43.899536%)" offset="0.445312"/><stop stop-opacity="1" stop-color="rgb(95.698547%, 47.200012%, 43.899536%)" offset="0.460938"/><stop stop-opacity="1" stop-color="rgb(95.698547%, 47.473145%, 43.899536%)" offset="0.476562"/><stop stop-opacity="1" stop-color="rgb(95.698547%, 47.721863%, 43.899536%)" offset="0.507812"/><stop stop-opacity="1" stop-color="rgb(95.698547%, 47.869873%, 43.899536%)" offset="0.519531"/><stop stop-opacity="1" stop-color="rgb(95.698547%, 48.069763%, 43.899536%)" offset="0.53125"/><stop stop-opacity="1" stop-color="rgb(95.698547%, 48.260498%, 43.899536%)" offset="0.542969"/><stop stop-opacity="1" stop-color="rgb(95.635986%, 48.460388%, 43.836975%)" offset="0.554688"/><stop stop-opacity="1" stop-color="rgb(95.436096%, 48.730469%, 43.637085%)" offset="0.566406"/><stop stop-opacity="1" stop-color="rgb(95.298767%, 48.962402%, 43.499756%)" offset="0.589844"/><stop stop-opacity="1" stop-color="rgb(95.298767%, 49.162292%, 43.499756%)" offset="0.601562"/><stop stop-opacity="1" stop-color="rgb(95.298767%, 49.365234%, 43.499756%)" offset="0.613281"/><stop stop-opacity="1" stop-color="rgb(95.298767%, 49.563599%, 43.499756%)" offset="0.625"/><stop stop-opacity="1" stop-color="rgb(95.298767%, 49.848938%, 43.499756%)" offset="0.636719"/><stop stop-opacity="1" stop-color="rgb(95.298767%, 50.117493%, 43.499756%)" offset="0.65625"/><stop stop-opacity="1" stop-color="rgb(95.298767%, 50.318909%, 43.499756%)" offset="0.675781"/><stop stop-opacity="1" stop-color="rgb(95.298767%, 50.617981%, 43.499756%)" offset="0.695312"/><stop stop-opacity="1" stop-color="rgb(95.298767%, 50.898743%, 43.499756%)" offset="0.710938"/><stop stop-opacity="1" stop-color="rgb(95.196533%, 51.101685%, 43.397522%)" offset="0.726562"/><stop stop-opacity="1" stop-color="rgb(94.996643%, 51.301575%, 43.197632%)" offset="0.742188"/><stop stop-opacity="1" stop-color="rgb(94.898987%, 51.463318%, 43.099976%)" offset="0.757812"/><stop stop-opacity="1" stop-color="rgb(94.898987%, 51.663208%, 43.099976%)" offset="0.769531"/><stop stop-opacity="1" stop-color="rgb(94.898987%, 51.96228%, 43.099976%)" offset="0.78125"/><stop stop-opacity="1" stop-color="rgb(94.898987%, 52.285767%, 43.099976%)" offset="0.808594"/><stop stop-opacity="1" stop-color="rgb(94.898987%, 52.636719%, 43.099976%)" offset="0.832031"/><stop stop-opacity="1" stop-color="rgb(94.898987%, 52.862549%, 43.099976%)" offset="0.851562"/><stop stop-opacity="1" stop-color="rgb(94.898987%, 53.04718%, 43.099976%)" offset="0.867188"/><stop stop-opacity="1" stop-color="rgb(94.898987%, 53.384399%, 43.099976%)" offset="0.882812"/><stop stop-opacity="1" stop-color="rgb(94.732666%, 53.636169%, 42.932129%)" offset="0.894531"/><stop stop-opacity="1" stop-color="rgb(94.532776%, 53.862%, 42.732239%)" offset="0.917969"/><stop stop-opacity="1" stop-color="rgb(94.499207%, 54.133606%, 42.698669%)" offset="0.9375"/><stop stop-opacity="1" stop-color="rgb(94.499207%, 54.405212%, 42.698669%)" offset="0.945312"/><stop stop-opacity="1" stop-color="rgb(94.499207%, 54.733276%, 42.698669%)" offset="0.957031"/><stop stop-opacity="1" stop-color="rgb(94.499207%, 54.899597%, 42.698669%)" offset="1"/></radialGradient><clipPath id="50403d52e7"><path d="M 701.597656 143 L 702.429688 143 L 702.429688 150 L 701.597656 150 Z M 701.597656 143 " clip-rule="nonzero"/></clipPath><clipPath id="544e28a6bb"><path d="M 701.671875 149.660156 C 701.648438 149.644531 701.625 149.625 701.597656 149.601562 C 701.757812 146.953125 702.039062 145.210938 702.039062 145.210938 C 702.136719 144.617188 702.234375 144.070312 702.335938 143.546875 C 702.125 144.902344 701.832031 147.066406 701.671875 149.660156 " clip-rule="nonzero"/></clipPath><clipPath id="2461da576e"><path d="M 701.671875 149.660156 C 701.648438 149.644531 701.625 149.625 701.597656 149.601562 C 701.757812 146.953125 702.039062 145.210938 702.039062 145.210938 C 702.136719 144.617188 702.234375 144.070312 702.335938 143.546875 C 702.125 144.902344 701.832031 147.066406 701.671875 149.660156 " clip-rule="nonzero"/></clipPath><clipPath id="2a6e4628f1"><path d="M 701.605469 143.460938 L 700.882812 149.578125 L 702.324219 149.75 L 703.054688 143.632812 Z M 701.605469 143.460938 " clip-rule="nonzero"/></clipPath><radialGradient gradientTransform="matrix(0.985587, 0.117172, -0.118878, 1.000434, 705.172169, 142.496238)" gradientUnits="userSpaceOnUse" r="6.0506" cx="0" id="6f04965d3f" cy="0" fx="0" fy="0"><stop stop-opacity="1" stop-color="rgb(74.499512%, 21.394348%, 31.399536%)" offset="0"/><stop stop-opacity="1" stop-color="rgb(74.499512%, 21.600342%, 31.399536%)" offset="0.015625"/><stop stop-opacity="1" stop-color="rgb(74.499512%, 21.80481%, 31.399536%)" offset="0.0273438"/><stop stop-opacity="1" stop-color="rgb(74.499512%, 21.998596%, 31.399536%)" offset="0.0390625"/><stop stop-opacity="1" stop-color="rgb(74.499512%, 22.190857%, 31.399536%)" offset="0.0507812"/><stop stop-opacity="1" stop-color="rgb(74.494934%, 22.390747%, 31.394958%)" offset="0.0625"/><stop stop-opacity="1" stop-color="rgb(74.29657%, 22.399902%, 31.196594%)" offset="0.0742188"/><stop stop-opacity="1" stop-color="rgb(74.099731%, 22.544861%, 30.999756%)" offset="0.0859375"/><stop stop-opacity="1" stop-color="rgb(74.099731%, 22.7005%, 30.999756%)" offset="0.0976562"/><stop stop-opacity="1" stop-color="rgb(74.099731%, 22.904968%, 30.999756%)" offset="0.109375"/><stop stop-opacity="1" stop-color="rgb(74.099731%, 23.233032%, 30.999756%)" offset="0.121094"/><stop stop-opacity="1" stop-color="rgb(74.099731%, 23.468018%, 30.999756%)" offset="0.148438"/><stop stop-opacity="1" stop-color="rgb(74.099731%, 23.666382%, 30.999756%)" offset="0.160156"/><stop stop-opacity="1" stop-color="rgb(74.099731%, 23.86322%, 30.999756%)" offset="0.171875"/><stop stop-opacity="1" stop-color="rgb(74.099731%, 24.06311%, 30.999756%)" offset="0.183594"/><stop stop-opacity="1" stop-color="rgb(74.099731%, 24.266052%, 30.999756%)" offset="0.195312"/><stop stop-opacity="1" stop-color="rgb(74.099731%, 24.464417%, 30.999756%)" offset="0.207031"/><stop stop-opacity="1" stop-color="rgb(74.069214%, 24.659729%, 30.969238%)" offset="0.21875"/><stop stop-opacity="1" stop-color="rgb(73.936462%, 24.861145%, 30.836487%)" offset="0.230469"/><stop stop-opacity="1" stop-color="rgb(73.76709%, 25.065613%, 30.667114%)" offset="0.242188"/><stop stop-opacity="1" stop-color="rgb(73.699951%, 25.337219%, 30.599976%)" offset="0.253906"/><stop stop-opacity="1" stop-color="rgb(73.699951%, 25.70343%, 30.599976%)" offset="0.273438"/><stop stop-opacity="1" stop-color="rgb(73.699951%, 25.898743%, 30.599976%)" offset="0.292969"/><stop stop-opacity="1" stop-color="rgb(73.699951%, 25.975037%, 30.599976%)" offset="0.3125"/><stop stop-opacity="1" stop-color="rgb(73.699951%, 26.135254%, 30.599976%)" offset="0.320312"/><stop stop-opacity="1" stop-color="rgb(73.699951%, 26.296997%, 30.599976%)" offset="0.328125"/><stop stop-opacity="1" stop-color="rgb(73.699951%, 26.538086%, 30.599976%)" offset="0.335938"/><stop stop-opacity="1" stop-color="rgb(73.699951%, 26.739502%, 30.599976%)" offset="0.355469"/><stop stop-opacity="1" stop-color="rgb(73.699951%, 26.856995%, 30.599976%)" offset="0.375"/><stop stop-opacity="1" stop-color="rgb(73.699951%, 27.116394%, 30.599976%)" offset="0.382812"/><stop stop-opacity="1" stop-color="rgb(73.597717%, 27.398682%, 30.497742%)" offset="0.398438"/><stop stop-opacity="1" stop-color="rgb(73.397827%, 27.571106%, 30.297852%)" offset="0.414062"/><stop stop-opacity="1" stop-color="rgb(73.298645%, 27.818298%, 30.198669%)" offset="0.429688"/><stop stop-opacity="1" stop-color="rgb(73.298645%, 28.096008%, 30.198669%)" offset="0.445312"/><stop stop-opacity="1" stop-color="rgb(73.298645%, 28.300476%, 30.198669%)" offset="0.460938"/><stop stop-opacity="1" stop-color="rgb(73.298645%, 28.500366%, 30.198669%)" offset="0.476562"/><stop stop-opacity="1" stop-color="rgb(73.298645%, 28.697205%, 30.198669%)" offset="0.492188"/><stop stop-opacity="1" stop-color="rgb(73.298645%, 28.897095%, 30.198669%)" offset="0.507812"/><stop stop-opacity="1" stop-color="rgb(73.298645%, 29.069519%, 30.198669%)" offset="0.519531"/><stop stop-opacity="1" stop-color="rgb(73.298645%, 29.269409%, 30.198669%)" offset="0.53125"/><stop stop-opacity="1" stop-color="rgb(73.298645%, 29.460144%, 30.198669%)" offset="0.542969"/><stop stop-opacity="1" stop-color="rgb(73.236084%, 29.660034%, 30.136108%)" offset="0.554688"/><stop stop-opacity="1" stop-color="rgb(73.036194%, 29.930115%, 29.936218%)" offset="0.566406"/><stop stop-opacity="1" stop-color="rgb(72.898865%, 30.162048%, 29.798889%)" offset="0.589844"/><stop stop-opacity="1" stop-color="rgb(72.898865%, 30.363464%, 29.798889%)" offset="0.601562"/><stop stop-opacity="1" stop-color="rgb(72.898865%, 30.56488%, 29.798889%)" offset="0.613281"/><stop stop-opacity="1" stop-color="rgb(72.898865%, 30.763245%, 29.798889%)" offset="0.625"/><stop stop-opacity="1" stop-color="rgb(72.898865%, 31.048584%, 29.798889%)" offset="0.636719"/><stop stop-opacity="1" stop-color="rgb(72.898865%, 31.317139%, 29.798889%)" offset="0.65625"/><stop stop-opacity="1" stop-color="rgb(72.898865%, 31.518555%, 29.798889%)" offset="0.675781"/><stop stop-opacity="1" stop-color="rgb(72.898865%, 31.817627%, 29.798889%)" offset="0.695312"/><stop stop-opacity="1" stop-color="rgb(72.898865%, 32.098389%, 29.798889%)" offset="0.710938"/><stop stop-opacity="1" stop-color="rgb(72.796631%, 32.275391%, 29.696655%)" offset="0.726562"/><stop stop-opacity="1" stop-color="rgb(72.596741%, 32.426453%, 29.496765%)" offset="0.742188"/><stop stop-opacity="1" stop-color="rgb(72.499084%, 32.563782%, 29.399109%)" offset="0.757812"/><stop stop-opacity="1" stop-color="rgb(72.499084%, 32.763672%, 29.399109%)" offset="0.769531"/><stop stop-opacity="1" stop-color="rgb(72.499084%, 33.062744%, 29.399109%)" offset="0.78125"/><stop stop-opacity="1" stop-color="rgb(72.499084%, 33.325195%, 29.399109%)" offset="0.808594"/><stop stop-opacity="1" stop-color="rgb(72.499084%, 33.602905%, 29.399109%)" offset="0.820312"/><stop stop-opacity="1" stop-color="rgb(72.499084%, 33.938599%, 29.399109%)" offset="0.839844"/><stop stop-opacity="1" stop-color="rgb(72.499084%, 34.14917%, 29.399109%)" offset="0.859375"/><stop stop-opacity="1" stop-color="rgb(72.499084%, 34.29718%, 29.399109%)" offset="0.875"/><stop stop-opacity="1" stop-color="rgb(72.499084%, 34.584045%, 29.399109%)" offset="0.882812"/><stop stop-opacity="1" stop-color="rgb(72.373962%, 34.835815%, 29.232788%)" offset="0.894531"/><stop stop-opacity="1" stop-color="rgb(72.224426%, 35.061646%, 29.032898%)" offset="0.917969"/><stop stop-opacity="1" stop-color="rgb(72.198486%, 35.333252%, 28.999329%)" offset="0.9375"/><stop stop-opacity="1" stop-color="rgb(72.198486%, 35.604858%, 28.999329%)" offset="0.945312"/><stop stop-opacity="1" stop-color="rgb(72.198486%, 35.932922%, 28.999329%)" offset="0.957031"/><stop stop-opacity="1" stop-color="rgb(72.198486%, 36.099243%, 28.999329%)" offset="1"/></radialGradient><clipPath id="bf9fa0692b"><path d="M 701.597656 134 L 708 134 L 708 151 L 701.597656 151 Z M 701.597656 134 " clip-rule="nonzero"/></clipPath><clipPath id="4fa043f8de"><path d="M 703.890625 150.519531 C 703.148438 150.519531 702.394531 150.214844 701.671875 149.660156 C 701.832031 147.066406 702.125 144.902344 702.335938 143.546875 C 702.984375 140.25 703.796875 138.117188 705.140625 134.300781 C 706.140625 135.773438 706.953125 137.738281 707.410156 139.96875 C 708.46875 145.191406 707.140625 149.886719 704.445312 150.460938 C 704.257812 150.5 704.078125 150.519531 703.890625 150.519531 " clip-rule="nonzero"/></clipPath><clipPath id="9af30747ce"><path d="M 703.890625 150.519531 C 703.148438 150.519531 702.394531 150.214844 701.671875 149.660156 C 701.832031 147.066406 702.125 144.902344 702.335938 143.546875 C 702.984375 140.25 703.796875 138.117188 705.140625 134.300781 C 706.140625 135.773438 706.953125 137.738281 707.410156 139.96875 C 708.46875 145.191406 707.140625 149.886719 704.445312 150.460938 C 704.257812 150.5 704.078125 150.519531 703.890625 150.519531 " clip-rule="nonzero"/></clipPath><clipPath id="37b29f31bf"><path d="M 701.765625 133.503906 L 699.769531 150.292969 L 708.375 151.316406 L 710.371094 134.523438 Z M 701.765625 133.503906 " clip-rule="nonzero"/></clipPath><radialGradient gradientTransform="matrix(0.985587, 0.117172, -0.118878, 1.000434, 705.172169, 142.496238)" gradientUnits="userSpaceOnUse" r="6.0506" cx="0" id="20925a8a88" cy="0" fx="0" fy="0"><stop stop-opacity="1" stop-color="rgb(96.899414%, 40.194702%, 45.098877%)" offset="0"/><stop stop-opacity="1" stop-color="rgb(96.899414%, 40.400696%, 45.098877%)" offset="0.015625"/><stop stop-opacity="1" stop-color="rgb(96.899414%, 40.605164%, 45.098877%)" offset="0.0273438"/><stop stop-opacity="1" stop-color="rgb(96.899414%, 40.79895%, 45.098877%)" offset="0.0390625"/><stop stop-opacity="1" stop-color="rgb(96.899414%, 40.989685%, 45.098877%)" offset="0.0507812"/><stop stop-opacity="1" stop-color="rgb(96.894836%, 41.189575%, 45.094299%)" offset="0.0625"/><stop stop-opacity="1" stop-color="rgb(96.696472%, 41.19873%, 44.895935%)" offset="0.0742188"/><stop stop-opacity="1" stop-color="rgb(96.499634%, 41.392517%, 44.699097%)" offset="0.0859375"/><stop stop-opacity="1" stop-color="rgb(96.499634%, 41.600037%, 44.699097%)" offset="0.0976562"/><stop stop-opacity="1" stop-color="rgb(96.499634%, 41.80603%, 44.699097%)" offset="0.109375"/><stop stop-opacity="1" stop-color="rgb(96.499634%, 42.134094%, 44.699097%)" offset="0.121094"/><stop stop-opacity="1" stop-color="rgb(96.499634%, 42.433167%, 44.699097%)" offset="0.148438"/><stop stop-opacity="1" stop-color="rgb(96.499634%, 42.781067%, 44.699097%)" offset="0.171875"/><stop stop-opacity="1" stop-color="rgb(96.499634%, 43.066406%, 44.699097%)" offset="0.195312"/><stop stop-opacity="1" stop-color="rgb(96.499634%, 43.264771%, 44.699097%)" offset="0.207031"/><stop stop-opacity="1" stop-color="rgb(96.469116%, 43.460083%, 44.668579%)" offset="0.21875"/><stop stop-opacity="1" stop-color="rgb(96.336365%, 43.661499%, 44.537354%)" offset="0.230469"/><stop stop-opacity="1" stop-color="rgb(96.166992%, 43.864441%, 44.366455%)" offset="0.242188"/><stop stop-opacity="1" stop-color="rgb(96.099854%, 44.137573%, 44.299316%)" offset="0.253906"/><stop stop-opacity="1" stop-color="rgb(96.099854%, 44.503784%, 44.299316%)" offset="0.273438"/><stop stop-opacity="1" stop-color="rgb(96.099854%, 44.699097%, 44.299316%)" offset="0.292969"/><stop stop-opacity="1" stop-color="rgb(96.099854%, 44.775391%, 44.299316%)" offset="0.3125"/><stop stop-opacity="1" stop-color="rgb(96.099854%, 44.935608%, 44.299316%)" offset="0.320312"/><stop stop-opacity="1" stop-color="rgb(96.099854%, 45.097351%, 44.299316%)" offset="0.328125"/><stop stop-opacity="1" stop-color="rgb(96.099854%, 45.33844%, 44.299316%)" offset="0.335938"/><stop stop-opacity="1" stop-color="rgb(96.099854%, 45.53833%, 44.299316%)" offset="0.355469"/><stop stop-opacity="1" stop-color="rgb(96.099854%, 45.657349%, 44.299316%)" offset="0.375"/><stop stop-opacity="1" stop-color="rgb(96.099854%, 45.916748%, 44.299316%)" offset="0.382812"/><stop stop-opacity="1" stop-color="rgb(95.999146%, 46.199036%, 44.198608%)" offset="0.398438"/><stop stop-opacity="1" stop-color="rgb(95.797729%, 46.395874%, 43.998718%)" offset="0.414062"/><stop stop-opacity="1" stop-color="rgb(95.698547%, 46.589661%, 43.899536%)" offset="0.429688"/><stop stop-opacity="1" stop-color="rgb(95.698547%, 46.791077%, 43.899536%)" offset="0.4375"/><stop stop-opacity="1" stop-color="rgb(95.698547%, 46.99707%, 43.899536%)" offset="0.445312"/><stop stop-opacity="1" stop-color="rgb(95.698547%, 47.200012%, 43.899536%)" offset="0.460938"/><stop stop-opacity="1" stop-color="rgb(95.698547%, 47.473145%, 43.899536%)" offset="0.476562"/><stop stop-opacity="1" stop-color="rgb(95.698547%, 47.721863%, 43.899536%)" offset="0.507812"/><stop stop-opacity="1" stop-color="rgb(95.698547%, 47.869873%, 43.899536%)" offset="0.519531"/><stop stop-opacity="1" stop-color="rgb(95.698547%, 48.069763%, 43.899536%)" offset="0.53125"/><stop stop-opacity="1" stop-color="rgb(95.698547%, 48.260498%, 43.899536%)" offset="0.542969"/><stop stop-opacity="1" stop-color="rgb(95.635986%, 48.460388%, 43.836975%)" offset="0.554688"/><stop stop-opacity="1" stop-color="rgb(95.436096%, 48.730469%, 43.637085%)" offset="0.566406"/><stop stop-opacity="1" stop-color="rgb(95.298767%, 48.962402%, 43.499756%)" offset="0.589844"/><stop stop-opacity="1" stop-color="rgb(95.298767%, 49.162292%, 43.499756%)" offset="0.601562"/><stop stop-opacity="1" stop-color="rgb(95.298767%, 49.365234%, 43.499756%)" offset="0.613281"/><stop stop-opacity="1" stop-color="rgb(95.298767%, 49.563599%, 43.499756%)" offset="0.625"/><stop stop-opacity="1" stop-color="rgb(95.298767%, 49.848938%, 43.499756%)" offset="0.636719"/><stop stop-opacity="1" stop-color="rgb(95.298767%, 50.117493%, 43.499756%)" offset="0.65625"/><stop stop-opacity="1" stop-color="rgb(95.298767%, 50.318909%, 43.499756%)" offset="0.675781"/><stop stop-opacity="1" stop-color="rgb(95.298767%, 50.617981%, 43.499756%)" offset="0.695312"/><stop stop-opacity="1" stop-color="rgb(95.298767%, 50.898743%, 43.499756%)" offset="0.710938"/><stop stop-opacity="1" stop-color="rgb(95.196533%, 51.101685%, 43.397522%)" offset="0.726562"/><stop stop-opacity="1" stop-color="rgb(94.996643%, 51.301575%, 43.197632%)" offset="0.742188"/><stop stop-opacity="1" stop-color="rgb(94.898987%, 51.463318%, 43.099976%)" offset="0.757812"/><stop stop-opacity="1" stop-color="rgb(94.898987%, 51.663208%, 43.099976%)" offset="0.769531"/><stop stop-opacity="1" stop-color="rgb(94.898987%, 51.96228%, 43.099976%)" offset="0.78125"/><stop stop-opacity="1" stop-color="rgb(94.898987%, 52.285767%, 43.099976%)" offset="0.808594"/><stop stop-opacity="1" stop-color="rgb(94.898987%, 52.636719%, 43.099976%)" offset="0.832031"/><stop stop-opacity="1" stop-color="rgb(94.898987%, 52.862549%, 43.099976%)" offset="0.851562"/><stop stop-opacity="1" stop-color="rgb(94.898987%, 53.04718%, 43.099976%)" offset="0.867188"/><stop stop-opacity="1" stop-color="rgb(94.898987%, 53.384399%, 43.099976%)" offset="0.882812"/><stop stop-opacity="1" stop-color="rgb(94.732666%, 53.636169%, 42.932129%)" offset="0.894531"/><stop stop-opacity="1" stop-color="rgb(94.532776%, 53.862%, 42.732239%)" offset="0.917969"/><stop stop-opacity="1" stop-color="rgb(94.499207%, 54.133606%, 42.698669%)" offset="0.9375"/><stop stop-opacity="1" stop-color="rgb(94.499207%, 54.405212%, 42.698669%)" offset="0.945312"/><stop stop-opacity="1" stop-color="rgb(94.499207%, 54.733276%, 42.698669%)" offset="0.957031"/><stop stop-opacity="1" stop-color="rgb(94.499207%, 54.899597%, 42.698669%)" offset="1"/></radialGradient><clipPath id="d63d2309e1"><path d="M 662 310.011719 L 750 310.011719 L 750 488.9375 L 662 488.9375 Z M 662 310.011719 " clip-rule="nonzero"/></clipPath><clipPath id="2e55504e70"><path d="M 688.289062 273.410156 L 809.730469 273.410156 L 809.730469 488.9375 L 688.289062 488.9375 Z M 688.289062 273.410156 " clip-rule="nonzero"/></clipPath><clipPath id="7ee81dc524"><path d="M 782.28125 327.480469 L 806.402344 327.480469 L 806.402344 488.9375 L 782.28125 488.9375 Z M 782.28125 327.480469 " clip-rule="nonzero"/></clipPath><clipPath id="a337322544"><path d="M 718 437.28125 L 733.207031 437.28125 L 733.207031 488.9375 L 718 488.9375 Z M 718 437.28125 " clip-rule="nonzero"/></clipPath><clipPath id="0dfaac948c"><path d="M 724 84.339844 L 763 84.339844 L 763 115 L 724 115 Z M 724 84.339844 " clip-rule="nonzero"/></clipPath><clipPath id="f3a9930c0c"><path d="M 832 187 L 911.617188 187 L 911.617188 230 L 832 230 Z M 832 187 " clip-rule="nonzero"/></clipPath></defs><g clip-path="url(#ccd27dae58)"><path fill="#ffffff" d="M 497.171875 54.214844 L 943.09375 54.214844 L 943.09375 488.972656 L 497.171875 488.972656 Z M 497.171875 54.214844 " fill-opacity="1" fill-rule="nonzero"/></g><g clip-path="url(#52a462d2af)"><path fill="#2b1222" d="M 943.09375 53.898438 L 943.09375 134.210938 C 942.890625 134.242188 942.699219 134.273438 942.496094 134.289062 C 925.601562 136.90625 913.789062 155.082031 896.71875 156.042969 C 884.589844 156.722656 873.933594 148.390625 865.359375 139.8125 C 856.769531 131.230469 848.304688 121.511719 836.652344 118.089844 C 827.082031 115.265625 815.714844 116.8125 808.148438 110.296875 C 800.207031 103.449219 800.523438 91.351562 797.394531 81.347656 C 793.667969 69.4375 784.511719 60.085938 773.503906 53.898438 Z M 943.09375 53.898438 " fill-opacity="1" fill-rule="nonzero"/></g><g clip-path="url(#0d24688e0f)"><path fill="#bfa8d1" d="M 664.28125 488.972656 L 497.171875 488.972656 L 497.171875 189.40625 C 513.070312 194.503906 527.566406 204.015625 538.414062 216.730469 C 543.359375 222.519531 547.527344 228.953125 550.84375 235.816406 C 551.015625 236.179688 551.191406 236.542969 551.363281 236.921875 C 557.285156 249.605469 560.316406 263.675781 559.90625 277.667969 C 559.257812 300.226562 550.195312 321.742188 547.875 344.191406 C 545.554688 366.640625 552.863281 393.125 573.738281 401.738281 C 587.839844 407.542969 604.042969 403.550781 619.027344 406.390625 C 622.421875 407.039062 625.722656 408.046875 628.894531 409.359375 C 629.242188 409.5 629.589844 409.640625 629.921875 409.800781 C 639.050781 413.820312 647.054688 420.429688 653.195312 428.445312 C 653.355469 428.648438 653.511719 428.855469 653.671875 429.078125 C 655.660156 431.726562 657.445312 434.535156 659.007812 437.453125 C 659.433594 438.257812 659.84375 439.078125 660.238281 439.898438 C 660.414062 440.246094 660.570312 440.609375 660.730469 440.953125 C 663.714844 447.46875 665.546875 454.410156 666.335938 461.492188 C 666.367188 461.824219 666.414062 462.140625 666.429688 462.472656 C 667.328125 471.304688 666.554688 480.328125 664.28125 488.972656 Z M 664.28125 488.972656 " fill-opacity="1" fill-rule="nonzero"/></g><g clip-path="url(#a54ce3a07a)"><path fill="#971881" d="M 943.09375 318.542969 L 943.09375 488.972656 L 825.535156 488.972656 C 824.050781 476.621094 827.824219 463.542969 836.871094 454.898438 C 837.519531 454.285156 838.183594 453.683594 838.863281 453.117188 C 839.148438 452.863281 839.445312 452.628906 839.746094 452.390625 C 846.851562 446.695312 855.539062 443.101562 863.511719 438.558594 C 872.589844 433.382812 881.449219 425.984375 883.660156 415.792969 C 886.882812 400.964844 875.132812 387.179688 872.921875 372.175781 C 868.941406 345.167969 895.140625 325.199219 918.90625 320.6875 C 926.027344 319.328125 934.519531 318.429688 943.09375 318.542969 Z M 943.09375 318.542969 " fill-opacity="1" fill-rule="nonzero"/></g><g clip-path="url(#877afd9ba6)"><path fill="#2b1222" d="M 615.285156 54.214844 C 611.746094 68.695312 608.859375 83.367188 606.03125 97.691406 C 601.199219 122.238281 596.210938 147.636719 587.964844 171.707031 C 579.898438 195.277344 568.308594 216.570312 554.441406 233.324219 C 553.433594 234.554688 552.40625 235.738281 551.378906 236.921875 C 535.984375 254.382812 518.296875 266.261719 498.75 272.257812 C 498.230469 272.414062 497.707031 272.574219 497.171875 272.730469 L 497.171875 271.578125 C 497.597656 271.453125 498.007812 271.328125 498.417969 271.199219 C 517.855469 265.238281 535.683594 253.058594 550.84375 235.816406 C 565.78125 218.84375 578.144531 196.980469 586.910156 171.359375 C 595.121094 147.367188 600.109375 122 604.941406 97.488281 C 607.753906 83.226562 610.625 68.632812 614.132812 54.230469 L 615.285156 54.230469 Z M 615.285156 54.214844 " fill-opacity="1" fill-rule="nonzero"/></g><g clip-path="url(#2befff0c39)"><path fill="#971881" d="M 738.71875 488.972656 L 737.804688 488.972656 C 728.40625 468.90625 715.097656 450.703125 698.894531 436.238281 C 693.066406 431.03125 685.1875 424.785156 676 422.765625 C 668.703125 421.15625 659.308594 422.59375 653.703125 429.078125 C 653.230469 429.628906 652.785156 430.210938 652.375 430.828125 C 651.097656 432.734375 650.230469 434.820312 649.628906 437.011719 C 648.414062 441.445312 648.285156 446.316406 648.175781 451.097656 C 648.128906 452.898438 648.082031 454.742188 647.988281 456.523438 C 647.339844 467.804688 643.816406 478.988281 637.769531 488.972656 L 636.902344 488.972656 C 642.855469 479.242188 646.535156 468.039062 647.195312 456.476562 C 647.308594 454.695312 647.339844 452.847656 647.386719 451.066406 C 647.496094 446.207031 647.625 441.238281 648.902344 436.695312 C 649.519531 434.472656 650.417969 432.339844 651.730469 430.386719 C 652.1875 429.707031 652.675781 429.058594 653.230469 428.445312 C 655.597656 425.761719 658.785156 423.746094 662.5625 422.5625 C 666.839844 421.21875 671.65625 421.015625 676.15625 422.007812 C 685.519531 424.058594 693.496094 430.386719 699.398438 435.65625 C 706.285156 441.808594 712.710938 448.667969 718.523438 456.050781 C 724.269531 463.371094 729.464844 471.257812 733.949219 479.523438 C 735.640625 482.617188 737.21875 485.773438 738.71875 488.972656 Z M 738.71875 488.972656 " fill-opacity="1" fill-rule="nonzero"/></g><g clip-path="url(#6eba306b48)"><path fill="#971881" d="M 726.953125 488.972656 L 726.117188 488.972656 C 725.4375 487.175781 724.710938 485.394531 723.90625 483.640625 C 718.222656 471.226562 709.507812 462 699.398438 457.644531 C 690.050781 453.621094 679.203125 454.285156 671.246094 458.859375 C 669.492188 459.867188 667.882812 461.066406 666.460938 462.457031 C 666.207031 462.707031 665.957031 462.960938 665.71875 463.214844 C 660.160156 469.144531 657.855469 477.554688 656.339844 485 C 656.085938 486.230469 655.835938 487.492188 655.597656 488.707031 C 655.582031 488.800781 655.566406 488.878906 655.550781 488.972656 L 654.761719 488.972656 C 654.792969 488.832031 654.808594 488.707031 654.839844 488.5625 C 655.078125 487.332031 655.328125 486.070312 655.582031 484.839844 C 657.128906 477.285156 659.480469 468.75 665.167969 462.675781 C 665.5625 462.265625 665.957031 461.855469 666.367188 461.476562 C 667.742188 460.199219 669.257812 459.082031 670.898438 458.117188 C 673.976562 456.335938 677.5 455.121094 681.351562 454.554688 C 687.496094 453.636719 694.015625 454.488281 699.699219 456.933594 C 709.980469 461.351562 718.839844 470.722656 724.601562 483.3125 C 725.46875 485.1875 726.246094 487.066406 726.953125 488.972656 Z M 726.953125 488.972656 " fill-opacity="1" fill-rule="nonzero"/></g><g clip-path="url(#dfe3a8d1a6)"><path fill="#971881" d="M 702.683594 488.972656 L 701.878906 488.972656 C 701.105469 486.386719 700.046875 483.878906 698.421875 481.703125 C 695.59375 477.929688 690.050781 475.058594 685.347656 477.191406 C 681.90625 478.75 679.976562 482.363281 678.304688 485.929688 C 677.832031 486.9375 677.355469 487.949219 676.898438 488.972656 L 676.046875 488.972656 C 676.550781 487.839844 677.074219 486.71875 677.609375 485.597656 C 679.347656 481.90625 681.367188 478.152344 685.046875 476.480469 C 690.132812 474.191406 696.050781 477.222656 699.070312 481.226562 C 700.789062 483.5625 701.894531 486.246094 702.683594 488.972656 Z M 702.683594 488.972656 " fill-opacity="1" fill-rule="nonzero"/></g><path fill="#971881" d="M 592.230469 369.871094 C 592.230469 370.546875 592.164062 371.214844 592.03125 371.875 C 591.902344 372.535156 591.707031 373.175781 591.449219 373.796875 C 591.191406 374.417969 590.875 375.007812 590.5 375.570312 C 590.125 376.128906 589.699219 376.648438 589.222656 377.125 C 588.746094 377.597656 588.230469 378.023438 587.667969 378.398438 C 587.109375 378.773438 586.515625 379.089844 585.894531 379.347656 C 585.269531 379.605469 584.628906 379.796875 583.96875 379.929688 C 583.308594 380.0625 582.640625 380.125 581.964844 380.125 C 581.292969 380.125 580.625 380.0625 579.964844 379.929688 C 579.304688 379.796875 578.660156 379.605469 578.039062 379.347656 C 577.414062 379.089844 576.824219 378.773438 576.265625 378.398438 C 575.703125 378.023438 575.183594 377.597656 574.707031 377.125 C 574.230469 376.648438 573.804688 376.128906 573.433594 375.570312 C 573.058594 375.007812 572.742188 374.417969 572.484375 373.796875 C 572.226562 373.175781 572.03125 372.535156 571.898438 371.875 C 571.769531 371.214844 571.703125 370.546875 571.703125 369.871094 C 571.703125 369.199219 571.769531 368.53125 571.898438 367.871094 C 572.03125 367.210938 572.226562 366.570312 572.484375 365.949219 C 572.742188 365.328125 573.058594 364.734375 573.433594 364.175781 C 573.804688 363.617188 574.230469 363.097656 574.707031 362.621094 C 575.183594 362.144531 575.703125 361.722656 576.265625 361.347656 C 576.824219 360.972656 577.414062 360.65625 578.039062 360.398438 C 578.660156 360.140625 579.304688 359.949219 579.964844 359.816406 C 580.625 359.683594 581.292969 359.617188 581.964844 359.617188 C 582.640625 359.617188 583.308594 359.683594 583.96875 359.816406 C 584.628906 359.949219 585.269531 360.140625 585.894531 360.398438 C 586.515625 360.65625 587.109375 360.972656 587.667969 361.347656 C 588.230469 361.722656 588.746094 362.144531 589.222656 362.621094 C 589.699219 363.097656 590.125 363.617188 590.5 364.175781 C 590.875 364.734375 591.191406 365.328125 591.449219 365.949219 C 591.707031 366.570312 591.902344 367.210938 592.03125 367.871094 C 592.164062 368.53125 592.230469 369.199219 592.230469 369.871094 Z M 592.230469 369.871094 " fill-opacity="1" fill-rule="nonzero"/><path fill="#2b1222" d="M 927.9375 291.785156 C 927.9375 292.730469 927.84375 293.664062 927.660156 294.585938 C 927.476562 295.511719 927.203125 296.410156 926.84375 297.28125 C 926.480469 298.152344 926.039062 298.976562 925.515625 299.761719 C 924.992188 300.546875 924.394531 301.269531 923.726562 301.9375 C 923.0625 302.605469 922.335938 303.199219 921.550781 303.722656 C 920.765625 304.246094 919.9375 304.6875 919.066406 305.050781 C 918.195312 305.410156 917.296875 305.683594 916.371094 305.867188 C 915.445312 306.050781 914.511719 306.140625 913.566406 306.140625 C 912.625 306.140625 911.6875 306.050781 910.765625 305.867188 C 909.839844 305.683594 908.941406 305.410156 908.066406 305.050781 C 907.195312 304.6875 906.367188 304.246094 905.585938 303.722656 C 904.800781 303.199219 904.074219 302.605469 903.40625 301.9375 C 902.738281 301.269531 902.144531 300.546875 901.621094 299.761719 C 901.09375 298.976562 900.652344 298.152344 900.292969 297.28125 C 899.929688 296.410156 899.65625 295.511719 899.472656 294.585938 C 899.289062 293.664062 899.199219 292.730469 899.199219 291.785156 C 899.199219 290.84375 899.289062 289.910156 899.472656 288.984375 C 899.65625 288.0625 899.929688 287.164062 900.292969 286.292969 C 900.652344 285.421875 901.09375 284.59375 901.621094 283.8125 C 902.144531 283.027344 902.738281 282.300781 903.40625 281.636719 C 904.074219 280.96875 904.800781 280.375 905.585938 279.851562 C 906.367188 279.328125 907.195312 278.886719 908.066406 278.523438 C 908.941406 278.164062 909.839844 277.890625 910.765625 277.707031 C 911.6875 277.523438 912.625 277.429688 913.566406 277.429688 C 914.511719 277.429688 915.445312 277.523438 916.371094 277.707031 C 917.296875 277.890625 918.195312 278.164062 919.066406 278.523438 C 919.9375 278.886719 920.765625 279.328125 921.550781 279.851562 C 922.335938 280.375 923.0625 280.96875 923.726562 281.636719 C 924.394531 282.300781 924.992188 283.027344 925.515625 283.8125 C 926.039062 284.59375 926.480469 285.421875 926.84375 286.292969 C 927.203125 287.164062 927.476562 288.0625 927.660156 288.984375 C 927.84375 289.910156 927.9375 290.84375 927.9375 291.785156 Z M 927.9375 291.785156 " fill-opacity="1" fill-rule="nonzero"/><path fill="#bfa8d1" d="M 571.386719 92.390625 C 571.386719 93.175781 571.347656 93.960938 571.269531 94.742188 C 571.195312 95.523438 571.078125 96.296875 570.925781 97.070312 C 570.773438 97.839844 570.582031 98.601562 570.351562 99.351562 C 570.125 100.101562 569.859375 100.839844 569.558594 101.566406 C 569.257812 102.292969 568.921875 103 568.550781 103.695312 C 568.183594 104.386719 567.777344 105.058594 567.339844 105.710938 C 566.90625 106.367188 566.4375 106.996094 565.9375 107.601562 C 565.441406 108.210938 564.914062 108.789062 564.355469 109.347656 C 563.800781 109.902344 563.21875 110.429688 562.613281 110.925781 C 562.003906 111.425781 561.375 111.890625 560.71875 112.328125 C 560.066406 112.765625 559.390625 113.167969 558.699219 113.539062 C 558.007812 113.90625 557.296875 114.242188 556.570312 114.542969 C 555.84375 114.84375 555.105469 115.109375 554.351562 115.335938 C 553.601562 115.566406 552.839844 115.753906 552.066406 115.910156 C 551.296875 116.0625 550.519531 116.175781 549.738281 116.253906 C 548.957031 116.332031 548.171875 116.367188 547.386719 116.367188 C 546.597656 116.367188 545.816406 116.332031 545.03125 116.253906 C 544.25 116.175781 543.472656 116.0625 542.703125 115.910156 C 541.929688 115.753906 541.167969 115.566406 540.417969 115.335938 C 539.664062 115.109375 538.925781 114.84375 538.199219 114.542969 C 537.472656 114.242188 536.765625 113.90625 536.070312 113.539062 C 535.378906 113.167969 534.703125 112.765625 534.050781 112.328125 C 533.398438 111.890625 532.765625 111.425781 532.160156 110.925781 C 531.550781 110.429688 530.96875 109.902344 530.414062 109.347656 C 529.855469 108.789062 529.332031 108.210938 528.832031 107.601562 C 528.332031 106.996094 527.863281 106.367188 527.429688 105.710938 C 526.992188 105.058594 526.589844 104.386719 526.21875 103.695312 C 525.847656 103 525.511719 102.292969 525.210938 101.566406 C 524.910156 100.839844 524.644531 100.101562 524.417969 99.351562 C 524.1875 98.601562 523.996094 97.839844 523.84375 97.070312 C 523.691406 96.296875 523.574219 95.523438 523.5 94.742188 C 523.421875 93.960938 523.382812 93.175781 523.382812 92.390625 C 523.382812 91.605469 523.421875 90.824219 523.5 90.039062 C 523.574219 89.257812 523.691406 88.484375 523.84375 87.714844 C 523.996094 86.941406 524.1875 86.183594 524.417969 85.429688 C 524.644531 84.679688 524.910156 83.941406 525.210938 83.214844 C 525.511719 82.488281 525.847656 81.78125 526.21875 81.089844 C 526.589844 80.394531 526.992188 79.722656 527.429688 79.070312 C 527.863281 78.417969 528.332031 77.785156 528.832031 77.179688 C 529.332031 76.574219 529.855469 75.992188 530.414062 75.4375 C 530.96875 74.878906 531.550781 74.355469 532.160156 73.855469 C 532.765625 73.359375 533.398438 72.890625 534.050781 72.453125 C 534.703125 72.019531 535.378906 71.613281 536.070312 71.246094 C 536.765625 70.875 537.472656 70.539062 538.199219 70.238281 C 538.925781 69.9375 539.664062 69.671875 540.417969 69.445312 C 541.167969 69.21875 541.929688 69.027344 542.703125 68.875 C 543.472656 68.71875 544.25 68.605469 545.03125 68.527344 C 545.816406 68.453125 546.597656 68.414062 547.386719 68.414062 C 548.171875 68.414062 548.957031 68.453125 549.738281 68.527344 C 550.519531 68.605469 551.296875 68.71875 552.066406 68.875 C 552.839844 69.027344 553.601562 69.21875 554.351562 69.445312 C 555.105469 69.671875 555.84375 69.9375 556.570312 70.238281 C 557.296875 70.539062 558.007812 70.875 558.699219 71.246094 C 559.390625 71.613281 560.066406 72.019531 560.71875 72.453125 C 561.375 72.890625 562.003906 73.359375 562.613281 73.855469 C 563.21875 74.355469 563.800781 74.878906 564.355469 75.4375 C 564.914062 75.992188 565.441406 76.574219 565.9375 77.179688 C 566.4375 77.785156 566.90625 78.417969 567.339844 79.070312 C 567.777344 79.722656 568.183594 80.394531 568.550781 81.089844 C 568.921875 81.78125 569.257812 82.488281 569.558594 83.214844 C 569.859375 83.941406 570.125 84.679688 570.351562 85.429688 C 570.582031 86.183594 570.773438 86.941406 570.925781 87.714844 C 571.078125 88.484375 571.195312 89.257812 571.269531 90.039062 C 571.347656 90.824219 571.386719 91.605469 571.386719 92.390625 Z M 571.386719 92.390625 " fill-opacity="1" fill-rule="nonzero"/><path fill="#5e1113" d="M 752.640625 198.910156 C 759.253906 193.617188 773.976562 181.835938 777.246094 160.410156 C 777.347656 159.742188 777.402344 159.292969 777.472656 158.722656 C 778.613281 149.914062 780.839844 132.710938 771.339844 116.171875 C 761.050781 98.269531 743.078125 91.785156 735.257812 92.585938 C 729.476562 93.179688 726.523438 94.925781 726.523438 94.925781 C 723.019531 97.007812 722.203125 99.285156 718.800781 100.082031 C 717.371094 100.417969 716.480469 100.265625 715.574219 100.117188 C 714.757812 99.980469 713.921875 99.84375 712.667969 100.066406 C 708.777344 100.746094 706.285156 103.8125 704.941406 105.472656 C 696.636719 115.738281 694.691406 137.644531 694.691406 137.644531 C 692.765625 159.382812 690.109375 191.457031 698.511719 201.007812 C 700.238281 202.972656 702.164062 204.023438 702.164062 204.023438 C 705.195312 204.140625 710.730469 204.292969 718.621094 204.28125 C 721.308594 204.28125 723.375 204.65625 725.453125 205.035156 C 727.78125 205.457031 730.125 205.878906 733.363281 205.765625 C 739.835938 205.539062 743.757812 204.214844 746.601562 202.828125 C 748.929688 201.691406 750.769531 200.40625 752.640625 198.910156 " fill-opacity="1" fill-rule="nonzero"/><path fill="#7f3e33" d="M 717.492188 98.382812 C 716.992188 98.535156 716.480469 98.648438 715.945312 98.691406 C 715.417969 98.730469 714.878906 98.695312 714.359375 98.644531 C 713.835938 98.59375 713.332031 98.539062 712.832031 98.554688 C 712.335938 98.570312 711.84375 98.640625 711.359375 98.761719 C 709.414062 99.238281 707.726562 100.378906 706.34375 101.808594 C 705.648438 102.527344 705.027344 103.308594 704.414062 104.132812 C 704.105469 104.546875 703.824219 104.953125 703.539062 105.363281 C 703.277344 105.796875 702.996094 106.207031 702.75 106.652344 C 701.765625 108.410156 700.910156 110.25 700.164062 112.144531 C 699.417969 114.035156 698.800781 115.988281 698.257812 117.960938 C 697.71875 119.933594 697.21875 121.925781 696.800781 123.933594 C 696.382812 125.945312 696.023438 127.96875 695.71875 130 C 695.566406 131.015625 695.417969 132.03125 695.285156 133.046875 L 694.9375 136.214844 L 694.953125 136.078125 C 694.503906 141.433594 694.050781 146.777344 693.65625 152.117188 C 693.261719 157.460938 692.949219 162.800781 692.761719 168.136719 C 692.671875 170.804688 692.617188 173.472656 692.65625 176.136719 C 692.695312 178.800781 692.757812 181.464844 692.988281 184.113281 C 693.222656 186.757812 693.527344 189.40625 694.148438 191.988281 C 694.757812 194.5625 695.609375 197.117188 697.199219 199.304688 C 696.246094 198.351562 695.453125 197.226562 694.8125 196.019531 C 694.496094 195.417969 694.203125 194.796875 693.9375 194.171875 C 693.671875 193.539062 693.433594 192.90625 693.199219 192.261719 C 692.964844 191.621094 692.792969 190.964844 692.585938 190.3125 C 692.417969 189.652344 692.234375 188.992188 692.082031 188.328125 C 691.769531 187.003906 691.503906 185.664062 691.296875 184.324219 C 690.457031 178.945312 690.144531 173.519531 690.078125 168.109375 C 690.011719 162.699219 690.210938 157.292969 690.535156 151.910156 C 690.859375 146.527344 691.3125 141.15625 691.8125 135.804688 L 691.832031 135.667969 C 691.808594 135.792969 691.832031 135.644531 691.835938 135.59375 L 692.214844 132.632812 C 692.371094 131.585938 692.527344 130.539062 692.71875 129.503906 C 693.09375 127.425781 693.527344 125.359375 694.027344 123.308594 C 695.015625 119.199219 696.304688 115.144531 698.046875 111.253906 C 698.917969 109.308594 699.96875 107.441406 701.152344 105.644531 C 701.449219 105.195312 701.773438 104.757812 702.097656 104.332031 C 702.417969 103.902344 702.78125 103.484375 703.121094 103.082031 C 703.808594 102.285156 704.566406 101.5 705.390625 100.792969 C 707.03125 99.375 709.046875 98.269531 711.21875 97.992188 C 711.761719 97.925781 712.308594 97.902344 712.851562 97.949219 C 713.394531 97.996094 713.921875 98.109375 714.429688 98.230469 C 714.933594 98.347656 715.433594 98.445312 715.941406 98.46875 C 716.457031 98.496094 716.976562 98.460938 717.492188 98.382812 " fill-opacity="1" fill-rule="nonzero"/><path fill="#f18c6d" d="M 757.921875 191.445312 L 750.523438 136.070312 L 727.625 142.3125 L 727.625 190.378906 C 727.625 190.378906 735.023438 208.289062 757.921875 191.445312 " fill-opacity="1" fill-rule="nonzero"/><path fill="#f18c6d" d="M 713.832031 175.832031 C 711.550781 175.46875 709.785156 174.46875 709.785156 174.46875 C 709.269531 174.175781 708.773438 173.832031 708.289062 173.425781 C 708.289062 173.425781 707.519531 172.796875 706.847656 172.023438 C 698.398438 162.355469 702.605469 142.023438 702.605469 142.023438 C 703.878906 135.871094 705.253906 133.71875 708.53125 125.164062 C 711.171875 118.269531 714.746094 108.011719 718.003906 94.84375 C 718.710938 94.71875 725.929688 93.582031 733.285156 92.523438 C 736.355469 92.4375 755.488281 92.183594 765.34375 105.421875 C 777.8125 122.171875 765.554688 147.269531 754.65625 159.238281 C 753.453125 160.558594 752.21875 161.773438 750.960938 162.894531 C 748.199219 165.957031 742.828125 171.050781 734.539062 174.09375 C 734.539062 174.09375 724.953125 177.609375 713.832031 175.832031 " fill-opacity="1" fill-rule="nonzero"/><path fill="#ea5b29" d="M 747.351562 162.109375 C 746.921875 162.515625 746.515625 162.933594 746.105469 163.34375 C 745.898438 163.554688 745.707031 163.765625 745.5 163.972656 C 745.296875 164.175781 745.070312 164.363281 744.855469 164.558594 L 743.585938 165.730469 C 743.136719 166.089844 742.699219 166.46875 742.257812 166.828125 C 740.472656 168.277344 738.597656 169.589844 736.617188 170.738281 C 734.636719 171.882812 732.597656 172.929688 730.476562 173.816406 C 729.941406 174.039062 729.410156 174.257812 728.871094 174.457031 L 728.0625 174.769531 L 727.246094 175.054688 C 726.152344 175.433594 725.046875 175.792969 723.90625 176.058594 C 725.085938 176.09375 726.257812 175.90625 727.417969 175.703125 L 728.285156 175.523438 L 729.144531 175.3125 C 729.722656 175.183594 730.277344 174.996094 730.84375 174.816406 C 733.097656 174.113281 735.261719 173.105469 737.3125 171.917969 C 739.363281 170.722656 741.273438 169.28125 742.960938 167.625 C 743.386719 167.210938 743.804688 166.796875 744.210938 166.371094 C 744.210938 166.371094 745.726562 164.558594 745.898438 164.320312 C 746.070312 164.078125 746.230469 163.832031 746.394531 163.589844 C 746.71875 163.09375 747.042969 162.605469 747.351562 162.109375 " fill-opacity="1" fill-rule="nonzero"/><path fill="#f18c6d" d="M 756.285156 146.859375 C 754.113281 151.0625 754.257812 155.457031 756.605469 156.671875 C 758.957031 157.882812 762.621094 155.457031 764.792969 151.253906 C 766.964844 147.050781 766.820312 142.65625 764.472656 141.441406 C 762.125 140.230469 758.457031 142.652344 756.285156 146.859375 " fill-opacity="1" fill-rule="nonzero"/><path fill="#ea5b29" d="M 760.011719 147.46875 C 760.015625 147.867188 759.980469 148.25 759.878906 148.613281 C 759.78125 148.964844 759.667969 149.292969 759.5 149.582031 C 759.417969 149.730469 759.304688 149.859375 759.179688 149.976562 C 759.070312 150.097656 758.992188 150.226562 758.949219 150.390625 C 758.921875 150.558594 758.871094 150.726562 758.875 150.953125 C 758.863281 151.164062 758.847656 151.398438 758.902344 151.726562 L 759.023438 151.847656 C 759.652344 151.902344 760.117188 151.671875 760.457031 151.324219 C 760.835938 150.992188 760.8125 150.417969 760.871094 149.960938 C 760.929688 149.488281 760.890625 149.011719 760.769531 148.578125 C 760.640625 148.136719 760.460938 147.734375 760.175781 147.394531 L 760.042969 147.382812 L 760.011719 147.457031 L 760.011719 147.46875 " fill-opacity="1" fill-rule="nonzero"/><path fill="#ea5b29" d="M 765.101562 144.699219 C 764.804688 144.148438 764.273438 143.742188 763.652344 143.535156 C 763.023438 143.324219 762.292969 143.363281 761.664062 143.613281 C 761.023438 143.867188 760.550781 144.332031 760.164062 144.816406 C 759.992188 145.074219 759.84375 145.347656 759.710938 145.621094 C 759.613281 145.910156 759.515625 146.195312 759.460938 146.5 C 759.730469 146.332031 759.949219 146.140625 760.171875 145.957031 C 760.390625 145.777344 760.621094 145.625 760.820312 145.449219 C 761.261719 145.15625 761.667969 144.855469 762.105469 144.6875 C 762.539062 144.519531 762.980469 144.425781 763.480469 144.425781 C 763.976562 144.425781 764.507812 144.53125 765.101562 144.699219 " fill-opacity="1" fill-rule="nonzero"/><path fill="#ea5b29" d="M 722.902344 130.898438 C 722.164062 133.007812 721.390625 134.984375 720.421875 136.847656 C 719.457031 138.707031 718.347656 140.453125 717.070312 142.070312 C 716.75 142.476562 716.417969 142.871094 716.078125 143.257812 C 715.746094 143.640625 715.382812 144.011719 714.992188 144.476562 C 714.605469 144.933594 714.195312 145.472656 713.929688 146.167969 C 713.796875 146.511719 713.707031 146.886719 713.683594 147.277344 C 713.667969 147.660156 713.710938 148.039062 713.808594 148.390625 C 714.195312 149.800781 715.257812 150.757812 716.371094 151.242188 C 717.492188 151.726562 718.621094 151.832031 719.734375 151.863281 C 718.757812 151.324219 717.753906 150.84375 717 150.203125 C 716.617188 149.878906 716.320312 149.542969 716.09375 149.15625 C 715.871094 148.773438 715.730469 148.371094 715.707031 148.003906 C 715.683594 147.632812 715.753906 147.34375 715.921875 147.035156 C 716.09375 146.722656 716.371094 146.394531 716.71875 146.054688 C 717.058594 145.71875 717.46875 145.316406 717.875 144.902344 C 718.074219 144.695312 718.261719 144.480469 718.449219 144.261719 C 718.640625 144.042969 718.828125 143.828125 719.003906 143.601562 C 720.414062 141.789062 721.519531 139.746094 722.214844 137.578125 C 722.902344 135.410156 723.183594 133.117188 722.902344 130.898438 " fill-opacity="1" fill-rule="nonzero"/><path fill="#f5a45b" d="M 769.929688 171.050781 L 755.886719 172.46875 L 756.988281 160.449219 L 764.925781 159.910156 L 769.929688 171.050781 " fill-opacity="1" fill-rule="nonzero"/><path fill="#f5a45b" d="M 762.960938 155.398438 C 762.765625 157.070312 761.242188 158.265625 759.566406 158.066406 C 757.894531 157.867188 756.699219 156.347656 756.898438 154.671875 C 757.097656 152.996094 758.617188 151.804688 760.292969 152 C 761.96875 152.199219 763.164062 153.71875 762.960938 155.398438 " fill-opacity="1" fill-rule="nonzero"/><path fill="#cb7e5d" d="M 762.414062 162.839844 L 758.925781 163.042969 L 758.574219 157.089844 L 762.0625 156.886719 L 762.414062 162.839844 " fill-opacity="1" fill-rule="nonzero"/><path fill="#ea5b29" d="M 763.230469 102.929688 C 752.984375 92.21875 736.152344 92.445312 733.285156 92.523438 C 725.929688 93.582031 718.710938 94.71875 718.003906 94.84375 C 716.902344 96.621094 715.820312 98.855469 716.664062 100.042969 C 718.027344 101.960938 722.75 98.75 726.976562 99.257812 C 738.304688 100.609375 736.335938 127.988281 755.011719 139.578125 C 761.910156 143.863281 770.3125 145.824219 772.34375 143.28125 C 775.9375 138.777344 757.386719 122.882812 762.199219 105.800781 C 762.550781 104.542969 762.957031 103.550781 763.230469 102.929688 " fill-opacity="1" fill-rule="nonzero"/><path fill="#5e1113" d="M 734.128906 119.519531 L 732.878906 123.695312 C 732.878906 123.695312 743.347656 126.835938 750.480469 131.511719 C 750.480469 131.511719 740.34375 117.546875 734.128906 119.519531 " fill-opacity="1" fill-rule="nonzero"/><path fill="#5e1113" d="M 708.835938 117.441406 C 712.109375 115.386719 715.609375 113.972656 718.03125 115.171875 L 717.554688 120.414062 C 717.554688 120.414062 714.046875 120.628906 709.566406 121.570312 L 708.835938 117.441406 " fill-opacity="1" fill-rule="nonzero"/><g clip-path="url(#81be7825f5)"><g clip-path="url(#9f5b8e8899)"><g clip-path="url(#ea0d107786)"><g clip-path="url(#d9bb987da2)"><path fill="url(#b623f41b05)" d="M 724.570312 147.746094 L 735.988281 165.382812 L 754.320312 153.121094 L 742.898438 135.484375 Z M 724.570312 147.746094 " fill-rule="nonzero"/></g></g></g></g><g clip-path="url(#50403d52e7)"><g clip-path="url(#544e28a6bb)"><g clip-path="url(#2461da576e)"><g clip-path="url(#2a6e4628f1)"><path fill="url(#6f04965d3f)" d="M 701.605469 143.460938 L 700.878906 149.578125 L 702.328125 149.75 L 703.054688 143.632812 Z M 701.605469 143.460938 " fill-rule="nonzero"/></g></g></g></g><g clip-path="url(#bf9fa0692b)"><g clip-path="url(#4fa043f8de)"><g clip-path="url(#9af30747ce)"><g clip-path="url(#37b29f31bf)"><path fill="url(#20925a8a88)" d="M 701.761719 133.527344 L 699.769531 150.292969 L 708.160156 151.292969 L 710.152344 134.523438 Z M 701.761719 133.527344 " fill-rule="nonzero"/></g></g></g></g><path fill="#ea5b29" d="M 713.789062 160.992188 C 717.003906 162.472656 720.683594 161.242188 720.6875 160.699219 C 720.6875 160.519531 720.265625 160.40625 717.285156 159.726562 C 714.667969 159.128906 712.414062 158.625 710.640625 158.234375 C 711.105469 158.941406 712.09375 160.210938 713.789062 160.992188 " fill-opacity="1" fill-rule="nonzero"/><path fill="#282222" d="M 736.617188 135.238281 C 736.125 135.800781 735.824219 136.488281 735.796875 137.242188 C 735.71875 139.226562 737.535156 140.910156 739.851562 140.996094 C 741.90625 141.070312 743.660156 139.867188 744.089844 138.210938 C 742.113281 136.949219 739.503906 135.511719 736.617188 135.238281 " fill-opacity="1" fill-rule="nonzero"/><path fill="#282222" d="M 717.996094 134.609375 C 718.21875 132.722656 717.496094 130.734375 716.203125 129.652344 C 715.828125 129.339844 715.417969 129.113281 714.992188 128.941406 C 713.957031 129.457031 713.222656 130.5 713.171875 131.742188 C 713.097656 133.550781 714.5 135.070312 716.296875 135.136719 C 716.980469 135.164062 717.617188 134.972656 718.15625 134.632812 L 717.996094 134.609375 " fill-opacity="1" fill-rule="nonzero"/><path fill="#282222" d="M 728.9375 137.308594 C 730.015625 136.3125 731.335938 135.582031 732.746094 135.109375 C 734.15625 134.628906 735.671875 134.441406 737.160156 134.574219 C 737.90625 134.644531 738.644531 134.773438 739.359375 134.992188 C 740.078125 135.207031 740.769531 135.492188 741.421875 135.847656 C 742.726562 136.5625 743.894531 137.519531 744.773438 138.691406 C 743.613281 137.816406 742.386719 137.082031 741.097656 136.546875 C 739.808594 136.011719 738.453125 135.671875 737.074219 135.558594 C 736.386719 135.5 735.699219 135.5 735.003906 135.546875 C 734.3125 135.59375 733.625 135.699219 732.941406 135.847656 C 731.574219 136.148438 730.238281 136.65625 728.9375 137.308594 " fill-opacity="1" fill-rule="nonzero"/><path fill="#282222" d="M 717.996094 134.609375 C 717.824219 133.398438 717.488281 132.253906 716.921875 131.269531 C 716.351562 130.285156 715.53125 129.496094 714.578125 128.9375 C 713.621094 128.375 712.523438 128.042969 711.394531 127.914062 C 710.257812 127.78125 709.085938 127.867188 707.894531 128.070312 C 708.953125 127.480469 710.179688 127.15625 711.433594 127.144531 C 712.683594 127.132812 713.964844 127.425781 715.066406 128.078125 C 715.617188 128.40625 716.125 128.816406 716.554688 129.296875 C 716.992188 129.777344 717.34375 130.328125 717.59375 130.917969 C 718.09375 132.101562 718.226562 133.40625 717.996094 134.609375 " fill-opacity="1" fill-rule="nonzero"/><g clip-path="url(#d63d2309e1)"><path fill="#c77955" d="M 744.179688 488.945312 L 749.957031 422.40625 C 749.722656 413.433594 747.359375 342.535156 720.777344 322.550781 C 714.257812 317.652344 697.550781 307.007812 691.269531 311.988281 C 687.425781 315.035156 690.515625 321.519531 689.105469 332.816406 C 687.332031 347.085938 680.992188 348.070312 673.359375 366.214844 C 666.726562 381.972656 666.792969 396.445312 663.4375 412.730469 C 663.4375 412.730469 662.203125 424.285156 662.089844 436.1875 C 662.003906 445.019531 663.078125 463.171875 665.160156 488.945312 L 744.179688 488.945312 " fill-opacity="1" fill-rule="nonzero"/></g><path fill="#a85838" d="M 732.925781 435.457031 C 733.097656 435.449219 733.257812 435.339844 733.328125 435.171875 C 733.425781 434.933594 733.3125 434.664062 733.074219 434.566406 L 696.125 419.410156 C 695.886719 419.308594 695.617188 419.421875 695.519531 419.660156 C 695.421875 419.902344 695.535156 420.171875 695.769531 420.269531 L 732.726562 435.425781 L 732.925781 435.457031 " fill-opacity="1" fill-rule="nonzero"/><g clip-path="url(#2e55504e70)"><path fill="#c77955" d="M 731.753906 488.945312 L 807.238281 488.945312 C 808.042969 467.046875 808.832031 445.152344 809.535156 423.253906 C 809.789062 415.382812 808.890625 407.519531 806.867188 399.90625 C 803.375 386.773438 799.1875 371.3125 794.34375 354.027344 C 783.898438 316.757812 780.597656 307.3125 775.96875 302.867188 C 775.265625 302.195312 774.605469 301.785156 773.40625 300.894531 C 762.765625 293.011719 726.398438 266.070312 706.746094 276.160156 C 692.988281 283.226562 690.46875 305.023438 689.230469 317.039062 C 684.617188 361.792969 708.519531 398.179688 721.03125 414.445312 L 731.753906 488.945312 " fill-opacity="1" fill-rule="nonzero"/></g><g clip-path="url(#7ee81dc524)"><path fill="#a85838" d="M 802.753906 400.027344 C 804.765625 407.59375 805.65625 415.40625 805.40625 423.242188 L 803.292969 488.945312 L 804.21875 488.945312 L 806.332031 423.269531 C 806.589844 415.34375 805.6875 407.445312 803.652344 399.789062 C 799.609375 384.582031 785.519531 334.136719 783.628906 327.914062 C 783.550781 327.664062 783.292969 327.527344 783.046875 327.605469 C 782.800781 327.675781 782.664062 327.933594 782.738281 328.183594 C 784.632812 334.402344 798.714844 384.828125 802.753906 400.027344 " fill-opacity="1" fill-rule="nonzero"/></g><path fill="#a85838" d="M 721.191406 423.96875 C 717.601562 423.96875 714.46875 422.605469 711.851562 419.898438 C 706.320312 414.175781 703.097656 402.636719 702.269531 385.609375 C 701.65625 372.96875 702.667969 361.847656 702.675781 361.738281 C 702.695312 361.519531 702.894531 361.359375 703.109375 361.378906 C 703.332031 361.398438 703.492188 361.59375 703.472656 361.8125 C 703.433594 362.253906 699.535156 406.003906 712.425781 419.34375 C 715.074219 422.085938 718.292969 423.359375 721.996094 423.148438 C 722.21875 423.128906 722.40625 423.300781 722.417969 423.519531 C 722.429688 423.742188 722.261719 423.929688 722.042969 423.941406 C 721.753906 423.960938 721.472656 423.96875 721.191406 423.96875 " fill-opacity="1" fill-rule="nonzero"/><path fill="#a85838" d="M 727.207031 434.257812 C 727.054688 434.257812 726.910156 434.171875 726.84375 434.019531 C 724.664062 428.949219 722.769531 423.710938 721.207031 418.445312 C 715.4375 399.007812 713.90625 378.453125 716.644531 357.34375 C 716.671875 357.125 716.871094 356.96875 717.089844 356.996094 C 717.308594 357.027344 717.464844 357.226562 717.433594 357.445312 C 714.710938 378.441406 716.238281 398.890625 721.972656 418.21875 C 723.527344 423.453125 725.410156 428.664062 727.574219 433.703125 C 727.664062 433.90625 727.570312 434.140625 727.367188 434.226562 L 727.207031 434.257812 " fill-opacity="1" fill-rule="nonzero"/><path fill="#a85838" d="M 786.082031 389.933594 C 773.039062 389.933594 762.910156 386.40625 755.9375 379.425781 C 745.429688 368.90625 745.960938 354.027344 745.96875 353.878906 C 745.976562 353.660156 746.171875 353.492188 746.382812 353.496094 C 746.601562 353.507812 746.773438 353.691406 746.765625 353.914062 C 746.757812 354.058594 746.25 368.601562 756.511719 378.867188 C 763.886719 386.25 774.917969 389.679688 789.304688 389.066406 C 789.519531 389.058594 789.710938 389.230469 789.71875 389.449219 C 789.730469 389.667969 789.558594 389.855469 789.335938 389.863281 C 788.230469 389.914062 787.144531 389.933594 786.082031 389.933594 " fill-opacity="1" fill-rule="nonzero"/><g clip-path="url(#a337322544)"><path fill="#a85838" d="M 727.46875 437.890625 L 733.097656 488.945312 C 733.097656 488.945312 716.972656 488.945312 718.15625 488.945312 C 719.335938 488.945312 727.46875 437.890625 727.46875 437.890625 " fill-opacity="1" fill-rule="nonzero"/></g><path fill="#5e1113" d="M 783.199219 316.757812 L 688.113281 322.921875 C 687.015625 329.5 686.652344 334.710938 686.230469 339.347656 C 691.019531 341.597656 696.234375 343.625 701.882812 345.265625 C 738.644531 355.945312 772.363281 344.042969 789.320312 336.375 C 786.835938 327.84375 784.875 321.519531 783.199219 316.757812 " fill-opacity="1" fill-rule="nonzero"/><path fill="#febb54" d="M 716.375 350.371094 L 716.257812 350.363281 L 704.058594 348.070312 C 703.761719 348.015625 703.546875 347.757812 703.546875 347.457031 L 703.546875 330.949219 C 703.546875 330.773438 703.625 330.605469 703.753906 330.484375 C 703.886719 330.367188 704.0625 330.3125 704.238281 330.332031 L 715.390625 331.484375 C 715.734375 331.519531 715.984375 331.824219 715.949219 332.167969 C 715.914062 332.515625 715.609375 332.761719 715.261719 332.726562 L 704.796875 331.644531 L 704.796875 346.9375 L 715.746094 348.992188 L 715.746094 345.753906 C 715.746094 345.40625 716.027344 345.128906 716.375 345.128906 C 716.71875 345.128906 717 345.40625 717 345.753906 L 717 349.746094 C 717 349.933594 716.914062 350.109375 716.769531 350.230469 C 716.660156 350.324219 716.515625 350.371094 716.375 350.371094 " fill-opacity="1" fill-rule="nonzero"/><path fill="#febb54" d="M 706.644531 340.222656 L 706.515625 340.207031 L 702.339844 339.320312 C 702 339.25 701.785156 338.917969 701.855469 338.582031 C 701.929688 338.242188 702.261719 338.023438 702.597656 338.097656 L 706.777344 338.984375 C 707.113281 339.054688 707.328125 339.390625 707.257812 339.726562 C 707.195312 340.019531 706.9375 340.222656 706.644531 340.222656 " fill-opacity="1" fill-rule="nonzero"/><path fill="#7f3e33" d="M 792.289062 195.308594 C 793.015625 192.855469 793.382812 190.328125 793.449219 187.800781 C 793.484375 186.535156 793.449219 185.269531 793.355469 184.011719 C 793.265625 182.753906 793.125 181.5 792.925781 180.25 C 792.726562 179.007812 792.484375 177.765625 792.214844 176.535156 C 791.941406 175.300781 791.625 174.078125 791.28125 172.863281 C 790.601562 170.429688 789.78125 168.035156 788.914062 165.65625 C 788.480469 164.460938 786.632812 159.703125 786.179688 158.5 C 785.277344 156.089844 784.480469 153.636719 783.753906 151.15625 C 783.027344 148.679688 782.40625 146.164062 781.878906 143.632812 C 781.355469 141.101562 780.949219 138.535156 780.632812 135.976562 C 780.308594 133.414062 780.109375 130.847656 779.847656 128.328125 C 779.722656 127.070312 779.59375 125.820312 779.414062 124.585938 C 779.226562 123.355469 779.027344 122.132812 778.734375 120.941406 C 778.441406 119.75 778.097656 118.574219 777.695312 117.417969 C 777.492188 116.835938 777.261719 116.273438 777.03125 115.703125 C 776.914062 115.417969 776.78125 115.140625 776.652344 114.863281 C 776.527344 114.582031 776.402344 114.300781 776.265625 114.027344 C 775.976562 113.476562 775.71875 112.917969 775.40625 112.382812 L 774.960938 111.570312 L 774.480469 110.769531 C 774.320312 110.503906 774.167969 110.234375 774 109.972656 L 773.488281 109.1875 C 773.15625 108.664062 772.800781 108.140625 772.441406 107.617188 C 771.023438 105.542969 769.519531 103.542969 767.863281 101.6875 C 766.203125 99.824219 764.414062 98.085938 762.457031 96.558594 C 760.503906 95.03125 758.378906 93.726562 756.125 92.695312 C 755 92.179688 753.835938 91.757812 752.648438 91.386719 C 752.351562 91.292969 752.050781 91.214844 751.753906 91.136719 C 751.449219 91.054688 751.152344 90.976562 750.847656 90.90625 C 750.238281 90.773438 749.628906 90.660156 749.011719 90.5625 L 748.902344 90.542969 L 748.84375 90.519531 C 747.523438 89.925781 746.179688 89.390625 744.8125 88.921875 C 743.445312 88.457031 742.046875 88.066406 740.632812 87.757812 C 739.21875 87.453125 737.777344 87.253906 736.328125 87.160156 C 734.878906 87.070312 733.417969 87.101562 731.957031 87.265625 C 733.390625 86.945312 734.859375 86.789062 736.335938 86.753906 C 737.8125 86.714844 739.292969 86.820312 740.761719 87.019531 C 742.230469 87.214844 743.683594 87.527344 745.117188 87.914062 C 746.550781 88.300781 747.960938 88.765625 749.347656 89.285156 L 749.179688 89.238281 C 749.832031 89.300781 750.476562 89.394531 751.125 89.5 C 751.449219 89.554688 751.769531 89.621094 752.089844 89.691406 C 752.410156 89.761719 752.734375 89.824219 753.046875 89.90625 C 754.320312 90.234375 755.578125 90.625 756.800781 91.109375 C 759.25 92.078125 761.554688 93.386719 763.679688 94.925781 C 765.804688 96.472656 767.769531 98.222656 769.5625 100.125 C 771.355469 102.03125 772.984375 104.078125 774.488281 106.1875 C 775.976562 108.292969 777.390625 110.523438 778.605469 112.867188 C 778.757812 113.160156 778.898438 113.457031 779.039062 113.757812 C 779.179688 114.058594 779.324219 114.355469 779.453125 114.660156 C 779.710938 115.269531 779.964844 115.886719 780.191406 116.507812 C 780.644531 117.761719 781.039062 119.03125 781.347656 120.316406 C 781.972656 122.898438 782.292969 125.503906 782.542969 128.0625 C 782.789062 130.625 782.996094 133.152344 783.28125 135.65625 C 783.859375 140.671875 784.804688 145.621094 786.101562 150.5 C 786.753906 152.941406 787.484375 155.359375 788.28125 157.765625 C 788.683594 158.972656 790.355469 163.796875 790.753906 165.019531 C 791.554688 167.464844 792.261719 169.949219 792.835938 172.464844 C 793.125 173.722656 793.382812 174.992188 793.597656 176.265625 C 793.816406 177.535156 793.976562 178.816406 794.097656 180.105469 C 794.222656 181.390625 794.28125 182.683594 794.296875 183.976562 C 794.304688 184.621094 794.292969 185.269531 794.261719 185.910156 C 794.230469 186.558594 794.183594 187.203125 794.113281 187.84375 C 793.964844 189.125 793.78125 190.402344 793.46875 191.652344 C 793.160156 192.902344 792.777344 194.128906 792.289062 195.308594 " fill-opacity="1" fill-rule="nonzero"/><path fill="#5e1113" d="M 749.09375 90.367188 C 748.113281 90.160156 747.296875 90.039062 746.769531 89.976562 C 741.289062 87.730469 735.449219 86.378906 729.632812 87.339844 C 717.148438 87.441406 701.289062 111.085938 704.964844 119.132812 C 712.074219 117.664062 719.085938 98.28125 728.398438 98.597656 C 733.730469 98.777344 738.15625 104.292969 743.132812 115.632812 C 762.125 158.917969 742.949219 193.914062 758.554688 204.457031 C 767.1875 210.292969 782.476562 206.023438 788.417969 198.152344 C 789.113281 197.230469 789.617188 196.339844 789.960938 195.382812 C 794.257812 183.433594 788.675781 168.429688 785.902344 160.976562 C 774.742188 130.988281 783.316406 124.742188 771.804688 107.941406 C 768.722656 103.445312 761.34375 92.996094 749.09375 90.367188 " fill-opacity="1" fill-rule="nonzero"/><path fill="#7f3e33" d="M 725.617188 99.40625 C 722.121094 99.382812 718.953125 100.5 716.285156 102.277344 C 713.621094 104.054688 711.402344 106.46875 709.917969 109.234375 C 706.878906 114.902344 706.433594 121.6875 706.722656 128.59375 C 705.371094 125.378906 704.683594 121.859375 704.695312 118.285156 C 704.710938 114.710938 705.5 111.042969 707.257812 107.796875 C 709.03125 104.519531 711.824219 101.859375 715.125 100.234375 C 718.390625 98.621094 722.332031 98.113281 725.617188 99.40625 " fill-opacity="1" fill-rule="nonzero"/><g clip-path="url(#0dfaac948c)"><path fill="#7f3e33" d="M 725.078125 96.800781 C 723.910156 94.542969 724.351562 91.625 725.714844 89.363281 C 727.117188 87.042969 729.660156 85.535156 732.28125 84.929688 C 734.921875 84.320312 737.714844 84.578125 740.234375 85.371094 C 742.769531 86.171875 745.058594 87.476562 747.152344 88.925781 C 749.238281 90.367188 751.242188 92.03125 752.9375 94.042969 C 754.640625 96.0625 755.882812 98.417969 756.824219 100.742188 C 758.71875 105.417969 759.699219 110.1875 762.589844 114.265625 C 758.765625 110.945312 756.804688 105.992188 754.683594 101.734375 C 752.523438 97.40625 749.40625 94.136719 745.425781 91.410156 C 741.539062 88.742188 737.203125 86.625 732.707031 87.238281 C 730.511719 87.542969 728.398438 88.507812 726.910156 90.230469 C 725.421875 91.949219 724.582031 94.359375 725.078125 96.800781 " fill-opacity="1" fill-rule="nonzero"/></g><path fill="#7f3e33" d="M 721.9375 100.070312 C 724.949219 97.882812 729.265625 98.042969 732.664062 99.667969 C 736.164062 101.339844 738.675781 104.507812 740.40625 107.816406 C 743.917969 114.539062 744.839844 121.953125 746.542969 128.828125 C 748.238281 135.667969 751.015625 142.28125 756.5625 146.457031 C 759.308594 148.523438 762.5625 149.945312 765.980469 150.714844 C 769.421875 151.492188 773.03125 151.476562 776.578125 150.710938 C 773.222656 152.132812 769.441406 152.59375 765.738281 152.175781 C 762.039062 151.765625 758.4375 150.394531 755.230469 148.367188 C 752.007812 146.324219 749.394531 143.324219 747.542969 140.035156 C 745.671875 136.71875 744.507812 133.121094 743.613281 129.566406 C 741.828125 122.445312 741.070312 115.234375 738.320312 108.828125 C 736.964844 105.667969 734.875 102.761719 731.964844 100.96875 C 729.066406 99.179688 725.257812 98.519531 721.9375 100.070312 " fill-opacity="1" fill-rule="nonzero"/><path fill="#7f3e33" d="M 747.148438 114.675781 C 749.121094 117.9375 750.3125 121.617188 751.425781 125.175781 C 752.542969 128.75 753.570312 132.253906 755.082031 135.515625 C 756.59375 138.765625 758.378906 142.007812 760.722656 144.574219 C 763.039062 147.109375 766.355469 148.96875 770.175781 148.578125 C 766.644531 150.296875 762.078125 148.902344 759.101562 146.289062 C 756.054688 143.613281 753.964844 140.28125 752.332031 136.765625 C 750.6875 133.21875 749.8125 129.429688 749.144531 125.738281 C 748.46875 122.03125 747.945312 118.386719 747.148438 114.675781 " fill-opacity="1" fill-rule="nonzero"/><path fill="#fb4e77" d="M 817.722656 257.457031 C 817.5625 256.15625 816.828125 252.988281 815.960938 249.453125 C 814.632812 244.03125 813.390625 240.101562 812.898438 238.519531 C 810.03125 229.277344 809.359375 224.667969 807.359375 217.535156 C 802.269531 199.363281 799.046875 187.867188 789.289062 182.851562 C 782.621094 179.421875 775.921875 180.570312 773.699219 180.957031 C 772.332031 181.191406 771 181.53125 769.703125 181.957031 C 768.859375 181.949219 767.945312 181.933594 766.953125 181.90625 C 764.167969 181.832031 761.90625 181.703125 760.476562 181.613281 C 761.203125 179.027344 761.65625 175.957031 760.097656 174.5 C 758.082031 172.605469 754.503906 175.125 746.226562 176.519531 C 738.199219 177.878906 730.179688 177.605469 730.179688 177.605469 C 724.960938 177.429688 721.460938 176.757812 719.761719 178.894531 C 718.65625 180.289062 718.804688 182.253906 719.082031 183.648438 L 706.804688 182.558594 C 699.671875 181 693.996094 181.550781 689.523438 182.894531 C 663.988281 190.554688 648.625 232.671875 650.839844 287.492188 C 664.953125 279.734375 671.113281 280.800781 674.144531 282.976562 C 680.972656 287.875 681.300781 298.621094 683.5 316.476562 C 684.328125 323.199219 689.066406 328.800781 695.574219 330.699219 C 707.320312 334.132812 724.515625 337.105469 744.625 333.824219 C 760.878906 331.171875 773.640625 325.3125 782.320312 320.265625 C 785.453125 318.441406 787.28125 315.007812 787.066406 311.386719 C 786.894531 308.480469 786.9375 305.855469 787.089844 303.378906 C 791.136719 305.445312 795.652344 306.546875 799.867188 305.703125 C 807.453125 304.179688 810.675781 294.984375 813.453125 287.910156 C 819.289062 273.039062 818.019531 259.90625 817.722656 257.457031 " fill-opacity="1" fill-rule="nonzero"/><path fill="#fb4e77" d="M 804.851562 239.6875 C 786.46875 257.542969 774.195312 283.511719 780.792969 293.941406 C 783.585938 298.355469 788.265625 301.957031 788.265625 301.957031 C 789.589844 302.976562 793.796875 307.195312 798.210938 307.152344 C 805.742188 307.074219 812.542969 302.714844 818.320312 297.886719 C 830.300781 287.875 839.976562 275.121094 846.386719 260.886719 C 851.296875 249.980469 854.097656 236.621094 842.554688 221.628906 C 833.941406 210.4375 808.992188 235.664062 804.851562 239.6875 " fill-opacity="1" fill-rule="nonzero"/><path fill="#ef3369" d="M 776.75 269.992188 C 776.621094 274.734375 776.191406 281.332031 774.859375 289.09375 C 773.058594 299.625 770.394531 315.148438 763.933594 323.195312 C 748.160156 342.832031 701.105469 328.695312 689.800781 327.710938 C 691.484375 329.046875 693.433594 330.074219 695.574219 330.699219 C 707.320312 334.132812 724.515625 337.105469 744.625 333.824219 C 760.878906 331.171875 773.640625 325.3125 782.320312 320.265625 C 785.453125 318.441406 787.28125 315.007812 787.066406 311.386719 C 786.894531 308.480469 786.9375 305.855469 787.089844 303.378906 C 787.820312 303.75 788.5625 304.089844 789.3125 304.390625 C 783.710938 299.554688 777.714844 290.152344 776.75 269.992188 " fill-opacity="1" fill-rule="nonzero"/><path fill="#ef3369" d="M 731.730469 192.496094 C 726.949219 191.960938 722.230469 190.734375 717.792969 188.859375 C 717.492188 188.726562 717.347656 188.378906 717.480469 188.070312 C 717.605469 187.765625 717.957031 187.625 718.261719 187.753906 C 724.828125 190.535156 732.039062 191.851562 739.117188 191.566406 C 745.414062 191.3125 751.519531 189.847656 757.273438 187.222656 C 757.574219 187.085938 757.933594 187.21875 758.070312 187.515625 C 758.203125 187.820312 758.070312 188.171875 757.769531 188.3125 C 751.875 191.007812 745.617188 192.503906 739.171875 192.765625 C 736.695312 192.863281 734.203125 192.769531 731.730469 192.496094 " fill-opacity="1" fill-rule="nonzero"/><path fill="#ef3369" d="M 797.949219 245.910156 C 799.84375 243.523438 802.4375 240.523438 805.785156 237.316406 C 808.945312 234.289062 811.550781 232.257812 812.917969 231.195312 C 821.066406 224.867188 830.054688 220.203125 834.859375 217.875 L 834.953125 218.199219 C 830 220.882812 821.328125 225.847656 813.429688 232.027344 C 809.6875 234.945312 807.226562 237.28125 806.457031 238.015625 C 803.003906 241.324219 800.375 244.398438 798.515625 246.757812 C 798.484375 246.761719 798.21875 246.78125 798.035156 246.585938 C 797.871094 246.414062 797.835938 246.140625 797.949219 245.910156 " fill-opacity="1" fill-rule="nonzero"/><path fill="#ef3369" d="M 773.15625 240.644531 L 774.128906 229.78125 L 773.160156 229.691406 L 772.292969 239.378906 L 766.605469 231.890625 L 765.832031 232.480469 L 772.210938 240.875 C 772.476562 242.242188 775.109375 255.972656 774.191406 261.140625 L 775.148438 261.3125 C 776.117188 255.851562 773.398438 241.878906 773.15625 240.644531 " fill-opacity="1" fill-rule="nonzero"/><path fill="#ef3369" d="M 694.546875 318.089844 C 694.359375 318.089844 694.183594 317.992188 694.089844 317.816406 L 688.449219 307.398438 C 688.3125 307.144531 688.410156 306.832031 688.660156 306.695312 C 688.914062 306.558594 689.234375 306.652344 689.371094 306.90625 L 695.003906 317.320312 C 695.140625 317.574219 695.046875 317.890625 694.792969 318.027344 C 694.714844 318.070312 694.628906 318.089844 694.546875 318.089844 " fill-opacity="1" fill-rule="nonzero"/><path fill="#f18c6d" d="M 587.648438 225.5 C 584.554688 223.84375 581.199219 225.996094 575.910156 227.527344 C 573.421875 228.253906 569.675781 229.078125 564.785156 229.167969 C 559.1875 229.703125 556.875 229.355469 555.648438 229.113281 C 552.703125 228.542969 552.953125 228.003906 548.347656 226.898438 C 545.128906 226.125 543.480469 226.019531 541.050781 224.679688 C 539.433594 223.789062 539.871094 223.671875 537.984375 222.527344 C 534.074219 220.160156 531.992188 220.707031 530.113281 218.367188 C 529.707031 217.859375 528.191406 215.96875 528.675781 215.328125 L 528.703125 215.292969 C 529.085938 215.035156 530.6875 214.636719 533.886719 215.308594 C 534.742188 215.488281 536.199219 216.441406 537.269531 216.742188 C 538.226562 217.011719 539.539062 217.285156 540.0625 217.386719 C 541.054688 217.59375 541.621094 217.675781 541.621094 217.675781 C 541.621094 217.675781 539.632812 217.433594 537.269531 216.742188 C 534.992188 216.074219 534.195312 215.527344 533.886719 215.308594 C 533.011719 214.671875 531.5625 213.332031 531.890625 212.574219 C 531.921875 212.5 531.960938 212.4375 532.015625 212.394531 C 532.378906 212.09375 533.988281 211.386719 535.894531 211.667969 C 537.847656 211.957031 538.90625 212.707031 540.15625 213.265625 C 542.097656 214.136719 543.761719 214.195312 547.09375 214.3125 C 553.320312 214.53125 558.941406 212.582031 561.214844 211.703125 C 560.101562 211.140625 558.421875 210.460938 556.3125 210.292969 C 554.132812 210.125 553.300781 210.523438 551.535156 210.269531 C 549.128906 209.921875 546.738281 207.960938 546.898438 206.964844 C 547.332031 204.289062 564.335938 205.21875 567.878906 205.414062 C 569.257812 205.488281 574.082031 205.773438 580.308594 206.75 C 583.800781 207.296875 585.546875 207.574219 587.15625 208.0625 C 591.847656 209.488281 594.480469 211.8125 600.417969 216.804688 C 612.125 226.65625 613.261719 227.195312 613.097656 228.902344 C 612.613281 233.921875 601.914062 238.617188 597.066406 235.753906 C 596.488281 235.410156 594.4375 233.042969 590.363281 228.320312 C 588.382812 226.019531 588.207031 225.800781 587.648438 225.5 " fill-opacity="1" fill-rule="nonzero"/><path fill="#ea5b29" d="M 540.207031 224.105469 C 539.027344 223.332031 537.882812 222.5 536.785156 221.597656 C 536.238281 221.144531 535.707031 220.664062 535.203125 220.144531 C 534.953125 219.878906 534.710938 219.601562 534.5 219.28125 C 534.390625 219.121094 534.289062 218.949219 534.210938 218.75 C 534.132812 218.546875 534.058594 218.300781 534.128906 217.988281 C 534.171875 217.835938 534.253906 217.6875 534.367188 217.574219 C 534.480469 217.460938 534.601562 217.390625 534.71875 217.34375 C 534.949219 217.246094 535.15625 217.214844 535.351562 217.1875 C 535.542969 217.167969 535.722656 217.164062 535.90625 217.152344 C 536.089844 217.148438 536.277344 217.140625 536.460938 217.148438 C 537.199219 217.167969 537.945312 217.261719 538.65625 217.433594 C 539.371094 217.605469 540.050781 217.855469 540.71875 218.105469 L 542.6875 218.867188 C 543.988281 219.375 545.304688 219.816406 546.636719 220.160156 C 547.976562 220.507812 549.332031 220.710938 550.707031 220.753906 C 551.402344 220.777344 552.085938 220.761719 552.761719 220.683594 C 553.441406 220.609375 554.113281 220.464844 554.773438 220.265625 C 556.097656 219.867188 557.355469 219.234375 558.535156 218.460938 C 557.496094 219.417969 556.277344 220.203125 554.945312 220.746094 C 554.277344 221.019531 553.578125 221.226562 552.867188 221.359375 C 552.152344 221.5 551.421875 221.542969 550.707031 221.570312 C 549.265625 221.617188 547.8125 221.4375 546.40625 221.121094 C 545.003906 220.800781 543.644531 220.347656 542.3125 219.839844 C 540.988281 219.332031 539.707031 218.746094 538.40625 218.386719 C 537.757812 218.207031 537.097656 218.101562 536.433594 218.058594 C 536.261719 218.046875 536.09375 218.046875 535.929688 218.046875 C 535.761719 218.046875 535.585938 218.046875 535.433594 218.058594 C 535.277344 218.070312 535.128906 218.089844 535.03125 218.121094 L 534.9375 218.171875 L 534.910156 218.203125 C 534.890625 218.234375 534.898438 218.347656 534.941406 218.476562 C 534.984375 218.601562 535.054688 218.746094 535.132812 218.882812 C 535.296875 219.160156 535.5 219.429688 535.714844 219.695312 C 536.148438 220.222656 536.632812 220.722656 537.128906 221.222656 C 538.117188 222.210938 539.167969 223.148438 540.207031 224.105469 " fill-opacity="1" fill-rule="nonzero"/><path fill="#f18c6d" d="M 564.640625 221.125 C 563.386719 221.832031 561.351562 222.765625 558.730469 222.980469 C 556.101562 223.195312 554.046875 222.589844 552.933594 222.25 C 548.699219 220.957031 546.6875 218.65625 543.121094 218.851562 C 542.652344 218.878906 542.226562 218.945312 542.058594 219.234375 C 541.476562 220.28125 544.753906 223.429688 547.710938 225.351562 C 548.335938 225.757812 548.875 226.0625 549.246094 226.261719 L 564.640625 221.125 " fill-opacity="1" fill-rule="nonzero"/><path fill="#ea5b29" d="M 564.640625 221.125 C 563.464844 221.945312 562.144531 222.574219 560.742188 222.976562 C 559.34375 223.378906 557.859375 223.53125 556.386719 223.457031 C 554.910156 223.382812 553.464844 223.039062 552.082031 222.589844 C 550.679688 222.136719 549.359375 221.476562 548.097656 220.847656 C 546.832031 220.21875 545.597656 219.640625 544.300781 219.472656 L 543.808594 219.429688 C 543.644531 219.417969 543.480469 219.425781 543.316406 219.417969 C 543.152344 219.414062 542.984375 219.421875 542.84375 219.4375 C 542.699219 219.449219 542.582031 219.488281 542.542969 219.507812 L 542.535156 219.5 L 542.535156 219.492188 L 542.53125 219.507812 C 542.523438 219.558594 542.542969 219.671875 542.589844 219.800781 C 542.683594 220.058594 542.851562 220.347656 543.039062 220.617188 C 543.417969 221.167969 543.890625 221.6875 544.367188 222.191406 C 544.847656 222.699219 545.363281 223.179688 545.886719 223.652344 C 546.9375 224.59375 548.054688 225.464844 549.246094 226.261719 C 547.921875 225.707031 546.675781 224.972656 545.503906 224.128906 C 544.332031 223.289062 543.199219 222.382812 542.253906 221.203125 C 542.019531 220.90625 541.789062 220.589844 541.613281 220.191406 C 541.527344 219.988281 541.453125 219.753906 541.460938 219.441406 C 541.460938 219.367188 541.480469 219.277344 541.5 219.195312 C 541.523438 219.113281 541.554688 219.023438 541.605469 218.945312 C 541.695312 218.777344 541.839844 218.652344 541.972656 218.570312 C 542.246094 218.40625 542.480469 218.363281 542.691406 218.328125 C 542.902344 218.292969 543.089844 218.285156 543.277344 218.28125 C 543.46875 218.273438 543.660156 218.261719 543.855469 218.269531 L 544.433594 218.296875 C 545.199219 218.371094 545.945312 218.570312 546.648438 218.828125 C 547.351562 219.089844 548.015625 219.40625 548.65625 219.730469 C 549.933594 220.375 551.167969 221.003906 552.46875 221.476562 C 553.109375 221.707031 553.785156 221.929688 554.445312 222.097656 C 555.117188 222.269531 555.789062 222.402344 556.472656 222.488281 C 557.835938 222.65625 559.230469 222.617188 560.605469 222.382812 C 561.984375 222.144531 563.332031 221.707031 564.640625 221.125 " fill-opacity="1" fill-rule="nonzero"/><path fill="#fb4e77" d="M 677.75 278.488281 C 676.515625 288.097656 667.53125 296.945312 658.101562 299.179688 C 628.71875 306.132812 592.527344 249.433594 598.960938 241.144531 C 600.09375 239.683594 602.167969 240.21875 605.363281 237.484375 C 610.894531 232.742188 609.359375 227.109375 612.316406 224.511719 C 618.648438 218.945312 640.679688 231.5625 657.253906 246.976562 C 669.796875 258.636719 679.183594 267.363281 677.75 278.488281 " fill-opacity="1" fill-rule="nonzero"/><path fill="#ef3369" d="M 593.019531 232.082031 C 593.039062 231.214844 593.664062 230.480469 594.519531 230.332031 C 596.636719 229.957031 600.636719 228.726562 602.867188 224.742188 C 603.710938 223.238281 604.074219 221.742188 604.21875 220.492188 C 604.359375 219.234375 605.710938 218.519531 606.839844 219.089844 C 609.136719 220.261719 611.917969 222.011719 614.6875 224.613281 C 617.46875 227.230469 619.125 228.789062 619.570312 231.195312 C 620.691406 237.277344 613.882812 247.648438 605.242188 247.242188 C 598.625 246.933594 592.84375 240.390625 593.019531 232.082031 " fill-opacity="1" fill-rule="nonzero"/><path fill="#ef3369" d="M 677.261719 239.457031 C 675.917969 244.058594 674.113281 250.667969 672.335938 258.707031 C 667.324219 281.4375 668.59375 288.34375 663.8125 292.589844 C 659.117188 296.757812 648.980469 298.007812 625.59375 286.789062 C 627.164062 288.179688 628.773438 289.496094 630.402344 290.722656 C 633.65625 292.84375 636.816406 294.78125 639.859375 296.519531 C 645.949219 299.386719 652.164062 300.582031 658.101562 299.179688 C 665.496094 297.425781 672.609375 291.613281 675.9375 284.554688 C 676.710938 285.375 677.375 286.3125 677.957031 287.359375 C 678.191406 280.597656 677.113281 275.59375 676.644531 273.0625 C 675.28125 265.773438 674.441406 254.804688 677.261719 239.457031 " fill-opacity="1" fill-rule="nonzero"/><path fill="#ef3369" d="M 668.898438 252.734375 L 659.015625 248.101562 C 656.90625 246.289062 654.71875 244.46875 652.445312 242.636719 C 649.066406 239.921875 645.738281 237.378906 642.488281 235.003906 L 642.324219 235.46875 C 645.390625 238.046875 656.074219 246.929688 658.347656 248.800781 L 662.382812 258.539062 C 662.417969 258.558594 662.636719 258.671875 662.890625 258.585938 C 663.183594 258.480469 663.273438 258.199219 663.28125 258.167969 L 659.679688 249.484375 L 668.484375 253.609375 C 668.511719 253.605469 668.78125 253.550781 668.914062 253.289062 C 669.050781 253.011719 668.910156 252.757812 668.898438 252.734375 " fill-opacity="1" fill-rule="nonzero"/><g clip-path="url(#f3a9930c0c)"><path fill="#f18c6d" d="M 856.214844 215.605469 C 858.859375 213.304688 862.609375 214.652344 868.105469 214.964844 C 870.691406 215.117188 874.53125 215.082031 879.316406 214.078125 C 884.894531 213.355469 887.074219 212.5 888.214844 211.988281 C 890.957031 210.773438 890.589844 210.308594 894.835938 208.203125 C 897.796875 206.730469 899.382812 206.257812 901.453125 204.410156 C 902.828125 203.179688 902.378906 203.164062 903.960938 201.632812 C 907.246094 198.445312 909.398438 198.519531 910.707031 195.816406 C 910.988281 195.230469 912.042969 193.054688 911.429688 192.535156 L 911.398438 192.507812 C 910.96875 192.339844 909.3125 192.3125 906.347656 193.675781 C 905.550781 194.042969 904.34375 195.296875 903.367188 195.832031 C 902.496094 196.300781 901.277344 196.863281 900.789062 197.082031 C 899.863281 197.5 899.335938 197.710938 899.335938 197.710938 C 899.335938 197.710938 901.214844 197.03125 903.367188 195.832031 C 905.441406 194.671875 906.097656 193.964844 906.347656 193.675781 C 907.058594 192.859375 908.171875 191.234375 907.683594 190.570312 L 907.519531 190.421875 C 907.101562 190.210938 905.371094 189.875 903.578125 190.578125 C 901.734375 191.296875 900.871094 192.261719 899.78125 193.089844 C 898.082031 194.371094 896.46875 194.792969 893.253906 195.652344 C 887.226562 197.253906 881.3125 196.609375 878.902344 196.261719 C 879.863281 195.460938 881.351562 194.425781 883.367188 193.792969 C 885.453125 193.140625 886.351562 193.34375 888.019531 192.707031 C 890.285156 191.832031 892.179688 189.386719 891.800781 188.449219 C 890.78125 185.9375 874.414062 190.636719 871 191.613281 C 869.679688 191.992188 865.035156 193.351562 859.1875 195.691406 C 855.902344 197.007812 854.261719 197.664062 852.804688 198.5 C 848.550781 200.9375 846.5 203.789062 841.828125 209.980469 C 832.609375 222.195312 831.625 222.972656 832.164062 224.601562 C 833.757812 229.386719 845.230469 231.578125 849.320312 227.703125 C 849.808594 227.238281 851.277344 224.472656 854.195312 218.960938 C 855.617188 216.28125 855.738281 216.027344 856.214844 215.605469 " fill-opacity="1" fill-rule="nonzero"/></g><path fill="#ea5b29" d="M 902.144531 203.664062 C 902.949219 202.503906 903.761719 201.347656 904.503906 200.164062 C 904.878906 199.570312 905.242188 198.972656 905.542969 198.359375 C 905.691406 198.054688 905.832031 197.746094 905.929688 197.441406 C 905.976562 197.285156 906.011719 197.132812 906.023438 197 C 906.039062 196.867188 906.019531 196.753906 905.992188 196.726562 L 905.960938 196.699219 L 905.855469 196.675781 C 905.753906 196.664062 905.609375 196.679688 905.453125 196.703125 C 905.300781 196.726562 905.128906 196.765625 904.964844 196.804688 C 904.804688 196.839844 904.640625 196.878906 904.480469 196.925781 C 903.839844 197.117188 903.21875 197.363281 902.625 197.6875 C 901.441406 198.328125 900.324219 199.183594 899.140625 199.972656 C 897.960938 200.765625 896.734375 201.515625 895.4375 202.136719 C 894.140625 202.757812 892.765625 203.257812 891.34375 203.53125 C 890.648438 203.667969 889.921875 203.789062 889.199219 203.8125 C 888.46875 203.835938 887.742188 203.796875 887.035156 203.679688 C 885.609375 203.449219 884.25 202.949219 883.019531 202.25 C 884.34375 202.738281 885.714844 203.078125 887.09375 203.171875 C 887.777344 203.21875 888.464844 203.210938 889.144531 203.132812 C 889.824219 203.050781 890.492188 202.917969 891.164062 202.738281 C 892.496094 202.386719 893.773438 201.886719 894.996094 201.25 C 896.222656 200.617188 897.410156 199.894531 898.558594 199.109375 L 900.308594 197.925781 C 900.90625 197.535156 901.511719 197.140625 902.171875 196.8125 C 902.832031 196.488281 903.53125 196.230469 904.246094 196.042969 C 904.425781 195.996094 904.609375 195.960938 904.789062 195.929688 C 904.972656 195.894531 905.148438 195.855469 905.339844 195.839844 C 905.539062 195.820312 905.742188 195.800781 905.988281 195.847656 C 906.113281 195.867188 906.25 195.910156 906.386719 195.992188 C 906.523438 196.074219 906.632812 196.203125 906.710938 196.34375 C 906.847656 196.632812 906.828125 196.890625 906.796875 197.101562 C 906.769531 197.320312 906.703125 197.503906 906.636719 197.6875 C 906.5 198.046875 906.328125 198.371094 906.140625 198.683594 C 905.769531 199.308594 905.355469 199.890625 904.921875 200.457031 C 904.058594 201.582031 903.125 202.644531 902.144531 203.664062 " fill-opacity="1" fill-rule="nonzero"/><path fill="#f18c6d" d="M 877.664062 206.207031 C 879.046875 206.617188 881.238281 207.078125 883.839844 206.699219 C 886.449219 206.320312 888.316406 205.273438 889.324219 204.695312 C 893.167969 202.488281 894.617188 199.796875 898.136719 199.191406 C 898.601562 199.113281 899.03125 199.082031 899.253906 199.328125 C 900.058594 200.222656 897.5625 204.015625 895.109375 206.550781 C 894.589844 207.085938 894.136719 207.503906 893.820312 207.777344 L 877.664062 206.207031 " fill-opacity="1" fill-rule="nonzero"/><path fill="#ea5b29" d="M 877.664062 206.207031 C 879.070312 206.484375 880.484375 206.609375 881.878906 206.53125 C 883.269531 206.457031 884.640625 206.179688 885.933594 205.714844 C 886.578125 205.480469 887.207031 205.199219 887.820312 204.882812 C 888.425781 204.570312 889.035156 204.203125 889.609375 203.835938 C 890.773438 203.085938 891.835938 202.195312 892.9375 201.28125 C 893.488281 200.824219 894.066406 200.371094 894.691406 199.957031 C 895.320312 199.546875 896.003906 199.1875 896.734375 198.945312 L 897.292969 198.785156 C 897.476562 198.738281 897.664062 198.707031 897.851562 198.671875 C 898.039062 198.632812 898.226562 198.601562 898.4375 198.585938 C 898.652344 198.574219 898.890625 198.5625 899.191406 198.660156 C 899.339844 198.710938 899.507812 198.804688 899.632812 198.945312 C 899.695312 199.011719 899.75 199.089844 899.792969 199.164062 L 899.886719 199.394531 C 899.960938 199.699219 899.941406 199.945312 899.902344 200.160156 C 899.824219 200.589844 899.667969 200.949219 899.503906 201.289062 C 898.847656 202.652344 897.945312 203.785156 896.988281 204.867188 C 896.035156 205.949219 894.984375 206.949219 893.820312 207.777344 C 894.800781 206.738281 895.695312 205.640625 896.507812 204.488281 C 896.914062 203.914062 897.3125 203.328125 897.664062 202.726562 C 898.019531 202.125 898.363281 201.519531 898.609375 200.894531 C 898.730469 200.589844 898.832031 200.269531 898.863281 199.996094 C 898.882812 199.863281 898.875 199.746094 898.859375 199.703125 L 898.851562 199.683594 L 898.851562 199.695312 L 898.84375 199.703125 C 898.804688 199.6875 898.679688 199.683594 898.539062 199.703125 C 898.394531 199.71875 898.230469 199.746094 898.070312 199.789062 C 897.910156 199.832031 897.75 199.859375 897.59375 199.910156 L 897.125 200.0625 C 895.898438 200.515625 894.820312 201.351562 893.730469 202.25 C 892.636719 203.144531 891.5 204.082031 890.238281 204.835938 C 888.984375 205.578125 887.652344 206.234375 886.230469 206.640625 C 884.8125 207.042969 883.332031 207.222656 881.878906 207.144531 C 880.421875 207.0625 878.992188 206.75 877.664062 206.207031 " fill-opacity="1" fill-rule="nonzero"/><path fill="#ef3369" d="M 851.988281 221.699219 C 851.621094 221.769531 845.386719 222.882812 841.210938 218.265625 C 840.082031 217.015625 839.398438 215.675781 838.972656 214.507812 C 838.53125 213.277344 837.003906 212.859375 836.003906 213.703125 C 834.042969 215.351562 831.75 217.660156 829.660156 220.777344 C 827.53125 223.945312 826.261719 225.835938 826.367188 228.28125 C 826.628906 234.460938 835.582031 243.050781 843.914062 240.726562 C 850.695312 238.835938 854.984375 230.289062 851.988281 221.699219 " fill-opacity="1" fill-rule="nonzero"/></svg>