<svg xmlns="http://www.w3.org/2000/svg" xmlns:xlink="http://www.w3.org/1999/xlink" width="1122" zoomAndPan="magnify" viewBox="0 0 841.92 595.499987" height="793" preserveAspectRatio="xMidYMid meet" version="1.0"><defs><g/><clipPath id="c570649d43"><path d="M 177.359375 59.460938 L 664.492188 59.460938 L 664.492188 534.554688 L 177.359375 534.554688 Z M 177.359375 59.460938 " clip-rule="nonzero"/></clipPath><clipPath id="c0612dbfa0"><path d="M 479 59.460938 L 664.492188 59.460938 L 664.492188 172 L 479 172 Z M 479 59.460938 " clip-rule="nonzero"/></clipPath><clipPath id="475c842334"><path d="M 177.359375 207 L 363 207 L 363 534.554688 L 177.359375 534.554688 Z M 177.359375 207 " clip-rule="nonzero"/></clipPath><clipPath id="34b250505b"><path d="M 535 348 L 664.492188 348 L 664.492188 534.554688 L 535 534.554688 Z M 535 348 " clip-rule="nonzero"/></clipPath><clipPath id="902ea5a223"><path d="M 177.359375 59.460938 L 307 59.460938 L 307 299 L 177.359375 299 Z M 177.359375 59.460938 " clip-rule="nonzero"/></clipPath><clipPath id="3d8c9e14d7"><path d="M 330 460 L 442 460 L 442 534.554688 L 330 534.554688 Z M 330 460 " clip-rule="nonzero"/></clipPath><clipPath id="0bf2bdccc3"><path d="M 349 496 L 429 496 L 429 534.554688 L 349 534.554688 Z M 349 496 " clip-rule="nonzero"/></clipPath><clipPath id="bb5da6eb45"><path d="M 372 520 L 402 520 L 402 534.554688 L 372 534.554688 Z M 372 520 " clip-rule="nonzero"/></clipPath><clipPath id="afb0dd7c86"><path d="M 432.476562 157 L 451.550781 157 L 451.550781 172.902344 L 432.476562 172.902344 Z M 432.476562 157 " clip-rule="nonzero"/></clipPath><clipPath id="3dc9255568"><path d="M 437.15625 172.292969 C 435.46875 172.292969 434.121094 171.769531 433.421875 170.6875 C 431.773438 168.140625 434.324219 163.472656 439.125 160.261719 C 441.886719 158.417969 444.789062 157.453125 447.070312 157.453125 C 448.753906 157.453125 450.101562 157.976562 450.804688 159.0625 C 452.449219 161.609375 449.898438 166.277344 445.097656 169.488281 C 442.339844 171.332031 439.4375 172.292969 437.15625 172.292969 " clip-rule="nonzero"/></clipPath><clipPath id="07e85890dd"><path d="M 437.15625 172.292969 C 435.46875 172.292969 434.121094 171.769531 433.421875 170.6875 C 431.773438 168.140625 434.324219 163.472656 439.125 160.261719 C 441.886719 158.417969 444.789062 157.453125 447.070312 157.453125 C 448.753906 157.453125 450.101562 157.976562 450.804688 159.0625 C 452.449219 161.609375 449.898438 166.277344 445.097656 169.488281 C 442.339844 171.332031 439.4375 172.292969 437.15625 172.292969 " clip-rule="nonzero"/></clipPath><clipPath id="0e544d2de8"><path d="M 425.066406 161.941406 L 438.019531 181.949219 L 459.160156 167.808594 L 446.203125 147.800781 Z M 425.066406 161.941406 " clip-rule="nonzero"/></clipPath><radialGradient gradientTransform="matrix(1.08965, -0.728783, 0.374566, 0.57841, 442.112529, 164.874573)" gradientUnits="userSpaceOnUse" r="7.975068" cx="0" id="b7d7675575" cy="0" fx="0" fy="0"><stop stop-opacity="1" stop-color="rgb(96.899414%, 40.194702%, 45.098877%)" offset="0"/><stop stop-opacity="1" stop-color="rgb(96.899414%, 40.400696%, 45.098877%)" offset="0.015625"/><stop stop-opacity="1" stop-color="rgb(96.899414%, 40.605164%, 45.098877%)" offset="0.0273438"/><stop stop-opacity="1" stop-color="rgb(96.899414%, 40.79895%, 45.098877%)" offset="0.0390625"/><stop stop-opacity="1" stop-color="rgb(96.899414%, 40.989685%, 45.098877%)" offset="0.0507812"/><stop stop-opacity="1" stop-color="rgb(96.894836%, 41.189575%, 45.094299%)" offset="0.0625"/><stop stop-opacity="1" stop-color="rgb(96.696472%, 41.19873%, 44.895935%)" offset="0.0742188"/><stop stop-opacity="1" stop-color="rgb(96.499634%, 41.392517%, 44.699097%)" offset="0.0859375"/><stop stop-opacity="1" stop-color="rgb(96.499634%, 41.600037%, 44.699097%)" offset="0.0976562"/><stop stop-opacity="1" stop-color="rgb(96.499634%, 41.80603%, 44.699097%)" offset="0.109375"/><stop stop-opacity="1" stop-color="rgb(96.499634%, 42.134094%, 44.699097%)" offset="0.121094"/><stop stop-opacity="1" stop-color="rgb(96.499634%, 42.433167%, 44.699097%)" offset="0.148438"/><stop stop-opacity="1" stop-color="rgb(96.499634%, 42.781067%, 44.699097%)" offset="0.171875"/><stop stop-opacity="1" stop-color="rgb(96.499634%, 43.066406%, 44.699097%)" offset="0.195312"/><stop stop-opacity="1" stop-color="rgb(96.499634%, 43.264771%, 44.699097%)" offset="0.207031"/><stop stop-opacity="1" stop-color="rgb(96.469116%, 43.460083%, 44.668579%)" offset="0.21875"/><stop stop-opacity="1" stop-color="rgb(96.336365%, 43.661499%, 44.537354%)" offset="0.230469"/><stop stop-opacity="1" stop-color="rgb(96.166992%, 43.864441%, 44.366455%)" offset="0.242188"/><stop stop-opacity="1" stop-color="rgb(96.099854%, 44.137573%, 44.299316%)" offset="0.253906"/><stop stop-opacity="1" stop-color="rgb(96.099854%, 44.503784%, 44.299316%)" offset="0.273438"/><stop stop-opacity="1" stop-color="rgb(96.099854%, 44.699097%, 44.299316%)" offset="0.292969"/><stop stop-opacity="1" stop-color="rgb(96.099854%, 44.775391%, 44.299316%)" offset="0.3125"/><stop stop-opacity="1" stop-color="rgb(96.099854%, 44.935608%, 44.299316%)" offset="0.320312"/><stop stop-opacity="1" stop-color="rgb(96.099854%, 45.097351%, 44.299316%)" offset="0.328125"/><stop stop-opacity="1" stop-color="rgb(96.099854%, 45.33844%, 44.299316%)" offset="0.335938"/><stop stop-opacity="1" stop-color="rgb(96.099854%, 45.53833%, 44.299316%)" offset="0.355469"/><stop stop-opacity="1" stop-color="rgb(96.099854%, 45.657349%, 44.299316%)" offset="0.375"/><stop stop-opacity="1" stop-color="rgb(96.099854%, 45.916748%, 44.299316%)" offset="0.382812"/><stop stop-opacity="1" stop-color="rgb(95.999146%, 46.199036%, 44.198608%)" offset="0.398438"/><stop stop-opacity="1" stop-color="rgb(95.797729%, 46.395874%, 43.998718%)" offset="0.414062"/><stop stop-opacity="1" stop-color="rgb(95.698547%, 46.589661%, 43.899536%)" offset="0.429688"/><stop stop-opacity="1" stop-color="rgb(95.698547%, 46.791077%, 43.899536%)" offset="0.4375"/><stop stop-opacity="1" stop-color="rgb(95.698547%, 46.99707%, 43.899536%)" offset="0.445312"/><stop stop-opacity="1" stop-color="rgb(95.698547%, 47.200012%, 43.899536%)" offset="0.460938"/><stop stop-opacity="1" stop-color="rgb(95.698547%, 47.473145%, 43.899536%)" offset="0.476562"/><stop stop-opacity="1" stop-color="rgb(95.698547%, 47.721863%, 43.899536%)" offset="0.507812"/><stop stop-opacity="1" stop-color="rgb(95.698547%, 47.869873%, 43.899536%)" offset="0.519531"/><stop stop-opacity="1" stop-color="rgb(95.698547%, 48.069763%, 43.899536%)" offset="0.53125"/><stop stop-opacity="1" stop-color="rgb(95.698547%, 48.260498%, 43.899536%)" offset="0.542969"/><stop stop-opacity="1" stop-color="rgb(95.635986%, 48.460388%, 43.836975%)" offset="0.554688"/><stop stop-opacity="1" stop-color="rgb(95.436096%, 48.730469%, 43.637085%)" offset="0.566406"/><stop stop-opacity="1" stop-color="rgb(95.298767%, 48.962402%, 43.499756%)" offset="0.589844"/><stop stop-opacity="1" stop-color="rgb(95.298767%, 49.162292%, 43.499756%)" offset="0.601562"/><stop stop-opacity="1" stop-color="rgb(95.298767%, 49.365234%, 43.499756%)" offset="0.613281"/><stop stop-opacity="1" stop-color="rgb(95.298767%, 49.563599%, 43.499756%)" offset="0.625"/><stop stop-opacity="1" stop-color="rgb(95.298767%, 49.848938%, 43.499756%)" offset="0.636719"/><stop stop-opacity="1" stop-color="rgb(95.298767%, 50.117493%, 43.499756%)" offset="0.65625"/><stop stop-opacity="1" stop-color="rgb(95.298767%, 50.318909%, 43.499756%)" offset="0.675781"/><stop stop-opacity="1" stop-color="rgb(95.298767%, 50.617981%, 43.499756%)" offset="0.695312"/><stop stop-opacity="1" stop-color="rgb(95.298767%, 50.898743%, 43.499756%)" offset="0.710938"/><stop stop-opacity="1" stop-color="rgb(95.196533%, 51.101685%, 43.397522%)" offset="0.726562"/><stop stop-opacity="1" stop-color="rgb(94.996643%, 51.301575%, 43.197632%)" offset="0.742188"/><stop stop-opacity="1" stop-color="rgb(94.898987%, 51.463318%, 43.099976%)" offset="0.757812"/><stop stop-opacity="1" stop-color="rgb(94.898987%, 51.663208%, 43.099976%)" offset="0.769531"/><stop stop-opacity="1" stop-color="rgb(94.898987%, 51.96228%, 43.099976%)" offset="0.78125"/><stop stop-opacity="1" stop-color="rgb(94.898987%, 52.285767%, 43.099976%)" offset="0.808594"/><stop stop-opacity="1" stop-color="rgb(94.898987%, 52.636719%, 43.099976%)" offset="0.832031"/><stop stop-opacity="1" stop-color="rgb(94.898987%, 52.862549%, 43.099976%)" offset="0.851562"/><stop stop-opacity="1" stop-color="rgb(94.898987%, 53.04718%, 43.099976%)" offset="0.867188"/><stop stop-opacity="1" stop-color="rgb(94.898987%, 53.384399%, 43.099976%)" offset="0.882812"/><stop stop-opacity="1" stop-color="rgb(94.732666%, 53.636169%, 42.932129%)" offset="0.894531"/><stop stop-opacity="1" stop-color="rgb(94.532776%, 53.862%, 42.732239%)" offset="0.917969"/><stop stop-opacity="1" stop-color="rgb(94.499207%, 54.133606%, 42.698669%)" offset="0.9375"/><stop stop-opacity="1" stop-color="rgb(94.499207%, 54.405212%, 42.698669%)" offset="0.945312"/><stop stop-opacity="1" stop-color="rgb(94.499207%, 54.733276%, 42.698669%)" offset="0.957031"/><stop stop-opacity="1" stop-color="rgb(94.499207%, 54.899597%, 42.698669%)" offset="1"/></radialGradient><clipPath id="ef315f7d60"><path d="M 400.683594 157 L 401.59375 157 L 401.59375 164.730469 L 400.683594 164.730469 Z M 400.683594 157 " clip-rule="nonzero"/></clipPath><clipPath id="10b1bda0e3"><path d="M 400.765625 164.03125 C 400.742188 164.011719 400.710938 163.992188 400.683594 163.964844 C 400.863281 161.070312 401.167969 159.167969 401.167969 159.167969 C 401.273438 158.523438 401.378906 157.921875 401.492188 157.351562 C 401.257812 158.832031 400.941406 161.195312 400.765625 164.03125 " clip-rule="nonzero"/></clipPath><clipPath id="f24611426c"><path d="M 400.765625 164.03125 C 400.742188 164.011719 400.710938 163.992188 400.683594 163.964844 C 400.863281 161.070312 401.167969 159.167969 401.167969 159.167969 C 401.273438 158.523438 401.378906 157.921875 401.492188 157.351562 C 401.257812 158.832031 400.941406 161.195312 400.765625 164.03125 " clip-rule="nonzero"/></clipPath><clipPath id="06b2bff565"><path d="M 400.695312 157.257812 L 399.902344 163.9375 L 401.480469 164.125 L 402.273438 157.445312 Z M 400.695312 157.257812 " clip-rule="nonzero"/></clipPath><radialGradient gradientTransform="matrix(0.985587, 0.117172, -0.118878, 1.000434, 404.588307, 156.205362)" gradientUnits="userSpaceOnUse" r="6.607158" cx="0" id="98a47f2076" cy="0" fx="0" fy="0"><stop stop-opacity="1" stop-color="rgb(74.499512%, 21.394348%, 31.399536%)" offset="0"/><stop stop-opacity="1" stop-color="rgb(74.499512%, 21.600342%, 31.399536%)" offset="0.015625"/><stop stop-opacity="1" stop-color="rgb(74.499512%, 21.80481%, 31.399536%)" offset="0.0273438"/><stop stop-opacity="1" stop-color="rgb(74.499512%, 21.998596%, 31.399536%)" offset="0.0390625"/><stop stop-opacity="1" stop-color="rgb(74.499512%, 22.190857%, 31.399536%)" offset="0.0507812"/><stop stop-opacity="1" stop-color="rgb(74.494934%, 22.390747%, 31.394958%)" offset="0.0625"/><stop stop-opacity="1" stop-color="rgb(74.29657%, 22.399902%, 31.196594%)" offset="0.0742188"/><stop stop-opacity="1" stop-color="rgb(74.099731%, 22.544861%, 30.999756%)" offset="0.0859375"/><stop stop-opacity="1" stop-color="rgb(74.099731%, 22.7005%, 30.999756%)" offset="0.0976562"/><stop stop-opacity="1" stop-color="rgb(74.099731%, 22.904968%, 30.999756%)" offset="0.109375"/><stop stop-opacity="1" stop-color="rgb(74.099731%, 23.233032%, 30.999756%)" offset="0.121094"/><stop stop-opacity="1" stop-color="rgb(74.099731%, 23.468018%, 30.999756%)" offset="0.148438"/><stop stop-opacity="1" stop-color="rgb(74.099731%, 23.666382%, 30.999756%)" offset="0.160156"/><stop stop-opacity="1" stop-color="rgb(74.099731%, 23.86322%, 30.999756%)" offset="0.171875"/><stop stop-opacity="1" stop-color="rgb(74.099731%, 24.06311%, 30.999756%)" offset="0.183594"/><stop stop-opacity="1" stop-color="rgb(74.099731%, 24.266052%, 30.999756%)" offset="0.195312"/><stop stop-opacity="1" stop-color="rgb(74.099731%, 24.464417%, 30.999756%)" offset="0.207031"/><stop stop-opacity="1" stop-color="rgb(74.069214%, 24.659729%, 30.969238%)" offset="0.21875"/><stop stop-opacity="1" stop-color="rgb(73.936462%, 24.861145%, 30.836487%)" offset="0.230469"/><stop stop-opacity="1" stop-color="rgb(73.76709%, 25.065613%, 30.667114%)" offset="0.242188"/><stop stop-opacity="1" stop-color="rgb(73.699951%, 25.337219%, 30.599976%)" offset="0.253906"/><stop stop-opacity="1" stop-color="rgb(73.699951%, 25.70343%, 30.599976%)" offset="0.273438"/><stop stop-opacity="1" stop-color="rgb(73.699951%, 25.898743%, 30.599976%)" offset="0.292969"/><stop stop-opacity="1" stop-color="rgb(73.699951%, 25.975037%, 30.599976%)" offset="0.3125"/><stop stop-opacity="1" stop-color="rgb(73.699951%, 26.135254%, 30.599976%)" offset="0.320312"/><stop stop-opacity="1" stop-color="rgb(73.699951%, 26.296997%, 30.599976%)" offset="0.328125"/><stop stop-opacity="1" stop-color="rgb(73.699951%, 26.538086%, 30.599976%)" offset="0.335938"/><stop stop-opacity="1" stop-color="rgb(73.699951%, 26.739502%, 30.599976%)" offset="0.355469"/><stop stop-opacity="1" stop-color="rgb(73.699951%, 26.856995%, 30.599976%)" offset="0.375"/><stop stop-opacity="1" stop-color="rgb(73.699951%, 27.116394%, 30.599976%)" offset="0.382812"/><stop stop-opacity="1" stop-color="rgb(73.597717%, 27.398682%, 30.497742%)" offset="0.398438"/><stop stop-opacity="1" stop-color="rgb(73.397827%, 27.571106%, 30.297852%)" offset="0.414062"/><stop stop-opacity="1" stop-color="rgb(73.298645%, 27.818298%, 30.198669%)" offset="0.429688"/><stop stop-opacity="1" stop-color="rgb(73.298645%, 28.096008%, 30.198669%)" offset="0.445312"/><stop stop-opacity="1" stop-color="rgb(73.298645%, 28.300476%, 30.198669%)" offset="0.460938"/><stop stop-opacity="1" stop-color="rgb(73.298645%, 28.500366%, 30.198669%)" offset="0.476562"/><stop stop-opacity="1" stop-color="rgb(73.298645%, 28.697205%, 30.198669%)" offset="0.492188"/><stop stop-opacity="1" stop-color="rgb(73.298645%, 28.897095%, 30.198669%)" offset="0.507812"/><stop stop-opacity="1" stop-color="rgb(73.298645%, 29.069519%, 30.198669%)" offset="0.519531"/><stop stop-opacity="1" stop-color="rgb(73.298645%, 29.269409%, 30.198669%)" offset="0.53125"/><stop stop-opacity="1" stop-color="rgb(73.298645%, 29.460144%, 30.198669%)" offset="0.542969"/><stop stop-opacity="1" stop-color="rgb(73.236084%, 29.660034%, 30.136108%)" offset="0.554688"/><stop stop-opacity="1" stop-color="rgb(73.036194%, 29.930115%, 29.936218%)" offset="0.566406"/><stop stop-opacity="1" stop-color="rgb(72.898865%, 30.162048%, 29.798889%)" offset="0.589844"/><stop stop-opacity="1" stop-color="rgb(72.898865%, 30.363464%, 29.798889%)" offset="0.601562"/><stop stop-opacity="1" stop-color="rgb(72.898865%, 30.56488%, 29.798889%)" offset="0.613281"/><stop stop-opacity="1" stop-color="rgb(72.898865%, 30.763245%, 29.798889%)" offset="0.625"/><stop stop-opacity="1" stop-color="rgb(72.898865%, 31.048584%, 29.798889%)" offset="0.636719"/><stop stop-opacity="1" stop-color="rgb(72.898865%, 31.317139%, 29.798889%)" offset="0.65625"/><stop stop-opacity="1" stop-color="rgb(72.898865%, 31.518555%, 29.798889%)" offset="0.675781"/><stop stop-opacity="1" stop-color="rgb(72.898865%, 31.817627%, 29.798889%)" offset="0.695312"/><stop stop-opacity="1" stop-color="rgb(72.898865%, 32.098389%, 29.798889%)" offset="0.710938"/><stop stop-opacity="1" stop-color="rgb(72.796631%, 32.275391%, 29.696655%)" offset="0.726562"/><stop stop-opacity="1" stop-color="rgb(72.596741%, 32.426453%, 29.496765%)" offset="0.742188"/><stop stop-opacity="1" stop-color="rgb(72.499084%, 32.563782%, 29.399109%)" offset="0.757812"/><stop stop-opacity="1" stop-color="rgb(72.499084%, 32.763672%, 29.399109%)" offset="0.769531"/><stop stop-opacity="1" stop-color="rgb(72.499084%, 33.062744%, 29.399109%)" offset="0.78125"/><stop stop-opacity="1" stop-color="rgb(72.499084%, 33.325195%, 29.399109%)" offset="0.808594"/><stop stop-opacity="1" stop-color="rgb(72.499084%, 33.602905%, 29.399109%)" offset="0.820312"/><stop stop-opacity="1" stop-color="rgb(72.499084%, 33.938599%, 29.399109%)" offset="0.839844"/><stop stop-opacity="1" stop-color="rgb(72.499084%, 34.14917%, 29.399109%)" offset="0.859375"/><stop stop-opacity="1" stop-color="rgb(72.499084%, 34.29718%, 29.399109%)" offset="0.875"/><stop stop-opacity="1" stop-color="rgb(72.499084%, 34.584045%, 29.399109%)" offset="0.882812"/><stop stop-opacity="1" stop-color="rgb(72.373962%, 34.835815%, 29.232788%)" offset="0.894531"/><stop stop-opacity="1" stop-color="rgb(72.224426%, 35.061646%, 29.032898%)" offset="0.917969"/><stop stop-opacity="1" stop-color="rgb(72.198486%, 35.333252%, 28.999329%)" offset="0.9375"/><stop stop-opacity="1" stop-color="rgb(72.198486%, 35.604858%, 28.999329%)" offset="0.945312"/><stop stop-opacity="1" stop-color="rgb(72.198486%, 35.932922%, 28.999329%)" offset="0.957031"/><stop stop-opacity="1" stop-color="rgb(72.198486%, 36.099243%, 28.999329%)" offset="1"/></radialGradient><clipPath id="138cb05b65"><path d="M 400.683594 147 L 407.949219 147 L 407.949219 165 L 400.683594 165 Z M 400.683594 147 " clip-rule="nonzero"/></clipPath><clipPath id="512f3c3c70"><path d="M 403.1875 164.96875 C 402.378906 164.96875 401.558594 164.632812 400.765625 164.03125 C 400.941406 161.195312 401.257812 158.832031 401.492188 157.351562 C 402.199219 153.75 403.085938 151.421875 404.550781 147.253906 C 405.644531 148.863281 406.535156 151.007812 407.03125 153.445312 C 408.1875 159.148438 406.738281 164.273438 403.792969 164.902344 C 403.589844 164.945312 403.390625 164.96875 403.1875 164.96875 " clip-rule="nonzero"/></clipPath><clipPath id="ed8903bc8a"><path d="M 403.1875 164.96875 C 402.378906 164.96875 401.558594 164.632812 400.765625 164.03125 C 400.941406 161.195312 401.257812 158.832031 401.492188 157.351562 C 402.199219 153.75 403.085938 151.421875 404.550781 147.253906 C 405.644531 148.863281 406.535156 151.007812 407.03125 153.445312 C 408.1875 159.148438 406.738281 164.273438 403.792969 164.902344 C 403.589844 164.945312 403.390625 164.96875 403.1875 164.96875 " clip-rule="nonzero"/></clipPath><clipPath id="51549284c4"><path d="M 400.867188 146.386719 L 398.691406 164.71875 L 408.085938 165.835938 L 410.265625 147.5 Z M 400.867188 146.386719 " clip-rule="nonzero"/></clipPath><radialGradient gradientTransform="matrix(0.985587, 0.117172, -0.118878, 1.000434, 404.588307, 156.205362)" gradientUnits="userSpaceOnUse" r="6.607158" cx="0" id="58b91de482" cy="0" fx="0" fy="0"><stop stop-opacity="1" stop-color="rgb(96.899414%, 40.194702%, 45.098877%)" offset="0"/><stop stop-opacity="1" stop-color="rgb(96.899414%, 40.400696%, 45.098877%)" offset="0.015625"/><stop stop-opacity="1" stop-color="rgb(96.899414%, 40.605164%, 45.098877%)" offset="0.0273438"/><stop stop-opacity="1" stop-color="rgb(96.899414%, 40.79895%, 45.098877%)" offset="0.0390625"/><stop stop-opacity="1" stop-color="rgb(96.899414%, 40.989685%, 45.098877%)" offset="0.0507812"/><stop stop-opacity="1" stop-color="rgb(96.894836%, 41.189575%, 45.094299%)" offset="0.0625"/><stop stop-opacity="1" stop-color="rgb(96.696472%, 41.19873%, 44.895935%)" offset="0.0742188"/><stop stop-opacity="1" stop-color="rgb(96.499634%, 41.392517%, 44.699097%)" offset="0.0859375"/><stop stop-opacity="1" stop-color="rgb(96.499634%, 41.600037%, 44.699097%)" offset="0.0976562"/><stop stop-opacity="1" stop-color="rgb(96.499634%, 41.80603%, 44.699097%)" offset="0.109375"/><stop stop-opacity="1" stop-color="rgb(96.499634%, 42.134094%, 44.699097%)" offset="0.121094"/><stop stop-opacity="1" stop-color="rgb(96.499634%, 42.433167%, 44.699097%)" offset="0.148438"/><stop stop-opacity="1" stop-color="rgb(96.499634%, 42.781067%, 44.699097%)" offset="0.171875"/><stop stop-opacity="1" stop-color="rgb(96.499634%, 43.066406%, 44.699097%)" offset="0.195312"/><stop stop-opacity="1" stop-color="rgb(96.499634%, 43.264771%, 44.699097%)" offset="0.207031"/><stop stop-opacity="1" stop-color="rgb(96.469116%, 43.460083%, 44.668579%)" offset="0.21875"/><stop stop-opacity="1" stop-color="rgb(96.336365%, 43.661499%, 44.537354%)" offset="0.230469"/><stop stop-opacity="1" stop-color="rgb(96.166992%, 43.864441%, 44.366455%)" offset="0.242188"/><stop stop-opacity="1" stop-color="rgb(96.099854%, 44.137573%, 44.299316%)" offset="0.253906"/><stop stop-opacity="1" stop-color="rgb(96.099854%, 44.503784%, 44.299316%)" offset="0.273438"/><stop stop-opacity="1" stop-color="rgb(96.099854%, 44.699097%, 44.299316%)" offset="0.292969"/><stop stop-opacity="1" stop-color="rgb(96.099854%, 44.775391%, 44.299316%)" offset="0.3125"/><stop stop-opacity="1" stop-color="rgb(96.099854%, 44.935608%, 44.299316%)" offset="0.320312"/><stop stop-opacity="1" stop-color="rgb(96.099854%, 45.097351%, 44.299316%)" offset="0.328125"/><stop stop-opacity="1" stop-color="rgb(96.099854%, 45.33844%, 44.299316%)" offset="0.335938"/><stop stop-opacity="1" stop-color="rgb(96.099854%, 45.53833%, 44.299316%)" offset="0.355469"/><stop stop-opacity="1" stop-color="rgb(96.099854%, 45.657349%, 44.299316%)" offset="0.375"/><stop stop-opacity="1" stop-color="rgb(96.099854%, 45.916748%, 44.299316%)" offset="0.382812"/><stop stop-opacity="1" stop-color="rgb(95.999146%, 46.199036%, 44.198608%)" offset="0.398438"/><stop stop-opacity="1" stop-color="rgb(95.797729%, 46.395874%, 43.998718%)" offset="0.414062"/><stop stop-opacity="1" stop-color="rgb(95.698547%, 46.589661%, 43.899536%)" offset="0.429688"/><stop stop-opacity="1" stop-color="rgb(95.698547%, 46.791077%, 43.899536%)" offset="0.4375"/><stop stop-opacity="1" stop-color="rgb(95.698547%, 46.99707%, 43.899536%)" offset="0.445312"/><stop stop-opacity="1" stop-color="rgb(95.698547%, 47.200012%, 43.899536%)" offset="0.460938"/><stop stop-opacity="1" stop-color="rgb(95.698547%, 47.473145%, 43.899536%)" offset="0.476562"/><stop stop-opacity="1" stop-color="rgb(95.698547%, 47.721863%, 43.899536%)" offset="0.507812"/><stop stop-opacity="1" stop-color="rgb(95.698547%, 47.869873%, 43.899536%)" offset="0.519531"/><stop stop-opacity="1" stop-color="rgb(95.698547%, 48.069763%, 43.899536%)" offset="0.53125"/><stop stop-opacity="1" stop-color="rgb(95.698547%, 48.260498%, 43.899536%)" offset="0.542969"/><stop stop-opacity="1" stop-color="rgb(95.635986%, 48.460388%, 43.836975%)" offset="0.554688"/><stop stop-opacity="1" stop-color="rgb(95.436096%, 48.730469%, 43.637085%)" offset="0.566406"/><stop stop-opacity="1" stop-color="rgb(95.298767%, 48.962402%, 43.499756%)" offset="0.589844"/><stop stop-opacity="1" stop-color="rgb(95.298767%, 49.162292%, 43.499756%)" offset="0.601562"/><stop stop-opacity="1" stop-color="rgb(95.298767%, 49.365234%, 43.499756%)" offset="0.613281"/><stop stop-opacity="1" stop-color="rgb(95.298767%, 49.563599%, 43.499756%)" offset="0.625"/><stop stop-opacity="1" stop-color="rgb(95.298767%, 49.848938%, 43.499756%)" offset="0.636719"/><stop stop-opacity="1" stop-color="rgb(95.298767%, 50.117493%, 43.499756%)" offset="0.65625"/><stop stop-opacity="1" stop-color="rgb(95.298767%, 50.318909%, 43.499756%)" offset="0.675781"/><stop stop-opacity="1" stop-color="rgb(95.298767%, 50.617981%, 43.499756%)" offset="0.695312"/><stop stop-opacity="1" stop-color="rgb(95.298767%, 50.898743%, 43.499756%)" offset="0.710938"/><stop stop-opacity="1" stop-color="rgb(95.196533%, 51.101685%, 43.397522%)" offset="0.726562"/><stop stop-opacity="1" stop-color="rgb(94.996643%, 51.301575%, 43.197632%)" offset="0.742188"/><stop stop-opacity="1" stop-color="rgb(94.898987%, 51.463318%, 43.099976%)" offset="0.757812"/><stop stop-opacity="1" stop-color="rgb(94.898987%, 51.663208%, 43.099976%)" offset="0.769531"/><stop stop-opacity="1" stop-color="rgb(94.898987%, 51.96228%, 43.099976%)" offset="0.78125"/><stop stop-opacity="1" stop-color="rgb(94.898987%, 52.285767%, 43.099976%)" offset="0.808594"/><stop stop-opacity="1" stop-color="rgb(94.898987%, 52.636719%, 43.099976%)" offset="0.832031"/><stop stop-opacity="1" stop-color="rgb(94.898987%, 52.862549%, 43.099976%)" offset="0.851562"/><stop stop-opacity="1" stop-color="rgb(94.898987%, 53.04718%, 43.099976%)" offset="0.867188"/><stop stop-opacity="1" stop-color="rgb(94.898987%, 53.384399%, 43.099976%)" offset="0.882812"/><stop stop-opacity="1" stop-color="rgb(94.732666%, 53.636169%, 42.932129%)" offset="0.894531"/><stop stop-opacity="1" stop-color="rgb(94.532776%, 53.862%, 42.732239%)" offset="0.917969"/><stop stop-opacity="1" stop-color="rgb(94.499207%, 54.133606%, 42.698669%)" offset="0.9375"/><stop stop-opacity="1" stop-color="rgb(94.499207%, 54.405212%, 42.698669%)" offset="0.945312"/><stop stop-opacity="1" stop-color="rgb(94.499207%, 54.733276%, 42.698669%)" offset="0.957031"/><stop stop-opacity="1" stop-color="rgb(94.499207%, 54.899597%, 42.698669%)" offset="1"/></radialGradient><clipPath id="c71774bb55"><path d="M 357.085938 339.128906 L 454 339.128906 L 454 534.511719 L 357.085938 534.511719 Z M 357.085938 339.128906 " clip-rule="nonzero"/></clipPath><clipPath id="19d673fc5e"><path d="M 386.152344 299.164062 L 518.765625 299.164062 L 518.765625 534.511719 L 386.152344 534.511719 Z M 386.152344 299.164062 " clip-rule="nonzero"/></clipPath><clipPath id="123b2be65b"><path d="M 489 358.207031 L 515.132812 358.207031 L 515.132812 534.511719 L 489 534.511719 Z M 489 358.207031 " clip-rule="nonzero"/></clipPath><clipPath id="2223af60f2"><path d="M 418 478.105469 L 435.199219 478.105469 L 435.199219 534.511719 L 418 534.511719 Z M 418 478.105469 " clip-rule="nonzero"/></clipPath><clipPath id="cf473540b2"><path d="M 425 92.699219 L 468 92.699219 L 468 126 L 425 126 Z M 425 92.699219 " clip-rule="nonzero"/></clipPath><clipPath id="9feab6fc9a"><path d="M 211.089844 224 L 305 224 L 305 259 L 211.089844 259 Z M 211.089844 224 " clip-rule="nonzero"/></clipPath><clipPath id="faa59042b0"><path d="M 543 205 L 630.023438 205 L 630.023438 251.929688 L 543 251.929688 Z M 543 205 " clip-rule="nonzero"/></clipPath></defs><g fill="#000000" fill-opacity="1"><g transform="translate(391.553307, 482.492744)"><g/></g></g><g clip-path="url(#c570649d43)"><path fill="#ffffff" d="M 177.453125 59.804688 L 664.398438 59.804688 L 664.398438 534.554688 L 177.453125 534.554688 Z M 177.453125 59.804688 " fill-opacity="1" fill-rule="nonzero"/></g><g clip-path="url(#c0612dbfa0)"><path fill="#2b1222" d="M 664.398438 59.460938 L 664.398438 147.15625 C 664.171875 147.191406 663.964844 147.226562 663.742188 147.242188 C 645.292969 150.101562 632.394531 169.949219 613.753906 171 C 600.511719 171.738281 588.871094 162.644531 579.507812 153.273438 C 570.128906 143.902344 560.886719 133.289062 548.160156 129.550781 C 537.710938 126.46875 525.296875 128.15625 517.039062 121.042969 C 508.363281 113.566406 508.710938 100.355469 505.296875 89.433594 C 501.226562 76.425781 491.226562 66.210938 479.207031 59.460938 Z M 664.398438 59.460938 " fill-opacity="1" fill-rule="nonzero"/></g><g clip-path="url(#475c842334)"><path fill="#bfa8d1" d="M 359.9375 534.554688 L 177.453125 534.554688 L 177.453125 207.429688 C 194.816406 212.996094 210.648438 223.382812 222.492188 237.265625 C 227.890625 243.589844 232.441406 250.617188 236.0625 258.109375 C 236.253906 258.507812 236.441406 258.902344 236.632812 259.316406 C 243.097656 273.164062 246.410156 288.53125 245.960938 303.8125 C 245.253906 328.445312 235.355469 351.941406 232.820312 376.453125 C 230.285156 400.964844 238.269531 429.886719 261.066406 439.292969 C 276.464844 445.632812 294.15625 441.273438 310.519531 444.375 C 314.226562 445.082031 317.828125 446.183594 321.296875 447.613281 C 321.675781 447.769531 322.054688 447.921875 322.417969 448.097656 C 332.382812 452.488281 341.125 459.707031 347.832031 468.457031 C 348.003906 468.679688 348.175781 468.90625 348.351562 469.144531 C 350.523438 472.039062 352.472656 475.105469 354.179688 478.292969 C 354.644531 479.171875 355.09375 480.066406 355.523438 480.964844 C 355.710938 481.34375 355.886719 481.738281 356.058594 482.117188 C 359.316406 489.230469 361.316406 496.8125 362.179688 504.546875 C 362.214844 504.90625 362.265625 505.25 362.28125 505.613281 C 363.265625 515.261719 362.421875 525.113281 359.9375 534.554688 Z M 359.9375 534.554688 " fill-opacity="1" fill-rule="nonzero"/></g><g clip-path="url(#34b250505b)"><path fill="#971881" d="M 664.398438 348.445312 L 664.398438 534.554688 L 536.023438 534.554688 C 534.402344 521.066406 538.523438 506.785156 548.402344 497.34375 C 549.109375 496.671875 549.835938 496.019531 550.574219 495.398438 C 550.886719 495.121094 551.214844 494.863281 551.542969 494.605469 C 559.300781 488.386719 568.785156 484.460938 577.492188 479.5 C 587.40625 473.847656 597.082031 465.769531 599.496094 454.640625 C 603.011719 438.449219 590.183594 423.394531 587.769531 407.011719 C 583.421875 377.519531 612.03125 355.710938 637.980469 350.785156 C 645.757812 349.304688 655.035156 348.324219 664.398438 348.445312 Z M 664.398438 348.445312 " fill-opacity="1" fill-rule="nonzero"/></g><g clip-path="url(#902ea5a223)"><path fill="#2b1222" d="M 306.433594 59.804688 C 302.570312 75.617188 299.414062 91.636719 296.328125 107.28125 C 291.050781 134.082031 285.601562 161.816406 276.601562 188.105469 C 267.789062 213.839844 255.132812 237.09375 239.996094 255.386719 C 238.890625 256.730469 237.769531 258.023438 236.648438 259.316406 C 219.835938 278.386719 200.527344 291.355469 179.179688 297.902344 C 178.609375 298.074219 178.039062 298.246094 177.453125 298.417969 L 177.453125 297.160156 C 177.921875 297.023438 178.367188 296.886719 178.816406 296.75 C 200.042969 290.238281 219.511719 276.9375 236.0625 258.109375 C 252.375 239.574219 265.875 215.699219 275.445312 187.726562 C 284.414062 161.523438 289.863281 133.824219 295.136719 107.054688 C 298.207031 91.484375 301.34375 75.550781 305.171875 59.820312 L 306.433594 59.820312 Z M 306.433594 59.804688 " fill-opacity="1" fill-rule="nonzero"/></g><g clip-path="url(#3d8c9e14d7)"><path fill="#971881" d="M 441.21875 534.554688 L 440.21875 534.554688 C 429.960938 512.640625 415.425781 492.761719 397.734375 476.964844 C 391.371094 471.28125 382.765625 464.460938 372.730469 462.253906 C 364.765625 460.5 354.503906 462.066406 348.382812 469.144531 C 347.867188 469.75 347.382812 470.386719 346.9375 471.058594 C 345.539062 473.144531 344.589844 475.417969 343.9375 477.8125 C 342.609375 482.652344 342.46875 487.972656 342.347656 493.195312 C 342.296875 495.15625 342.246094 497.171875 342.140625 499.121094 C 341.433594 511.4375 337.589844 523.648438 330.984375 534.554688 L 330.039062 534.554688 C 336.539062 523.925781 340.554688 511.695312 341.28125 499.066406 C 341.402344 497.121094 341.433594 495.105469 341.488281 493.160156 C 341.609375 487.855469 341.746094 482.425781 343.140625 477.464844 C 343.816406 475.039062 344.796875 472.710938 346.230469 470.574219 C 346.730469 469.835938 347.261719 469.128906 347.867188 468.457031 C 350.453125 465.527344 353.9375 463.324219 358.058594 462.03125 C 362.730469 460.566406 367.988281 460.34375 372.902344 461.429688 C 383.128906 463.667969 391.835938 470.574219 398.285156 476.328125 C 405.804688 483.046875 412.820312 490.539062 419.167969 498.601562 C 425.441406 506.59375 431.117188 515.207031 436.011719 524.234375 C 437.859375 527.609375 439.582031 531.054688 441.21875 534.554688 Z M 441.21875 534.554688 " fill-opacity="1" fill-rule="nonzero"/></g><g clip-path="url(#0bf2bdccc3)"><path fill="#971881" d="M 428.375 534.554688 L 427.460938 534.554688 C 426.71875 532.589844 425.925781 530.644531 425.046875 528.730469 C 418.839844 515.175781 409.320312 505.097656 398.285156 500.34375 C 388.078125 495.949219 376.230469 496.671875 367.542969 501.667969 C 365.628906 502.769531 363.867188 504.082031 362.316406 505.597656 C 362.039062 505.871094 361.765625 506.148438 361.507812 506.421875 C 355.4375 512.898438 352.917969 522.082031 351.265625 530.210938 C 350.988281 531.554688 350.710938 532.933594 350.453125 534.261719 C 350.4375 534.363281 350.417969 534.449219 350.402344 534.554688 L 349.539062 534.554688 C 349.574219 534.398438 349.589844 534.261719 349.625 534.105469 C 349.882812 532.761719 350.160156 531.382812 350.4375 530.039062 C 352.125 521.789062 354.695312 512.46875 360.902344 505.835938 C 361.332031 505.390625 361.765625 504.941406 362.214844 504.527344 C 363.714844 503.132812 365.367188 501.910156 367.160156 500.859375 C 370.523438 498.914062 374.371094 497.585938 378.578125 496.964844 C 385.285156 495.96875 392.40625 496.898438 398.613281 499.566406 C 409.839844 504.390625 419.511719 514.621094 425.804688 528.367188 C 426.753906 530.417969 427.597656 532.46875 428.375 534.554688 Z M 428.375 534.554688 " fill-opacity="1" fill-rule="nonzero"/></g><g clip-path="url(#bb5da6eb45)"><path fill="#971881" d="M 401.871094 534.554688 L 400.992188 534.554688 C 400.148438 531.726562 398.992188 528.988281 397.214844 526.613281 C 394.128906 522.496094 388.078125 519.359375 382.9375 521.683594 C 379.179688 523.390625 377.078125 527.335938 375.25 531.230469 C 374.730469 532.332031 374.214844 533.433594 373.714844 534.554688 L 372.78125 534.554688 C 373.335938 533.3125 373.902344 532.089844 374.488281 530.867188 C 376.386719 526.835938 378.59375 522.734375 382.613281 520.910156 C 388.164062 518.414062 394.628906 521.71875 397.921875 526.09375 C 399.804688 528.644531 401.011719 531.574219 401.871094 534.554688 Z M 401.871094 534.554688 " fill-opacity="1" fill-rule="nonzero"/></g><path fill="#971881" d="M 281.257812 404.496094 C 281.257812 405.230469 281.183594 405.960938 281.042969 406.679688 C 280.898438 407.402344 280.6875 408.101562 280.402344 408.78125 C 280.121094 409.460938 279.777344 410.105469 279.367188 410.71875 C 278.960938 411.328125 278.496094 411.894531 277.972656 412.414062 C 277.453125 412.933594 276.886719 413.398438 276.277344 413.808594 C 275.664062 414.214844 275.019531 414.558594 274.339844 414.839844 C 273.660156 415.121094 272.957031 415.335938 272.234375 415.480469 C 271.515625 415.621094 270.785156 415.695312 270.050781 415.695312 C 269.3125 415.695312 268.585938 415.621094 267.863281 415.480469 C 267.140625 415.335938 266.441406 415.121094 265.761719 414.839844 C 265.082031 414.558594 264.433594 414.214844 263.824219 413.808594 C 263.210938 413.398438 262.644531 412.933594 262.125 412.414062 C 261.605469 411.894531 261.140625 411.328125 260.730469 410.71875 C 260.320312 410.105469 259.976562 409.460938 259.695312 408.78125 C 259.414062 408.101562 259.199219 407.402344 259.058594 406.679688 C 258.914062 405.960938 258.839844 405.230469 258.839844 404.496094 C 258.839844 403.761719 258.914062 403.035156 259.058594 402.3125 C 259.199219 401.589844 259.414062 400.890625 259.695312 400.210938 C 259.976562 399.53125 260.320312 398.886719 260.730469 398.277344 C 261.140625 397.664062 261.605469 397.097656 262.125 396.578125 C 262.644531 396.058594 263.210938 395.59375 263.824219 395.1875 C 264.433594 394.777344 265.082031 394.433594 265.761719 394.152344 C 266.441406 393.871094 267.140625 393.660156 267.863281 393.515625 C 268.585938 393.371094 269.3125 393.300781 270.050781 393.300781 C 270.785156 393.300781 271.515625 393.371094 272.234375 393.515625 C 272.957031 393.660156 273.660156 393.871094 274.339844 394.152344 C 275.019531 394.433594 275.664062 394.777344 276.277344 395.1875 C 276.886719 395.59375 277.453125 396.058594 277.972656 396.578125 C 278.496094 397.097656 278.960938 397.664062 279.367188 398.277344 C 279.777344 398.886719 280.121094 399.53125 280.402344 400.210938 C 280.6875 400.890625 280.898438 401.589844 281.042969 402.3125 C 281.183594 403.035156 281.257812 403.761719 281.257812 404.496094 Z M 281.257812 404.496094 " fill-opacity="1" fill-rule="nonzero"/><path fill="#2b1222" d="M 647.84375 319.226562 C 647.84375 320.257812 647.742188 321.277344 647.542969 322.285156 C 647.339844 323.296875 647.042969 324.277344 646.648438 325.226562 C 646.253906 326.179688 645.769531 327.082031 645.199219 327.9375 C 644.625 328.792969 643.976562 329.585938 643.246094 330.3125 C 642.519531 331.039062 641.726562 331.691406 640.871094 332.261719 C 640.011719 332.832031 639.109375 333.316406 638.15625 333.710938 C 637.207031 334.105469 636.222656 334.402344 635.214844 334.601562 C 634.203125 334.804688 633.183594 334.902344 632.152344 334.902344 C 631.121094 334.902344 630.101562 334.804688 629.089844 334.601562 C 628.082031 334.402344 627.097656 334.105469 626.148438 333.710938 C 625.195312 333.316406 624.292969 332.832031 623.433594 332.261719 C 622.578125 331.691406 621.785156 331.039062 621.058594 330.3125 C 620.328125 329.585938 619.679688 328.792969 619.105469 327.9375 C 618.535156 327.082031 618.050781 326.179688 617.65625 325.226562 C 617.261719 324.277344 616.964844 323.296875 616.761719 322.285156 C 616.5625 321.277344 616.460938 320.257812 616.460938 319.226562 C 616.460938 318.199219 616.5625 317.179688 616.761719 316.171875 C 616.964844 315.160156 617.261719 314.179688 617.65625 313.230469 C 618.050781 312.277344 618.535156 311.375 619.105469 310.519531 C 619.679688 309.664062 620.328125 308.871094 621.058594 308.144531 C 621.785156 307.414062 622.578125 306.765625 623.433594 306.195312 C 624.292969 305.621094 625.195312 305.140625 626.148438 304.746094 C 627.097656 304.351562 628.082031 304.054688 629.089844 303.855469 C 630.101562 303.652344 631.121094 303.550781 632.152344 303.550781 C 633.183594 303.550781 634.203125 303.652344 635.214844 303.855469 C 636.222656 304.054688 637.207031 304.351562 638.15625 304.746094 C 639.109375 305.140625 640.011719 305.621094 640.871094 306.195312 C 641.726562 306.765625 642.519531 307.414062 643.246094 308.144531 C 643.976562 308.871094 644.625 309.664062 645.199219 310.519531 C 645.769531 311.375 646.253906 312.277344 646.648438 313.230469 C 647.042969 314.179688 647.339844 315.160156 647.542969 316.171875 C 647.742188 317.179688 647.84375 318.199219 647.84375 319.226562 Z M 647.84375 319.226562 " fill-opacity="1" fill-rule="nonzero"/><path fill="#bfa8d1" d="M 258.496094 101.492188 C 258.496094 102.347656 258.453125 103.203125 258.371094 104.058594 C 258.285156 104.910156 258.160156 105.757812 257.992188 106.597656 C 257.824219 107.441406 257.617188 108.269531 257.367188 109.09375 C 257.117188 109.914062 256.828125 110.71875 256.5 111.511719 C 256.171875 112.304688 255.804688 113.078125 255.402344 113.835938 C 254.996094 114.589844 254.554688 115.324219 254.078125 116.039062 C 253.601562 116.75 253.09375 117.4375 252.546875 118.101562 C 252.003906 118.765625 251.425781 119.398438 250.820312 120.007812 C 250.214844 120.613281 249.578125 121.1875 248.914062 121.730469 C 248.25 122.277344 247.5625 122.785156 246.847656 123.261719 C 246.132812 123.738281 245.398438 124.179688 244.640625 124.582031 C 243.886719 124.988281 243.109375 125.355469 242.316406 125.683594 C 241.523438 126.011719 240.714844 126.296875 239.894531 126.546875 C 239.074219 126.796875 238.242188 127.003906 237.398438 127.171875 C 236.558594 127.339844 235.710938 127.464844 234.855469 127.550781 C 234 127.632812 233.144531 127.675781 232.289062 127.675781 C 231.429688 127.675781 230.574219 127.632812 229.71875 127.550781 C 228.863281 127.464844 228.015625 127.339844 227.175781 127.171875 C 226.332031 127.003906 225.5 126.796875 224.679688 126.546875 C 223.859375 126.296875 223.050781 126.011719 222.257812 125.683594 C 221.464844 125.355469 220.6875 124.988281 219.933594 124.582031 C 219.175781 124.179688 218.441406 123.738281 217.726562 123.261719 C 217.011719 122.785156 216.324219 122.277344 215.660156 121.730469 C 214.996094 121.1875 214.363281 120.613281 213.753906 120.007812 C 213.148438 119.398438 212.570312 118.765625 212.027344 118.101562 C 211.484375 117.4375 210.972656 116.75 210.496094 116.039062 C 210.019531 115.324219 209.578125 114.589844 209.171875 113.835938 C 208.769531 113.078125 208.402344 112.304688 208.074219 111.511719 C 207.746094 110.71875 207.457031 109.914062 207.207031 109.09375 C 206.957031 108.269531 206.75 107.441406 206.582031 106.597656 C 206.414062 105.757812 206.289062 104.910156 206.203125 104.058594 C 206.121094 103.203125 206.078125 102.347656 206.078125 101.492188 C 206.078125 100.632812 206.121094 99.777344 206.203125 98.925781 C 206.289062 98.070312 206.414062 97.222656 206.582031 96.382812 C 206.75 95.542969 206.957031 94.710938 207.207031 93.890625 C 207.457031 93.070312 207.746094 92.265625 208.074219 91.472656 C 208.402344 90.679688 208.769531 89.90625 209.171875 89.148438 C 209.578125 88.390625 210.019531 87.65625 210.496094 86.945312 C 210.972656 86.230469 211.484375 85.542969 212.027344 84.878906 C 212.570312 84.21875 213.148438 83.582031 213.753906 82.976562 C 214.363281 82.371094 214.996094 81.796875 215.660156 81.25 C 216.324219 80.707031 217.011719 80.195312 217.726562 79.71875 C 218.441406 79.246094 219.175781 78.804688 219.933594 78.398438 C 220.6875 77.996094 221.464844 77.628906 222.257812 77.300781 C 223.050781 76.972656 223.859375 76.683594 224.679688 76.433594 C 225.5 76.1875 226.332031 75.976562 227.175781 75.8125 C 228.015625 75.644531 228.863281 75.519531 229.71875 75.433594 C 230.574219 75.351562 231.429688 75.308594 232.289062 75.308594 C 233.144531 75.308594 234 75.351562 234.855469 75.433594 C 235.710938 75.519531 236.558594 75.644531 237.398438 75.8125 C 238.242188 75.976562 239.074219 76.1875 239.894531 76.433594 C 240.714844 76.683594 241.523438 76.972656 242.316406 77.300781 C 243.109375 77.628906 243.886719 77.996094 244.640625 78.398438 C 245.398438 78.804688 246.132812 79.246094 246.847656 79.71875 C 247.5625 80.195312 248.25 80.707031 248.914062 81.25 C 249.578125 81.796875 250.214844 82.371094 250.820312 82.976562 C 251.425781 83.582031 252.003906 84.21875 252.546875 84.878906 C 253.09375 85.542969 253.601562 86.230469 254.078125 86.945312 C 254.554688 87.65625 254.996094 88.390625 255.402344 89.148438 C 255.804688 89.90625 256.171875 90.679688 256.5 91.472656 C 256.828125 92.265625 257.117188 93.070312 257.367188 93.890625 C 257.617188 94.710938 257.824219 95.542969 257.992188 96.382812 C 258.160156 97.222656 258.285156 98.070312 258.371094 98.925781 C 258.453125 99.777344 258.496094 100.632812 258.496094 101.492188 Z M 258.496094 101.492188 " fill-opacity="1" fill-rule="nonzero"/><path fill="#5e1113" d="M 456.421875 217.808594 C 463.644531 212.027344 479.722656 199.164062 483.292969 175.769531 C 483.402344 175.035156 483.460938 174.546875 483.539062 173.925781 C 484.785156 164.308594 487.214844 145.519531 476.839844 127.457031 C 465.609375 107.910156 445.984375 100.828125 437.441406 101.707031 C 431.128906 102.351562 427.90625 104.261719 427.90625 104.261719 C 424.078125 106.53125 423.1875 109.019531 419.472656 109.890625 C 417.910156 110.257812 416.9375 110.089844 415.949219 109.925781 C 415.054688 109.777344 414.140625 109.628906 412.773438 109.871094 C 408.527344 110.617188 405.804688 113.960938 404.335938 115.777344 C 395.265625 126.988281 393.144531 150.90625 393.144531 150.90625 C 391.039062 174.644531 388.140625 209.671875 397.3125 220.097656 C 399.203125 222.246094 401.300781 223.390625 401.300781 223.390625 C 404.613281 223.519531 410.65625 223.6875 419.273438 223.675781 C 422.207031 223.675781 424.46875 224.082031 426.734375 224.496094 C 429.277344 224.957031 431.835938 225.417969 435.371094 225.292969 C 442.441406 225.046875 446.722656 223.601562 449.828125 222.085938 C 452.371094 220.847656 454.378906 219.441406 456.421875 217.808594 " fill-opacity="1" fill-rule="nonzero"/><path fill="#7f3e33" d="M 418.042969 108.03125 C 417.496094 108.199219 416.933594 108.324219 416.351562 108.371094 C 415.773438 108.414062 415.1875 108.375 414.621094 108.320312 C 414.050781 108.261719 413.5 108.207031 412.953125 108.21875 C 412.410156 108.238281 411.875 108.316406 411.347656 108.449219 C 409.222656 108.96875 407.378906 110.214844 405.867188 111.777344 C 405.109375 112.558594 404.429688 113.414062 403.761719 114.3125 C 403.421875 114.761719 403.117188 115.207031 402.804688 115.65625 C 402.519531 116.128906 402.214844 116.582031 401.945312 117.0625 C 400.867188 118.984375 399.933594 120.996094 399.121094 123.0625 C 398.304688 125.128906 397.628906 127.261719 397.035156 129.414062 C 396.449219 131.566406 395.90625 133.742188 395.449219 135.9375 C 394.988281 138.132812 394.597656 140.34375 394.265625 142.558594 C 394.097656 143.667969 393.9375 144.777344 393.792969 145.886719 L 393.410156 149.347656 L 393.429688 149.199219 C 392.9375 155.046875 392.441406 160.878906 392.011719 166.710938 C 391.582031 172.546875 391.238281 178.375 391.035156 184.207031 C 390.9375 187.117188 390.878906 190.03125 390.921875 192.941406 C 390.960938 195.851562 391.035156 198.761719 391.285156 201.652344 C 391.539062 204.539062 391.875 207.433594 392.546875 210.25 C 393.214844 213.058594 394.144531 215.851562 395.882812 218.238281 C 394.839844 217.195312 393.976562 215.96875 393.277344 214.652344 C 392.929688 213.996094 392.609375 213.316406 392.320312 212.632812 C 392.03125 211.945312 391.769531 211.253906 391.511719 210.550781 C 391.257812 209.847656 391.070312 209.132812 390.84375 208.417969 C 390.660156 207.699219 390.457031 206.976562 390.292969 206.253906 C 389.953125 204.804688 389.664062 203.34375 389.4375 201.878906 C 388.523438 196.007812 388.175781 190.082031 388.105469 184.171875 C 388.035156 178.265625 388.25 172.363281 388.601562 166.484375 C 388.957031 160.605469 389.453125 154.742188 390 148.898438 L 390.023438 148.75 C 389.996094 148.886719 390.023438 148.722656 390.027344 148.667969 L 390.441406 145.433594 C 390.609375 144.292969 390.78125 143.148438 390.988281 142.015625 C 391.398438 139.75 391.875 137.492188 392.417969 135.25 C 393.5 130.765625 394.90625 126.335938 396.804688 122.089844 C 397.757812 119.964844 398.90625 117.925781 400.199219 115.960938 C 400.519531 115.472656 400.875 114.996094 401.230469 114.53125 C 401.582031 114.0625 401.976562 113.601562 402.347656 113.167969 C 403.101562 112.292969 403.925781 111.4375 404.828125 110.664062 C 406.617188 109.117188 408.820312 107.910156 411.191406 107.605469 C 411.78125 107.535156 412.382812 107.511719 412.976562 107.5625 C 413.566406 107.609375 414.140625 107.734375 414.695312 107.867188 C 415.246094 107.996094 415.792969 108.105469 416.347656 108.128906 C 416.910156 108.15625 417.476562 108.117188 418.042969 108.03125 " fill-opacity="1" fill-rule="nonzero"/><path fill="#f18c6d" d="M 462.191406 209.65625 L 454.113281 149.1875 L 429.109375 156.003906 L 429.109375 208.492188 C 429.109375 208.492188 437.183594 228.050781 462.191406 209.65625 " fill-opacity="1" fill-rule="nonzero"/><path fill="#f18c6d" d="M 414.042969 192.605469 C 411.550781 192.210938 409.625 191.117188 409.625 191.117188 C 409.0625 190.796875 408.523438 190.421875 407.992188 189.980469 C 407.992188 189.980469 407.152344 189.292969 406.417969 188.449219 C 397.191406 177.894531 401.785156 155.6875 401.785156 155.6875 C 403.175781 148.972656 404.675781 146.621094 408.257812 137.28125 C 411.140625 129.75 415.042969 118.550781 418.597656 104.167969 C 419.371094 104.035156 427.257812 102.792969 435.285156 101.636719 C 438.640625 101.542969 459.53125 101.265625 470.292969 115.722656 C 483.910156 134.011719 470.523438 161.417969 458.625 174.488281 C 457.3125 175.925781 455.964844 177.253906 454.585938 178.476562 C 451.574219 181.824219 445.707031 187.382812 436.65625 190.710938 C 436.65625 190.710938 426.1875 194.546875 414.042969 192.605469 " fill-opacity="1" fill-rule="nonzero"/><path fill="#ea5b29" d="M 450.648438 177.625 C 450.179688 178.066406 449.734375 178.519531 449.285156 178.972656 C 449.0625 179.199219 448.851562 179.433594 448.625 179.65625 C 448.402344 179.878906 448.15625 180.082031 447.921875 180.296875 L 446.535156 181.574219 C 446.046875 181.96875 445.566406 182.382812 445.085938 182.773438 C 443.136719 184.359375 441.085938 185.792969 438.925781 187.042969 C 436.765625 188.296875 434.535156 189.4375 432.21875 190.40625 C 431.636719 190.648438 431.054688 190.890625 430.46875 191.105469 L 429.582031 191.445312 L 428.691406 191.757812 C 427.496094 192.175781 426.289062 192.566406 425.046875 192.855469 C 426.332031 192.894531 427.613281 192.6875 428.882812 192.464844 L 429.828125 192.269531 L 430.765625 192.039062 C 431.398438 191.898438 432.003906 191.695312 432.621094 191.5 C 435.082031 190.730469 437.445312 189.628906 439.683594 188.332031 C 441.925781 187.03125 444.011719 185.453125 445.851562 183.644531 C 446.316406 183.195312 446.773438 182.738281 447.21875 182.273438 C 447.21875 182.273438 448.875 180.296875 449.058594 180.035156 C 449.246094 179.773438 449.425781 179.503906 449.601562 179.238281 C 449.957031 178.699219 450.3125 178.167969 450.648438 177.625 " fill-opacity="1" fill-rule="nonzero"/><path fill="#f18c6d" d="M 460.402344 160.96875 C 458.03125 165.558594 458.1875 170.355469 460.753906 171.683594 C 463.324219 173.007812 467.320312 170.359375 469.695312 165.769531 C 472.066406 161.175781 471.910156 156.378906 469.34375 155.054688 C 466.777344 153.730469 462.773438 156.375 460.402344 160.96875 " fill-opacity="1" fill-rule="nonzero"/><path fill="#ea5b29" d="M 464.472656 161.636719 C 464.476562 162.070312 464.441406 162.492188 464.328125 162.882812 C 464.21875 163.265625 464.097656 163.628906 463.914062 163.945312 C 463.824219 164.105469 463.703125 164.246094 463.5625 164.375 C 463.441406 164.503906 463.359375 164.648438 463.3125 164.824219 C 463.285156 165.007812 463.226562 165.195312 463.230469 165.4375 C 463.214844 165.667969 463.203125 165.929688 463.257812 166.285156 L 463.394531 166.417969 C 464.078125 166.476562 464.585938 166.222656 464.957031 165.847656 C 465.375 165.480469 465.347656 164.855469 465.410156 164.355469 C 465.472656 163.84375 465.433594 163.320312 465.296875 162.84375 C 465.15625 162.367188 464.960938 161.925781 464.648438 161.554688 L 464.507812 161.542969 L 464.472656 161.621094 L 464.472656 161.636719 " fill-opacity="1" fill-rule="nonzero"/><path fill="#ea5b29" d="M 470.027344 158.613281 C 469.707031 158.007812 469.128906 157.566406 468.445312 157.339844 C 467.761719 157.109375 466.960938 157.148438 466.277344 157.425781 C 465.578125 157.703125 465.0625 158.210938 464.640625 158.738281 C 464.449219 159.019531 464.289062 159.316406 464.144531 159.617188 C 464.035156 159.933594 463.929688 160.246094 463.871094 160.578125 C 464.167969 160.394531 464.40625 160.183594 464.644531 159.984375 C 464.886719 159.789062 465.136719 159.621094 465.355469 159.433594 C 465.839844 159.109375 466.28125 158.78125 466.757812 158.597656 C 467.234375 158.414062 467.714844 158.308594 468.257812 158.3125 C 468.800781 158.3125 469.382812 158.425781 470.027344 158.613281 " fill-opacity="1" fill-rule="nonzero"/><path fill="#ea5b29" d="M 423.949219 143.539062 C 423.144531 145.84375 422.300781 148.003906 421.242188 150.035156 C 420.1875 152.070312 418.976562 153.976562 417.582031 155.742188 C 417.234375 156.183594 416.867188 156.613281 416.5 157.035156 C 416.132812 157.457031 415.738281 157.859375 415.308594 158.367188 C 414.886719 158.867188 414.441406 159.457031 414.148438 160.214844 C 414.007812 160.59375 413.90625 161 413.882812 161.425781 C 413.867188 161.84375 413.910156 162.257812 414.019531 162.644531 C 414.441406 164.183594 415.601562 165.226562 416.816406 165.753906 C 418.042969 166.285156 419.273438 166.402344 420.488281 166.433594 C 419.421875 165.84375 418.328125 165.320312 417.503906 164.621094 C 417.085938 164.269531 416.761719 163.898438 416.515625 163.476562 C 416.269531 163.0625 416.117188 162.621094 416.09375 162.21875 C 416.066406 161.816406 416.144531 161.496094 416.328125 161.160156 C 416.515625 160.824219 416.816406 160.464844 417.195312 160.089844 C 417.570312 159.722656 418.015625 159.285156 418.460938 158.832031 C 418.675781 158.609375 418.882812 158.371094 419.089844 158.132812 C 419.292969 157.894531 419.5 157.660156 419.691406 157.414062 C 421.230469 155.433594 422.441406 153.199219 423.195312 150.835938 C 423.949219 148.46875 424.253906 145.960938 423.949219 143.539062 " fill-opacity="1" fill-rule="nonzero"/><path fill="#f5a45b" d="M 475.300781 187.386719 L 459.96875 188.933594 L 461.171875 175.808594 L 469.839844 175.222656 L 475.300781 187.386719 " fill-opacity="1" fill-rule="nonzero"/><path fill="#f5a45b" d="M 467.695312 170.292969 C 467.476562 172.121094 465.816406 173.425781 463.984375 173.210938 C 462.160156 172.988281 460.851562 171.328125 461.074219 169.5 C 461.289062 167.671875 462.949219 166.367188 464.777344 166.585938 C 466.609375 166.800781 467.914062 168.460938 467.695312 170.292969 " fill-opacity="1" fill-rule="nonzero"/><path fill="#cb7e5d" d="M 467.09375 178.417969 L 463.285156 178.640625 L 462.902344 172.140625 L 466.710938 171.917969 L 467.09375 178.417969 " fill-opacity="1" fill-rule="nonzero"/><path fill="#ea5b29" d="M 467.988281 113 C 456.796875 101.304688 438.417969 101.550781 435.285156 101.636719 C 427.257812 102.792969 419.371094 104.035156 418.597656 104.167969 C 417.394531 106.109375 416.21875 108.550781 417.136719 109.847656 C 418.628906 111.941406 423.78125 108.4375 428.398438 108.992188 C 440.765625 110.464844 438.621094 140.363281 459.011719 153.019531 C 466.542969 157.695312 475.71875 159.839844 477.9375 157.0625 C 481.863281 152.144531 461.605469 134.789062 466.859375 116.132812 C 467.246094 114.761719 467.691406 113.679688 467.988281 113 " fill-opacity="1" fill-rule="nonzero"/><path fill="#5e1113" d="M 436.207031 131.117188 L 434.84375 135.675781 C 434.84375 135.675781 446.277344 139.105469 454.066406 144.210938 C 454.066406 144.210938 442.996094 128.960938 436.207031 131.117188 " fill-opacity="1" fill-rule="nonzero"/><path fill="#5e1113" d="M 408.589844 128.847656 C 412.164062 126.601562 415.988281 125.058594 418.628906 126.367188 L 418.109375 132.09375 C 418.109375 132.09375 414.28125 132.328125 409.386719 133.351562 L 408.589844 128.847656 " fill-opacity="1" fill-rule="nonzero"/><g clip-path="url(#afb0dd7c86)"><g clip-path="url(#3dc9255568)"><g clip-path="url(#07e85890dd)"><g clip-path="url(#0e544d2de8)"><path fill="url(#b7d7675575)" d="M 425.769531 161.9375 L 438.238281 181.195312 L 458.257812 167.808594 L 445.785156 148.550781 Z M 425.769531 161.9375 " fill-rule="nonzero"/></g></g></g></g><g clip-path="url(#ef315f7d60)"><g clip-path="url(#10b1bda0e3)"><g clip-path="url(#f24611426c)"><g clip-path="url(#06b2bff565)"><path fill="url(#98a47f2076)" d="M 400.695312 157.257812 L 399.902344 163.9375 L 401.480469 164.125 L 402.277344 157.445312 Z M 400.695312 157.257812 " fill-rule="nonzero"/></g></g></g></g><g clip-path="url(#138cb05b65)"><g clip-path="url(#512f3c3c70)"><g clip-path="url(#ed8903bc8a)"><g clip-path="url(#51549284c4)"><path fill="url(#58b91de482)" d="M 400.867188 146.410156 L 398.691406 164.71875 L 407.851562 165.808594 L 410.027344 147.5 Z M 400.867188 146.410156 " fill-rule="nonzero"/></g></g></g></g><path fill="#ea5b29" d="M 413.996094 176.402344 C 417.507812 178.015625 421.527344 176.675781 421.53125 176.082031 C 421.53125 175.882812 421.070312 175.765625 417.816406 175.023438 C 414.957031 174.371094 412.496094 173.820312 410.558594 173.390625 C 411.066406 174.164062 412.144531 175.546875 413.996094 176.402344 " fill-opacity="1" fill-rule="nonzero"/><path fill="#282222" d="M 438.925781 148.28125 C 438.390625 148.894531 438.058594 149.644531 438.027344 150.46875 C 437.941406 152.636719 439.925781 154.472656 442.457031 154.566406 C 444.703125 154.648438 446.613281 153.335938 447.085938 151.527344 C 444.925781 150.148438 442.078125 148.578125 438.925781 148.28125 " fill-opacity="1" fill-rule="nonzero"/><path fill="#282222" d="M 418.589844 147.589844 C 418.832031 145.535156 418.046875 143.363281 416.632812 142.179688 C 416.226562 141.839844 415.777344 141.589844 415.3125 141.402344 C 414.179688 141.96875 413.378906 143.105469 413.324219 144.460938 C 413.246094 146.4375 414.773438 148.09375 416.734375 148.167969 C 417.480469 148.199219 418.179688 147.988281 418.765625 147.621094 L 418.589844 147.589844 " fill-opacity="1" fill-rule="nonzero"/><path fill="#282222" d="M 430.539062 150.539062 C 431.714844 149.453125 433.160156 148.65625 434.695312 148.136719 C 436.234375 147.617188 437.894531 147.410156 439.519531 147.554688 C 440.335938 147.628906 441.140625 147.773438 441.921875 148.011719 C 442.703125 148.246094 443.460938 148.554688 444.171875 148.945312 C 445.597656 149.722656 446.875 150.769531 447.832031 152.050781 C 446.566406 151.09375 445.226562 150.296875 443.820312 149.710938 C 442.410156 149.125 440.929688 148.753906 439.425781 148.632812 C 438.675781 148.566406 437.921875 148.5625 437.164062 148.617188 C 436.410156 148.671875 435.65625 148.785156 434.914062 148.945312 C 433.417969 149.273438 431.960938 149.828125 430.539062 150.539062 " fill-opacity="1" fill-rule="nonzero"/><path fill="#282222" d="M 418.589844 147.589844 C 418.402344 146.273438 418.039062 145.019531 417.417969 143.945312 C 416.796875 142.871094 415.902344 142.011719 414.859375 141.398438 C 413.8125 140.785156 412.617188 140.425781 411.382812 140.28125 C 410.140625 140.136719 408.863281 140.230469 407.5625 140.453125 C 408.71875 139.808594 410.058594 139.457031 411.425781 139.441406 C 412.789062 139.425781 414.1875 139.75 415.390625 140.464844 C 415.996094 140.820312 416.546875 141.269531 417.019531 141.792969 C 417.496094 142.316406 417.878906 142.917969 418.152344 143.5625 C 418.699219 144.855469 418.84375 146.277344 418.589844 147.589844 " fill-opacity="1" fill-rule="nonzero"/><g clip-path="url(#c71774bb55)"><path fill="#c77955" d="M 447.1875 534.523438 L 453.496094 461.863281 C 453.238281 452.066406 450.65625 374.644531 421.628906 352.824219 C 414.511719 347.472656 396.265625 335.847656 389.410156 341.289062 C 385.210938 344.617188 388.582031 351.699219 387.046875 364.03125 C 385.109375 379.613281 378.1875 380.691406 369.847656 400.503906 C 362.605469 417.707031 362.679688 433.515625 359.015625 451.296875 C 359.015625 451.296875 357.667969 463.914062 357.542969 476.914062 C 357.449219 486.558594 358.621094 506.378906 360.894531 534.523438 L 447.1875 534.523438 " fill-opacity="1" fill-rule="nonzero"/></g><path fill="#a85838" d="M 434.894531 476.117188 C 435.082031 476.105469 435.257812 475.988281 435.335938 475.804688 C 435.441406 475.542969 435.316406 475.246094 435.058594 475.140625 L 394.710938 458.589844 C 394.449219 458.480469 394.152344 458.605469 394.046875 458.863281 C 393.9375 459.125 394.0625 459.421875 394.324219 459.527344 L 434.675781 476.078125 L 434.894531 476.117188 " fill-opacity="1" fill-rule="nonzero"/><g clip-path="url(#19d673fc5e)"><path fill="#c77955" d="M 433.613281 534.523438 L 516.042969 534.523438 C 516.921875 510.609375 517.78125 486.703125 518.550781 462.789062 C 518.828125 454.195312 517.847656 445.609375 515.640625 437.292969 C 511.824219 422.953125 507.25 406.070312 501.960938 387.195312 C 490.558594 346.496094 486.953125 336.179688 481.898438 331.328125 C 481.128906 330.59375 480.410156 330.144531 479.097656 329.175781 C 467.480469 320.566406 427.765625 291.144531 406.308594 302.164062 C 391.285156 309.882812 388.53125 333.683594 387.179688 346.804688 C 382.140625 395.675781 408.246094 435.40625 421.90625 453.167969 L 433.613281 534.523438 " fill-opacity="1" fill-rule="nonzero"/></g><g clip-path="url(#123b2be65b)"><path fill="#a85838" d="M 511.148438 437.425781 C 513.34375 445.691406 514.316406 454.21875 514.042969 462.773438 L 511.734375 534.523438 L 512.742188 534.523438 L 515.054688 462.804688 C 515.335938 454.152344 514.347656 445.527344 512.125 437.167969 C 507.710938 420.5625 492.328125 365.476562 490.257812 358.675781 C 490.179688 358.40625 489.894531 358.257812 489.628906 358.339844 C 489.359375 358.417969 489.210938 358.703125 489.289062 358.972656 C 491.355469 365.761719 506.734375 420.828125 511.148438 437.425781 " fill-opacity="1" fill-rule="nonzero"/></g><path fill="#a85838" d="M 422.082031 463.570312 C 418.164062 463.570312 414.738281 462.078125 411.882812 459.121094 C 405.84375 452.875 402.324219 440.273438 401.417969 421.679688 C 400.75 407.875 401.851562 395.734375 401.863281 395.613281 C 401.882812 395.375 402.101562 395.199219 402.335938 395.21875 C 402.578125 395.246094 402.753906 395.457031 402.730469 395.695312 C 402.6875 396.179688 398.429688 443.949219 412.511719 458.519531 C 415.402344 461.511719 418.917969 462.90625 422.960938 462.671875 C 423.203125 462.652344 423.40625 462.839844 423.421875 463.078125 C 423.433594 463.320312 423.25 463.527344 423.007812 463.539062 C 422.695312 463.558594 422.386719 463.570312 422.082031 463.570312 " fill-opacity="1" fill-rule="nonzero"/><path fill="#a85838" d="M 428.652344 474.804688 C 428.484375 474.804688 428.324219 474.710938 428.253906 474.542969 C 425.871094 469.007812 423.804688 463.289062 422.097656 457.535156 C 415.800781 436.3125 414.125 413.867188 417.117188 390.816406 C 417.144531 390.574219 417.363281 390.40625 417.601562 390.4375 C 417.84375 390.46875 418.007812 390.6875 417.976562 390.925781 C 415.003906 413.855469 416.671875 436.183594 422.933594 457.289062 C 424.628906 463.003906 426.6875 468.695312 429.050781 474.199219 C 429.148438 474.417969 429.046875 474.679688 428.824219 474.769531 L 428.652344 474.804688 " fill-opacity="1" fill-rule="nonzero"/><path fill="#a85838" d="M 492.9375 426.40625 C 478.695312 426.40625 467.636719 422.550781 460.023438 414.929688 C 448.546875 403.441406 449.128906 387.195312 449.136719 387.03125 C 449.144531 386.792969 449.355469 386.609375 449.589844 386.617188 C 449.828125 386.625 450.015625 386.828125 450.007812 387.070312 C 450 387.230469 449.445312 403.109375 460.652344 414.320312 C 468.703125 422.382812 480.75 426.125 496.457031 425.457031 C 496.695312 425.445312 496.902344 425.636719 496.914062 425.871094 C 496.921875 426.113281 496.734375 426.316406 496.492188 426.328125 C 495.289062 426.378906 494.101562 426.40625 492.9375 426.40625 " fill-opacity="1" fill-rule="nonzero"/><g clip-path="url(#2223af60f2)"><path fill="#a85838" d="M 428.9375 478.773438 L 435.082031 534.523438 C 435.082031 534.523438 417.472656 534.523438 418.765625 534.523438 C 420.058594 534.523438 428.9375 478.773438 428.9375 478.773438 " fill-opacity="1" fill-rule="nonzero"/></g><path fill="#5e1113" d="M 489.792969 346.496094 L 385.960938 353.226562 C 384.761719 360.414062 384.363281 366.101562 383.90625 371.164062 C 389.132812 373.621094 394.828125 375.835938 400.996094 377.628906 C 441.140625 389.289062 477.960938 376.289062 496.476562 367.917969 C 493.765625 358.601562 491.621094 351.699219 489.792969 346.496094 " fill-opacity="1" fill-rule="nonzero"/><path fill="#febb54" d="M 416.820312 383.203125 L 416.695312 383.191406 L 403.371094 380.691406 C 403.046875 380.628906 402.8125 380.347656 402.8125 380.019531 L 402.8125 361.996094 C 402.8125 361.804688 402.898438 361.617188 403.039062 361.488281 C 403.1875 361.359375 403.378906 361.296875 403.570312 361.316406 L 415.746094 362.578125 C 416.121094 362.617188 416.394531 362.949219 416.355469 363.324219 C 416.316406 363.703125 415.984375 363.972656 415.609375 363.933594 L 404.179688 362.753906 L 404.179688 379.453125 L 416.136719 381.695312 L 416.136719 378.160156 C 416.136719 377.78125 416.441406 377.476562 416.820312 377.476562 C 417.195312 377.476562 417.503906 377.78125 417.503906 378.160156 L 417.503906 382.519531 C 417.503906 382.722656 417.410156 382.914062 417.253906 383.046875 C 417.132812 383.148438 416.976562 383.203125 416.820312 383.203125 " fill-opacity="1" fill-rule="nonzero"/><path fill="#febb54" d="M 406.199219 372.117188 L 406.054688 372.101562 L 401.492188 371.136719 C 401.125 371.058594 400.890625 370.695312 400.96875 370.324219 C 401.046875 369.957031 401.40625 369.71875 401.777344 369.796875 L 406.339844 370.765625 C 406.710938 370.84375 406.941406 371.210938 406.863281 371.578125 C 406.796875 371.898438 406.515625 372.117188 406.199219 372.117188 " fill-opacity="1" fill-rule="nonzero"/><path fill="#7f3e33" d="M 499.71875 213.875 C 500.515625 211.195312 500.910156 208.4375 500.984375 205.675781 C 501.023438 204.296875 500.984375 202.914062 500.882812 201.539062 C 500.785156 200.164062 500.628906 198.796875 500.414062 197.433594 C 500.199219 196.074219 499.933594 194.71875 499.636719 193.375 C 499.339844 192.027344 498.992188 190.691406 498.617188 189.363281 C 497.875 186.707031 496.980469 184.089844 496.03125 181.496094 C 495.558594 180.191406 493.542969 174.992188 493.046875 173.679688 C 492.0625 171.046875 491.191406 168.371094 490.398438 165.664062 C 489.605469 162.957031 488.925781 160.210938 488.351562 157.445312 C 487.78125 154.679688 487.335938 151.882812 486.988281 149.085938 C 486.636719 146.285156 486.417969 143.484375 486.132812 140.734375 C 485.996094 139.359375 485.855469 137.992188 485.65625 136.648438 C 485.457031 135.304688 485.234375 133.96875 484.917969 132.667969 C 484.597656 131.367188 484.222656 130.085938 483.78125 128.820312 C 483.5625 128.1875 483.308594 127.570312 483.058594 126.949219 C 482.929688 126.636719 482.785156 126.335938 482.644531 126.027344 C 482.507812 125.722656 482.371094 125.414062 482.21875 125.117188 C 481.90625 124.515625 481.625 123.90625 481.28125 123.320312 L 480.796875 122.433594 L 480.273438 121.5625 C 480.097656 121.269531 479.929688 120.976562 479.746094 120.6875 L 479.191406 119.832031 C 478.824219 119.261719 478.4375 118.6875 478.046875 118.121094 C 476.496094 115.851562 474.855469 113.671875 473.042969 111.640625 C 471.234375 109.609375 469.28125 107.710938 467.144531 106.042969 C 465.007812 104.375 462.6875 102.953125 460.230469 101.824219 C 459 101.257812 457.726562 100.796875 456.433594 100.394531 C 456.109375 100.289062 455.777344 100.207031 455.453125 100.121094 C 455.121094 100.03125 454.796875 99.945312 454.464844 99.871094 C 453.800781 99.726562 453.132812 99.601562 452.460938 99.496094 L 452.339844 99.472656 L 452.277344 99.445312 C 450.835938 98.800781 449.367188 98.214844 447.875 97.703125 C 446.378906 97.195312 444.855469 96.769531 443.3125 96.433594 C 441.769531 96.101562 440.191406 95.878906 438.609375 95.78125 C 437.027344 95.679688 435.429688 95.71875 433.835938 95.894531 C 435.402344 95.546875 437.007812 95.371094 438.621094 95.332031 C 440.230469 95.292969 441.847656 95.40625 443.453125 95.625 C 445.058594 95.839844 446.644531 96.179688 448.207031 96.605469 C 449.773438 97.027344 451.3125 97.535156 452.828125 98.097656 L 452.644531 98.046875 C 453.355469 98.117188 454.0625 98.21875 454.769531 98.335938 C 455.121094 98.394531 455.46875 98.464844 455.820312 98.542969 C 456.171875 98.621094 456.523438 98.691406 456.867188 98.777344 C 458.257812 99.136719 459.632812 99.5625 460.964844 100.089844 C 463.636719 101.148438 466.15625 102.578125 468.476562 104.261719 C 470.796875 105.945312 472.945312 107.859375 474.898438 109.9375 C 476.859375 112.015625 478.640625 114.253906 480.277344 116.558594 C 481.90625 118.855469 483.449219 121.292969 484.777344 123.851562 C 484.945312 124.167969 485.097656 124.496094 485.25 124.824219 C 485.402344 125.152344 485.5625 125.476562 485.703125 125.808594 C 485.984375 126.476562 486.261719 127.148438 486.507812 127.828125 C 487.003906 129.195312 487.433594 130.582031 487.773438 131.988281 C 488.453125 134.804688 488.804688 137.648438 489.074219 140.445312 C 489.34375 143.242188 489.570312 146 489.882812 148.738281 C 490.511719 154.210938 491.542969 159.617188 492.964844 164.945312 C 493.671875 167.609375 494.472656 170.253906 495.34375 172.878906 C 495.78125 174.195312 497.609375 179.464844 498.042969 180.800781 C 498.917969 183.472656 499.6875 186.179688 500.316406 188.929688 C 500.628906 190.304688 500.910156 191.6875 501.148438 193.078125 C 501.386719 194.464844 501.558594 195.867188 501.695312 197.273438 C 501.828125 198.679688 501.894531 200.089844 501.910156 201.5 C 501.917969 202.207031 501.90625 202.910156 501.871094 203.613281 C 501.835938 204.320312 501.789062 205.023438 501.710938 205.726562 C 501.550781 207.121094 501.347656 208.515625 501.007812 209.882812 C 500.667969 211.246094 500.25 212.585938 499.71875 213.875 " fill-opacity="1" fill-rule="nonzero"/><path fill="#5e1113" d="M 452.550781 99.28125 C 451.480469 99.054688 450.589844 98.925781 450.011719 98.851562 C 444.027344 96.402344 437.648438 94.925781 431.296875 95.976562 C 417.664062 96.085938 400.347656 121.90625 404.363281 130.695312 C 412.128906 129.085938 419.78125 107.921875 429.949219 108.265625 C 435.773438 108.464844 440.609375 114.488281 446.039062 126.871094 C 466.78125 174.140625 445.839844 212.351562 462.882812 223.867188 C 472.308594 230.238281 489.003906 225.578125 495.488281 216.980469 C 496.25 215.976562 496.796875 215.003906 497.175781 213.957031 C 501.867188 200.910156 495.773438 184.523438 492.742188 176.386719 C 480.558594 143.640625 489.921875 136.820312 477.347656 118.472656 C 473.984375 113.5625 465.925781 102.152344 452.550781 99.28125 " fill-opacity="1" fill-rule="nonzero"/><path fill="#7f3e33" d="M 426.914062 109.148438 C 423.097656 109.125 419.632812 110.347656 416.722656 112.285156 C 413.8125 114.226562 411.390625 116.863281 409.769531 119.882812 C 406.449219 126.070312 405.96875 133.484375 406.28125 141.023438 C 404.804688 137.515625 404.054688 133.671875 404.070312 129.769531 C 404.082031 125.867188 404.945312 121.859375 406.863281 118.316406 C 408.800781 114.734375 411.851562 111.828125 415.457031 110.054688 C 419.023438 108.296875 423.324219 107.738281 426.914062 109.148438 " fill-opacity="1" fill-rule="nonzero"/><g clip-path="url(#cf473540b2)"><path fill="#7f3e33" d="M 426.328125 106.308594 C 425.050781 103.84375 425.53125 100.65625 427.023438 98.1875 C 428.550781 95.652344 431.328125 94.003906 434.1875 93.34375 C 437.074219 92.679688 440.125 92.960938 442.875 93.824219 C 445.644531 94.703125 448.144531 96.125 450.429688 97.707031 C 452.707031 99.28125 454.894531 101.097656 456.746094 103.296875 C 458.605469 105.5 459.960938 108.070312 460.992188 110.613281 C 463.058594 115.714844 464.132812 120.921875 467.285156 125.375 C 463.113281 121.753906 460.96875 116.34375 458.652344 111.695312 C 456.292969 106.96875 452.890625 103.398438 448.542969 100.417969 C 444.300781 97.503906 439.5625 95.195312 434.65625 95.867188 C 432.257812 96.195312 429.953125 97.25 428.328125 99.128906 C 426.703125 101.007812 425.785156 103.640625 426.328125 106.308594 " fill-opacity="1" fill-rule="nonzero"/></g><path fill="#7f3e33" d="M 422.894531 109.878906 C 426.183594 107.488281 430.894531 107.664062 434.609375 109.4375 C 438.433594 111.265625 441.171875 114.722656 443.0625 118.335938 C 446.898438 125.679688 447.90625 133.773438 449.765625 141.277344 C 451.617188 148.75 454.648438 155.96875 460.703125 160.53125 C 463.707031 162.789062 467.257812 164.339844 470.988281 165.179688 C 474.746094 166.027344 478.6875 166.011719 482.5625 165.175781 C 478.898438 166.730469 474.769531 167.230469 470.726562 166.777344 C 466.6875 166.324219 462.753906 164.832031 459.25 162.613281 C 455.734375 160.386719 452.875 157.109375 450.855469 153.515625 C 448.8125 149.898438 447.539062 145.96875 446.566406 142.085938 C 444.617188 134.308594 443.789062 126.4375 440.785156 119.441406 C 439.304688 115.988281 437.023438 112.816406 433.84375 110.855469 C 430.679688 108.90625 426.523438 108.179688 422.894531 109.878906 " fill-opacity="1" fill-rule="nonzero"/><path fill="#7f3e33" d="M 450.425781 125.828125 C 452.578125 129.390625 453.882812 133.40625 455.09375 137.292969 C 456.316406 141.195312 457.4375 145.023438 459.089844 148.582031 C 460.738281 152.128906 462.691406 155.671875 465.25 158.472656 C 467.777344 161.246094 471.398438 163.273438 475.570312 162.84375 C 471.714844 164.726562 466.730469 163.199219 463.480469 160.347656 C 460.152344 157.425781 457.867188 153.785156 456.089844 149.949219 C 454.289062 146.078125 453.335938 141.9375 452.605469 137.90625 C 451.871094 133.859375 451.296875 129.878906 450.425781 125.828125 " fill-opacity="1" fill-rule="nonzero"/><path fill="#fb4e77" d="M 527.488281 281.742188 C 527.316406 280.324219 526.515625 276.863281 525.566406 273 C 524.117188 267.082031 522.761719 262.789062 522.222656 261.0625 C 519.089844 250.96875 518.359375 245.9375 516.175781 238.144531 C 510.613281 218.304688 507.097656 205.75 496.445312 200.269531 C 489.164062 196.527344 481.847656 197.78125 479.417969 198.203125 C 477.925781 198.457031 476.472656 198.832031 475.054688 199.296875 C 474.132812 199.289062 473.136719 199.269531 472.050781 199.238281 C 469.011719 199.160156 466.539062 199.019531 464.980469 198.917969 C 465.773438 196.09375 466.265625 192.746094 464.566406 191.152344 C 462.363281 189.085938 458.457031 191.832031 449.417969 193.359375 C 440.652344 194.84375 431.898438 194.542969 431.898438 194.542969 C 426.199219 194.351562 422.375 193.617188 420.519531 195.953125 C 419.3125 197.476562 419.476562 199.621094 419.777344 201.140625 L 406.371094 199.953125 C 398.582031 198.253906 392.386719 198.851562 387.5 200.316406 C 359.613281 208.683594 342.839844 254.675781 345.257812 314.539062 C 360.667969 306.066406 367.394531 307.230469 370.707031 309.605469 C 378.160156 314.957031 378.523438 326.691406 380.921875 346.1875 C 381.828125 353.53125 387.003906 359.644531 394.105469 361.71875 C 406.933594 365.46875 425.710938 368.714844 447.667969 365.132812 C 465.417969 362.234375 479.351562 355.839844 488.832031 350.324219 C 492.253906 348.335938 494.25 344.582031 494.015625 340.632812 C 493.828125 337.457031 493.875 334.59375 494.042969 331.886719 C 498.460938 334.140625 503.390625 335.347656 507.992188 334.425781 C 516.277344 332.761719 519.796875 322.71875 522.832031 314.996094 C 529.203125 298.753906 527.816406 284.417969 527.488281 281.742188 " fill-opacity="1" fill-rule="nonzero"/><path fill="#fb4e77" d="M 513.4375 262.335938 C 493.359375 281.832031 479.960938 310.191406 487.164062 321.582031 C 490.214844 326.402344 495.328125 330.335938 495.328125 330.335938 C 496.769531 331.449219 501.363281 336.054688 506.183594 336.007812 C 514.40625 335.921875 521.835938 331.160156 528.144531 325.886719 C 541.226562 314.957031 551.789062 301.03125 558.792969 285.484375 C 564.15625 273.578125 567.210938 258.988281 554.609375 242.617188 C 545.203125 230.394531 517.960938 257.945312 513.4375 262.335938 " fill-opacity="1" fill-rule="nonzero"/><path fill="#ef3369" d="M 482.75 295.429688 C 482.609375 300.605469 482.140625 307.8125 480.6875 316.285156 C 478.71875 327.785156 475.8125 344.738281 468.753906 353.523438 C 451.527344 374.96875 400.148438 359.53125 387.804688 358.457031 C 389.644531 359.914062 391.769531 361.035156 394.105469 361.71875 C 406.933594 365.46875 425.710938 368.714844 447.667969 365.132812 C 465.417969 362.234375 479.351562 355.839844 488.832031 350.324219 C 492.253906 348.335938 494.25 344.582031 494.015625 340.632812 C 493.828125 337.457031 493.875 334.59375 494.042969 331.886719 C 494.835938 332.292969 495.648438 332.660156 496.46875 332.992188 C 490.351562 327.710938 483.800781 317.445312 482.75 295.429688 " fill-opacity="1" fill-rule="nonzero"/><path fill="#ef3369" d="M 433.589844 210.800781 C 428.367188 210.21875 423.214844 208.878906 418.371094 206.832031 C 418.042969 206.691406 417.886719 206.308594 418.027344 205.972656 C 418.164062 205.640625 418.550781 205.484375 418.882812 205.625 C 426.054688 208.664062 433.925781 210.101562 441.65625 209.789062 C 448.53125 209.511719 455.199219 207.914062 461.480469 205.042969 C 461.8125 204.894531 462.203125 205.039062 462.351562 205.367188 C 462.5 205.695312 462.355469 206.082031 462.023438 206.234375 C 455.585938 209.175781 448.753906 210.8125 441.714844 211.097656 C 439.011719 211.203125 436.289062 211.105469 433.589844 210.800781 " fill-opacity="1" fill-rule="nonzero"/><path fill="#ef3369" d="M 505.898438 269.132812 C 507.96875 266.527344 510.800781 263.25 514.457031 259.746094 C 517.90625 256.441406 520.753906 254.222656 522.246094 253.0625 C 531.144531 246.152344 540.957031 241.0625 546.203125 238.515625 L 546.308594 238.871094 C 540.898438 241.804688 531.429688 247.226562 522.804688 253.96875 C 518.71875 257.160156 516.03125 259.707031 515.1875 260.511719 C 511.421875 264.125 508.550781 267.480469 506.515625 270.058594 C 506.480469 270.0625 506.195312 270.082031 505.992188 269.871094 C 505.816406 269.679688 505.777344 269.382812 505.898438 269.132812 " fill-opacity="1" fill-rule="nonzero"/><path fill="#ef3369" d="M 478.824219 263.378906 L 479.886719 251.519531 L 478.832031 251.421875 L 477.882812 262 L 471.671875 253.824219 L 470.828125 254.464844 L 477.792969 263.632812 C 478.082031 265.125 480.960938 280.121094 479.957031 285.765625 L 481.003906 285.949219 C 482.058594 279.988281 479.089844 264.726562 478.824219 263.378906 " fill-opacity="1" fill-rule="nonzero"/><path fill="#ef3369" d="M 392.984375 347.949219 C 392.78125 347.949219 392.585938 347.84375 392.484375 347.652344 L 386.328125 336.277344 C 386.179688 336 386.28125 335.65625 386.558594 335.507812 C 386.835938 335.359375 387.183594 335.460938 387.332031 335.738281 L 393.484375 347.109375 C 393.632812 347.386719 393.53125 347.734375 393.253906 347.882812 C 393.167969 347.929688 393.078125 347.949219 392.984375 347.949219 " fill-opacity="1" fill-rule="nonzero"/><g clip-path="url(#9feab6fc9a)"><path fill="#f18c6d" d="M 276.253906 246.84375 C 272.875 245.035156 269.214844 247.382812 263.4375 249.058594 C 260.71875 249.851562 256.628906 250.75 251.289062 250.847656 C 245.175781 251.433594 242.648438 251.054688 241.3125 250.789062 C 238.09375 250.167969 238.371094 249.578125 233.339844 248.371094 C 229.824219 247.527344 228.023438 247.414062 225.371094 245.949219 C 223.605469 244.976562 224.082031 244.847656 222.023438 243.597656 C 217.75 241.011719 215.476562 241.613281 213.425781 239.054688 C 212.984375 238.5 211.328125 236.4375 211.859375 235.734375 L 211.886719 235.699219 C 212.304688 235.417969 214.054688 234.984375 217.546875 235.714844 C 218.480469 235.914062 220.070312 236.953125 221.242188 237.277344 C 222.285156 237.574219 223.71875 237.871094 224.289062 237.984375 C 225.375 238.207031 225.992188 238.300781 225.992188 238.300781 C 225.992188 238.300781 223.824219 238.035156 221.242188 237.277344 C 218.753906 236.550781 217.882812 235.957031 217.546875 235.714844 C 216.589844 235.019531 215.007812 233.558594 215.367188 232.730469 C 215.402344 232.648438 215.445312 232.582031 215.503906 232.535156 C 215.898438 232.207031 217.660156 231.433594 219.738281 231.742188 C 221.875 232.054688 223.027344 232.875 224.394531 233.484375 C 226.515625 234.4375 228.332031 234.5 231.96875 234.628906 C 238.769531 234.867188 244.910156 232.738281 247.390625 231.78125 C 246.175781 231.160156 244.335938 230.421875 242.035156 230.238281 C 239.652344 230.054688 238.75 230.492188 236.820312 230.214844 C 234.195312 229.835938 231.582031 227.691406 231.753906 226.605469 C 232.226562 223.683594 250.796875 224.695312 254.664062 224.910156 C 256.171875 224.992188 261.4375 225.304688 268.238281 226.367188 C 272.050781 226.96875 273.960938 227.269531 275.714844 227.800781 C 280.839844 229.359375 283.714844 231.898438 290.199219 237.351562 C 302.984375 248.109375 304.222656 248.695312 304.042969 250.558594 C 303.515625 256.042969 291.832031 261.167969 286.539062 258.039062 C 285.90625 257.667969 283.667969 255.082031 279.21875 249.925781 C 277.054688 247.414062 276.867188 247.171875 276.253906 246.84375 " fill-opacity="1" fill-rule="nonzero"/></g><path fill="#ea5b29" d="M 224.449219 245.324219 C 223.160156 244.476562 221.910156 243.570312 220.714844 242.582031 C 220.113281 242.085938 219.535156 241.566406 218.984375 240.992188 C 218.714844 240.707031 218.445312 240.40625 218.214844 240.054688 C 218.097656 239.875 217.984375 239.691406 217.902344 239.472656 C 217.816406 239.25 217.734375 238.980469 217.8125 238.640625 C 217.859375 238.476562 217.945312 238.3125 218.070312 238.1875 C 218.195312 238.066406 218.328125 237.988281 218.453125 237.9375 C 218.707031 237.828125 218.933594 237.796875 219.144531 237.769531 C 219.355469 237.742188 219.550781 237.742188 219.753906 237.730469 C 219.953125 237.722656 220.15625 237.714844 220.359375 237.722656 C 221.164062 237.746094 221.976562 237.847656 222.753906 238.035156 C 223.535156 238.222656 224.28125 238.496094 225.007812 238.769531 L 227.15625 239.601562 C 228.578125 240.15625 230.015625 240.636719 231.472656 241.011719 C 232.933594 241.390625 234.414062 241.613281 235.914062 241.660156 C 236.671875 241.6875 237.417969 241.667969 238.160156 241.585938 C 238.902344 241.503906 239.636719 241.34375 240.355469 241.128906 C 241.800781 240.691406 243.171875 240 244.464844 239.15625 C 243.328125 240.203125 242 241.0625 240.542969 241.652344 C 239.8125 241.953125 239.050781 242.175781 238.273438 242.324219 C 237.492188 242.476562 236.695312 242.523438 235.914062 242.550781 C 234.339844 242.605469 232.753906 242.40625 231.21875 242.0625 C 229.6875 241.714844 228.199219 241.21875 226.75 240.664062 C 225.300781 240.105469 223.902344 239.46875 222.484375 239.074219 C 221.773438 238.878906 221.054688 238.765625 220.328125 238.714844 C 220.144531 238.707031 219.957031 238.707031 219.777344 238.707031 C 219.597656 238.707031 219.40625 238.707031 219.234375 238.714844 C 219.0625 238.730469 218.90625 238.75 218.796875 238.789062 L 218.695312 238.839844 L 218.664062 238.875 C 218.644531 238.910156 218.652344 239.035156 218.699219 239.175781 C 218.746094 239.3125 218.824219 239.46875 218.90625 239.617188 C 219.085938 239.917969 219.308594 240.214844 219.542969 240.503906 C 220.015625 241.082031 220.546875 241.628906 221.085938 242.171875 C 222.167969 243.25 223.316406 244.277344 224.449219 245.324219 " fill-opacity="1" fill-rule="nonzero"/><path fill="#f18c6d" d="M 251.128906 242.066406 C 249.761719 242.839844 247.539062 243.859375 244.679688 244.089844 C 241.808594 244.324219 239.5625 243.664062 238.347656 243.296875 C 233.722656 241.882812 231.523438 239.367188 227.628906 239.585938 C 227.117188 239.613281 226.652344 239.683594 226.472656 240 C 225.835938 241.148438 229.414062 244.582031 232.644531 246.683594 C 233.324219 247.125 233.914062 247.457031 234.316406 247.675781 L 251.128906 242.066406 " fill-opacity="1" fill-rule="nonzero"/><path fill="#ea5b29" d="M 251.128906 242.066406 C 249.847656 242.964844 248.402344 243.648438 246.875 244.089844 C 245.34375 244.527344 243.726562 244.695312 242.117188 244.613281 C 240.503906 244.53125 238.925781 244.15625 237.414062 243.664062 C 235.886719 243.171875 234.445312 242.453125 233.066406 241.765625 C 231.683594 241.074219 230.335938 240.449219 228.917969 240.261719 L 228.382812 240.214844 C 228.203125 240.203125 228.023438 240.210938 227.847656 240.203125 C 227.664062 240.199219 227.480469 240.207031 227.328125 240.222656 C 227.171875 240.238281 227.039062 240.277344 227 240.296875 L 226.992188 240.292969 L 226.992188 240.285156 L 226.988281 240.300781 C 226.980469 240.355469 226.996094 240.480469 227.050781 240.621094 C 227.152344 240.902344 227.335938 241.21875 227.539062 241.511719 C 227.957031 242.117188 228.46875 242.679688 228.992188 243.234375 C 229.515625 243.785156 230.078125 244.3125 230.652344 244.824219 C 231.796875 245.855469 233.019531 246.804688 234.316406 247.675781 C 232.875 247.070312 231.511719 246.265625 230.234375 245.347656 C 228.953125 244.429688 227.714844 243.4375 226.6875 242.152344 C 226.425781 241.828125 226.179688 241.484375 225.988281 241.046875 C 225.890625 240.828125 225.808594 240.566406 225.816406 240.226562 C 225.820312 240.144531 225.839844 240.050781 225.859375 239.960938 C 225.886719 239.871094 225.921875 239.773438 225.976562 239.683594 C 226.074219 239.503906 226.230469 239.367188 226.375 239.277344 C 226.675781 239.097656 226.929688 239.050781 227.160156 239.015625 C 227.390625 238.976562 227.597656 238.964844 227.804688 238.960938 C 228.011719 238.953125 228.222656 238.941406 228.429688 238.945312 L 229.0625 238.980469 C 229.898438 239.058594 230.714844 239.277344 231.484375 239.5625 C 232.253906 239.84375 232.976562 240.1875 233.675781 240.542969 C 235.070312 241.25 236.417969 241.933594 237.835938 242.449219 C 238.539062 242.703125 239.273438 242.945312 240 243.128906 C 240.730469 243.316406 241.464844 243.464844 242.210938 243.554688 C 243.699219 243.738281 245.222656 243.695312 246.726562 243.4375 C 248.230469 243.179688 249.703125 242.699219 251.128906 242.066406 " fill-opacity="1" fill-rule="nonzero"/><path fill="#fb4e77" d="M 374.644531 304.707031 C 373.296875 315.199219 363.484375 324.863281 353.191406 327.300781 C 321.101562 334.894531 281.582031 272.980469 288.605469 263.929688 C 289.84375 262.332031 292.109375 262.917969 295.597656 259.929688 C 301.640625 254.75 299.960938 248.601562 303.191406 245.761719 C 310.105469 239.6875 334.164062 253.464844 352.261719 270.296875 C 365.960938 283.03125 376.210938 292.558594 374.644531 304.707031 " fill-opacity="1" fill-rule="nonzero"/><path fill="#ef3369" d="M 282.121094 254.035156 C 282.140625 253.085938 282.824219 252.285156 283.757812 252.121094 C 286.070312 251.710938 290.4375 250.367188 292.871094 246.019531 C 293.792969 244.375 294.191406 242.738281 294.347656 241.375 C 294.5 240 295.980469 239.21875 297.210938 239.84375 C 299.71875 241.125 302.757812 243.035156 305.78125 245.875 C 308.816406 248.734375 310.625 250.4375 311.113281 253.066406 C 312.335938 259.703125 304.898438 271.03125 295.464844 270.585938 C 288.242188 270.25 281.929688 263.101562 282.121094 254.035156 " fill-opacity="1" fill-rule="nonzero"/><path fill="#ef3369" d="M 374.109375 262.085938 C 372.644531 267.109375 370.671875 274.324219 368.734375 283.105469 C 363.257812 307.925781 364.644531 315.46875 359.421875 320.105469 C 354.296875 324.65625 343.230469 326.023438 317.691406 313.769531 C 319.40625 315.289062 321.160156 316.726562 322.941406 318.0625 C 326.492188 320.382812 329.945312 322.5 333.265625 324.394531 C 339.917969 327.527344 346.703125 328.832031 353.191406 327.300781 C 361.261719 325.386719 369.03125 319.039062 372.664062 311.328125 C 373.507812 312.226562 374.234375 313.25 374.867188 314.394531 C 375.128906 307.007812 373.949219 301.542969 373.433594 298.785156 C 371.949219 290.820312 371.03125 278.847656 374.109375 262.085938 " fill-opacity="1" fill-rule="nonzero"/><path fill="#ef3369" d="M 364.976562 276.582031 L 354.1875 271.523438 C 351.882812 269.546875 349.496094 267.554688 347.011719 265.558594 C 343.320312 262.59375 339.6875 259.816406 336.136719 257.222656 L 335.960938 257.730469 C 339.304688 260.542969 350.976562 270.246094 353.457031 272.289062 L 357.863281 282.921875 C 357.902344 282.945312 358.140625 283.070312 358.414062 282.972656 C 358.738281 282.859375 358.835938 282.550781 358.84375 282.519531 L 354.910156 273.035156 L 364.527344 277.539062 C 364.558594 277.535156 364.851562 277.476562 364.992188 277.1875 C 365.144531 276.886719 364.992188 276.605469 364.976562 276.582031 " fill-opacity="1" fill-rule="nonzero"/><g clip-path="url(#faa59042b0)"><path fill="#f18c6d" d="M 569.523438 236.039062 C 572.414062 233.523438 576.507812 234.996094 582.511719 235.34375 C 585.335938 235.503906 589.523438 235.46875 594.75 234.375 C 600.84375 233.582031 603.21875 232.648438 604.464844 232.089844 C 607.460938 230.765625 607.0625 230.253906 611.695312 227.953125 C 614.933594 226.347656 616.664062 225.832031 618.925781 223.8125 C 620.425781 222.472656 619.9375 222.453125 621.664062 220.78125 C 625.25 217.304688 627.597656 217.382812 629.03125 214.429688 C 629.339844 213.789062 630.488281 211.417969 629.816406 210.84375 L 629.785156 210.816406 C 629.3125 210.636719 627.507812 210.605469 624.269531 212.09375 C 623.398438 212.496094 622.082031 213.859375 621.015625 214.445312 C 620.0625 214.960938 618.734375 215.570312 618.199219 215.8125 C 617.1875 216.269531 616.609375 216.5 616.609375 216.5 C 616.609375 216.5 618.664062 215.753906 621.015625 214.445312 C 623.277344 213.179688 623.996094 212.40625 624.269531 212.09375 C 625.042969 211.199219 626.261719 209.425781 625.726562 208.703125 L 625.546875 208.539062 C 625.089844 208.308594 623.203125 207.941406 621.246094 208.710938 C 619.234375 209.492188 618.289062 210.546875 617.097656 211.453125 C 615.242188 212.851562 613.480469 213.316406 609.96875 214.25 C 603.390625 216 596.929688 215.296875 594.296875 214.917969 C 595.347656 214.042969 596.972656 212.910156 599.175781 212.222656 C 601.453125 211.507812 602.433594 211.730469 604.253906 211.03125 C 606.730469 210.078125 608.796875 207.40625 608.382812 206.386719 C 607.273438 203.640625 589.398438 208.773438 585.671875 209.839844 C 584.226562 210.257812 579.15625 211.738281 572.769531 214.292969 C 569.183594 215.730469 567.390625 216.449219 565.796875 217.359375 C 561.152344 220.019531 558.914062 223.136719 553.8125 229.898438 C 543.746094 243.238281 542.671875 244.085938 543.261719 245.863281 C 545 251.089844 557.53125 253.480469 561.996094 249.25 C 562.53125 248.742188 564.132812 245.722656 567.320312 239.703125 C 568.871094 236.773438 569.003906 236.5 569.523438 236.039062 " fill-opacity="1" fill-rule="nonzero"/></g><path fill="#ea5b29" d="M 619.679688 223 C 620.554688 221.730469 621.445312 220.472656 622.257812 219.175781 C 622.664062 218.53125 623.0625 217.878906 623.386719 217.207031 C 623.550781 216.875 623.707031 216.535156 623.808594 216.203125 C 623.863281 216.035156 623.902344 215.871094 623.917969 215.722656 C 623.929688 215.578125 623.910156 215.453125 623.882812 215.421875 L 623.84375 215.394531 L 623.730469 215.367188 C 623.621094 215.355469 623.460938 215.371094 623.292969 215.398438 C 623.125 215.425781 622.9375 215.46875 622.761719 215.507812 C 622.582031 215.546875 622.40625 215.589844 622.226562 215.640625 C 621.527344 215.851562 620.851562 216.121094 620.207031 216.472656 C 618.910156 217.171875 617.691406 218.109375 616.398438 218.96875 C 615.109375 219.835938 613.769531 220.652344 612.351562 221.328125 C 610.9375 222.011719 609.4375 222.558594 607.886719 222.855469 C 607.125 223.003906 606.332031 223.136719 605.539062 223.160156 C 604.746094 223.1875 603.953125 223.144531 603.179688 223.015625 C 601.625 222.761719 600.136719 222.21875 598.796875 221.453125 C 600.238281 221.988281 601.738281 222.359375 603.242188 222.460938 C 603.992188 222.511719 604.742188 222.503906 605.484375 222.417969 C 606.226562 222.332031 606.953125 222.183594 607.6875 221.988281 C 609.140625 221.605469 610.535156 221.058594 611.875 220.363281 C 613.210938 219.671875 614.507812 218.882812 615.761719 218.027344 L 617.675781 216.734375 C 618.324219 216.304688 618.988281 215.875 619.707031 215.519531 C 620.429688 215.164062 621.195312 214.882812 621.976562 214.675781 C 622.171875 214.628906 622.371094 214.589844 622.566406 214.554688 C 622.765625 214.515625 622.957031 214.476562 623.167969 214.453125 C 623.382812 214.4375 623.609375 214.414062 623.878906 214.464844 C 624.011719 214.484375 624.160156 214.53125 624.308594 214.625 C 624.460938 214.710938 624.578125 214.855469 624.664062 215.007812 C 624.8125 215.324219 624.792969 215.601562 624.761719 215.832031 C 624.730469 216.070312 624.65625 216.273438 624.582031 216.472656 C 624.433594 216.867188 624.246094 217.222656 624.039062 217.5625 C 623.636719 218.242188 623.1875 218.878906 622.714844 219.496094 C 621.769531 220.726562 620.75 221.886719 619.679688 223 " fill-opacity="1" fill-rule="nonzero"/><path fill="#f18c6d" d="M 592.949219 225.777344 C 594.457031 226.226562 596.851562 226.726562 599.691406 226.316406 C 602.539062 225.898438 604.578125 224.757812 605.679688 224.125 C 609.875 221.714844 611.460938 218.773438 615.300781 218.117188 C 615.808594 218.03125 616.277344 217.996094 616.523438 218.265625 C 617.402344 219.238281 614.675781 223.382812 612 226.152344 C 611.429688 226.738281 610.933594 227.191406 610.589844 227.492188 L 592.949219 225.777344 " fill-opacity="1" fill-rule="nonzero"/><path fill="#ea5b29" d="M 592.949219 225.777344 C 594.480469 226.078125 596.023438 226.214844 597.546875 226.128906 C 599.070312 226.050781 600.5625 225.746094 601.976562 225.238281 C 602.679688 224.984375 603.367188 224.675781 604.035156 224.332031 C 604.699219 223.992188 605.363281 223.589844 605.992188 223.1875 C 607.261719 222.371094 608.421875 221.398438 609.625 220.398438 C 610.222656 219.898438 610.855469 219.402344 611.539062 218.953125 C 612.226562 218.503906 612.972656 218.113281 613.773438 217.84375 L 614.378906 217.671875 C 614.582031 217.621094 614.789062 217.585938 614.992188 217.546875 C 615.195312 217.503906 615.402344 217.46875 615.632812 217.457031 C 615.867188 217.441406 616.125 217.425781 616.453125 217.535156 C 616.613281 217.589844 616.800781 217.691406 616.9375 217.84375 C 617.003906 217.921875 617.066406 218.003906 617.109375 218.085938 L 617.214844 218.339844 C 617.296875 218.667969 617.273438 218.9375 617.230469 219.171875 C 617.144531 219.644531 616.972656 220.035156 616.796875 220.40625 C 616.078125 221.894531 615.09375 223.132812 614.050781 224.3125 C 613.007812 225.496094 611.859375 226.585938 610.589844 227.492188 C 611.65625 226.359375 612.636719 225.160156 613.523438 223.898438 C 613.96875 223.269531 614.402344 222.632812 614.789062 221.976562 C 615.175781 221.320312 615.550781 220.65625 615.820312 219.972656 C 615.949219 219.640625 616.0625 219.292969 616.097656 218.996094 C 616.117188 218.851562 616.105469 218.722656 616.089844 218.671875 L 616.082031 218.65625 L 616.082031 218.664062 L 616.074219 218.671875 C 616.03125 218.660156 615.894531 218.652344 615.742188 218.671875 C 615.585938 218.691406 615.40625 218.722656 615.230469 218.769531 C 615.058594 218.8125 614.878906 218.847656 614.710938 218.898438 L 614.199219 219.066406 C 612.855469 219.5625 611.683594 220.476562 610.492188 221.453125 C 609.296875 222.433594 608.054688 223.457031 606.675781 224.277344 C 605.308594 225.089844 603.855469 225.808594 602.300781 226.25 C 600.75 226.691406 599.136719 226.886719 597.546875 226.800781 C 595.957031 226.710938 594.394531 226.367188 592.949219 225.777344 " fill-opacity="1" fill-rule="nonzero"/><path fill="#ef3369" d="M 564.90625 242.695312 C 564.507812 242.773438 557.699219 243.984375 553.140625 238.941406 C 551.90625 237.582031 551.160156 236.117188 550.699219 234.839844 C 550.214844 233.496094 548.546875 233.039062 547.453125 233.960938 C 545.3125 235.765625 542.8125 238.285156 540.527344 241.6875 C 538.203125 245.144531 536.816406 247.210938 536.929688 249.882812 C 537.214844 256.628906 546.992188 266.007812 556.089844 263.472656 C 563.496094 261.40625 568.179688 252.074219 564.90625 242.695312 " fill-opacity="1" fill-rule="nonzero"/></svg>