<svg xmlns="http://www.w3.org/2000/svg" xmlns:xlink="http://www.w3.org/1999/xlink" width="1920" zoomAndPan="magnify" viewBox="0 0 1440 540.000001" height="720" preserveAspectRatio="xMidYMid meet" version="1.0"><defs><clipPath id="893b728bad"><path d="M 1.332031 192 L 1438.667969 192 L 1438.667969 539 L 1.332031 539 Z M 1.332031 192 " clip-rule="nonzero"/></clipPath><clipPath id="c8efa57682"><path d="M -61.15625 295.550781 L 1461.683594 131.355469 L 1538.886719 847.371094 L 16.046875 1011.566406 Z M -61.15625 295.550781 " clip-rule="nonzero"/></clipPath><clipPath id="ec3b795657"><path d="M -61.15625 295.550781 L 1461.683594 131.355469 L 1538.886719 847.371094 L 16.046875 1011.566406 Z M -61.15625 295.550781 " clip-rule="nonzero"/></clipPath></defs><g clip-path="url(#893b728bad)"><g clip-path="url(#c8efa57682)"><g clip-path="url(#ec3b795657)"><path fill="#977aad" d="M -56.695312 313.304688 L 18.597656 1011.628906 L 1535.992188 848.019531 L 1465.316406 192.554688 C 1447.238281 207.949219 1431.5 224.015625 1418.90625 240.414062 C 1231.464844 485.40625 848.9375 469.765625 591.195312 378.230469 C 397.292969 309.3125 157.582031 272.050781 -56.695312 313.304688 Z M -56.695312 313.304688 " fill-opacity="1" fill-rule="evenodd"/></g></g></g></svg>