<svg xmlns="http://www.w3.org/2000/svg" xmlns:xlink="http://www.w3.org/1999/xlink" width="400" zoomAndPan="magnify" viewBox="0 0 300 299.999988" height="400" preserveAspectRatio="xMidYMid meet" version="1.0"><defs><clipPath id="0334cd305c"><path d="M 80 175 L 139 175 L 139 253.523438 L 80 253.523438 Z M 80 175 " clip-rule="nonzero"/></clipPath><clipPath id="86ae7dcf0d"><path d="M 231 95 L 249.777344 95 L 249.777344 121 L 231 121 Z M 231 95 " clip-rule="nonzero"/></clipPath><clipPath id="f5615dd7f2"><path d="M 50.277344 129 L 66 129 L 66 150 L 50.277344 150 Z M 50.277344 129 " clip-rule="nonzero"/></clipPath><clipPath id="9ab6eebce9"><path d="M 98 46.523438 L 120 46.523438 L 120 75 L 98 75 Z M 98 46.523438 " clip-rule="nonzero"/></clipPath></defs><path fill="#cb6ce6" d="M 189.007812 120.203125 L 177.21875 123.1875 C 166.441406 125.914062 158.019531 136.214844 155.789062 149.398438 L 153.351562 163.816406 L 150.910156 149.398438 C 148.679688 136.214844 140.257812 125.914062 129.480469 123.1875 L 117.691406 120.203125 L 129.480469 117.21875 C 140.257812 114.492188 148.679688 104.191406 150.910156 91.007812 L 153.351562 76.589844 L 155.789062 91.007812 C 158.019531 104.191406 166.441406 114.492188 177.21875 117.21875 Z M 189.007812 120.203125 " fill-opacity="1" fill-rule="nonzero"/><path fill="#cb6ce6" d="M 246.558594 180.863281 L 237.582031 182.722656 C 229.371094 184.421875 222.957031 190.835938 221.257812 199.046875 L 219.402344 208.023438 L 217.542969 199.046875 C 215.84375 190.835938 209.429688 184.421875 201.222656 182.722656 L 192.242188 180.863281 L 201.222656 179.007812 C 209.429688 177.308594 215.84375 170.894531 217.542969 162.683594 L 219.402344 153.707031 L 221.257812 162.683594 C 222.957031 170.894531 229.371094 177.308594 237.582031 179.007812 Z M 246.558594 180.863281 " fill-opacity="1" fill-rule="nonzero"/><g clip-path="url(#0334cd305c)"><path fill="#cb6ce6" d="M 138.277344 217.628906 L 123.84375 219.183594 C 116.980469 220.601562 111.617188 225.964844 110.195312 232.828125 L 108.644531 253.472656 L 107.089844 232.828125 C 105.667969 225.964844 100.304688 220.601562 93.441406 219.183594 L 80.144531 217.628906 L 93.441406 216.074219 C 100.304688 214.65625 105.667969 209.292969 107.089844 202.425781 L 108.644531 175.402344 L 110.195312 202.425781 C 111.617188 209.292969 116.980469 214.65625 123.84375 216.074219 Z M 138.277344 217.628906 " fill-opacity="1" fill-rule="nonzero"/></g><g clip-path="url(#86ae7dcf0d)"><path fill="#cb6ce6" d="M 249.773438 107.804688 L 246.734375 108.652344 C 243.953125 109.425781 241.78125 112.355469 241.207031 116.101562 L 240.578125 120.203125 L 239.949219 116.101562 C 239.375 112.355469 237.203125 109.425781 234.421875 108.652344 L 231.382812 107.804688 L 234.421875 106.957031 C 237.203125 106.179688 239.375 103.25 239.949219 99.503906 L 240.578125 95.40625 L 241.207031 99.503906 C 241.78125 103.25 243.953125 106.179688 246.734375 106.957031 Z M 249.773438 107.804688 " fill-opacity="1" fill-rule="nonzero"/></g><g clip-path="url(#f5615dd7f2)"><path fill="#cb6ce6" d="M 65.335938 139.433594 L 62.84375 140.128906 C 60.570312 140.765625 58.792969 143.164062 58.320312 146.230469 L 57.804688 149.585938 L 57.289062 146.230469 C 56.820312 143.164062 55.039062 140.765625 52.765625 140.128906 L 50.277344 139.433594 L 52.765625 138.742188 C 55.039062 138.105469 56.820312 135.707031 57.289062 132.640625 L 57.804688 129.28125 L 58.320312 132.640625 C 58.792969 135.707031 60.570312 138.105469 62.84375 138.742188 Z M 65.335938 139.433594 " fill-opacity="1" fill-rule="nonzero"/></g><g clip-path="url(#9ab6eebce9)"><path fill="#cb6ce6" d="M 119.582031 60.527344 L 116.152344 61.484375 C 113.019531 62.359375 110.570312 65.660156 109.921875 69.886719 L 109.210938 74.511719 L 108.5 69.886719 C 107.851562 65.660156 105.402344 62.359375 102.269531 61.484375 L 98.839844 60.527344 L 102.269531 59.570312 C 105.402344 58.695312 107.851562 55.394531 108.5 51.167969 L 109.210938 46.546875 L 109.921875 51.167969 C 110.570312 55.394531 113.019531 58.695312 116.152344 59.570312 Z M 119.582031 60.527344 " fill-opacity="1" fill-rule="nonzero"/></g><path fill="#cb6ce6" d="M 213.386719 67.332031 L 211.71875 67.796875 C 210.191406 68.222656 209 69.832031 208.683594 71.886719 L 208.339844 74.136719 L 207.996094 71.886719 C 207.679688 69.832031 206.488281 68.222656 204.960938 67.796875 L 203.292969 67.332031 L 204.960938 66.867188 C 206.488281 66.441406 207.679688 64.835938 207.996094 62.777344 L 208.339844 60.527344 L 208.683594 62.777344 C 209 64.835938 210.191406 66.441406 211.71875 66.867188 Z M 213.386719 67.332031 " fill-opacity="1" fill-rule="nonzero"/></svg>