<svg xmlns="http://www.w3.org/2000/svg" xmlns:xlink="http://www.w3.org/1999/xlink" width="400"
    zoomAndPan="magnify" viewBox="0 0 300 299.999988" height="400"
    preserveAspectRatio="xMidYMid meet" version="1.0">
    <path fill="#cb6ce6"
        d="M 64.46875 148.269531 C 63.839844 150.5625 63.011719 152.824219 62.46875 155.140625 C 61.292969 159.351562 60.207031 163.585938 58.949219 167.765625 C 58.121094 170.429688 57.433594 173.148438 56.832031 175.867188 L 56.460938 176.613281 L 56.203125 177.527344 C 55.714844 179.761719 55.058594 181.9375 54.457031 184.113281 L 53.828125 185.199219 C 54.257812 186.058594 53.515625 186.917969 53.3125 187.777344 C 53.113281 188.636719 52.625 189.667969 52.570312 190.667969 C 52.054688 193.589844 50.769531 196.59375 51.941406 199.515625 C 52.027344 200.128906 52.21875 200.710938 52.511719 201.261719 C 52.78125 201.835938 53.125 202.359375 53.542969 202.835938 C 55.402344 204.550781 57.949219 205.839844 60.550781 205.382812 C 64.414062 204.09375 66.328125 200.058594 67.273438 196.367188 C 67.53125 194.847656 68.132812 193.445312 68.589844 191.984375 C 69.359375 188.808594 70.449219 185.746094 71.304688 182.59375 L 71.421875 182.394531 C 71.734375 180.734375 72.449219 179.21875 72.851562 177.585938 C 73.109375 176.613281 73.28125 175.609375 73.710938 174.695312 C 74.195312 172.402344 75.082031 170.257812 75.65625 167.996094 C 76.339844 166.449219 76.511719 164.730469 77.085938 163.15625 C 77.65625 161.582031 77.855469 160.496094 78.285156 159.179688 L 78.484375 158.546875 C 78.765625 157.726562 78.964844 156.886719 79.085938 156.03125 C 79.5 154.894531 79.855469 153.738281 80.144531 152.566406 L 80.574219 151.507812 C 80.917969 150.132812 81.203125 148.730469 81.605469 147.355469 C 82.003906 145.980469 82.289062 144.894531 82.777344 143.691406 C 83.207031 141.917969 84.09375 140.3125 84.4375 138.539062 C 85.292969 136.332031 85.550781 133.929688 86.382812 131.695312 C 87.183594 128.519531 88.46875 125.457031 89.097656 122.25 C 89.726562 119.042969 90.902344 116.324219 91.703125 113.316406 C 92.332031 111.714844 92.617188 109.996094 93.304688 108.394531 C 93.992188 105.558594 94.820312 102.753906 95.707031 99.949219 C 96.507812 96.628906 97.710938 93.449219 98.511719 90.128906 C 98.972656 88.738281 99.351562 87.328125 99.65625 85.894531 C 100.199219 84.71875 100.457031 83.460938 100.742188 82.199219 C 101.628906 79.539062 102.371094 76.847656 103.085938 74.125 C 104.117188 70.863281 104.945312 67.542969 106.035156 64.308594 C 106.578125 61.960938 107.492188 59.671875 107.234375 57.238281 C 106.605469 55.230469 105.539062 53.492188 104.03125 52.027344 C 102.628906 50.9375 100.914062 50.421875 99.226562 50.078125 C 98.136719 50.308594 96.992188 50.195312 95.9375 50.625 C 93.304688 51.339844 91.617188 53.6875 90.445312 55.976562 C 90.15625 56.777344 89.984375 57.636719 89.671875 58.410156 L 89.355469 59.269531 C 89.011719 61.730469 88.039062 64.050781 87.46875 66.453125 C 86.839844 68.058594 86.726562 69.804688 86.007812 71.351562 C 85.238281 74.183594 84.523438 77.046875 83.605469 79.851562 C 82.691406 83.515625 81.460938 87.09375 80.515625 90.730469 C 79.574219 94.367188 78.457031 97.832031 77.515625 101.410156 C 77.3125 102.582031 76.683594 103.640625 76.570312 104.816406 C 75.710938 107.449219 75.109375 110.195312 74.253906 112.832031 C 73.796875 114.71875 73.308594 116.636719 72.738281 118.5 C 72.164062 120.359375 71.90625 121.992188 71.421875 123.738281 C 70.933594 125.484375 70.621094 127.171875 69.960938 128.832031 C 69.019531 132.296875 67.816406 135.675781 66.957031 139.167969 C 66.070312 142.203125 65.472656 145.292969 64.46875 148.269531 Z M 64.46875 148.269531 "
        fill-opacity="1" fill-rule="nonzero" />
    <path fill="#cb6ce6"
        d="M 259.902344 108.191406 C 258.5 106.359375 256.839844 104.730469 255.582031 102.8125 C 252.320312 99.117188 249.375 95.167969 246.113281 91.476562 C 245.34375 90.359375 244.3125 89.414062 243.625 88.238281 C 241.394531 85.863281 239.507812 83.203125 237.332031 80.769531 C 235.160156 78.335938 233.785156 76.359375 231.8125 74.296875 C 229.378906 71.121094 226.691406 68.171875 224.230469 65.050781 C 222.199219 66.855469 220.082031 68.542969 217.964844 70.261719 C 217.078125 71.207031 215.90625 71.808594 214.992188 72.722656 C 214.078125 73.640625 212.53125 74.671875 211.332031 75.671875 C 210.742188 76.023438 210.207031 76.441406 209.726562 76.933594 C 208.355469 78.449219 206.351562 79.222656 205.007812 80.769531 C 203.175781 82.515625 201.03125 83.859375 199.117188 85.464844 C 197.65625 86.867188 195.882812 87.925781 194.511719 89.414062 C 192.652344 90.757812 190.878906 92.277344 189.046875 93.652344 C 187.703125 94.996094 185.984375 95.941406 184.667969 97.34375 C 183.441406 98.058594 182.554688 99.203125 181.351562 100.007812 C 180.148438 100.808594 178.804688 101.722656 177.949219 103.011719 C 178.460938 104.300781 179.148438 105.589844 179.148438 107.019531 C 179.292969 109.109375 178.460938 111.140625 177.316406 112.859375 C 176.175781 114.578125 174.371094 115.695312 172.941406 117.097656 C 171.511719 118.5 169.625 119.902344 168.078125 121.417969 C 167.421875 122.105469 166.707031 122.734375 165.992188 123.367188 C 162.84375 126.226562 159.695312 129.121094 156.464844 131.867188 C 155.691406 132.820312 154.804688 133.648438 153.804688 134.359375 C 152.546875 135.589844 151.289062 136.792969 150 137.964844 C 149.226562 138.539062 148.371094 138.996094 147.824219 139.796875 C 147.28125 140.597656 145.9375 141.515625 145.023438 142.429688 C 143.734375 143.835938 141.992188 144.75 140.847656 146.296875 C 138.644531 148.386719 136.242188 150.246094 134.09375 152.394531 C 132.78125 153.367188 131.691406 154.625 130.433594 155.65625 C 129.175781 156.6875 127.917969 157.890625 126.6875 159.0625 C 126 159.808594 125.171875 160.410156 124.457031 161.125 C 122.539062 162.84375 120.851562 164.847656 118.675781 166.25 C 119.449219 166.964844 120.449219 167.335938 121.25 167.996094 C 122.050781 168.652344 122.511719 169.226562 123.167969 169.800781 L 123.941406 170.714844 C 124.738281 171.621094 125.339844 172.640625 125.742188 173.777344 C 126.199219 175.296875 126.914062 176.726562 127.257812 178.300781 C 128.058594 180.132812 127.972656 182.167969 127.832031 184.140625 C 124.226562 185.085938 120.792969 186.546875 117.246094 187.605469 C 115.710938 188.230469 114.148438 188.773438 112.554688 189.238281 C 111.894531 189.578125 111.207031 189.855469 110.496094 190.066406 C 108.320312 190.867188 106.089844 191.5 103.945312 192.445312 C 100.226562 193.53125 96.738281 195.191406 93.074219 196.394531 C 90.242188 197.625 87.238281 198.425781 84.464844 199.828125 C 82.777344 200.203125 81.261719 201.058594 79.660156 201.660156 C 76.285156 202.976562 73.023438 204.496094 69.675781 205.898438 C 67.359375 207.015625 64.640625 207.730469 63.066406 209.933594 C 62.382812 211.335938 61.78125 212.855469 61.695312 214.457031 C 61.496094 216.492188 61.207031 218.664062 62.125 220.582031 C 63.039062 222.503906 64.441406 223.273438 65.929688 224.25 C 66.84375 224.535156 67.757812 225.019531 68.761719 224.964844 C 71.992188 225.136719 75.054688 223.90625 78.257812 223.675781 L 81.605469 222.929688 C 84.207031 222.585938 86.726562 221.730469 89.328125 221.414062 C 91.246094 220.984375 93.160156 220.613281 95.078125 220.242188 L 96.507812 219.898438 C 97.851562 219.609375 99.195312 219.324219 100.570312 219.09375 L 101.457031 218.835938 C 102.273438 218.503906 103.121094 218.304688 104.003906 218.238281 C 112.414062 216.492188 120.738281 214.488281 129.117188 212.597656 C 130.664062 212.3125 132.207031 212.082031 133.695312 211.566406 L 135.097656 211.28125 L 137.414062 210.707031 C 139.300781 210.164062 141.273438 209.964844 143.132812 209.246094 C 145.28125 209.074219 147.253906 208.1875 149.371094 207.902344 C 151.488281 207.617188 152.859375 207.070312 154.632812 206.757812 L 155.835938 206.472656 L 156.40625 206.214844 C 158.382812 205.699219 160.414062 205.46875 162.386719 204.953125 C 164.359375 204.4375 165.875 204.382812 167.421875 203.492188 C 168.707031 203.121094 169.910156 202.605469 171.167969 202.175781 C 173.457031 201.203125 175.289062 199.429688 177.234375 197.941406 C 179.175781 196.453125 181.4375 194.246094 183.640625 192.527344 C 185.355469 191.328125 186.871094 189.867188 188.503906 188.578125 C 190.132812 187.289062 192.222656 185.429688 194.195312 183.96875 C 195.507812 182.777344 196.878906 181.660156 198.316406 180.621094 C 199.488281 179.304688 201.261719 178.671875 202.347656 177.242188 C 208.097656 172.605469 213.820312 167.9375 219.453125 163.1875 C 220.339844 162.671875 220.96875 161.839844 221.800781 161.269531 C 224.003906 159.664062 225.804688 157.546875 228.148438 156.144531 C 228.894531 154.796875 230.523438 154.398438 231.496094 153.253906 C 232.46875 152.109375 233.214844 151.878906 234.070312 151.191406 C 236.816406 148.671875 239.792969 146.410156 242.566406 143.921875 C 244.710938 142.460938 246.402344 140.484375 248.546875 139.023438 C 249.777344 137.679688 251.40625 136.761719 252.664062 135.445312 C 253.921875 134.128906 255.324219 133.527344 256.414062 132.296875 C 257.5 131.066406 258.613281 130.722656 259.558594 129.75 C 260.503906 128.777344 261.359375 128.519531 262.105469 127.71875 C 263.535156 126.199219 265.335938 125.054688 266.851562 123.625 C 267.910156 122.734375 269.085938 121.933594 270 120.875 C 266.824219 116.550781 263.191406 112.515625 259.902344 108.191406 Z M 259.902344 108.191406 "
        fill-opacity="1" fill-rule="nonzero" />
    <path fill="#cb6ce6"
        d="M 151.886719 115.75 C 150.972656 116.351562 150.257812 117.238281 149.398438 117.898438 C 147.683594 119.703125 145.566406 121.074219 143.992188 123.023438 C 141.160156 125.253906 138.757812 127.976562 135.953125 130.207031 C 134.808594 131.46875 133.292969 132.324219 132.234375 133.644531 C 130.0625 135.445312 128.175781 137.59375 125.914062 139.3125 C 124.683594 140.769531 123.082031 141.832031 121.765625 143.175781 C 118.878906 145.695312 116.074219 148.328125 113.242188 150.90625 C 109.550781 154.398438 105.632812 157.605469 102 161.152344 C 101.140625 161.699219 100.511719 162.527344 99.710938 163.15625 C 95.820312 166.707031 91.84375 170.199219 87.984375 173.777344 C 86.554688 174.722656 85.550781 176.097656 84.265625 177.183594 C 83.519531 177.761719 82.816406 178.382812 82.148438 179.046875 C 80.546875 180.589844 78.773438 181.964844 77.226562 183.597656 C 76.113281 184.628906 74.769531 185.515625 73.851562 186.773438 C 72.886719 189.574219 72.074219 192.417969 71.421875 195.304688 C 71.078125 196.222656 70.847656 197.195312 70.5625 198.140625 C 69.648438 200.117188 68.847656 202.234375 67.246094 203.78125 C 68.617188 203.492188 69.90625 202.835938 71.132812 202.175781 C 74.996094 200.316406 78.886719 198.285156 82.003906 195.277344 C 83.121094 194.074219 84.578125 193.273438 85.667969 192.042969 C 86.753906 190.8125 87.667969 190.238281 88.640625 189.324219 C 92.386719 185.917969 95.992188 182.394531 99.855469 179.132812 L 106.777344 172.574219 C 108.550781 171 110.351562 169.484375 112.011719 167.765625 C 113.671875 166.050781 115.671875 164.589844 117.332031 162.8125 C 118.761719 161.667969 119.964844 160.296875 121.421875 159.179688 C 123.398438 157.117188 125.65625 155.429688 127.628906 153.367188 C 130.089844 151.25 132.40625 148.957031 134.925781 146.867188 C 136.8125 144.578125 139.53125 143.175781 141.359375 140.828125 C 143.132812 139.253906 144.9375 137.707031 146.652344 136.019531 C 148.113281 134.84375 149.457031 133.5 150.800781 132.210938 C 152.144531 130.921875 153.890625 129.320312 155.578125 128.0625 C 157.066406 126.3125 158.980469 124.96875 160.613281 123.367188 C 162.242188 121.761719 164.1875 120.074219 165.90625 118.355469 C 166.535156 117.839844 167.21875 117.355469 167.734375 116.722656 C 169.101562 115.617188 170.40625 114.441406 171.65625 113.203125 C 172.398438 112.316406 173.515625 111.800781 174.144531 110.796875 C 174.773438 109.796875 175.832031 108.679688 175.6875 107.335938 C 175.542969 105.988281 175.257812 105.558594 175 104.671875 C 174.34375 102.8125 172.457031 101.636719 170.539062 101.410156 L 170.339844 101.292969 C 169.5625 101.421875 168.777344 101.507812 167.992188 101.550781 C 166.132812 102.039062 164.875 103.585938 163.386719 104.699219 C 163.046875 105.203125 162.636719 105.640625 162.15625 106.019531 C 160.8125 107.164062 159.613281 108.421875 158.382812 109.683594 C 157.238281 110.460938 156.257812 111.402344 155.433594 112.515625 C 154.089844 113.402344 153.230469 114.863281 151.886719 115.75 Z M 151.886719 115.75 "
        fill-opacity="1" fill-rule="nonzero" />
    <path fill="#cb6ce6"
        d="M 96.792969 108.191406 C 95.878906 111.886719 94.675781 115.464844 93.675781 119.128906 C 93.292969 120.855469 92.808594 122.554688 92.21875 124.222656 C 90.242188 131.324219 88.097656 138.367188 85.953125 145.410156 C 85.695312 146.46875 85.523438 147.554688 85.179688 148.613281 C 84.734375 149.976562 84.449219 151.367188 84.320312 152.792969 C 86.210938 152.910156 88.097656 152.996094 89.984375 153.195312 C 92.933594 153.367188 95.878906 153.28125 98.824219 153.597656 C 100.710938 153.625 102.601562 153.738281 104.488281 153.597656 C 105.976562 152.773438 107.292969 151.730469 108.4375 150.476562 C 110.125 148.902344 111.953125 147.527344 113.5 145.808594 C 116.246094 143.519531 118.820312 141.027344 121.507812 138.652344 C 124.199219 136.277344 126.601562 134.414062 128.832031 131.925781 C 131.75 129.234375 134.753906 126.628906 137.671875 123.9375 C 138.613281 122.851562 139.875 122.105469 140.816406 121.019531 C 141.761719 119.929688 143.21875 119.042969 144.25 117.871094 C 145.28125 116.695312 147.082031 115.578125 148.253906 114.175781 C 148.96875 113.347656 149.972656 112.800781 150.6875 112 C 151.21875 111.382812 151.808594 110.828125 152.460938 110.339844 C 153.832031 109.339844 154.71875 107.734375 156.320312 107.105469 C 155.34375 106.707031 154.335938 106.441406 153.289062 106.304688 C 150.316406 105.847656 147.398438 105.042969 144.421875 104.527344 C 143.449219 104.414062 142.476562 104.214844 141.503906 104.015625 C 136.726562 103.382812 131.980469 102.554688 127.144531 102.410156 C 126.484375 102.351562 125.828125 102.4375 125.199219 102.179688 C 124.054688 102.179688 122.910156 102.667969 121.796875 102.210938 L 121.164062 102.210938 C 120.222656 102.410156 119.25 102.382812 118.277344 102.496094 C 117.304688 102.609375 116.21875 102.78125 115.214844 103.070312 C 114.757812 103.273438 114.28125 103.417969 113.785156 103.5 C 112.316406 103.707031 110.886719 104.070312 109.496094 104.585938 C 106.375 105.445312 103.289062 106.53125 100.140625 107.21875 C 99.023438 107.679688 97.964844 108.191406 96.792969 108.191406 Z M 96.792969 108.191406 "
        fill-opacity="1" fill-rule="nonzero" />
    <path fill="#cb6ce6"
        d="M 43.960938 194.132812 C 44.332031 195.363281 44.503906 196.621094 44.730469 197.882812 C 45.234375 199.476562 45.625 201.101562 45.90625 202.75 C 46.449219 204.636719 46.933594 206.554688 47.304688 208.503906 C 47.535156 209.160156 47.765625 209.847656 47.964844 210.507812 C 48.25 209.160156 48.59375 207.84375 48.824219 206.5 C 48.925781 205.417969 49.144531 204.355469 49.480469 203.320312 C 48.679688 201.03125 47.820312 198.65625 48.019531 196.164062 C 48.222656 193.675781 48.851562 190.984375 49.335938 188.40625 C 49.824219 185.832031 50.824219 184.027344 51.339844 181.792969 C 52.167969 178.472656 53.257812 175.210938 53.972656 171.859375 C 54.457031 170.113281 55.144531 168.425781 55.515625 166.679688 C 56.261719 163.359375 57.632812 160.210938 58.320312 156.859375 C 59.007812 153.511719 60.320312 150.875 60.78125 147.785156 C 61.351562 146.011719 61.867188 144.207031 62.382812 142.429688 C 62.753906 141.257812 62.78125 140 63.324219 138.910156 C 64.15625 136.363281 64.925781 133.757812 65.585938 131.179688 C 66.15625 130.152344 66.242188 128.949219 66.558594 127.804688 C 67.074219 126.085938 67.414062 124.339844 67.988281 122.648438 C 68.558594 120.960938 68.789062 119.128906 69.359375 117.410156 C 69.621094 116.898438 69.773438 116.355469 69.820312 115.78125 C 65.929688 116.695312 62.210938 118.242188 58.261719 118.871094 C 53.34375 120.132812 48.449219 121.503906 43.558594 122.820312 C 42.015625 123.367188 40.355469 123.710938 38.894531 124.480469 C 36.671875 125.828125 34.742188 127.515625 33.117188 129.550781 C 32.515625 130.550781 32.03125 131.582031 31.289062 132.496094 C 30.542969 133.414062 30.429688 135.273438 30.230469 136.675781 C 30 137.507812 30.113281 138.394531 30.144531 139.226562 C 30.289062 139.789062 30.386719 140.363281 30.429688 140.941406 C 30.859375 143.175781 31.574219 145.324219 32.175781 147.527344 C 32.667969 148.9375 33.046875 150.378906 33.316406 151.851562 C 34.121094 154.054688 34.578125 156.371094 35.175781 158.632812 C 35.835938 162.441406 37.324219 166.019531 37.953125 169.828125 C 38.726562 171.976562 38.953125 174.238281 39.667969 176.410156 C 40.382812 178.585938 40.667969 180.503906 41.128906 182.539062 C 41.335938 183.675781 41.621094 184.789062 41.984375 185.886719 C 42.15625 186.71875 42.328125 187.546875 42.558594 188.378906 C 43.160156 190.238281 43.386719 192.214844 43.960938 194.132812 Z M 43.960938 194.132812 "
        fill-opacity="1" fill-rule="nonzero" />
    <path fill="#cb6ce6"
        d="M 58.835938 229.832031 C 59.292969 229.535156 59.78125 229.296875 60.292969 229.113281 C 58.492188 227.460938 57.292969 225.445312 56.6875 223.074219 C 56.6875 222.875 56.6875 222.445312 56.71875 222.214844 C 57.347656 218.894531 57.863281 215.546875 58.546875 212.226562 C 58.949219 211.109375 59.089844 209.878906 59.863281 208.902344 C 58.835938 208.644531 57.71875 208.703125 56.71875 208.246094 C 55.714844 207.789062 54.945312 207.84375 54.230469 207.300781 C 53.660156 206.910156 53.070312 206.554688 52.457031 206.242188 C 52.054688 207.359375 51.710938 208.476562 51.3125 209.5625 L 51.109375 210.507812 C 50.394531 211.9375 50.195312 213.511719 49.625 214.972656 C 49.050781 216.433594 48.707031 217.835938 48.25 219.296875 C 48.105469 219.640625 48.105469 220.070312 47.765625 220.296875 C 45.960938 221.671875 43.875 222.558594 42.042969 223.875 C 41.929688 225.707031 42.328125 227.511719 42.386719 229.34375 C 42.84375 233.550781 43.128906 237.761719 42.785156 241.996094 C 42.613281 243.714844 42.359375 245.433594 42.359375 247.179688 C 42.761719 248.257812 43.417969 249.144531 44.332031 249.839844 C 44.875 250.070312 45.476562 249.785156 45.875 249.410156 C 47.820312 247.578125 48.878906 245.003906 50.625 243 C 51.136719 242.089844 51.757812 241.257812 52.484375 240.507812 C 54.058594 237.875 56.230469 235.699219 57.976562 233.179688 C 58.804688 231.890625 60.148438 230.945312 60.695312 229.488281 L 59.664062 229.488281 C 59.398438 229.625 59.121094 229.742188 58.835938 229.832031 Z M 58.835938 229.832031 "
        fill-opacity="1" fill-rule="nonzero" />
</svg>