<svg xmlns="http://www.w3.org/2000/svg" xmlns:xlink="http://www.w3.org/1999/xlink" width="400" zoomAndPan="magnify" viewBox="0 0 300 299.999988" height="400" preserveAspectRatio="xMidYMid meet" version="1.0"><defs><clipPath id="16b9e27252"><path d="M 55 108 L 172 108 L 172 248.664062 L 55 248.664062 Z M 55 108 " clip-rule="nonzero"/></clipPath><clipPath id="adf9dc9c67"><path d="M 152 125 L 245.878906 125 L 245.878906 248.664062 L 152 248.664062 Z M 152 125 " clip-rule="nonzero"/></clipPath><clipPath id="0cebf45c18"><path d="M 160 155 L 245.878906 155 L 245.878906 219 L 160 219 Z M 160 155 " clip-rule="nonzero"/></clipPath></defs><g clip-path="url(#16b9e27252)"><path fill="#cb6ce6" d="M 146.910156 248.660156 L 79.824219 248.660156 C 66.453125 248.660156 53.878906 237.554688 55.253906 223.820312 L 65.082031 119.304688 C 65.652344 113.007812 70.335938 108.316406 76.167969 108.316406 L 150.453125 108.316406 C 156.394531 108.316406 161.082031 113.007812 161.652344 119.304688 L 171.480469 223.820312 C 172.738281 237.554688 160.28125 248.660156 146.910156 248.660156 Z M 76.167969 112.894531 C 72.28125 112.894531 69.878906 116.328125 69.539062 119.761719 L 59.710938 224.277344 C 58.679688 235.265625 68.964844 244.082031 79.824219 244.082031 L 146.910156 244.082031 C 157.652344 244.082031 167.9375 235.265625 166.910156 224.277344 L 157.082031 119.761719 C 156.738281 116.328125 154.453125 112.894531 150.453125 112.894531 Z M 76.167969 112.894531 " fill-opacity="1" fill-rule="evenodd"/></g><path fill="#cb6ce6" d="M 136.507812 112.894531 C 135.253906 112.894531 134.222656 111.863281 134.222656 110.605469 L 134.222656 99.617188 C 134.222656 95.953125 131.253906 92.976562 127.59375 92.976562 L 99.824219 92.976562 C 96.167969 92.976562 93.195312 95.953125 93.195312 99.617188 L 93.195312 110.605469 C 93.195312 113.695312 88.625 113.695312 88.625 110.605469 L 88.625 99.617188 C 88.625 93.433594 93.652344 88.398438 99.824219 88.398438 L 127.59375 88.398438 C 133.765625 88.398438 138.792969 93.433594 138.792969 99.617188 L 138.792969 110.605469 C 138.792969 111.863281 137.765625 112.894531 136.507812 112.894531 Z M 136.507812 112.894531 " fill-opacity="1" fill-rule="evenodd"/><path fill="#cb6ce6" d="M 122.453125 92.976562 C 121.195312 92.976562 120.167969 91.945312 120.167969 90.6875 L 120.167969 69.164062 C 120.167969 66.191406 124.738281 66.191406 124.738281 69.164062 L 124.738281 90.6875 C 124.738281 91.945312 123.710938 92.976562 122.453125 92.976562 Z M 104.964844 92.976562 C 103.710938 92.976562 102.679688 91.945312 102.679688 90.6875 L 102.679688 69.96875 C 102.679688 66.992188 107.253906 66.992188 107.253906 69.96875 L 107.253906 90.6875 C 107.253906 91.945312 106.222656 92.976562 104.964844 92.976562 Z M 104.964844 92.976562 " fill-opacity="1" fill-rule="evenodd"/><path fill="#cb6ce6" d="M 74.679688 80.15625 C 64.964844 80.15625 62.222656 66.992188 70.910156 62.984375 C 92.050781 53.253906 121.421875 51.421875 141.996094 56 C 153.539062 58.519531 149.765625 76.035156 138.109375 73.515625 C 121.082031 69.738281 95.824219 71.339844 78.335938 79.355469 C 77.195312 79.8125 75.9375 80.15625 74.679688 80.15625 Z M 118.453125 58.0625 C 105.308594 58.0625 86.222656 60.925781 72.738281 67.105469 C 67.480469 69.507812 71.253906 77.523438 76.394531 75.117188 C 94.910156 66.761719 121.195312 65.042969 139.136719 69.050781 C 144.738281 70.3125 146.679688 61.726562 140.964844 60.464844 C 133.765625 58.863281 126.222656 58.0625 118.453125 58.0625 Z M 118.453125 58.0625 " fill-opacity="1" fill-rule="evenodd"/><path fill="#cb6ce6" d="M 167.9375 213.171875 L 58.679688 213.171875 C 55.710938 213.171875 55.710938 208.59375 58.679688 208.59375 L 167.9375 208.59375 C 170.910156 208.59375 170.910156 213.171875 167.9375 213.171875 Z M 161.878906 147.921875 L 64.851562 147.921875 C 61.878906 147.921875 61.878906 143.34375 64.851562 143.34375 L 161.878906 143.34375 C 164.851562 143.34375 164.851562 147.921875 161.878906 147.921875 Z M 161.878906 147.921875 " fill-opacity="1" fill-rule="evenodd"/><path fill="#cb6ce6" d="M 143.480469 166.238281 L 83.253906 166.238281 C 80.28125 166.238281 80.28125 161.660156 83.253906 161.660156 L 143.480469 161.660156 C 146.453125 161.660156 146.453125 166.238281 143.480469 166.238281 Z M 143.480469 166.238281 " fill-opacity="1" fill-rule="evenodd"/><path fill="#cb6ce6" d="M 143.480469 180.546875 L 83.253906 180.546875 C 80.28125 180.546875 80.28125 175.96875 83.253906 175.96875 L 143.480469 175.96875 C 146.453125 175.96875 146.453125 180.546875 143.480469 180.546875 Z M 143.480469 180.546875 " fill-opacity="1" fill-rule="evenodd"/><path fill="#cb6ce6" d="M 143.480469 194.742188 L 83.253906 194.742188 C 80.28125 194.742188 80.28125 190.164062 83.253906 190.164062 L 143.480469 190.164062 C 146.453125 190.164062 146.453125 194.742188 143.480469 194.742188 Z M 143.480469 194.742188 " fill-opacity="1" fill-rule="evenodd"/><g clip-path="url(#adf9dc9c67)"><path fill="#cb6ce6" d="M 235.9375 248.660156 L 158.335938 248.660156 C 155.136719 248.660156 150.453125 246.597656 152.507812 243.738281 C 154.109375 241.449219 156.050781 244.082031 158.335938 244.082031 L 235.9375 244.082031 C 238.566406 244.082031 240.625 242.019531 240.625 239.386719 L 240.625 134.414062 C 240.625 131.78125 238.566406 129.722656 235.9375 129.722656 L 160.167969 129.722656 C 157.082031 129.722656 157.082031 125.144531 160.167969 125.144531 L 235.9375 125.144531 C 241.082031 125.144531 245.195312 129.265625 245.195312 134.414062 L 245.195312 239.386719 C 245.195312 244.539062 241.082031 248.660156 235.9375 248.660156 Z M 235.9375 248.660156 " fill-opacity="1" fill-rule="evenodd"/></g><g clip-path="url(#0cebf45c18)"><path fill="#cb6ce6" d="M 242.910156 218.210938 L 168.394531 218.210938 C 165.421875 218.210938 165.421875 213.628906 168.394531 213.628906 L 242.910156 213.628906 C 245.878906 213.628906 245.878906 218.210938 242.910156 218.210938 Z M 242.910156 160.171875 L 163.023438 160.171875 C 159.9375 160.171875 159.9375 155.59375 163.023438 155.59375 L 242.910156 155.59375 C 245.878906 155.59375 245.878906 160.171875 242.910156 160.171875 Z M 242.910156 160.171875 " fill-opacity="1" fill-rule="evenodd"/></g><path fill="#cb6ce6" d="M 218.566406 129.722656 L 175.710938 129.722656 C 174.453125 129.722656 173.421875 128.691406 173.421875 127.433594 L 173.421875 115.871094 C 173.421875 110.261719 177.996094 105.683594 183.59375 105.683594 L 210.566406 105.683594 C 216.28125 105.683594 220.851562 110.261719 220.851562 115.871094 L 220.851562 127.433594 C 220.851562 128.691406 219.824219 129.722656 218.566406 129.722656 Z M 177.996094 125.144531 L 216.28125 125.144531 L 216.28125 115.871094 C 216.28125 112.78125 213.652344 110.261719 210.566406 110.261719 L 183.59375 110.261719 C 180.507812 110.261719 177.996094 112.78125 177.996094 115.871094 Z M 177.996094 125.144531 " fill-opacity="1" fill-rule="evenodd"/><path fill="#cb6ce6" d="M 208.625 110.261719 L 185.652344 110.261719 C 184.394531 110.261719 183.367188 109.230469 183.367188 107.972656 L 183.367188 94.921875 C 183.367188 89.3125 187.9375 84.734375 193.539062 84.734375 L 200.738281 84.734375 C 206.335938 84.734375 210.910156 89.3125 210.910156 94.921875 L 210.910156 107.972656 C 210.910156 109.230469 209.878906 110.261719 208.625 110.261719 Z M 187.9375 105.683594 L 206.335938 105.683594 L 206.335938 94.921875 C 206.335938 91.832031 203.824219 89.3125 200.738281 89.3125 L 193.539062 89.3125 C 190.453125 89.3125 187.9375 91.832031 187.9375 94.921875 Z M 187.9375 105.683594 " fill-opacity="1" fill-rule="evenodd"/><path fill="#cb6ce6" d="M 226.453125 172.765625 L 181.195312 172.765625 C 178.109375 172.765625 178.109375 168.183594 181.195312 168.183594 L 226.453125 168.183594 C 229.539062 168.183594 229.539062 172.765625 226.453125 172.765625 Z M 226.453125 172.765625 " fill-opacity="1" fill-rule="evenodd"/><path fill="#cb6ce6" d="M 226.453125 189.132812 L 181.195312 189.132812 C 178.109375 189.132812 178.109375 184.554688 181.195312 184.554688 L 226.453125 184.554688 C 229.539062 184.554688 229.539062 189.132812 226.453125 189.132812 Z M 226.453125 189.132812 " fill-opacity="1" fill-rule="evenodd"/><path fill="#cb6ce6" d="M 226.453125 205.617188 L 181.195312 205.617188 C 178.109375 205.617188 178.109375 201.039062 181.195312 201.039062 L 226.453125 201.039062 C 229.539062 201.039062 229.539062 205.617188 226.453125 205.617188 Z M 226.453125 205.617188 " fill-opacity="1" fill-rule="evenodd"/></svg>