<svg xmlns="http://www.w3.org/2000/svg" xmlns:xlink="http://www.w3.org/1999/xlink" width="400"
    zoomAndPan="magnify" viewBox="0 0 300 299.999988" height="400"
    preserveAspectRatio="xMidYMid meet" version="1.0">
    <defs>
        <clipPath id="c14b500a76">
            <path
                d="M 30.273438 30 L 269.792969 30 L 269.792969 262 L 30.273438 262 Z M 30.273438 30 "
                clip-rule="nonzero" />
        </clipPath>
    </defs>
    <path fill="#cb6ce6"
        d="M 229.1875 149.726562 C 229.210938 106 193.769531 70.519531 150.042969 70.496094 C 106.3125 70.453125 70.832031 105.894531 70.8125 149.644531 C 70.789062 178.066406 86.011719 204.320312 110.691406 218.433594 C 112.136719 205.46875 112.628906 192.414062 112.179688 179.382812 C 111.945312 170.453125 110.140625 165.308594 103.527344 160.570312 C 96.363281 155.46875 95.003906 151.40625 95.578125 144.816406 L 99.234375 103 C 99.320312 101.746094 100.320312 100.726562 101.574219 100.621094 C 102.976562 100.515625 104.167969 101.578125 104.273438 102.960938 C 104.273438 103.066406 104.273438 103.171875 104.273438 103.300781 L 101.828125 142.308594 C 101.742188 143.691406 102.804688 144.902344 104.1875 144.988281 C 104.25 144.988281 104.292969 144.988281 104.335938 144.988281 L 105.335938 144.988281 C 106.695312 144.988281 107.800781 143.902344 107.867188 142.5625 L 109.355469 103.042969 C 109.394531 101.683594 110.5 100.597656 111.863281 100.597656 L 111.882812 100.597656 C 113.265625 100.597656 114.390625 101.726562 114.390625 103.128906 C 114.390625 103.152344 114.390625 103.152344 114.390625 103.171875 L 113.902344 142.4375 C 113.882812 143.816406 115.007812 144.964844 116.390625 144.988281 C 116.410156 144.988281 116.410156 144.988281 116.433594 144.988281 L 117.433594 144.988281 C 118.8125 144.988281 119.941406 143.859375 119.941406 142.457031 C 119.941406 142.457031 119.941406 142.4375 119.941406 142.4375 L 119.453125 103.171875 C 119.429688 101.769531 120.558594 100.621094 121.9375 100.597656 C 121.960938 100.597656 121.960938 100.597656 121.980469 100.597656 C 123.34375 100.597656 124.449219 101.683594 124.511719 103.042969 L 126 142.5625 C 126.042969 143.902344 127.148438 144.988281 128.507812 144.988281 L 129.507812 144.988281 C 130.886719 144.988281 132.015625 143.859375 132.015625 142.457031 C 132.015625 142.414062 132.015625 142.371094 132.015625 142.308594 L 129.570312 103.300781 C 129.484375 101.894531 130.546875 100.707031 131.929688 100.621094 C 132.058594 100.597656 132.164062 100.597656 132.269531 100.621094 C 133.523438 100.726562 134.523438 101.746094 134.609375 103 L 138.265625 144.816406 C 138.859375 151.40625 137.5 155.46875 130.335938 160.570312 C 123.703125 165.308594 121.917969 170.453125 121.664062 179.382812 C 121.132812 194.457031 121.875 209.527344 123.894531 224.472656 C 138.839844 229.722656 155.039062 230.339844 170.34375 226.257812 C 172.238281 209.441406 174.40625 190.117188 174.617188 173.027344 C 174.679688 166.671875 170.8125 162.015625 167.132812 157.976562 C 161.5 151.789062 154.824219 144.179688 154.824219 131.402344 C 154.824219 114.394531 165.945312 100.597656 179.675781 100.597656 C 193.410156 100.597656 204.550781 114.394531 204.550781 131.402344 C 204.550781 144.179688 197.851562 151.789062 192.242188 157.976562 C 188.5625 162.015625 184.671875 166.671875 184.757812 173.046875 C 184.925781 187.738281 186.566406 204.066406 188.222656 219.074219 C 213.476562 205.128906 229.167969 178.574219 229.1875 149.726562 "
        fill-opacity="1" fill-rule="nonzero" />
    <path fill="#cb6ce6"
        d="M 150 239.035156 C 141.6875 239.035156 133.441406 237.867188 125.445312 235.570312 C 127.125 246.136719 128.105469 256.785156 128.378906 267.480469 C 141.601562 269.921875 155.144531 270.113281 168.453125 268.03125 C 168.175781 267.011719 167.964844 265.992188 167.816406 264.949219 C 167.007812 259.484375 167.855469 249.34375 169.175781 236.929688 C 162.863281 238.332031 156.441406 239.035156 150 239.035156 "
        fill-opacity="1" fill-rule="nonzero" />
    <g clip-path="url(#c14b500a76)">
        <path fill="#cb6ce6"
            d="M 150 30 C 83.886719 30 30.273438 83.59375 30.273438 149.726562 C 30.273438 198.75 60.160156 242.820312 105.699219 260.953125 C 106.335938 248.8125 107.886719 239.394531 109.3125 229.191406 C 65.414062 206.722656 48.066406 152.917969 70.535156 109.019531 C 93.007812 65.117188 146.8125 47.75 190.710938 70.222656 C 234.609375 92.691406 251.976562 146.496094 229.484375 190.394531 C 220.726562 207.507812 206.675781 221.347656 189.414062 229.828125 C 190.902344 240.480469 191.6875 251.195312 191.816406 261.929688 C 253.785156 238.820312 285.289062 169.882812 262.179688 107.914062 C 244.726562 61.058594 199.980469 30 150 30 "
            fill-opacity="1" fill-rule="nonzero" />
    </g>
</svg>