<svg xmlns="http://www.w3.org/2000/svg" xmlns:xlink="http://www.w3.org/1999/xlink" width="400"
    zoomAndPan="magnify" viewBox="0 0 300 299.999988" height="400"
    preserveAspectRatio="xMidYMid meet" version="1.0">
    <defs>
        <clipPath id="86c4e8e7b9">
            <path
                d="M 30 49.632812 L 270 49.632812 L 270 250.160156 L 30 250.160156 Z M 30 49.632812 "
                clip-rule="nonzero" />
        </clipPath>
    </defs>
    <g clip-path="url(#86c4e8e7b9)">
        <path fill="#fff"
            d="M 204.738281 100.988281 L 227.535156 61.683594 L 257.046875 100.988281 Z M 200.285156 109.484375 L 256.597656 109.484375 L 161.398438 225.609375 Z M 100.164062 109.484375 L 139.046875 225.609375 L 43.847656 109.484375 Z M 103.742188 97.859375 L 80.496094 58.125 L 140.390625 58.125 Z M 160.058594 58.125 L 219.949219 58.125 L 196.703125 97.859375 Z M 112.671875 100.988281 L 150.214844 60.363281 L 187.753906 100.988281 Z M 191.335938 109.484375 L 150.214844 232.742188 L 109.113281 109.484375 Z M 72.910156 61.683594 L 95.6875 100.988281 L 43.402344 100.988281 Z M 270 105.457031 C 270 105.457031 270 105.011719 270 105.457031 C 270 105.011719 270 105.011719 270 105.457031 C 270 104.566406 270 104.117188 269.550781 104.117188 C 269.550781 104.117188 269.550781 103.671875 269.105469 103.671875 C 269.105469 103.671875 269.105469 103.222656 268.65625 103.222656 L 230.667969 51.417969 C 230.21875 50.972656 229.773438 50.527344 229.324219 50.078125 L 228.878906 50.078125 C 228.429688 50.078125 227.984375 49.632812 227.535156 49.632812 C 227.535156 49.632812 227.535156 49.632812 227.109375 49.632812 L 73.359375 49.632812 C 73.359375 49.632812 73.359375 49.632812 72.910156 49.632812 C 72.464844 49.632812 72.015625 49.632812 71.570312 50.078125 L 71.121094 50.078125 C 70.675781 50.527344 70.226562 50.972656 69.78125 51.417969 L 31.34375 102.777344 C 31.34375 102.777344 31.34375 103.222656 30.894531 103.222656 C 30.894531 103.222656 30.894531 103.671875 30.449219 103.671875 C 30.449219 104.117188 30 104.566406 30 105.011719 C 30 105.011719 30 105.011719 30 105.457031 C 30 105.90625 30 106.351562 30.449219 106.800781 C 30.449219 106.800781 30.449219 107.246094 30.894531 107.246094 C 30.894531 107.695312 30.894531 107.695312 31.34375 108.140625 L 147.101562 249.265625 L 147.996094 250.160156 L 148.445312 250.160156 C 148.871094 250.160156 149.339844 250.160156 149.785156 250.160156 C 150.214844 250.160156 150.660156 250.160156 151.128906 250.160156 L 151.554688 250.160156 L 152.449219 249.265625 L 268.210938 108.140625 C 268.210938 108.140625 268.65625 107.695312 268.65625 107.246094 C 268.65625 107.246094 268.65625 106.800781 269.105469 106.800781 C 270 106.351562 270 105.90625 270 105.457031 "
            fill-opacity="1" fill-rule="nonzero" />
    </g>
</svg>