<svg xmlns="http://www.w3.org/2000/svg" xmlns:xlink="http://www.w3.org/1999/xlink" width="400"
    zoomAndPan="magnify" viewBox="0 0 300 299.999988" height="400"
    preserveAspectRatio="xMidYMid meet" version="1.0">
    <defs>
        <clipPath id="4de32bc1e6">
            <path
                d="M 30 62.664062 L 270 62.664062 L 270 237.414062 L 30 237.414062 Z M 30 62.664062 "
                clip-rule="nonzero" />
        </clipPath>
    </defs>
    <g clip-path="url(#4de32bc1e6)">
        <path fill="#cb6ce6"
            d="M 262.242188 219.0625 C 262.242188 222.484375 259.414062 225.269531 255.78125 225.273438 L 149.988281 229.652344 L 44.039062 225.269531 C 40.566406 225.269531 37.742188 222.484375 37.742188 219.0625 L 37.742188 88.953125 C 37.742188 85.515625 40.566406 82.722656 44.039062 82.722656 L 48.664062 82.722656 L 48.664062 214.523438 C 48.933594 217.246094 51.082031 218.226562 52.734375 218.390625 C 53.078125 218.425781 88.136719 216.601562 115.359375 216.496094 C 137.59375 216.496094 149.484375 221.160156 149.980469 221.160156 C 150.496094 221.160156 162.378906 216.496094 185.324219 216.496094 C 211.835938 216.601562 246.894531 218.394531 247.238281 218.390625 C 249.8125 218.359375 251.230469 216.460938 251.308594 214.523438 L 251.308594 82.71875 L 255.945312 82.71875 C 259.414062 82.71875 262.242188 85.515625 262.242188 88.953125 Z M 139.707031 210.714844 C 133.738281 209.671875 125.457031 208.75 114.617188 208.75 C 99.800781 208.808594 82.472656 209.382812 69.824219 209.886719 C 82.273438 206.089844 99.921875 201.671875 114.8125 201.605469 C 126.328125 201.605469 134.484375 206.289062 139.707031 210.714844 Z M 56.40625 85.140625 C 64.894531 81.726562 94.5 70.421875 114.578125 70.421875 C 134.144531 70.636719 143.558594 79.214844 146.117188 82.027344 L 146.117188 206 C 139.890625 200.328125 129.511719 193.859375 114.609375 193.859375 C 93.261719 193.953125 67.382812 202.226562 56.40625 206.109375 Z M 230.183594 209.890625 C 217.441406 209.382812 199.878906 208.808594 184.621094 208.75 C 174.210938 208.75 166.179688 209.652344 160.328125 210.683594 C 165.570312 206.265625 173.757812 201.605469 185.339844 201.605469 C 200.140625 201.667969 217.75 206.09375 230.183594 209.890625 Z M 153.859375 82.03125 C 156.453125 79.195312 165.933594 70.636719 185.921875 70.417969 C 205.546875 70.417969 235.085938 81.722656 243.566406 85.140625 L 243.566406 206.109375 C 232.585938 202.226562 206.679688 193.953125 185.164062 193.859375 C 170.394531 193.859375 160.078125 200.320312 153.859375 205.980469 Z M 255.945312 74.976562 L 238.765625 74.976562 C 225.703125 70.140625 202.734375 62.679688 185.320312 62.679688 C 165.984375 62.890625 154.992188 70.425781 150.058594 74.976562 L 149.90625 74.976562 C 144.933594 70.429688 133.820312 62.890625 114.058594 62.675781 C 97.066406 62.675781 74.210938 70.140625 61.191406 74.976562 L 44.039062 74.976562 C 36.296875 74.976562 30 81.246094 30 88.953125 L 30 219.058594 C 30 226.75 36.296875 233.011719 43.871094 233.011719 C 43.878906 233.011719 149.832031 237.398438 149.832031 237.398438 C 149.882812 237.402344 149.9375 237.402344 149.988281 237.402344 C 150.042969 237.402344 150.09375 237.402344 150.148438 237.398438 L 255.945312 233.015625 C 263.683594 233.015625 269.984375 226.753906 269.984375 219.058594 L 269.984375 88.953125 C 269.984375 81.246094 263.683594 74.976562 255.945312 74.976562 "
            fill-opacity="1" fill-rule="nonzero" />
    </g>
</svg>