<svg xmlns="http://www.w3.org/2000/svg" xmlns:xlink="http://www.w3.org/1999/xlink" width="400"
    zoomAndPan="magnify" viewBox="0 0 300 299.999988" height="400"
    preserveAspectRatio="xMidYMid meet" version="1.0">
    <defs>
        <clipPath id="95a2a3c19c">
            <path
                d="M 38.289062 30 L 261.789062 30 L 261.789062 270 L 38.289062 270 Z M 38.289062 30 "
                clip-rule="nonzero" />
        </clipPath>
    </defs>
    <g clip-path="url(#95a2a3c19c)">
        <path fill="#cb6ce6"
            d="M 261.769531 172.265625 L 238.722656 149.324219 L 219.585938 168.457031 C 217.03125 168.796875 214.472656 169.277344 212.015625 169.953125 L 223.632812 158.335938 C 232.214844 149.757812 237.664062 138.480469 239.15625 126.480469 L 258.296875 107.347656 L 235.253906 84.3125 L 216.113281 103.445312 C 213.558594 103.78125 211.003906 104.265625 208.542969 104.941406 L 209.410156 104.074219 C 217.992188 95.492188 223.441406 84.21875 224.9375 72.21875 L 244.074219 53.085938 L 221.078125 30 L 201.941406 49.132812 C 189.933594 50.578125 178.652344 56.074219 170.074219 64.652344 L 153.101562 81.613281 C 153.777344 79.15625 154.257812 76.601562 154.597656 74.046875 L 173.738281 54.914062 L 150.691406 31.878906 L 131.550781 51.011719 C 119.546875 52.507812 108.265625 57.953125 99.734375 66.53125 L 38.3125 127.925781 L 43.421875 133.035156 L 104.796875 71.636719 C 109.617188 66.820312 115.449219 63.109375 121.765625 60.746094 L 107.300781 75.203125 C 101.421875 81.085938 101.421875 90.625 107.300781 96.457031 L 109.039062 98.191406 C 111.882812 101.035156 115.644531 102.578125 119.691406 102.578125 C 123.695312 102.578125 127.503906 101.035156 130.347656 98.191406 L 144.808594 83.734375 C 142.449219 90.046875 138.785156 95.878906 133.914062 100.699219 L 72.542969 162.144531 L 77.652344 167.253906 L 139.074219 105.855469 L 175.183594 69.757812 C 180.003906 64.941406 185.835938 61.230469 192.152344 58.867188 L 177.691406 73.324219 C 174.84375 76.167969 173.300781 79.925781 173.300781 83.976562 C 173.300781 87.976562 174.84375 91.78125 177.691406 94.625 L 179.425781 96.363281 C 182.367188 99.300781 186.222656 100.746094 190.078125 100.746094 C 193.9375 100.746094 197.792969 99.300781 200.734375 96.363281 L 215.199219 81.902344 C 212.835938 88.21875 209.171875 94.046875 204.300781 98.867188 L 106.722656 196.410156 L 111.835938 201.519531 L 189.355469 124.023438 C 194.175781 119.203125 200.011719 115.492188 206.328125 113.132812 L 191.863281 127.589844 C 185.980469 133.46875 185.980469 143.011719 191.863281 148.84375 L 193.597656 150.578125 C 196.539062 153.519531 200.398438 154.964844 204.253906 154.964844 C 208.109375 154.964844 211.96875 153.519531 214.90625 150.578125 L 229.371094 136.121094 C 227.007812 142.433594 223.34375 148.265625 218.476562 153.085938 L 187.71875 183.832031 L 141 230.625 L 146.113281 235.734375 L 192.875 188.988281 C 197.695312 184.167969 203.53125 180.457031 209.847656 178.097656 L 195.382812 192.554688 C 189.5 198.433594 189.5 207.976562 195.382812 213.808594 L 197.117188 215.542969 C 199.960938 218.386719 203.722656 219.925781 207.773438 219.925781 C 211.773438 219.925781 215.582031 218.386719 218.425781 215.542969 L 232.890625 201.085938 C 230.527344 207.398438 226.863281 213.230469 221.996094 218.046875 L 175.230469 264.84375 L 180.390625 270 L 227.105469 223.300781 C 235.6875 214.722656 241.132812 203.445312 242.628906 191.445312 Z M 125.285156 93.132812 C 123.789062 94.625 121.863281 95.398438 119.742188 95.398438 C 117.667969 95.398438 115.691406 94.578125 114.195312 93.132812 L 112.460938 91.398438 C 109.421875 88.363281 109.421875 83.398438 112.460938 80.363281 L 150.691406 42.097656 L 163.46875 54.867188 Z M 195.625 91.253906 C 192.585938 94.289062 187.621094 94.289062 184.582031 91.253906 L 182.847656 89.519531 C 181.355469 88.023438 180.582031 86.097656 180.582031 83.976562 C 180.582031 81.902344 181.402344 79.925781 182.847656 78.433594 L 221.078125 40.265625 L 233.855469 53.035156 Z M 209.847656 145.519531 C 206.808594 148.554688 201.84375 148.554688 198.804688 145.519531 L 197.070312 143.78125 C 194.03125 140.746094 194.03125 135.78125 197.070312 132.746094 L 235.300781 94.53125 L 248.078125 107.300781 Z M 213.269531 210.480469 C 211.773438 211.976562 209.847656 212.746094 207.726562 212.746094 C 205.652344 212.746094 203.675781 211.925781 202.179688 210.480469 L 200.445312 208.746094 C 197.40625 205.710938 197.40625 200.746094 200.445312 197.710938 L 238.675781 159.492188 L 251.453125 172.265625 Z M 213.269531 210.480469 "
            fill-opacity="1" fill-rule="nonzero" />
    </g>
</svg>