<svg xmlns="http://www.w3.org/2000/svg" xmlns:xlink="http://www.w3.org/1999/xlink" width="400"
    zoomAndPan="magnify" viewBox="0 0 300 299.999988" height="400"
    preserveAspectRatio="xMidYMid meet" version="1.0">
    <defs>
        <clipPath id="b8c84ade1f">
            <path d="M 167 109 L 266.507812 109 L 266.507812 270 L 167 270 Z M 167 109 "
                clip-rule="nonzero" />
        </clipPath>
    </defs>
    <path fill="#cb6ce6"
        d="M 45.191406 200.421875 C 46.699219 194.851562 50.253906 190.300781 55.292969 187.515625 L 96.265625 165.535156 L 137.214844 187.515625 C 142.277344 190.300781 145.808594 194.851562 147.316406 200.421875 Z M 142.277344 178.417969 L 101.5625 156.691406 L 101.5625 155.183594 C 105.601562 153.652344 109.15625 150.632812 110.921875 146.847656 C 112.941406 142.554688 112.941406 137.75 111.175781 133.457031 C 109.410156 129.417969 105.859375 125.867188 101.5625 124.613281 C 95.753906 122.847656 89.925781 123.847656 85.394531 127.886719 C 81.84375 130.925781 79.820312 135.730469 79.820312 140.789062 L 79.820312 141.023438 C 79.820312 142.808594 81.351562 144.320312 83.117188 144.320312 L 87.160156 144.320312 C 88.925781 144.320312 90.4375 142.808594 90.4375 141.023438 L 90.4375 140.027344 C 90.4375 138.261719 91.203125 136.730469 92.457031 135.476562 C 93.734375 134.457031 95.5 133.96875 97.265625 134.457031 C 99.285156 134.964844 101.050781 136.476562 101.304688 138.515625 C 102.070312 142.046875 99.796875 144.828125 97.007812 145.320312 C 93.222656 146.339844 90.4375 149.632812 90.4375 153.417969 L 90.4375 156.691406 L 49.742188 178.417969 C 40.125 183.734375 33.808594 194.339844 33.808594 205.714844 C 33.808594 208.734375 36.085938 211.007812 39.128906 211.007812 L 153.402344 211.007812 C 156.445312 211.007812 158.699219 208.734375 158.699219 205.714844 C 158.699219 194.339844 152.382812 183.734375 142.277344 178.417969 "
        fill-opacity="1" fill-rule="nonzero" />
    <path fill="#cb6ce6"
        d="M 106.625 93.53125 C 108.644531 95.808594 111.921875 96.0625 113.964844 94.042969 L 123.8125 85.199219 L 133.9375 152.144531 C 134.425781 154.925781 136.703125 156.691406 139.488281 156.457031 L 172.867188 153.417969 L 179.695312 111.476562 C 180.949219 104.394531 186.777344 99.335938 193.863281 99.335938 C 194.863281 99.335938 195.882812 99.335938 196.882812 99.59375 L 206.242188 101.613281 L 205.476562 77.867188 L 216.855469 84.945312 C 219.386719 86.453125 222.664062 85.710938 223.917969 83.179688 L 235.066406 63.21875 C 236.320312 60.945312 235.8125 58.160156 233.789062 56.648438 L 209.007812 36.6875 C 203.457031 32.136719 196.371094 30.117188 189.054688 30.628906 L 178.417969 31.628906 C 177.929688 31.628906 177.417969 32.136719 177.417969 32.648438 C 176.164062 39.21875 169.570312 44.511719 160.976562 45.277344 C 152.382812 46.019531 145.042969 41.980469 142.53125 35.921875 C 142.277344 35.414062 141.765625 35.15625 141.253906 35.15625 L 130.640625 36.175781 C 124.066406 36.433594 117.238281 39.707031 112.6875 45.277344 L 91.96875 69.53125 C 90.4375 71.296875 90.4375 74.082031 91.96875 76.101562 L 106.625 93.53125 "
        fill-opacity="1" fill-rule="nonzero" />
    <g clip-path="url(#b8c84ade1f)">
        <path fill="#cb6ce6"
            d="M 263.378906 123.847656 L 194.863281 109.457031 C 192.585938 108.945312 190.566406 110.453125 190.054688 112.730469 L 167.3125 253.972656 C 167.058594 255.992188 168.3125 258.011719 170.335938 258.519531 L 186.269531 261.792969 C 188.289062 262.304688 190.308594 261.050781 190.820312 259.03125 L 220.15625 155.925781 C 220.386719 155.4375 221.152344 155.4375 221.152344 156.203125 L 206.496094 262.304688 C 206.242188 264.324219 207.496094 266.34375 209.519531 266.597656 L 225.453125 269.894531 C 227.472656 270.382812 229.492188 269.128906 230.003906 267.109375 L 266.421875 128.652344 C 266.910156 126.378906 265.402344 124.359375 263.378906 123.847656 "
            fill-opacity="1" fill-rule="nonzero" />
    </g>
</svg>