<svg xmlns="http://www.w3.org/2000/svg" xmlns:xlink="http://www.w3.org/1999/xlink" width="356" zoomAndPan="magnify" viewBox="0 0 267 374.999991" height="500" preserveAspectRatio="xMidYMid meet" version="1.0"><defs><clipPath id="cd54578814"><path d="M 0.171875 0.132812 L 266.835938 0.132812 L 266.835938 375 L 0.171875 375 Z M 0.171875 0.132812 " clip-rule="nonzero"/></clipPath></defs><g clip-path="url(#cd54578814)"><path fill="#cb6ce6" d="M 238.121094 237.472656 C 238.421875 237.777344 238.949219 237.402344 238.722656 237.027344 C 237.746094 235.449219 236.925781 233.652344 236.472656 231.847656 C 236.023438 229.972656 236.175781 228.097656 235.949219 226.222656 C 235.875 225.699219 235.199219 225.550781 235.050781 226.074219 L 235.050781 226.152344 C 234.898438 226.152344 234.75 226.152344 234.675781 226.222656 C 229.203125 229.375 228.378906 241.300781 235.050781 243.550781 C 235.722656 243.777344 236.324219 242.949219 235.949219 242.347656 C 235.425781 241.375 234.75 241 233.925781 240.175781 C 232.5 238.75 232.125 237.027344 232.125 235.074219 C 232.125 232.152344 232.726562 229.675781 234.75 227.652344 C 234.300781 231.097656 236.097656 235 238.121094 237.472656 Z M 193.152344 91.675781 C 192.628906 91.449219 192.03125 92.050781 192.554688 92.5 C 193.304688 93.175781 194.207031 93.699219 195.027344 94.375 C 195.777344 95.050781 196.527344 95.800781 197.203125 96.550781 C 197.578125 96.925781 198.101562 96.398438 197.800781 95.949219 C 196.453125 94.449219 194.953125 92.574219 193.152344 91.675781 Z M 199.976562 111.324219 C 199.75 110.800781 199.078125 111.023438 199.148438 111.550781 C 199.523438 114.324219 201.921875 115.972656 203.648438 117.925781 C 206.496094 121.148438 208.070312 124.824219 209.195312 129.023438 C 209.417969 129.925781 210.691406 129.550781 210.542969 128.648438 C 210.015625 125.425781 208.667969 122.273438 206.792969 119.648438 C 204.699219 116.722656 201.25 114.773438 199.976562 111.324219 Z M 99.546875 323.199219 C 99.847656 321.550781 100.523438 319.074219 99.773438 317.5 C 99.621094 317.277344 99.246094 317.347656 99.171875 317.574219 C 98.949219 318.324219 99.097656 319.152344 99.097656 319.972656 C 99.097656 321.027344 99.023438 322 98.796875 322.972656 C 98.722656 323.5 99.398438 323.722656 99.546875 323.199219 Z M 100.523438 246.550781 C 98.496094 251.125 97.300781 255.847656 97.148438 260.875 C 96.996094 266.722656 99.847656 272.875 97.523438 278.5 C 97.300781 278.949219 98.046875 279.324219 98.347656 278.949219 C 101.34375 276.027344 100.070312 271.972656 99.398438 268.300781 C 98.046875 261.027344 98.871094 253.824219 101.421875 246.925781 C 101.648438 246.402344 100.746094 245.949219 100.523438 246.550781 Z M 139.644531 265.222656 C 139.566406 264.925781 139.121094 264.847656 138.96875 265.152344 C 138.144531 266.800781 138.59375 269.347656 138.746094 271.152344 C 138.816406 271.675781 139.566406 271.675781 139.566406 271.152344 C 139.566406 270.097656 139.566406 269.050781 139.644531 268 C 139.644531 267.097656 139.871094 266.125 139.644531 265.222656 Z M 255.585938 241 C 253.261719 243.625 251.835938 244.972656 248.316406 244.902344 C 248.613281 243.925781 247.941406 242.652344 247.566406 241.824219 C 246.964844 240.472656 246.066406 239.347656 244.941406 238.300781 C 244.640625 238.074219 244.195312 238.375 244.417969 238.675781 C 245.242188 239.722656 245.917969 240.925781 246.441406 242.199219 C 246.742188 242.949219 246.742188 244 247.117188 244.75 C 246.667969 244.75 246.292969 244.75 245.84375 244.902344 C 245.316406 245.125 244.640625 245.875 244.117188 246.027344 C 243.890625 246.097656 243.515625 246.097656 243.21875 246.097656 C 242.921875 245.277344 242.617188 244.597656 242.769531 243.699219 C 242.84375 243.097656 242.019531 242.800781 241.867188 243.472656 C 241.71875 244.222656 241.644531 245.125 241.867188 245.949219 C 239.847656 245.574219 237.597656 245.050781 237.675781 247.824219 C 237.675781 248.5 238.644531 248.5 238.722656 247.824219 C 238.871094 246.550781 242.921875 248.5 243.742188 248.347656 C 244.792969 248.199219 244.640625 247.824219 245.542969 247.449219 C 247.265625 246.625 247.941406 247 249.664062 247 C 252.8125 247 256.484375 244.824219 256.710938 241.449219 C 256.785156 240.925781 255.960938 240.550781 255.585938 241 Z M 236.324219 248.5 C 235.5 248.5 234.675781 248.800781 233.773438 248.652344 C 233.328125 248.574219 232.875 248.425781 232.5 248.277344 C 231.828125 247.902344 232.425781 247.597656 232.953125 247.375 C 233.925781 246.925781 235.125 246.472656 234.898438 245.199219 C 234.824219 244.675781 234 244.675781 233.851562 245.199219 C 233.625 246.175781 232.203125 246.175781 231.453125 246.777344 C 230.851562 247.300781 230.476562 248.199219 231 248.949219 C 232.054688 250.449219 235.5 250.75 236.847656 249.550781 C 237.222656 249.175781 236.847656 248.5 236.324219 248.5 Z M 248.238281 226 C 248.238281 225.925781 248.316406 225.847656 248.390625 225.699219 C 249.816406 223.972656 252.363281 222.097656 254.910156 221.347656 C 250.789062 217.824219 247.117188 215.277344 241.644531 214.300781 C 241.570312 214.300781 241.421875 214.222656 241.34375 214.222656 C 236.097656 215.652344 230.929688 217.449219 225.832031 219.550781 C 227.855469 220 229.878906 220.675781 231.75 221.347656 C 233.773438 222.027344 235.875 222.625 237.371094 224.199219 C 241.121094 222.625 245.316406 223.222656 248.238281 226 Z M 166.921875 226.902344 C 167.898438 225.847656 167.445312 224.800781 167.074219 223.675781 C 166.773438 222.777344 167.820312 221.949219 168.648438 222.324219 C 169.246094 221.875 169.996094 221.574219 170.820312 221.277344 C 171.195312 221.125 171.792969 220.972656 172.019531 220.675781 C 171.945312 220.675781 171.945312 220.597656 171.871094 220.597656 C 171.722656 220.75 171.496094 220.75 171.347656 220.597656 C 170.519531 220.074219 169.621094 220 168.722656 220 C 168.125 220 167.523438 220.074219 167.074219 219.777344 C 167 219.847656 166.921875 219.847656 166.851562 219.925781 C 164.976562 221.125 163.402344 223.152344 161.378906 223.902344 C 161.003906 224.050781 160.550781 223.824219 160.328125 223.449219 C 160.027344 223.75 159.804688 224.050781 159.503906 224.277344 C 159.277344 224.5 158.980469 224.574219 158.753906 224.652344 C 158.230469 225.699219 156.507812 225.402344 156.355469 224.125 C 155.304688 223 154.558594 221.574219 153.734375 220.300781 C 153.359375 219.699219 152.984375 219.027344 152.535156 218.425781 C 152.683594 218.875 152.457031 219.472656 151.785156 219.550781 C 150.738281 219.625 149.613281 220.824219 148.9375 221.574219 C 148.636719 221.949219 147.960938 222.699219 148.113281 223.222656 C 148.261719 223.75 148.710938 223.675781 149.085938 223.824219 C 149.386719 223.972656 149.613281 224.125 149.761719 224.425781 C 150.285156 224.574219 150.660156 225.25 150.363281 225.847656 C 149.910156 226.75 149.386719 227.574219 149.3125 228.625 C 149.238281 229.152344 149.3125 230.574219 150.136719 230.574219 C 150.660156 230.574219 151.558594 229.597656 152.160156 229.449219 C 152.984375 229.222656 153.507812 229.449219 154.183594 229.972656 C 154.183594 229.972656 154.183594 229.972656 154.257812 230.050781 C 154.332031 230.050781 154.40625 230.050781 154.558594 230.050781 C 155.457031 230.277344 156.28125 230.652344 157.179688 231.027344 C 158.605469 231.625 159.355469 231.25 160.328125 230.277344 C 161.003906 229.527344 161.675781 228.847656 162.503906 228.550781 C 162.574219 228.097656 162.949219 227.800781 163.476562 227.800781 C 164.601562 227.800781 165.949219 227.949219 166.921875 226.902344 Z M 155.53125 196.824219 C 155.53125 196.75 155.53125 196.75 155.53125 196.824219 Z M 156.730469 197.277344 Z M 157.78125 197.949219 C 158.15625 198.777344 158.453125 199.597656 158.679688 200.425781 C 158.679688 199.222656 158.605469 198.027344 158.378906 196.824219 C 158.378906 197.199219 158.15625 197.652344 157.78125 197.949219 Z M 160.402344 309.847656 C 156.132812 306.847656 152.011719 303.25 150.433594 298.222656 C 150.285156 304.902344 149.460938 312.097656 153.582031 317.722656 C 153.882812 318.097656 153.207031 318.625 152.910156 318.25 C 148.710938 313.375 148.636719 306.550781 148.710938 300.175781 C 148.410156 300.625 148.113281 301.152344 147.8125 301.675781 C 146.613281 304.074219 146.390625 306.847656 145.265625 309.25 C 145.265625 309.324219 145.339844 309.402344 145.339844 309.472656 C 145.5625 315.402344 149.460938 319.527344 151.558594 324.777344 C 153.058594 328.597656 154.183594 332.652344 154.632812 336.699219 C 158.453125 332.199219 160.253906 326.949219 160.628906 320.949219 C 160.777344 317.722656 159.730469 313.222656 160.402344 309.847656 Z M 104.195312 281.347656 C 104.792969 282.027344 105.167969 282.847656 105.09375 283.75 C 105.019531 284.125 104.867188 284.5 104.570312 284.652344 C 104.792969 284.800781 104.941406 285.027344 104.792969 285.402344 C 104.71875 285.550781 104.71875 285.699219 104.644531 285.847656 C 105.242188 284.949219 105.992188 284.125 106.667969 283.449219 C 107.488281 282.550781 108.316406 281.652344 109.140625 280.902344 C 107.488281 281.425781 105.691406 281.722656 104.195312 281.347656 Z M 89.878906 289.152344 C 89.953125 289.152344 90.03125 289.152344 90.03125 289.152344 C 89.355469 288.847656 88.679688 288.550781 88.082031 288.097656 C 87.707031 288.699219 87.179688 288.925781 86.503906 288.925781 C 86.128906 289.152344 85.753906 289.375 85.382812 289.527344 C 86.957031 289.375 88.378906 289.222656 89.878906 289.152344 Z M 87.480469 285.175781 C 87.855469 285.324219 88.230469 285.402344 88.53125 285.472656 C 86.808594 284.125 85.308594 282.550781 84.183594 280.902344 C 85.160156 282.402344 86.28125 283.824219 87.480469 285.175781 Z M 82.609375 278.347656 C 82.757812 278.574219 82.910156 278.875 83.058594 279.097656 C 82.984375 279.027344 82.984375 278.949219 82.910156 278.800781 C 82.835938 278.574219 82.757812 278.425781 82.835938 278.199219 C 82.757812 278.277344 82.683594 278.347656 82.609375 278.347656 Z M 260.15625 242.050781 C 259.183594 242.5 258.355469 242.277344 257.535156 241.675781 C 256.785156 241.074219 256.335938 240.25 255.210938 240.25 C 254.3125 240.25 253.5625 240.847656 252.664062 241 C 252.0625 241.152344 251.460938 240.324219 251.988281 239.875 C 252.0625 239.800781 252.136719 239.800781 252.210938 239.722656 C 252.664062 235.449219 251.386719 232.375 248.839844 228.925781 C 245.992188 225.175781 242.617188 224.652344 238.496094 225.402344 C 240.671875 227.125 242.46875 229.152344 243.820312 231.550781 C 244.042969 232 243.445312 232.375 243.144531 231.925781 C 241.570312 229.597656 239.621094 227.652344 237.371094 226 C 237.222656 225.925781 237.148438 225.777344 237.148438 225.699219 C 236.550781 225.777344 236.175781 225.175781 236.398438 224.722656 C 232.648438 222.027344 227.480469 221.800781 223.207031 220.675781 C 218.785156 222.625 214.363281 224.875 210.09375 227.425781 C 211.890625 229.300781 213.464844 231.550781 214.816406 234.097656 C 215.039062 234.472656 214.441406 234.777344 214.214844 234.402344 C 212.789062 231.777344 211.140625 229.597656 209.265625 227.875 C 209.265625 227.875 209.265625 227.875 209.195312 227.875 C 208.292969 228.402344 207.542969 227.425781 207.84375 226.675781 C 206.042969 225.25 204.019531 224.199219 202 223.375 C 201.398438 223.972656 200.199219 223.449219 200.046875 222.699219 C 192.253906 220.300781 183.113281 220.824219 174.71875 220.824219 C 174.644531 221.347656 174.417969 221.949219 174.117188 222.324219 C 174.042969 222.402344 173.894531 222.550781 173.816406 222.625 C 176.515625 223.222656 178.992188 224.652344 181.011719 226.449219 C 181.386719 226.824219 180.863281 227.347656 180.414062 227.050781 C 177.867188 225.097656 175.167969 224.199219 172.167969 223.675781 C 172.019531 223.75 171.871094 223.75 171.792969 223.824219 C 171.269531 224.050781 170.671875 224.125 170.144531 224.425781 C 170.222656 224.574219 170.222656 224.800781 170.222656 224.949219 C 176.890625 226.675781 182.8125 233.050781 185.734375 238.972656 C 185.960938 239.347656 185.359375 239.722656 185.136719 239.347656 C 183.261719 236.199219 180.863281 233.277344 178.015625 230.949219 C 175.542969 228.925781 172.84375 227.800781 170.070312 226.527344 C 169.921875 227.125 169.695312 227.652344 169.398438 228.097656 C 172.769531 229.75 174.792969 234.25 176.140625 237.324219 C 176.292969 237.699219 175.765625 238.074219 175.542969 237.699219 C 174.492188 235.597656 173.441406 233.347656 171.871094 231.625 C 170.894531 230.5 169.773438 229.824219 168.5 229.222656 C 168.125 229.527344 167.75 229.75 167.296875 229.902344 C 170.519531 233.125 172.472656 237.027344 173.144531 241.597656 C 174.191406 248.652344 172.84375 258.097656 181.011719 261.324219 C 181.386719 261.472656 181.238281 262.074219 180.863281 261.925781 C 176.59375 260.5 174.417969 256.824219 173.371094 252.550781 C 171.347656 244.152344 172.542969 236.574219 165.800781 230.199219 C 165.125 230.277344 164.523438 230.277344 163.851562 230.125 C 163.476562 230.800781 162.949219 231.472656 162.351562 232.074219 C 165.199219 249.324219 164.675781 272.277344 186.484375 275.652344 C 187.085938 275.722656 187.382812 276.175781 187.460938 276.699219 C 187.609375 276.402344 187.90625 276.097656 188.359375 276.175781 C 188.507812 276.175781 188.585938 276.175781 188.734375 276.175781 C 188.65625 276.097656 188.585938 275.949219 188.507812 275.800781 C 187.609375 272.652344 189.179688 270.027344 191.507812 267.925781 C 193.082031 266.5 195.027344 265.375 196.453125 263.722656 C 199.226562 260.425781 198.476562 257.574219 198.925781 253.824219 C 199.226562 250.824219 200.574219 249.097656 203.046875 247.597656 C 202.824219 247.222656 202.597656 246.847656 202.375 246.472656 C 201.921875 245.800781 201.398438 245.125 200.796875 244.527344 C 200.421875 244.152344 201.023438 243.550781 201.398438 243.925781 C 202.074219 244.527344 202.671875 245.125 203.199219 245.800781 C 203.496094 246.175781 203.796875 246.550781 203.949219 247 C 204.246094 246.847656 204.472656 246.699219 204.769531 246.550781 C 203.949219 244.902344 203.121094 243.324219 201.847656 241.824219 C 200.351562 240.175781 198.703125 238.75 196.976562 237.324219 C 196.601562 237.027344 197.125 236.347656 197.5 236.652344 C 200.648438 238.902344 204.699219 241.972656 205.972656 245.875 C 209.945312 243.550781 212.789062 241.300781 213.691406 235.824219 C 213.765625 235.375 214.441406 235.527344 214.441406 235.902344 C 214.289062 239.050781 213.242188 241.972656 211.066406 244.300781 C 209.71875 245.722656 207.992188 246.699219 206.347656 247.597656 C 206.269531 247.902344 205.972656 248.050781 205.667969 247.972656 C 203.871094 249.027344 202.296875 250.300781 201.546875 252.402344 C 200.125 256.375 201.324219 260.347656 198.773438 264.027344 C 195.925781 268.222656 190.082031 269.722656 190.007812 275.574219 C 190.007812 275.800781 189.929688 276.027344 189.78125 276.175781 C 194.503906 275.875 198.398438 273.25 202.222656 270.472656 C 205.746094 267.925781 209.71875 265 212.414062 261.550781 C 215.414062 257.722656 213.691406 254.277344 214.289062 250.074219 C 214.515625 248.722656 214.886719 248.125 215.261719 246.925781 C 216.160156 245.5 216.839844 243.847656 217.0625 242.125 C 216.761719 240.25 216.160156 238.449219 215.339844 236.800781 C 215.039062 236.199219 215.863281 235.75 216.238281 236.277344 C 218.785156 239.949219 219.535156 242.574219 217.738281 246.777344 C 215.261719 252.25 218.335938 257.949219 214.363281 262.972656 C 211.066406 267.175781 206.195312 270.625 201.847656 273.625 C 197.578125 276.625 193.230469 279.175781 187.90625 278.347656 C 187.460938 278.277344 187.234375 277.972656 187.160156 277.675781 C 186.933594 278.125 186.558594 278.5 185.960938 278.425781 C 176.96875 277.824219 169.320312 272.050781 165.800781 263.800781 C 165.800781 263.722656 165.726562 263.652344 165.726562 263.5 C 165.5 267.402344 164.675781 271.527344 163.101562 275.277344 C 183.863281 284.5 187.984375 310.222656 179.890625 329.5 C 179.738281 329.800781 179.515625 330.027344 179.214844 330.097656 C 179.214844 330.175781 179.289062 330.25 179.289062 330.324219 C 179.589844 331.675781 177.492188 332.277344 177.191406 330.925781 C 175.992188 325.824219 174.71875 321.402344 170.820312 317.574219 C 168.046875 314.875 164.601562 312.847656 161.378906 310.675781 C 163.476562 320.652344 162.199219 331.597656 154.933594 339.25 C 154.03125 340.152344 152.683594 338.800781 153.507812 337.824219 C 152.683594 331.300781 150.660156 326.050781 147.136719 320.425781 C 145.414062 317.652344 143.691406 314.949219 143.464844 311.875 C 142.339844 313.222656 140.917969 314.277344 139.566406 315.324219 C 138.667969 316 137.46875 314.425781 138.371094 313.75 C 140.464844 311.949219 142.265625 310.375 143.390625 307.902344 C 139.417969 307 135.746094 305.347656 132.375 302.949219 C 131.921875 302.652344 132.296875 301.902344 132.824219 302.199219 C 136.34375 304.152344 140.019531 305.652344 143.914062 306.472656 C 144.367188 305.050781 144.664062 303.625 145.265625 302.277344 C 145.9375 300.777344 146.914062 299.722656 147.664062 298.300781 C 147.960938 297.847656 148.113281 297.402344 148.335938 296.949219 C 147.289062 296.652344 146.238281 296.199219 145.1875 295.902344 C 143.464844 295.375 141.742188 295 140.019531 294.625 C 139.496094 294.472656 139.644531 293.652344 140.167969 293.652344 C 142.867188 293.722656 146.085938 294.097656 148.636719 295.300781 C 148.710938 295.222656 148.710938 295.152344 148.785156 295.074219 C 149.160156 293.050781 148.863281 291.027344 148.5625 288.699219 C 148.410156 287.800781 149.683594 287.425781 149.910156 288.324219 C 150.433594 290.425781 150.957031 292.597656 150.738281 294.777344 C 150.738281 295.152344 150.660156 295.449219 150.585938 295.824219 C 153.808594 304.902344 162.652344 308.347656 169.695312 313.902344 C 174.34375 317.574219 176.96875 321.847656 178.464844 327.25 C 185.433594 308.277344 180.488281 287.050781 162.351562 276.625 C 160.480469 280.449219 157.703125 283.75 154.03125 285.699219 C 155.457031 291.402344 158.753906 294.625 163.777344 297.699219 C 167.445312 299.949219 170.144531 302.800781 172.394531 306.472656 C 172.691406 307 171.945312 307.449219 171.644531 306.925781 C 169.695312 303.925781 167.074219 301.527344 164 299.722656 C 162.128906 298.675781 160.179688 297.925781 158.53125 296.574219 C 155.304688 294.027344 153.132812 290.5 152.308594 286.527344 C 151.410156 286.824219 150.511719 287.125 149.535156 287.277344 C 149.085938 287.347656 148.9375 286.75 149.3125 286.597656 C 150.363281 286.152344 151.332031 285.699219 152.234375 285.175781 C 152.382812 284.875 152.683594 284.652344 152.984375 284.574219 C 152.984375 284.5 152.984375 284.5 152.984375 284.425781 C 153.957031 279.097656 154.332031 273.777344 153.65625 268.449219 C 153.582031 268 154.332031 267.925781 154.40625 268.375 C 155.15625 273.550781 155.304688 278.574219 154.484375 283.75 C 161.675781 277.972656 162.425781 268.449219 163.625 259 C 163.625 258.699219 163.777344 258.472656 163.925781 258.324219 C 161.605469 250.527344 160.777344 241.527344 160.628906 233.652344 C 160.328125 233.800781 160.105469 233.949219 159.804688 234.097656 C 158.453125 234.625 157.03125 234.25 155.679688 233.652344 C 148.410156 237.25 142.265625 248.652344 141.441406 256.300781 C 141.367188 256.675781 140.769531 256.675781 140.839844 256.300781 C 141.292969 250.75 143.765625 246.097656 146.539062 241.449219 C 148.5625 238 150.808594 234.777344 154.257812 232.902344 C 154.257812 232.902344 154.257812 232.902344 154.183594 232.902344 C 148.785156 234.777344 144.664062 238.375 140.542969 242.277344 C 136.496094 246.097656 129.75 251.5 129.222656 257.277344 C 129.222656 257.652344 128.628906 257.652344 128.628906 257.277344 C 129.003906 251.5 134.695312 246.550781 138.445312 242.574219 C 141.441406 239.347656 144.890625 235.824219 148.785156 233.5 C 148.039062 233.199219 147.363281 232.527344 146.988281 231.777344 C 146.914062 231.550781 146.835938 231.324219 146.765625 231.097656 C 146.613281 231.324219 146.390625 231.550781 146.085938 231.550781 C 137.917969 232.824219 130.574219 234.324219 122.703125 236.949219 C 116.859375 238.902344 111.539062 239.425781 105.769531 236.949219 C 103.070312 235.75 100.445312 234.175781 98.199219 232.300781 C 82.683594 243.625 91.078125 266.050781 95.5 281.125 C 95.652344 281.125 95.722656 281.050781 95.875 281.050781 C 96.925781 279.625 98.796875 279.25 100.523438 279.625 C 100.96875 279.699219 101.496094 279.925781 102.019531 280.152344 C 103.445312 276.472656 103.070312 271.527344 103.21875 267.777344 C 103.21875 267.25 104.117188 267.25 104.117188 267.777344 C 104.042969 271.152344 104.34375 274.527344 104.117188 277.824219 C 104.042969 278.949219 103.894531 280.074219 103.367188 280.972656 C 103.519531 281.125 103.667969 281.199219 103.820312 281.347656 C 103.742188 281.050781 103.820312 280.75 104.042969 280.597656 C 105.769531 279.324219 108.390625 279.25 110.414062 278.652344 C 112.960938 277.902344 114.984375 276.777344 117.082031 275.199219 C 116.410156 272.949219 116.035156 270.550781 115.808594 267.925781 C 115.808594 267.699219 116.183594 267.625 116.261719 267.847656 C 117.234375 272.125 118.355469 275.875 120.605469 278.949219 C 119.855469 276.25 120.980469 272.425781 121.730469 270.175781 C 121.882812 269.652344 122.632812 269.875 122.480469 270.402344 C 121.882812 273.027344 120.457031 277.75 122.332031 280.152344 C 122.554688 280.375 122.480469 280.675781 122.257812 280.902344 C 123.605469 282.25 125.253906 283.375 127.351562 284.277344 C 133.875 287.199219 140.769531 287.652344 147.738281 286.824219 C 148.1875 286.75 148.261719 287.5 147.8125 287.574219 C 140.089844 289.375 131.625 288.324219 124.578125 284.5 C 120.980469 282.550781 118.808594 279.847656 117.535156 276.625 C 116.636719 277.675781 115.585938 278.5 114.386719 279.175781 C 114.386719 279.402344 114.3125 279.625 114.011719 279.777344 C 110.414062 281.949219 107.566406 285.847656 105.84375 289.675781 C 106.742188 289.222656 107.640625 288.777344 108.542969 288.027344 C 109.289062 287.425781 109.890625 286.824219 110.640625 286.222656 C 112.289062 284.949219 114.011719 284.277344 116.109375 284.652344 C 116.484375 284.722656 116.335938 285.324219 115.960938 285.25 C 111.914062 284.652344 110.113281 289.300781 106.964844 290.652344 C 110.265625 291.472656 117.910156 287.652344 120.53125 287.425781 C 124.128906 287.050781 127.503906 287.5 130.949219 288.550781 C 131.324219 288.699219 131.175781 289.300781 130.800781 289.152344 C 123.304688 287.277344 117.910156 289 111.015625 291.777344 C 109.066406 292.527344 107.488281 292.824219 105.992188 291.777344 C 105.992188 291.847656 106.066406 291.925781 106.066406 292 C 106.144531 292.222656 106.066406 292.449219 105.992188 292.675781 C 106.816406 293.425781 107.339844 294.402344 107.339844 295.527344 C 109.289062 297.324219 113.9375 295.824219 116.335938 296.5 C 118.433594 297.097656 120.230469 298.449219 121.582031 300.097656 C 121.882812 300.472656 121.355469 301 121.054688 300.625 C 119.332031 298.675781 117.082031 297.402344 114.386719 297.324219 C 112.515625 297.25 110.640625 298 108.839844 297.699219 C 108.167969 297.625 107.488281 297.324219 106.964844 297.027344 C 106.742188 297.625 106.367188 298.152344 105.917969 298.449219 C 110.039062 301.152344 113.109375 304.449219 116.335938 308.277344 C 118.355469 310.675781 120.457031 313.152344 123.230469 314.652344 C 126.753906 316.597656 129.75 316.074219 133.421875 315.175781 C 134.171875 315.027344 134.546875 315.847656 134.097656 316.375 C 130.648438 320.574219 123.976562 318.402344 120.230469 315.699219 C 116.035156 312.625 113.039062 308.425781 109.515625 304.597656 C 115.4375 313.902344 123.15625 325.527344 114.984375 335.199219 C 114.3125 336.027344 113.5625 336.625 112.738281 337.375 C 110.039062 339.699219 109.363281 340.074219 107.566406 343.597656 C 106.441406 345.699219 105.394531 347.574219 103.59375 349.152344 C 103.21875 349.449219 102.84375 349.75 102.46875 350.050781 C 102.46875 350.125 102.46875 350.199219 102.46875 350.199219 C 102.394531 350.722656 101.945312 350.800781 101.570312 350.652344 C 98.199219 352.675781 94.226562 353.347656 90.40625 352.300781 C 89.730469 352.074219 90.03125 351.175781 90.703125 351.25 C 94.601562 351.777344 98.273438 350.949219 101.273438 349 C 101.945312 344.425781 102.019531 339.925781 101.121094 335.347656 C 101.046875 334.902344 101.71875 334.675781 101.871094 335.125 C 102.84375 339.324219 103.144531 343.527344 102.769531 347.800781 C 104.195312 346.449219 105.394531 344.800781 106.292969 342.847656 C 107.941406 339.027344 109.964844 337.902344 112.8125 334.972656 C 122.78125 324.925781 110.9375 310.972656 105.46875 301.75 C 105.242188 301.375 105.316406 301 105.542969 300.699219 C 105.167969 300.402344 104.71875 300.097656 104.269531 299.800781 C 103.59375 300.175781 102.84375 300.25 102.019531 300.25 C 101.648438 300.25 100.96875 300.097656 100.671875 300.25 C 100.296875 300.472656 100.296875 301.300781 100.070312 301.675781 C 99.921875 301.902344 99.773438 302.125 99.621094 302.347656 C 101.121094 306.097656 101.34375 310.222656 101.046875 314.199219 C 101.046875 314.652344 100.296875 314.652344 100.296875 314.199219 C 100.445312 310.375 99.621094 306.777344 98.722656 303.097656 C 97.898438 303.550781 96.996094 303.625 96.097656 303.472656 C 95.949219 306.472656 96.472656 309.402344 96.097656 312.402344 C 95.652344 315.925781 94.902344 319.449219 94.300781 322.972656 C 94.226562 323.347656 93.625 323.199219 93.703125 322.824219 C 94.226562 318.847656 95.050781 314.574219 95.199219 310.527344 C 95.277344 307.972656 94.75 305.5 94.976562 303.027344 C 94.75 302.875 94.601562 302.800781 94.449219 302.652344 C 94.152344 303.027344 93.777344 303.324219 93.25 303.402344 C 93.703125 306.925781 92.5 310.527344 91.003906 313.902344 C 87.332031 322.152344 83.132812 330.472656 86.503906 339.625 C 86.65625 340 86.058594 340.152344 85.980469 339.777344 C 83.660156 333.847656 84.332031 327.699219 86.355469 321.699219 C 88.53125 315.324219 92.429688 309.699219 91.601562 303.175781 C 91.078125 302.949219 90.628906 302.574219 90.253906 302.199219 C 88.90625 300.925781 88.082031 297.777344 90.476562 297.097656 C 91.304688 296.875 91.976562 297.625 91.828125 298.449219 C 91.75 298.675781 91.679688 298.824219 91.679688 298.972656 C 91.75 299.050781 91.75 299.050781 91.828125 299.125 C 92.203125 299.800781 92.5 300.402344 92.726562 301.074219 C 92.953125 301.222656 93.175781 301.300781 93.25 301.222656 C 93.027344 300.777344 92.875 300.25 92.875 299.722656 C 92.875 298.824219 94.074219 298.300781 94.675781 298.972656 C 94.976562 299.347656 95.347656 299.875 95.652344 300.324219 C 96.027344 300.027344 96.621094 300.25 96.472656 300.847656 C 96.472656 300.925781 96.472656 300.925781 96.472656 301 C 96.773438 301.074219 96.996094 301.074219 97.371094 300.847656 C 98.121094 300.402344 98.121094 299.347656 98.796875 298.75 C 99.398438 298.222656 100.148438 298 100.96875 298 C 101.648438 298 103.144531 298.449219 103.519531 297.777344 C 103.742188 297.402344 104.042969 297.324219 104.34375 297.25 C 104.570312 296.949219 104.867188 296.652344 105.09375 296.199219 C 105.46875 295.300781 105.242188 294.324219 104.492188 293.722656 C 104.417969 293.652344 104.417969 293.574219 104.34375 293.5 C 103.144531 292.902344 102.46875 291.175781 102.242188 289.972656 C 102.019531 288.402344 102.46875 286.902344 103.445312 285.625 L 103.519531 285.550781 C 103.445312 285.550781 103.367188 285.472656 103.367188 285.472656 C 102.320312 284.800781 101.871094 283.597656 100.746094 282.847656 C 100.070312 282.402344 98.796875 281.800781 97.824219 281.875 C 97.746094 283 96.324219 283.375 95.277344 283.375 C 94.527344 283.375 93.925781 283.222656 93.476562 284.050781 C 93.175781 284.574219 93.101562 285.175781 92.875 285.699219 C 94.902344 286.449219 96.996094 286.75 99.097656 287.425781 C 99.996094 287.722656 100.070312 288.625 99.695312 289.222656 C 101.046875 289.527344 101.273438 291.324219 99.847656 291.847656 C 99.472656 292 99.023438 292.074219 98.648438 292.222656 C 97.148438 293.652344 94.75 294.175781 92.875 295 C 90.929688 295.824219 88.980469 296.800781 87.03125 297.699219 C 87.179688 297.925781 87.253906 298.222656 87.03125 298.449219 C 86.582031 298.972656 86.128906 299.574219 85.683594 300.175781 C 84.410156 308.347656 79.386719 313.675781 73.242188 319.375 C 72.792969 319.824219 72.042969 319.074219 72.566406 318.699219 C 75.488281 315.925781 78.414062 313 80.660156 309.699219 C 82.085938 307.527344 82.910156 305.277344 83.582031 302.875 C 80.882812 306.097656 77.738281 309.175781 73.917969 310.449219 C 70.46875 311.574219 66.496094 311.125 62.898438 311.050781 C 58.554688 310.972656 54.207031 310.972656 49.933594 310.824219 C 49.332031 310.824219 49.332031 309.925781 49.933594 309.925781 C 56.976562 309.847656 64.996094 310.902344 71.890625 309.324219 C 77.289062 308.125 80.0625 304 83.507812 300.324219 C 83.359375 300.324219 83.132812 300.324219 82.984375 300.25 C 82.460938 299.949219 82.007812 299.722656 81.484375 299.5 C 78.5625 304.074219 72.339844 305.425781 67.246094 305.347656 C 66.644531 305.347656 66.644531 304.449219 67.246094 304.449219 C 72.339844 304.375 76.988281 302.722656 80.210938 298.902344 C 79.164062 298.375 78.1875 297.925781 77.136719 297.550781 C 76.914062 297.625 76.6875 297.625 76.386719 297.550781 C 66.796875 295.375 55.402344 294.699219 47.3125 301.300781 C 44.460938 303.625 42.066406 306.550781 39.289062 309.027344 C 35.394531 312.550781 30.972656 315.699219 32.394531 320.800781 C 32.542969 320.574219 32.996094 320.425781 33.292969 320.722656 C 36.742188 323.425781 42.285156 323.425781 46.410156 323.800781 C 49.859375 324.097656 53.378906 324.324219 56.828125 324.324219 C 57.277344 324.324219 57.277344 325.074219 56.828125 325.074219 C 51.582031 325.152344 46.410156 325.152344 41.238281 324.550781 C 38.242188 324.175781 34.945312 324.097656 32.769531 321.925781 C 32.996094 322.527344 33.292969 323.050781 33.667969 323.652344 C 33.96875 324.175781 33.21875 324.777344 32.84375 324.324219 C 30.144531 321.25 29.699219 317.199219 32.019531 313.75 C 33.445312 311.574219 35.765625 310.152344 37.640625 308.5 C 40.039062 306.402344 42.066406 303.925781 44.3125 301.675781 C 48.058594 297.847656 52.40625 295.597656 56.976562 294.472656 C 55.402344 294.175781 53.902344 293.722656 52.332031 292.902344 C 48.433594 290.949219 44.386719 288.324219 42.066406 284.5 C 40.191406 281.425781 39.664062 277.972656 39.441406 274.449219 C 39.214844 274.300781 39.066406 274.222656 38.839844 274.074219 C 38.164062 273.625 38.691406 272.652344 39.367188 272.875 C 39.367188 272.199219 39.289062 271.597656 39.289062 270.925781 C 39.289062 270.175781 40.339844 270.25 40.414062 270.925781 C 40.488281 271.824219 40.566406 272.800781 40.714844 273.699219 C 44.238281 275.875 47.757812 278.050781 51.582031 279.625 C 51.878906 279.777344 51.65625 280.300781 51.355469 280.222656 C 47.757812 278.800781 44.3125 277.300781 41.011719 275.425781 C 41.988281 280.75 44.085938 285.324219 49.257812 288.550781 C 54.128906 291.625 58.625 292.375 64.246094 292.449219 C 70.09375 292.597656 77.8125 292.972656 82.535156 297.097656 C 82.609375 296.722656 82.835938 296.425781 83.132812 296.277344 C 84.035156 295.902344 85.082031 295.972656 85.753906 296.652344 C 87.628906 295.449219 89.578125 294.324219 91.527344 293.277344 C 88.082031 293.347656 84.632812 293.050781 81.785156 292.449219 C 81.1875 293.199219 79.984375 293.425781 79.234375 292.597656 C 79.011719 292.300781 78.863281 292 78.789062 291.699219 C 78.710938 291.550781 78.710938 291.472656 78.710938 291.324219 C 78.636719 290.949219 78.789062 290.574219 79.011719 290.277344 C 74.667969 289.074219 69.945312 286.527344 66.121094 287.574219 C 65.597656 287.722656 65.371094 286.902344 65.894531 286.75 C 72.265625 285.097656 78.1875 289.902344 84.257812 288.847656 C 83.433594 288.324219 82.757812 287.722656 82.234375 287.199219 C 81.933594 286.902344 81.632812 286.597656 81.335938 286.300781 C 80.8125 286.675781 80.210938 286.75 79.609375 286.449219 C 78.710938 285.925781 78.488281 284.722656 79.011719 283.902344 C 79.085938 283.824219 79.164062 283.75 79.234375 283.675781 C 76.238281 279.625 73.542969 275.199219 68.144531 274.074219 C 67.695312 274 67.84375 273.324219 68.367188 273.402344 C 71.96875 274 74.589844 275.800781 76.988281 278.5 C 77.585938 279.175781 79.011719 281.277344 80.660156 283.300781 C 80.734375 283.300781 80.734375 283.300781 80.8125 283.300781 C 81.257812 283.375 81.710938 283.75 81.859375 284.125 C 82.007812 284.050781 82.234375 284.050781 82.382812 284.125 C 82.984375 284.347656 83.507812 284.574219 84.109375 284.800781 C 82.234375 282.097656 80.8125 278.949219 79.3125 276.25 C 74.292969 267.097656 65.671875 261.175781 55.253906 260.125 C 54.578125 260.050781 54.578125 259.074219 55.253906 259.074219 C 62.898438 259.675781 70.09375 262.824219 75.488281 268.375 C 77.738281 270.699219 79.386719 273.324219 80.960938 275.949219 C 81.035156 275.800781 81.109375 275.652344 81.257812 275.574219 C 81.5625 275.199219 82.007812 275.125 82.460938 275.277344 C 83.582031 274.972656 84.707031 275.875 84.632812 277.152344 C 84.632812 277.675781 84.332031 278.199219 83.957031 278.5 C 84.257812 278.5 84.480469 278.574219 84.707031 278.875 C 86.503906 281.425781 88.605469 283.675781 91.375 285.097656 C 91.453125 285.097656 91.453125 285.175781 91.527344 285.175781 C 91.828125 284.050781 92.726562 282.847656 93.625 282.324219 C 93.703125 282.324219 93.703125 282.25 93.777344 282.25 C 91.976562 279.25 90.628906 275.722656 89.65625 271.972656 C 85.980469 267.847656 83.433594 262.75 79.609375 258.625 C 75.714844 254.425781 70.917969 250.972656 65.371094 249.472656 C 59.148438 247.75 54.804688 249.777344 48.960938 251.277344 C 45.960938 252.027344 42.214844 251.949219 39.964844 254.574219 C 37.492188 257.5 39.441406 262.902344 40.113281 266.050781 C 40.265625 266.949219 39.066406 267.25 38.765625 266.425781 C 36.890625 261.625 35.917969 254.875 40.488281 251.199219 C 43.261719 249.027344 47.160156 249.402344 50.382812 248.277344 C 53.457031 247.222656 56.226562 246.25 59.523438 246.25 C 71.21875 246.175781 82.308594 255.324219 88.378906 265.597656 C 87.628906 260.875 87.40625 256.074219 87.480469 251.875 C 87.628906 244.300781 90.253906 235.449219 97.371094 231.699219 C 91.828125 226.449219 88.378906 219.25 89.65625 211.300781 C 89.28125 210.925781 89.429688 210.175781 90.101562 210.097656 L 90.179688 210.097656 C 90.253906 210.097656 90.40625 210.097656 90.476562 210.097656 C 93.625 210.097656 96.621094 210.777344 99.472656 212.277344 C 99.921875 212.5 99.546875 213.097656 99.097656 212.875 C 96.472656 211.75 93.703125 211.222656 90.851562 211.300781 C 90.101562 223.972656 100.523438 235.902344 113.484375 236.574219 C 119.558594 236.875 125.402344 233.574219 131.097656 232 C 135.96875 230.652344 141.214844 229.597656 146.238281 229.75 C 146.613281 229.75 146.835938 229.902344 147.0625 230.125 C 147.0625 229 147.363281 227.875 147.886719 226.902344 C 147.4375 226.75 146.988281 226.527344 146.6875 226.152344 C 146.238281 225.625 145.9375 225.027344 145.863281 224.347656 C 142.191406 225.175781 139.042969 227.347656 135.296875 227.800781 C 132.449219 228.175781 129.75 227.574219 127.203125 226.300781 C 126.753906 226.074219 127.050781 225.324219 127.503906 225.472656 C 132.449219 227.347656 136.195312 226.527344 140.917969 224.425781 C 142.640625 223.675781 144.214844 223 145.9375 222.925781 C 145.9375 222.777344 146.015625 222.699219 146.015625 222.550781 C 146.085938 222.402344 146.164062 222.25 146.238281 222.097656 C 137.695312 218.652344 129.675781 221.5 120.832031 221.050781 C 115.285156 220.75 108.691406 219.847656 104.792969 215.5 C 104.417969 215.125 105.019531 214.527344 105.394531 214.902344 C 111.613281 221.277344 122.78125 220.375 130.875 219.402344 C 135.671875 218.800781 140.839844 218.125 145.265625 220.152344 C 141.964844 217.222656 138.21875 213.324219 133.875 214.675781 C 133.421875 214.824219 133.273438 214.152344 133.722656 214 C 138.746094 212.277344 143.914062 217.222656 147.511719 220.300781 C 147.738281 220.074219 148.039062 219.847656 148.261719 219.625 C 147.738281 219.175781 147.289062 218.5 146.914062 217.902344 C 145.5625 215.875 144.289062 213.777344 141.816406 213.027344 C 141.292969 212.875 141.515625 212.199219 142.042969 212.277344 C 143.691406 212.5 145.039062 213.472656 146.085938 214.75 C 147.136719 216.027344 148.039062 218.125 149.613281 218.875 C 149.988281 218.722656 150.363281 218.652344 150.660156 218.574219 C 143.242188 208.449219 135.523438 197.5 124.203125 191.722656 C 124.054688 191.722656 123.90625 191.652344 123.753906 191.5 C 122.179688 190.75 120.605469 190.074219 118.957031 189.472656 C 115.511719 188.347656 112.4375 187.902344 109.664062 188.347656 C 114.164062 189.925781 118.285156 192.175781 122.105469 195.027344 C 122.40625 195.25 122.105469 195.699219 121.804688 195.472656 C 117.308594 192.472656 112.4375 190.375 107.269531 188.949219 C 106.367188 189.324219 105.46875 189.777344 104.644531 190.375 C 106.589844 190.527344 108.613281 191.574219 110.1875 192.472656 C 110.5625 192.699219 110.265625 193.152344 109.890625 193 C 108.839844 192.472656 107.714844 192.027344 106.589844 191.722656 C 105.617188 191.5 104.570312 191.5 103.59375 191.277344 C 102.320312 192.402344 101.195312 193.902344 100.222656 195.777344 C 98.273438 199.375 96.773438 203.5 93.402344 206.050781 C 92.953125 206.425781 92.578125 205.675781 92.875 205.300781 C 96.847656 200.347656 98.496094 193.75 102.84375 189.175781 C 107.117188 184.75 113.414062 185.273438 118.882812 186.847656 C 119.78125 187.074219 120.683594 187.375 121.582031 187.75 C 118.808594 182.5 117.535156 177.25 117.386719 170.949219 C 117.160156 162.625 116.484375 154.148438 116.785156 145.824219 C 116.636719 145.300781 116.484375 144.699219 116.335938 144.097656 C 116.183594 143.347656 117.308594 142.972656 117.535156 143.800781 C 117.609375 143.949219 117.683594 144.175781 117.683594 144.324219 C 117.761719 144.398438 117.832031 144.550781 117.910156 144.699219 C 117.910156 144.773438 117.910156 144.847656 117.910156 144.925781 C 121.132812 153.023438 132.523438 157 134.84375 165.550781 C 135.148438 160.300781 136.269531 154.898438 139.871094 150.925781 C 144.964844 145.375 151.558594 147.472656 157.632812 144.25 C 158.15625 143.949219 158.679688 144.773438 158.15625 145.074219 C 153.058594 148.300781 146.539062 146.425781 142.042969 151 C 137.019531 156.097656 136.496094 163.972656 136.871094 170.800781 C 137.621094 184.222656 143.765625 194.199219 151.636719 204.625 C 152.382812 205.675781 150.808594 206.652344 149.910156 205.902344 C 140.242188 197.5 135.296875 182.800781 134.84375 170.125 C 134.546875 170.273438 134.097656 170.273438 133.945312 169.898438 C 131.25 163.75 128.699219 159.097656 123.679688 154.523438 C 121.730469 152.722656 119.707031 150.925781 118.285156 148.824219 C 118.730469 154.898438 118.660156 161.125 118.957031 167.199219 C 119.105469 171.398438 119.105469 175.675781 120.382812 179.722656 C 121.355469 183.023438 123.15625 186.023438 124.804688 189.097656 C 128.851562 191.050781 132.523438 193.597656 135.898438 196.597656 C 130.050781 186.625 125.328125 175.898438 122.40625 165.097656 C 122.257812 164.574219 123.007812 164.347656 123.230469 164.875 C 126.226562 174.550781 130.5 183.550781 135.59375 192.25 C 137.996094 196.300781 140.617188 200.277344 143.316406 204.175781 C 146.164062 207.472656 148.710938 211 151.183594 214.527344 C 151.410156 214.527344 151.636719 214.527344 151.859375 214.675781 C 151.933594 214.675781 151.933594 214.75 152.011719 214.824219 L 152.082031 214.824219 C 152.308594 214.902344 152.609375 215.050781 152.757812 215.277344 C 152.910156 215.347656 153.058594 215.425781 153.132812 215.574219 C 154.109375 216.847656 155.15625 218.125 156.132812 219.324219 C 155.984375 218.5 155.832031 217.675781 155.457031 216.777344 C 154.558594 214.75 153.207031 212.949219 151.859375 211.300781 C 151.183594 211.527344 150.363281 211.300781 149.835938 210.699219 C 149.011719 209.800781 149.160156 208.300781 150.285156 207.699219 C 151.484375 207.027344 152.910156 208 152.910156 209.277344 C 152.910156 209.425781 152.910156 209.5 152.832031 209.652344 C 154.40625 211.152344 156.429688 213.324219 157.78125 215.652344 C 157.929688 214.675781 158.003906 213.699219 158.078125 212.722656 C 157.179688 204.472656 148.9375 199.597656 148.039062 191.277344 C 147.960938 190.75 148.9375 190.597656 149.011719 191.125 C 149.835938 197.125 155.457031 201.777344 158.078125 207.324219 C 157.929688 204.550781 157.40625 201.847656 156.65625 199.300781 C 155.757812 199.222656 154.859375 198.550781 154.933594 197.5 C 155.007812 196.074219 156.507812 195.027344 157.855469 195.402344 C 158.304688 195.550781 158.605469 195.847656 158.828125 196.222656 C 158.828125 196.074219 158.753906 196 158.753906 195.847656 C 157.480469 191.199219 153.359375 188.050781 151.410156 183.777344 C 148.1875 176.722656 148.335938 168.847656 149.460938 161.347656 C 149.535156 160.75 150.433594 161.050781 150.363281 161.574219 C 149.613281 167.125 149.3125 172.824219 150.660156 178.300781 C 151.785156 183.097656 154.257812 186.25 157.179688 190.074219 C 160.550781 194.574219 161.230469 200.125 160.480469 205.597656 C 160.777344 207.925781 160.855469 210.25 160.855469 212.722656 C 160.855469 212.949219 160.855469 213.097656 160.855469 213.324219 C 161.675781 211.972656 162.574219 210.625 163.476562 209.347656 C 163.175781 209.347656 162.949219 209.050781 163.027344 208.75 C 163.925781 205.972656 164.976562 203.347656 164.226562 200.347656 C 163.777344 198.472656 162.652344 196.824219 161.976562 195.027344 C 160.925781 192.175781 160.703125 189.472656 161.453125 186.550781 C 161.605469 185.949219 162.425781 186.25 162.351562 186.777344 C 161.230469 192.324219 164.523438 195.625 165.648438 200.574219 C 166.023438 202.074219 165.949219 203.5 165.574219 204.925781 C 165.800781 204.925781 165.949219 204.925781 166.171875 205 C 167.222656 205.375 167.597656 206.425781 167.445312 207.402344 C 167.375 207.925781 166.851562 208.222656 166.398438 208.300781 C 164.824219 211.75 163.101562 214.972656 161.675781 218.425781 C 164.074219 215.652344 166.921875 213.175781 170.070312 211.597656 C 169.996094 211.449219 169.996094 211.300781 170.070312 211.074219 C 173.519531 205.074219 178.617188 201.25 184.085938 197.277344 C 184.460938 197.050781 184.835938 197.574219 184.535156 197.875 C 182.214844 199.824219 179.8125 201.777344 177.492188 203.800781 C 175.765625 205.300781 174.417969 207.097656 173.144531 208.902344 C 173.21875 208.902344 173.371094 208.902344 173.441406 208.972656 C 174.042969 209.125 174.492188 209.574219 174.71875 210.097656 C 177.039062 208.75 179.4375 207.472656 181.839844 206.050781 C 187.160156 202.902344 190.679688 195.472656 197.5 195.472656 C 197.875 195.472656 197.875 196.074219 197.5 196.074219 C 192.332031 196.222656 190.304688 200.425781 187.085938 203.5 C 185.285156 205.222656 183.1875 206.652344 181.011719 207.925781 C 178.839844 209.199219 176.742188 210.472656 174.644531 211.824219 C 174.417969 212.125 174.117188 212.347656 173.746094 212.425781 L 173.667969 212.425781 C 170.519531 214.527344 167.523438 216.699219 164.601562 219.324219 C 164.523438 219.402344 164.449219 219.550781 164.375 219.625 C 164.976562 219.25 165.648438 218.875 166.171875 218.574219 C 167.671875 217.75 169.097656 217.074219 170.671875 216.625 C 170.371094 216.625 169.996094 216.550781 169.695312 216.550781 C 169.023438 216.472656 168.945312 215.425781 169.695312 215.425781 C 176.140625 215.574219 180.414062 212.5 186.035156 210.324219 C 188.359375 209.425781 190.304688 209.425781 192.480469 210.699219 C 192.855469 210.925781 192.480469 211.449219 192.179688 211.222656 C 187.757812 208.824219 183.113281 213.402344 179.214844 214.972656 C 178.015625 215.425781 176.890625 215.875 175.691406 216.175781 C 175.765625 216.324219 175.84375 216.472656 175.84375 216.625 C 176.140625 218.050781 174.71875 218.949219 173.519531 218.277344 C 173.21875 218.125 173.066406 217.824219 172.996094 217.527344 C 172.019531 217.972656 170.972656 218.5 169.996094 219.027344 C 170.671875 219.25 171.347656 219.550781 171.871094 219.925781 C 171.945312 219.550781 172.167969 219.175781 172.691406 219.097656 C 182.214844 217.527344 192.554688 217.824219 201.171875 221.5 C 202.449219 218.875 204.546875 216.925781 206.792969 214.902344 C 211.289062 211 213.613281 208.152344 213.316406 201.847656 C 213.164062 198.25 213.164062 194.949219 215.488281 192.027344 C 216.761719 190.375 218.488281 189.175781 219.984375 187.824219 C 217.0625 188.199219 214.363281 188.875 211.664062 190.222656 C 211.289062 190.449219 210.914062 189.847656 211.289062 189.625 C 214.289062 187.902344 217.8125 186.699219 221.257812 186.625 C 222.460938 185.425781 223.433594 184.074219 223.882812 182.277344 C 224.109375 181.527344 225.15625 181.824219 225.007812 182.574219 C 224.480469 186.097656 221.933594 187.972656 219.386719 190.300781 C 217.136719 192.402344 215.414062 194.347656 215.191406 197.652344 C 214.964844 200.425781 215.941406 203.125 215.636719 205.902344 C 214.886719 213.625 206.644531 216.324219 203.199219 222.472656 C 203.273438 222.550781 203.347656 222.550781 203.421875 222.550781 C 203.574219 222.324219 203.871094 222.175781 204.171875 222.175781 C 213.242188 222.175781 218.5625 215.347656 222.683594 208.152344 C 226.957031 200.652344 228.902344 191.949219 225.605469 183.699219 C 225.382812 183.097656 226.28125 182.722656 226.582031 183.25 C 231.375 192.402344 228.980469 202.300781 223.882812 210.847656 C 219.984375 217.300781 214.363281 224.125 206.496094 224.5 C 207.394531 225.097656 208.21875 225.777344 209.042969 226.527344 C 216.839844 221.800781 225.230469 217.972656 233.925781 215.199219 C 235.800781 213.699219 237.449219 212.199219 238.496094 210.027344 C 239.546875 207.847656 239.769531 205.449219 241.269531 203.5 C 241.644531 202.972656 242.394531 203.425781 242.09375 203.949219 C 240.820312 206.574219 240.519531 209.5 239.019531 211.972656 C 238.574219 212.722656 238.046875 213.472656 237.449219 214.152344 C 246.515625 211.597656 255.960938 210.097656 265.402344 209.800781 C 265.929688 209.800781 265.851562 210.550781 265.402344 210.550781 C 258.433594 211.152344 251.6875 212.199219 245.015625 213.847656 C 249.289062 215.199219 253.710938 217.75 256.109375 221.425781 C 256.109375 221.5 256.183594 221.5 256.183594 221.574219 C 257.007812 221.425781 257.757812 221.347656 258.433594 221.425781 C 261.652344 221.875 265.25 225.25 266.453125 228.175781 C 266.675781 228.777344 265.777344 229.222656 265.402344 228.777344 C 263.828125 226.824219 261.957031 224.347656 259.707031 223.222656 C 258.882812 222.777344 257.910156 222.699219 257.007812 222.847656 L 257.082031 222.925781 C 259.183594 225.25 259.410156 229.222656 259.257812 232.222656 C 259.257812 232.75 258.433594 232.75 258.433594 232.222656 C 258.433594 230.574219 258.207031 229 257.683594 227.5 C 257.234375 226.152344 256.484375 224.875 256.109375 223.527344 C 256.03125 223.300781 256.109375 223.152344 256.257812 223 C 256.035156 223.074219 255.734375 223.152344 255.507812 223.222656 C 255.585938 224.199219 254.835938 225.175781 254.6875 226.074219 C 254.460938 227.277344 254.535156 228.402344 254.6875 229.597656 C 254.757812 229.972656 254.160156 230.125 253.9375 229.824219 C 253.261719 228.625 253.109375 227.277344 253.335938 225.925781 C 253.414062 225.324219 253.5625 224.574219 253.859375 223.902344 C 252.136719 224.722656 250.5625 225.925781 249.441406 226.902344 C 249.363281 226.972656 249.214844 226.972656 249.136719 227.050781 C 249.214844 227.125 249.214844 227.125 249.289062 227.199219 C 252.585938 230.949219 254.3125 234.925781 253.484375 239.800781 C 254.3125 239.425781 255.359375 239.199219 256.183594 239.347656 C 256.785156 239.425781 257.308594 239.722656 257.757812 240.097656 C 258.355469 240.625 259.035156 241.902344 260.082031 241.675781 C 260.308594 240.925781 260.753906 241.824219 260.15625 242.050781 Z M 266.601562 236.652344 C 266.375 234.847656 266.078125 232.972656 265.703125 231.175781 C 265.625 230.722656 264.804688 230.800781 264.804688 231.324219 C 264.953125 233.425781 265.179688 235.527344 265.328125 237.625 C 265.476562 238.972656 265.328125 240.472656 263.753906 240.925781 C 263.304688 241.074219 262.929688 241.074219 262.554688 241.222656 C 262.855469 239.949219 262.703125 238.597656 262.554688 237.324219 C 262.40625 236.125 262.253906 234.925781 261.730469 233.800781 C 261.582031 233.425781 261.054688 233.652344 261.054688 233.949219 C 260.90625 235.222656 261.207031 236.5 261.207031 237.847656 C 261.28125 239.050781 261.128906 240.175781 261.355469 241.375 C 261.429688 241.675781 261.65625 241.75 261.878906 241.824219 C 261.878906 242.050781 261.957031 242.199219 262.179688 242.277344 C 263.828125 242.875 266 241.824219 266.601562 240.175781 C 267.050781 239.050781 266.75 237.777344 266.601562 236.652344 Z M 152.234375 119.875 C 149.3125 119.347656 147.210938 118.074219 145.039062 116.273438 C 146.6875 121.449219 147.4375 126.925781 150.433594 131.574219 C 153.734375 136.75 158.828125 139.300781 164.601562 140.648438 C 164.601562 139.148438 164.824219 137.722656 165.351562 136.375 C 158.980469 133.824219 153.808594 129.023438 150.058594 123.324219 C 149.683594 122.722656 150.585938 122.199219 150.957031 122.800781 C 154.933594 128.199219 160.105469 131.875 166.023438 134.800781 C 166.625 133.675781 167.375 132.625 168.195312 131.722656 C 168.195312 131.648438 168.195312 131.574219 168.195312 131.5 C 168.273438 130.898438 168.273438 130.375 168.347656 129.773438 C 168.046875 129.699219 167.820312 129.472656 167.671875 129.097656 C 165.199219 121.597656 158.828125 121 152.234375 119.875 Z M 165.574219 141.097656 C 165.648438 141.175781 165.648438 141.175781 165.726562 141.25 C 169.246094 140.800781 172.542969 141.550781 175.992188 144.398438 C 179.589844 147.398438 182.660156 151.148438 184.238281 155.5 C 189.554688 155.273438 191.730469 152.125 195.777344 149.5 C 198.101562 147.925781 200.875 147.175781 203.648438 147.023438 C 203.496094 146.273438 203.574219 145.449219 203.722656 144.925781 C 200.421875 146.574219 196.378906 147.25 192.855469 147.472656 C 192.40625 147.472656 192.332031 146.800781 192.78125 146.722656 C 194.953125 146.273438 197.125 145.75 199.226562 145.074219 C 200.875 144.550781 202.375 143.722656 203.949219 143.125 C 203.949219 142.898438 203.949219 142.675781 203.949219 142.449219 C 203.949219 142.449219 203.949219 142.449219 203.949219 142.375 C 203.871094 142.597656 203.796875 142.75 203.496094 142.75 C 200.125 143.347656 197.277344 142.449219 194.054688 141.324219 C 188.585938 139.449219 183.863281 138.925781 178.242188 140.648438 C 177.71875 140.800781 177.492188 139.972656 178.015625 139.824219 C 181.464844 138.625 184.910156 138.097656 188.585938 138.625 C 193.753906 139.300781 198.101562 141.847656 203.421875 141.550781 C 203.648438 141.550781 203.871094 141.699219 203.949219 141.847656 C 203.949219 141.773438 203.949219 141.773438 203.949219 141.699219 C 203.796875 140.574219 203.648438 139.449219 203.722656 138.324219 C 198.175781 139 192.707031 134.050781 188.210938 131.425781 C 177.867188 125.425781 167.820312 129.398438 165.574219 141.097656 Z M 204.324219 133.824219 C 197.425781 130.597656 191.429688 125.273438 185.960938 119.800781 C 187.382812 121.300781 188.808594 122.875 190.234375 124.375 C 194.355469 128.648438 198.398438 133 204.324219 133.824219 Z M 189.859375 120.925781 C 188.65625 120.097656 187.53125 119.199219 186.335938 118.375 C 192.105469 123.472656 197.875 128.425781 204.621094 132.472656 C 201.25 127.75 194.054688 124 189.859375 120.925781 Z M 208.820312 133.675781 C 208.820312 133.824219 208.820312 134.050781 208.820312 134.199219 C 208.820312 134.949219 208.144531 135.324219 207.46875 135.324219 C 207.394531 135.550781 207.167969 135.773438 206.871094 135.773438 C 206.570312 135.847656 206.347656 135.847656 206.042969 135.847656 C 206.042969 135.925781 206.042969 136 205.972656 136.148438 C 205.074219 137.722656 205.144531 139 205.445312 140.5 C 205.820312 140.425781 206.195312 140.425781 206.570312 140.5 C 207.394531 140.648438 208.144531 140.800781 208.820312 140.949219 C 208.292969 140.347656 208.070312 139.597656 208.144531 138.699219 C 208.21875 138.023438 208.519531 137.425781 208.894531 136.824219 C 208.820312 136.449219 209.042969 136.148438 209.34375 136 L 209.34375 135.925781 C 210.015625 134.648438 210.015625 133.375 210.015625 132.097656 C 209.867188 132.25 209.71875 132.472656 209.492188 132.699219 C 209.417969 133 209.117188 133.375 208.820312 133.675781 Z M 216.613281 92.648438 C 216.535156 91.675781 216.535156 90.699219 216.464844 89.722656 L 216.386719 89.648438 C 214.363281 87.324219 213.242188 84.398438 211.140625 82.074219 C 208.742188 79.449219 206.121094 78.25 202.972656 76.75 C 202.375 76.449219 202.824219 75.625 203.421875 75.773438 C 206.71875 76.449219 209.71875 78.25 212.039062 80.574219 C 213.539062 82.074219 215.191406 84.023438 216.386719 86.125 C 216.386719 84.925781 216.3125 83.722656 216.3125 82.523438 C 209.34375 76.222656 203.722656 68.722656 193.605469 69.925781 C 199.453125 72.925781 198.328125 82.449219 205.292969 84.472656 C 205.667969 84.550781 205.820312 84.847656 205.894531 85.148438 C 209.867188 83.722656 213.988281 88.375 216.613281 92.648438 Z M 215.488281 68.347656 C 215.566406 68.347656 215.566406 68.347656 215.636719 68.347656 C 215.566406 68.273438 215.488281 68.199219 215.414062 68.125 C 214.066406 65.722656 212.265625 64.597656 210.167969 62.949219 C 208.21875 61.449219 206.496094 59.800781 204.847656 57.925781 C 204.394531 57.472656 205.074219 56.722656 205.519531 57.25 C 207.84375 59.5 210.390625 61.523438 213.242188 63.25 C 213.613281 63.472656 213.988281 63.699219 214.363281 64 C 209.265625 57.472656 202.296875 49 194.207031 48.398438 C 197.351562 49.972656 198.925781 53.5 200.574219 56.648438 C 203.949219 63.25 207.320312 68.574219 215.488281 68.347656 Z M 213.316406 42.699219 C 213.390625 42.699219 213.390625 42.699219 213.316406 42.699219 C 211.742188 41.347656 210.320312 39.773438 208.667969 38.5 C 206.570312 36.925781 204.246094 35.648438 201.921875 34.449219 C 201.171875 34.074219 201.699219 32.800781 202.523438 33.097656 C 205.144531 34.148438 207.621094 35.574219 209.945312 37.300781 C 211.140625 38.199219 212.492188 39.175781 213.613281 40.222656 C 213.613281 40.148438 213.613281 40.074219 213.539062 40 C 209.34375 32.648438 201.773438 28.523438 193.679688 27.175781 C 195.328125 28.449219 196.300781 30.324219 197.578125 32.574219 C 200.796875 38.574219 205.597656 44.722656 213.316406 42.699219 Z M 208.820312 23.875 C 208.820312 23.800781 208.820312 23.800781 208.820312 23.722656 C 206.195312 20.425781 204.472656 16.300781 203.796875 12.097656 C 203.722656 11.425781 204.699219 11.125 204.847656 11.800781 C 205.519531 15.625 206.871094 18.925781 208.96875 22.074219 C 209.195312 17.574219 208.070312 13.300781 206.042969 9.175781 C 204.996094 7.074219 203.796875 5.125 202.824219 3.023438 C 202.597656 6.472656 202.296875 9.925781 202.597656 13.375 C 202.972656 18.175781 205.746094 20.875 208.820312 23.875 Z M 216.910156 40.222656 C 217.585938 38.875 218.261719 37.449219 219.011719 36.175781 C 220.210938 34.148438 221.933594 32.125 222.308594 29.722656 C 222.382812 29.199219 223.207031 29.347656 223.207031 29.875 C 223.058594 31.898438 221.933594 33.472656 220.960938 35.199219 C 219.535156 37.675781 218.335938 40.222656 217.285156 42.847656 C 217.136719 43.148438 216.910156 43.300781 216.761719 43.300781 C 216.761719 43.300781 216.761719 43.300781 216.761719 43.375 C 216.761719 43.75 216.535156 43.972656 216.3125 44.050781 C 216.386719 44.273438 216.386719 44.425781 216.464844 44.648438 C 220.585938 41.574219 224.183594 38.5 226.503906 33.773438 C 229.054688 28.597656 229.203125 22.972656 229.726562 17.425781 C 226.503906 20.273438 222.984375 22.300781 220.585938 26.125 C 217.8125 30.472656 217.285156 35.347656 216.910156 40.222656 Z M 218.785156 66.925781 C 218.785156 67.222656 218.785156 67.523438 218.859375 67.824219 C 219.6875 66.699219 220.734375 65.648438 221.484375 64.75 C 223.957031 61.824219 226.730469 59.425781 229.804688 57.175781 C 230.179688 56.875 230.628906 57.472656 230.253906 57.773438 C 228.003906 59.800781 225.832031 61.972656 223.808594 64.222656 C 221.859375 66.398438 220.507812 68.800781 218.9375 71.125 C 218.9375 71.648438 218.9375 72.175781 219.011719 72.699219 C 224.855469 69.023438 229.953125 65.425781 232.277344 58.523438 C 233.550781 54.773438 233.773438 50.722656 236.621094 48.25 C 231.902344 49.222656 228.605469 53.648438 225.457031 57.175781 C 222.832031 60.324219 220.660156 63.472656 218.785156 66.925781 Z M 217.136719 128.050781 C 219.386719 124 222.683594 120.550781 225.230469 116.648438 C 227.554688 113.050781 229.878906 109.449219 232.277344 105.847656 C 225.90625 112.523438 219.085938 118.824219 217.136719 128.050781 Z M 229.203125 115.597656 C 231.375 111.25 233.101562 106.75 235.5 102.472656 C 232.5 107.425781 229.355469 112.375 226.207031 117.25 C 223.359375 121.675781 219.460938 125.800781 217.214844 130.523438 C 217.0625 130.824219 216.839844 130.898438 216.613281 130.824219 C 216.464844 131.199219 216.160156 131.425781 215.789062 131.5 C 216.089844 131.574219 216.3125 131.800781 216.160156 132.175781 C 215.488281 135.324219 219.3125 137.347656 218.261719 140.574219 C 217.4375 143.347656 214.363281 144.773438 213.316406 147.398438 C 213.839844 147.550781 214.441406 147.699219 214.964844 147.699219 C 216.160156 147.699219 217.0625 146.949219 218.1875 146.875 L 218.261719 146.875 C 218.261719 146.800781 218.261719 146.722656 218.1875 146.648438 C 218.113281 146.347656 218.410156 146.050781 218.636719 145.898438 C 218.5625 145.75 218.410156 145.597656 218.335938 145.449219 C 218.113281 145.074219 218.636719 144.699219 218.9375 145 C 223.207031 149.875 227.777344 152.347656 233.773438 154.597656 C 237.523438 155.949219 239.097656 158.125 241.570312 160.523438 C 236.925781 151.597656 229.128906 147.398438 219.460938 144.398438 C 218.710938 144.175781 218.785156 142.898438 219.6875 142.972656 C 219.761719 142.972656 219.835938 142.972656 219.835938 142.972656 C 219.910156 142.675781 220.132812 142.375 220.585938 142.222656 C 220.960938 142.074219 221.257812 142 221.632812 141.925781 C 221.632812 141.25 221.484375 140.722656 221.1875 140.273438 C 220.734375 140.199219 220.359375 140.125 219.910156 139.972656 C 219.460938 139.824219 219.460938 139.074219 220.0625 139.074219 C 220.132812 139.074219 220.210938 139.074219 220.359375 139.074219 C 220.210938 138.925781 220.132812 138.699219 220.0625 138.550781 C 219.535156 138.472656 219.3125 137.800781 219.6875 137.425781 C 219.386719 136 219.6875 134.574219 218.636719 133.375 C 218.113281 133.300781 217.738281 132.925781 217.738281 132.472656 C 217.214844 132.175781 216.910156 131.347656 217.363281 130.824219 C 222.085938 126.023438 226.28125 121.597656 229.203125 115.597656 Z M 243.070312 163.222656 C 242.992188 163 242.84375 162.699219 242.695312 162.472656 C 242.695312 162.472656 242.617188 162.472656 242.617188 162.398438 C 242.394531 162.25 242.242188 162.097656 242.09375 161.949219 C 242.46875 162.398438 242.769531 162.773438 243.070312 163.222656 Z M 233.625 157.074219 C 235.949219 158.050781 238.871094 159.324219 241.046875 161.050781 C 239.769531 159.699219 238.796875 158.125 237.222656 157.074219 C 234.675781 155.425781 231.453125 154.972656 228.679688 153.699219 C 225.308594 152.199219 222.308594 150.023438 219.984375 147.25 C 221.410156 150.550781 222.382812 153.25 226.355469 154.824219 C 228.679688 155.722656 231.226562 156.097656 233.625 157.074219 Z M 222.984375 162.847656 C 221.257812 158.273438 219.535156 153.699219 218.035156 149.050781 C 217.214844 149.574219 216.089844 149.800781 215.191406 149.800781 C 215.191406 149.800781 215.191406 149.800781 215.113281 149.800781 C 215.863281 151.75 215.789062 154 215.789062 156.097656 C 215.789062 160.074219 215.789062 164.050781 215.714844 167.949219 C 215.714844 168.472656 214.886719 168.472656 214.886719 167.949219 C 214.664062 161.800781 215.191406 155.5 213.765625 149.574219 C 213.015625 149.347656 212.265625 149.050781 211.515625 148.75 C 212.265625 152.273438 211.816406 156.097656 211.367188 159.625 C 211.289062 160.074219 210.617188 160.074219 210.617188 159.625 C 210.992188 155.875 210.542969 152.199219 210.320312 148.523438 C 209.640625 148.449219 208.894531 148.597656 208.144531 149.050781 L 208.144531 149.125 C 206.871094 153.472656 205.820312 158.5 203.273438 162.324219 C 201.546875 164.875 199.226562 166.597656 198.476562 169.75 C 197.953125 172.148438 198.101562 174.625 198.398438 177.097656 C 201.625 175.824219 205.144531 174.773438 208.59375 174.472656 C 208.820312 172.300781 208.894531 170.199219 208.96875 168.023438 C 208.96875 167.574219 209.640625 167.5 209.71875 167.949219 C 210.09375 170.050781 210.09375 172.300781 209.867188 174.398438 C 214.816406 174.175781 219.535156 175.300781 223.207031 178.75 C 227.253906 173.722656 224.933594 168.097656 222.984375 162.847656 Z M 210.320312 138.097656 C 209.945312 139.074219 209.945312 140.050781 211.066406 140.574219 L 211.140625 140.648438 C 213.089844 139.972656 214.816406 139.972656 216.238281 141.550781 C 217.363281 139.824219 216.910156 138.398438 216.238281 136.898438 C 216.089844 136.898438 216.011719 136.898438 215.863281 136.824219 C 214.664062 136.222656 213.613281 136.375 212.640625 137.199219 C 212.191406 137.5 211.816406 137.875 211.289062 138.097656 C 210.992188 138.175781 210.617188 138.175781 210.320312 138.097656 Z M 212.566406 130.972656 C 212.339844 131.199219 211.96875 131.347656 211.664062 131.199219 C 212.117188 132.398438 212.039062 133.75 211.742188 135.023438 C 211.664062 135.398438 211.441406 135.773438 211.289062 136.148438 C 212.039062 135.925781 213.089844 135.398438 213.539062 135.324219 C 214.289062 135.175781 214.964844 135.324219 215.636719 135.550781 C 215.191406 134.5 214.816406 133.375 215.039062 132.175781 C 214.886719 132.175781 214.738281 132.097656 214.589844 132.023438 C 213.914062 131.347656 213.242188 131.050781 212.566406 130.972656 Z M 204.847656 151.75 C 204.921875 151.449219 205.222656 151.375 205.445312 151.375 C 205.820312 150.398438 206.195312 149.347656 206.644531 148.375 C 206.792969 148.074219 207.09375 147.925781 207.394531 148 C 208.292969 146.800781 209.792969 146.648438 211.289062 146.875 C 211.367188 146.875 211.367188 146.875 211.441406 146.875 C 212.414062 144.773438 214.214844 143.949219 215.636719 142.375 C 213.539062 140.347656 212.191406 142.222656 210.167969 142.75 C 208.742188 143.050781 207.394531 142.222656 205.972656 142.375 C 205.972656 142.449219 205.972656 142.523438 205.972656 142.597656 C 206.121094 142.824219 206.121094 143.199219 205.894531 143.347656 C 205.667969 144.550781 204.921875 145.898438 205.371094 146.875 C 205.445312 146.875 205.519531 146.949219 205.519531 146.949219 C 205.597656 146.949219 205.667969 146.875 205.746094 146.875 C 206.792969 146.648438 207.246094 148.222656 206.195312 148.523438 C 205.597656 148.675781 205.074219 148.824219 204.546875 148.972656 C 200.351562 152.125 198.027344 157.375 195.175781 161.722656 C 193.003906 165.097656 190.757812 168.625 188.28125 171.773438 C 188.058594 172.375 187.757812 172.972656 187.460938 173.5 C 194.355469 167.125 201.921875 161.425781 204.847656 151.75 Z M 190.382812 166.523438 C 192.480469 163.597656 194.652344 160.597656 196.601562 157.597656 C 198.328125 154.972656 199.898438 152.425781 202 150.25 C 196.300781 153.398438 192.929688 159.625 190.605469 165.773438 C 190.605469 166.074219 190.457031 166.300781 190.382812 166.523438 Z M 165.800781 142.222656 L 165.726562 142.222656 C 165.726562 142.300781 165.648438 142.300781 165.648438 142.375 C 165.648438 142.300781 165.726562 142.300781 165.800781 142.222656 Z M 155.757812 99.773438 C 153.882812 96.097656 153.058594 91.675781 152.609375 87.773438 C 152.535156 87.25 153.359375 87.175781 153.507812 87.625 C 154.332031 91.074219 155.234375 94.898438 156.804688 98.050781 C 158.53125 101.5 161.152344 103 164.226562 104.722656 C 164.523438 97.375 163.476562 90.773438 158.078125 85.300781 C 155.457031 82.597656 152.308594 80.800781 150.210938 77.875 C 150.808594 83.273438 151.183594 88.972656 152.609375 94.074219 C 153.207031 96.550781 154.332031 98.347656 155.757812 99.773438 Z M 226.957031 88.375 C 226.433594 89.574219 225.90625 90.925781 225.308594 92.199219 C 229.429688 88.75 232.726562 85 234.601562 79.824219 C 234.75 79.300781 235.574219 79.523438 235.425781 80.050781 C 233.851562 85 231 89.800781 226.878906 93.023438 C 230.851562 91.222656 234.449219 88.824219 237.449219 85.375 C 240.59375 81.699219 242.019531 76.824219 245.316406 73.375 C 240.445312 73 237.148438 74.273438 233.851562 78.25 C 231.078125 81.398438 228.679688 84.625 226.957031 88.375 Z M 224.78125 93.398438 C 224.707031 93.625 224.558594 93.847656 224.480469 94 C 224.707031 93.925781 224.933594 93.847656 225.082031 93.773438 C 225.007812 93.699219 224.855469 93.550781 224.78125 93.398438 Z M 143.242188 114.847656 C 143.089844 114.175781 143.914062 113.875 144.289062 114.324219 C 144.367188 114.324219 144.515625 114.324219 144.589844 114.398438 C 149.835938 118.148438 155.609375 117.175781 161.300781 119.425781 C 164.152344 120.550781 166.625 122.425781 168.125 124.898438 C 167.75 118.898438 166.25 112.898438 165.125 107.125 C 164.898438 107.347656 164.523438 107.5 164.152344 107.425781 C 149.3125 104.5 149.835938 87.925781 149.011719 76.148438 C 148.863281 75.925781 148.785156 75.625 148.636719 75.324219 C 148.335938 74.574219 149.535156 74.125 149.910156 74.800781 C 152.535156 80.648438 159.878906 83.125 163.175781 88.824219 C 165.949219 93.625 167.445312 99.925781 165.875 105.324219 C 165.800781 105.550781 165.648438 105.699219 165.5 105.847656 C 165.5 105.925781 165.5 106 165.5 106.074219 C 165.5 106.148438 165.5 106.222656 165.5 106.300781 C 165.648438 106.300781 165.726562 106.375 165.800781 106.597656 C 167.222656 111.324219 168.195312 116.273438 169.097656 121.148438 C 169.621094 123.925781 170.445312 127 170.144531 129.847656 C 172.542969 128.050781 175.390625 126.925781 178.390625 126.699219 C 182.738281 126.398438 186.632812 128.199219 190.304688 130.300781 C 192.40625 131.5 194.425781 132.847656 196.527344 133.972656 C 198.925781 135.25 201.472656 135.699219 203.871094 136.675781 C 204.019531 136.449219 204.097656 136.222656 204.246094 136 C 199.75 135.773438 196.078125 133.222656 192.855469 129.925781 C 186.859375 123.925781 180.9375 117.472656 175.617188 110.875 C 175.242188 110.425781 175.84375 109.824219 176.21875 110.273438 L 176.292969 110.347656 C 176.441406 110.273438 176.59375 110.273438 176.816406 110.347656 C 183.558594 114.175781 189.859375 118.898438 196.003906 123.472656 C 199.148438 125.875 203.121094 128.125 205.519531 131.347656 C 202.148438 121.449219 190.457031 115.074219 186.859375 105.097656 C 185.585938 101.574219 185.511719 97.222656 187.609375 93.925781 C 190.304688 89.722656 195.175781 90.175781 199.148438 88.074219 C 199.675781 87.773438 200.199219 88.597656 199.675781 88.898438 C 199.148438 89.273438 198.625 89.5 198.027344 89.800781 C 202.222656 94.222656 204.847656 99.847656 205.746094 105.925781 C 205.820312 106.597656 204.769531 106.898438 204.699219 106.222656 C 203.871094 100.222656 201.25 95.050781 197.050781 90.773438 C 196.902344 90.625 196.828125 90.472656 196.828125 90.324219 C 195.925781 90.625 194.953125 90.847656 193.902344 91.148438 C 190.007812 92.273438 187.308594 95.125 187.085938 99.324219 C 186.785156 105.625 191.429688 110.347656 195.253906 114.625 C 199.375 119.199219 206.570312 124.972656 208.21875 131.5 C 208.292969 131.425781 208.367188 131.347656 208.445312 131.273438 C 209.117188 130.597656 209.792969 130 210.691406 129.773438 C 210.765625 129.773438 210.84375 129.773438 210.992188 129.699219 C 210.46875 125.800781 210.09375 121.898438 209.570312 118 C 209.492188 117.472656 210.46875 117.324219 210.542969 117.847656 C 211.140625 121.75 211.816406 125.648438 212.414062 129.625 C 212.789062 129.699219 213.164062 129.773438 213.464844 129.847656 C 213.914062 122.5 217.511719 115.523438 217.738281 107.949219 C 217.886719 102.324219 213.316406 80.425781 203.421875 87.925781 C 202.972656 88.222656 202.597656 87.625 202.898438 87.25 C 203.199219 86.875 203.496094 86.574219 203.871094 86.273438 C 196.453125 84.699219 197.652344 73.375 191.054688 70.375 C 190.90625 70.300781 190.828125 70.222656 190.828125 70.148438 C 190.382812 69.847656 190.382812 69.023438 190.980469 68.875 C 201.625 66.324219 209.265625 71.875 215.9375 79.074219 C 215.863281 75.773438 215.863281 72.550781 215.789062 69.25 C 215.714844 69.398438 215.636719 69.472656 215.5625 69.550781 C 211.816406 71.800781 207.316406 69.773438 204.394531 67 C 199.300781 62.125 198.773438 50.949219 191.507812 48.773438 C 190.980469 48.625 190.980469 48.097656 191.28125 47.800781 C 191.28125 47.800781 191.28125 47.722656 191.355469 47.722656 C 195.628906 44.800781 201.398438 49.300781 204.769531 51.847656 C 208.894531 55 212.492188 58.75 215.714844 62.722656 C 215.488281 56.347656 214.964844 50.050781 213.988281 43.824219 C 213.914062 43.898438 213.839844 43.972656 213.765625 44.050781 C 210.015625 45.925781 205.820312 45.023438 202.523438 42.550781 C 197.203125 38.5 196.078125 29.050781 189.78125 26.722656 L 189.707031 26.722656 C 188.507812 26.648438 188.507812 24.773438 189.707031 24.847656 C 199.226562 25.597656 207.621094 30.097656 212.867188 37.972656 C 211.890625 33.625 210.542969 29.273438 208.820312 25 C 206.042969 22.972656 203.273438 20.5 202.074219 17.273438 C 200.199219 12.398438 201.472656 6.023438 201.625 0.925781 C 201.625 0.773438 201.699219 0.625 201.773438 0.550781 C 201.699219 0.0976562 202.296875 -0.0507812 202.449219 0.398438 C 202.671875 0.472656 202.824219 0.625 202.824219 0.925781 C 202.824219 1 202.824219 1.148438 202.824219 1.222656 C 204.246094 4.898438 206.945312 8.050781 208.519531 11.722656 C 210.167969 15.699219 210.765625 19.523438 210.242188 23.800781 C 210.242188 24.023438 210.09375 24.097656 210.015625 24.25 C 212.117188 28.972656 213.765625 33.847656 214.964844 38.800781 C 215.339844 34.597656 216.613281 30.472656 218.636719 26.800781 C 221.410156 21.699219 225.683594 19.597656 229.804688 15.847656 C 230.027344 15.398438 230.851562 15.472656 230.929688 16.074219 C 231.902344 27.847656 228.378906 41.5 216.761719 46.824219 C 217.660156 52.222656 218.261719 57.699219 218.636719 63.25 C 220.8125 59.875 223.582031 56.875 226.355469 53.949219 C 229.578125 50.648438 233.476562 46 238.496094 47.125 C 238.574219 47.125 238.644531 47.050781 238.722656 47.050781 C 239.171875 46.824219 239.621094 47.273438 239.621094 47.648438 C 239.695312 47.949219 239.621094 48.25 239.246094 48.25 C 239.171875 48.25 239.171875 48.25 239.097656 48.25 C 234.824219 50.722656 235.273438 55.75 233.925781 59.875 C 233.175781 62.199219 232.054688 64.375 230.628906 66.398438 C 227.929688 70.074219 223.882812 73.675781 219.386719 74.722656 C 219.3125 74.722656 219.234375 74.722656 219.160156 74.722656 C 219.386719 82.375 219.386719 90.023438 219.609375 97.597656 C 227.332031 87.773438 230.851562 69.175781 246.589844 72.472656 C 247.191406 72.625 247.042969 73.597656 246.441406 73.523438 C 243.96875 76.074219 243.144531 79.523438 241.34375 82.523438 C 240.070312 84.699219 238.496094 86.648438 236.773438 88.449219 C 233.101562 92.199219 228.453125 95.199219 223.433594 96.550781 C 223.359375 96.550781 223.28125 96.550781 223.207031 96.550781 C 222.308594 97.972656 221.1875 99.175781 219.6875 100 C 219.6875 100.148438 219.6875 100.300781 219.6875 100.449219 C 220.585938 104.648438 220.585938 109.074219 220.0625 113.347656 C 219.910156 114.773438 219.6875 116.347656 219.386719 117.925781 C 224.332031 110.722656 231.976562 105.023438 237.597656 98.5 C 237.972656 98.050781 238.644531 98.722656 238.269531 99.175781 C 238.121094 99.398438 237.972656 99.550781 237.746094 99.773438 C 237.746094 99.847656 237.746094 99.925781 237.746094 100.074219 C 233.023438 109 230.554688 119.722656 223.957031 127.449219 C 226.355469 125.425781 228.753906 123.398438 231.453125 121.75 C 235.949219 118.972656 241.796875 118.597656 246.964844 118.972656 C 256.257812 119.648438 259.855469 129.398438 256.710938 137.425781 C 256.558594 137.875 255.882812 137.648438 256.035156 137.199219 C 257.910156 131.800781 256.335938 123.398438 250.1875 121.523438 C 246.441406 120.324219 240.070312 121 236.472656 122.050781 C 230.179688 123.925781 226.582031 130.523438 220.660156 132.699219 C 221.335938 133.675781 221.558594 134.875 221.78125 136.222656 C 221.78125 136.300781 221.78125 136.300781 221.859375 136.375 C 225.382812 134.722656 227.929688 131.574219 231.453125 129.773438 C 234.523438 128.199219 237.746094 127.597656 241.195312 127.675781 C 241.644531 127.675781 241.644531 128.273438 241.195312 128.347656 C 236.097656 128.574219 231.679688 130.375 227.855469 133.75 C 225.980469 135.398438 224.480469 136.75 222.382812 137.574219 C 222.609375 137.949219 222.90625 138.25 223.207031 138.625 C 228.605469 137.574219 233.476562 133.449219 239.171875 135.097656 C 239.621094 135.25 239.394531 135.847656 239.019531 135.773438 C 233.476562 134.425781 229.054688 139.375 223.957031 140.125 C 224.109375 140.574219 224.109375 141.097656 224.109375 141.625 C 227.855469 141.699219 231.453125 143.648438 235.199219 144.25 C 241.867188 145.375 250.414062 144.773438 254.757812 139 C 255.132812 138.472656 256.035156 138.925781 255.660156 139.523438 C 252.886719 144.023438 247.792969 145.675781 242.84375 146.425781 C 240.144531 146.800781 237.449219 146.949219 234.75 146.574219 C 231.75 146.125 229.054688 144.925781 226.207031 144.324219 C 234.300781 147.550781 240.96875 155.273438 243.96875 163 C 244.117188 163.449219 243.515625 163.597656 243.292969 163.300781 C 243.367188 163.597656 242.921875 163.824219 242.695312 163.597656 C 237.824219 158.273438 230.628906 158.347656 224.558594 155.5 C 223.359375 154.972656 222.382812 154.148438 221.558594 153.25 C 223.507812 158.273438 225.457031 163.449219 226.503906 168.550781 C 227.332031 172.449219 227.027344 176.347656 223.957031 179.125 C 224.332031 179.5 224.707031 179.949219 225.082031 180.398438 C 225.382812 180.773438 224.707031 181.222656 224.40625 180.925781 C 215.636719 170.648438 199.601562 177.398438 190.679688 184.222656 C 186.109375 187.75 182.511719 191.949219 179.367188 196.675781 C 177.117188 200.050781 174.941406 203.652344 171.722656 206.125 C 170.820312 206.800781 169.472656 205.449219 170.144531 204.550781 C 177.71875 194.347656 184.085938 183.773438 195.925781 178 C 196.453125 177.773438 196.976562 177.472656 197.578125 177.25 C 196.902344 173.125 196.378906 169 198.550781 165.398438 C 193.980469 170.199219 188.882812 175.074219 183.558594 178.972656 C 183.410156 179.125 183.1875 179.050781 183.113281 178.898438 C 182.738281 178.824219 182.511719 178.375 182.8125 178 C 183.933594 176.800781 184.910156 175.449219 185.808594 174.023438 C 185.660156 173.875 185.585938 173.648438 185.734375 173.425781 C 186.410156 172.375 187.085938 171.398438 187.757812 170.347656 C 191.28125 162.847656 193.527344 154 200.046875 149.425781 C 199.078125 149.648438 198.175781 149.949219 197.277344 150.472656 C 195.777344 151.300781 194.503906 152.425781 193.152344 153.398438 C 190.53125 155.347656 187.90625 156.472656 184.683594 156.398438 C 184.984375 157.300781 185.210938 158.273438 185.285156 159.175781 C 186.257812 166.300781 184.308594 174.023438 181.539062 180.550781 C 178.6875 187.300781 172.769531 193 171.417969 200.347656 C 171.195312 201.472656 169.246094 201.25 169.398438 200.050781 C 169.921875 195.324219 172.542969 191.800781 175.09375 187.902344 C 178.464844 182.722656 181.011719 177.097656 182.4375 171.023438 C 184.160156 163.449219 184.238281 156.175781 179.140625 149.800781 C 177.34375 147.550781 175.09375 145 172.691406 143.5 C 170.519531 142.148438 168.347656 141.773438 166.25 142 C 166.398438 142 166.546875 142.148438 166.625 142.375 C 168.347656 146.875 168.347656 151.675781 168.273438 156.398438 C 168.273438 156.925781 167.523438 156.925781 167.523438 156.398438 C 167.375 151.675781 167.148438 147.175781 165.648438 142.675781 C 165.574219 142.523438 165.648438 142.375 165.648438 142.300781 C 165.5 142.523438 165.273438 142.597656 164.976562 142.597656 C 164.601562 142.597656 164.300781 142.523438 163.925781 142.523438 C 163.625 142.597656 163.25 142.675781 162.949219 142.824219 C 163.625 144.25 163.550781 146.199219 163.476562 147.550781 C 163.402344 148 162.800781 148 162.800781 147.550781 C 162.800781 146.5 162.652344 145.449219 162.351562 144.472656 C 162.199219 144.023438 162.050781 143.648438 161.824219 143.199219 C 161.300781 143.425781 160.703125 143.574219 160.179688 143.800781 C 159.503906 144.023438 159.277344 143.050781 159.878906 142.75 C 160.402344 142.523438 161.003906 142.375 161.527344 142.148438 L 161.527344 142.074219 C 149.535156 139.300781 145.265625 126.023438 143.242188 114.847656 Z M 75.261719 343.972656 C 73.316406 341.574219 72.117188 338.722656 72.566406 335.425781 C 72.714844 334.300781 73.015625 333.097656 73.316406 331.972656 C 68.96875 338.875 64.769531 345.847656 63.722656 354.324219 C 63.648438 354.847656 62.824219 354.925781 62.824219 354.324219 C 62.675781 348.472656 65.074219 343.074219 67.921875 338.050781 C 70.320312 333.699219 72.792969 329.277344 75.488281 324.925781 C 71.816406 328.824219 67.695312 332.425781 63.648438 335.5 C 63.722656 335.652344 63.722656 335.875 63.648438 336.027344 C 61.847656 339.472656 59.675781 342.175781 58.402344 346 C 57.277344 349.375 56.601562 352.972656 56.527344 356.5 C 56.453125 361.375 58.027344 366.175781 56.527344 370.75 C 64.769531 363.097656 74.140625 355.972656 75.261719 343.972656 Z M 37.117188 351.777344 C 34.570312 354.175781 32.621094 357.027344 30.074219 359.5 C 26.699219 362.800781 22.800781 365.5 18.90625 368.125 C 18.53125 368.347656 18.082031 367.75 18.378906 367.449219 C 22.726562 364 27.074219 360.472656 30.671875 356.199219 C 32.472656 354.027344 34.042969 351.550781 36.21875 349.675781 C 28.722656 351.175781 23.027344 355 18.082031 361.527344 C 14.183594 366.625 9.613281 369.925781 4.066406 372.777344 C 11.710938 373.300781 18.980469 371.652344 25.425781 366.925781 C 31.199219 362.800781 33.96875 357.472656 37.117188 351.777344 Z M 38.242188 337.75 C 36.21875 337.972656 34.121094 337.902344 32.019531 337.675781 C 25.800781 336.925781 19.582031 335.574219 13.359375 334.527344 C 12.757812 334.449219 12.910156 333.402344 13.507812 333.472656 C 22.652344 334.449219 33.371094 337.222656 42.285156 334.222656 C 37.566406 334.152344 33.292969 332.574219 28.722656 330.699219 C 20.332031 327.175781 13.058594 329.347656 6.164062 334.300781 C 12.757812 336.027344 16.957031 342.25 24.375 342.324219 C 29.699219 342.402344 34.121094 340.375 38.242188 337.75 Z M 43.5625 334.222656 C 43.488281 334.222656 43.410156 334.222656 43.339844 334.222656 L 43.410156 334.300781 C 43.488281 334.300781 43.5625 334.222656 43.5625 334.222656 Z M 85.230469 351.097656 C 82.535156 349.902344 79.460938 348.175781 77.0625 345.847656 C 76.238281 357.550781 63.722656 366.550781 55.554688 373.300781 C 55.027344 373.75 54.277344 373.074219 54.652344 372.550781 C 54.578125 372.402344 54.503906 372.175781 54.652344 371.949219 C 57.726562 365.652344 54.429688 356.949219 55.402344 350.050781 C 55.929688 346.375 57.128906 342.097656 59.300781 338.722656 C 53.605469 342.699219 47.382812 346.222656 41.011719 348.625 C 41.011719 348.847656 40.863281 349.074219 40.566406 349.074219 C 40.488281 349.152344 40.414062 349.300781 40.265625 349.375 C 40.191406 349.375 40.191406 349.449219 40.191406 349.449219 C 37.265625 366.027344 16.804688 378.925781 0.769531 374.125 C -0.28125 373.824219 0.167969 372.324219 1.21875 372.472656 C 1.292969 372.472656 1.367188 372.472656 1.519531 372.472656 C 1.59375 372.402344 1.667969 372.25 1.816406 372.175781 C 6.089844 369.925781 10.433594 367.75 13.960938 364.300781 C 16.957031 361.375 19.054688 357.625 22.277344 354.847656 C 26.773438 351.027344 32.472656 348.550781 38.316406 348.175781 C 38.691406 347.949219 39.140625 347.722656 39.589844 347.574219 C 39.964844 347.425781 40.265625 347.574219 40.414062 347.722656 C 48.28125 343.75 55.628906 339.625 62.523438 334.074219 C 59.300781 335.347656 55.929688 336.027344 52.707031 335.425781 C 50.832031 335.125 48.960938 334.597656 47.160156 333.847656 C 47.160156 333.925781 47.085938 333.925781 47.085938 334 C 41.164062 339.027344 34.042969 343.75 26.101562 344.125 C 22.425781 344.347656 18.980469 343.449219 15.90625 341.5 C 12.234375 339.175781 8.9375 337 5.039062 334.972656 C 4.742188 335.050781 4.4375 334.597656 4.589844 334.300781 C 7.289062 329.050781 14.78125 326.722656 20.253906 326.347656 C 23.777344 326.125 26.851562 327.097656 29.996094 328.527344 C 34.492188 330.472656 38.390625 331.597656 42.964844 331.902344 C 39.816406 330.175781 37.039062 327.925781 34.945312 325.300781 C 34.570312 324.847656 35.167969 324.25 35.617188 324.625 C 40.414062 328.972656 48.210938 333.25 54.878906 333.25 C 60.949219 333.25 68.820312 328.902344 72.042969 323.800781 C 74.214844 320.347656 75.566406 317.277344 78.863281 314.722656 C 84.183594 310.449219 85.230469 305.949219 87.332031 299.800781 C 87.628906 298.902344 89.054688 299.050781 89.054688 300.027344 C 88.828125 304.972656 87.332031 309.699219 84.183594 313.375 C 82.160156 318.625 78.863281 323.199219 76.539062 328.375 C 74.515625 332.949219 73.464844 337.300781 76.3125 341.425781 C 76.613281 341.5 76.988281 341.722656 76.988281 342.175781 C 76.988281 342.25 76.988281 342.324219 76.988281 342.402344 C 77.0625 342.472656 77.136719 342.625 77.214844 342.699219 C 79.6875 345.402344 83.207031 347.277344 86.582031 348.699219 C 88.082031 349.449219 86.808594 351.777344 85.230469 351.097656 Z M 144.140625 234.402344 C 139.191406 237.027344 133.722656 238 129.074219 241.375 C 123.828125 245.125 119.410156 250.75 117.832031 257.050781 C 117.832031 257.199219 117.609375 257.125 117.683594 256.972656 C 119.105469 250.597656 121.804688 245.425781 126.828125 241.152344 C 131.25 237.324219 137.84375 233.277344 143.839844 232.972656 C 144.515625 232.902344 144.8125 234.027344 144.140625 234.402344 " fill-opacity="1" fill-rule="nonzero"/></g></svg>