<svg xmlns="http://www.w3.org/2000/svg" viewBox="0 0 500 500"><g id="freepik--Floor--inject-33"><ellipse cx="250" cy="377.35" rx="197.05" ry="111.94" style="fill:#f5f5f5"></ellipse></g><g id="freepik--Shadows--inject-33"><path d="M332,447.93,184.91,363a8.5,8.5,0,0,1,0-14.73l14.51-9.15a16.5,16.5,0,0,1,16.47,0L363,424.06a8.5,8.5,0,0,1,0,14.73l-14.51,9.14A16.46,16.46,0,0,1,332,447.93Z" style="fill:#e0e0e0"></path><ellipse cx="108.35" cy="352.17" rx="31.92" ry="18.33" style="fill:#e6e6e6"></ellipse></g><g id="freepik--Plants--inject-33"><path d="M384.16,374.7l14,8.05s-7.15-22.47-3.34-45.12c1.44-8.56,4.53-12.81,5.61-15.1s9.45-16.44,2-22.92-24.78,6.55-23.84,41.42A135.23,135.23,0,0,0,384.16,374.7Z" style="fill:#BA68C8"></path><path d="M384.16,374.7l14,8.05s-7.15-22.47-3.34-45.12c1.44-8.56,4.53-12.81,5.61-15.1s9.45-16.44,2-22.92-24.78,6.55-23.84,41.42A135.23,135.23,0,0,0,384.16,374.7Z" style="opacity:0.5"></path><path d="M390.67,378.94a.49.49,0,0,1-.47-.32c-.05-.15-5.4-14.77-5.23-38.27s12.52-36.26,12.64-36.38a.5.5,0,0,1,.71,0,.5.5,0,0,1,0,.71c-.12.12-12.18,12.5-12.35,35.68s5.11,37.78,5.17,37.92a.5.5,0,0,1-.3.64A.47.47,0,0,1,390.67,378.94Z" style="fill:#fff"></path><path d="M390,378.14l19.14,11a9.21,9.21,0,0,0,12.22-2.63,10,10,0,0,0,1.51-6.65c-.92-9.94-5.24-12.23.05-16.66s6.67-4.74,6.37-9-3.21-6.12-4.59-7.8-5.2-5.2-2.6-10.4,6.15-10.23.77-12.53c-3.21-1.38-8.56.46-12.08,4.28s-6.42,6.57-9.79,7.49-10.39,1.07-10.09,6.88,1.84,7.8.46,10.39C388.77,357.35,377.46,360.1,390,378.14Z" style="fill:#BA68C8"></path><path d="M399.46,384.06a.52.52,0,0,1-.5-.46c0-.34-2.94-34.66,20.66-57.5a.5.5,0,0,1,.69.72c-23.26,22.51-20.38,56.35-20.35,56.69a.5.5,0,0,1-.45.54Z" style="fill:#fff"></path><path d="M403.25,354.52a.5.5,0,0,1-.5-.46,19.64,19.64,0,0,0-7.23-13.73.5.5,0,0,1-.12-.7.49.49,0,0,1,.69-.12A20.37,20.37,0,0,1,403.75,354a.51.51,0,0,1-.46.55Z" style="fill:#fff"></path><path d="M401.62,360.41a.5.5,0,0,1-.33-.12.51.51,0,0,1-.05-.71c.24-.28,6.15-6.8,20-5.07a.5.5,0,0,1,.43.56.51.51,0,0,1-.56.44c-13.3-1.67-19.07,4.67-19.13,4.73A.51.51,0,0,1,401.62,360.41Z" style="fill:#fff"></path></g><g id="freepik--Device--inject-33"><path d="M327.52,437.78,198.16,363.09c-9.13-5.27-16.53-19.41-16.53-31.58v-277c0-12.17,7.4-17.76,16.53-12.49l129.36,74.69c9.13,5.27,16.53,19.41,16.53,31.58v277C344.05,437.45,336.65,443.05,327.52,437.78Z" style="fill:#455a64"></path><path d="M342.42,108,213.05,33.31c-3.9-2.25-7.48-2.51-10.31-1.13h0a8.45,8.45,0,0,0-1,.59l-14.5,8.43c2.92-1.75,6.74-1.62,10.93.8l129.36,74.69c9.13,5.27,16.53,19.41,16.53,31.58v277c0,6.44-2.07,11-5.37,13.16L353,430.1h0c3.65-1.94,6-6.69,6-13.5v-277C359,127.41,351.55,113.27,342.42,108Z" style="fill:#37474f"></path><path d="M344.05,148.27v277c0,6.44-2.07,11-5.37,13.16L353,430.1h0c3.65-1.94,6-6.69,6-13.5v-277l-14.9,8.65Z" style="fill:#263238"></path><polygon points="358.95 161.09 344.05 169.69 344.05 176.41 358.95 167.8 358.95 161.09" style="fill:#37474f"></polygon><path d="M352.42,205.78h0c-1.33.77-2.41-.05-2.41-1.82V189.51a5.78,5.78,0,0,1,2.41-4.61h0c1.33-.77,2.41,0,2.41,1.82v14.45A5.78,5.78,0,0,1,352.42,205.78Z" style="fill:#37474f"></path><path d="M350,204V189.51a5.78,5.78,0,0,1,2.41-4.61,1.54,1.54,0,0,1,1.52-.14v0l-1.81-.93h0a1.56,1.56,0,0,0-1.56.12,5.8,5.8,0,0,0-2.42,4.61V203a2.17,2.17,0,0,0,.82,1.93h0l1.89,1v0A2.08,2.08,0,0,1,350,204Z" style="fill:#455a64"></path><path d="M352.42,240.75h0c-1.33.77-2.41,0-2.41-1.82V224.48a5.79,5.79,0,0,1,2.41-4.61h0c1.33-.77,2.41,0,2.41,1.83v14.44A5.76,5.76,0,0,1,352.42,240.75Z" style="fill:#37474f"></path><path d="M350,238.93V224.48a5.79,5.79,0,0,1,2.41-4.61,1.57,1.57,0,0,1,1.52-.14h0l-1.81-.94v0a1.51,1.51,0,0,0-1.56.12,5.77,5.77,0,0,0-2.42,4.61V238a2.16,2.16,0,0,0,.82,1.93h0l1.89,1v0A2.07,2.07,0,0,1,350,238.93Z" style="fill:#455a64"></path><path d="M323,124.48,195.88,51.06a3.51,3.51,0,0,0-5.26,3V331.51c0,9.26,6.57,20.63,14.59,25.26l124,71.63a3.87,3.87,0,0,0,5.8-3.35V145.31C335.06,137.67,329.64,128.3,323,124.48Z" style="fill:#BA68C8"></path><path d="M323,124.48,195.88,51.06a3.51,3.51,0,0,0-5.26,3V331.51c0,9.26,6.57,20.63,14.59,25.26l124,71.63a3.87,3.87,0,0,0,5.8-3.35V145.31C335.06,137.67,329.64,128.3,323,124.48Z" style="fill:#fff;opacity:0.9"></path><polygon points="233.9 70.23 235.87 78.52 278.01 102.82 285.29 98.94 233.9 70.23" style="fill:#455a64"></polygon><path d="M246.29,78.24c0,1.38-1,1.93-2.16,1.25A4.78,4.78,0,0,1,242,75.75c0-1.37,1-1.93,2.16-1.24A4.76,4.76,0,0,1,246.29,78.24Z" style="fill:#263238"></path><path d="M274.68,95.79a1.41,1.41,0,0,1-.66-.17l-21.52-12a1.35,1.35,0,0,1,1.31-2.36l21.53,12a1.35,1.35,0,0,1-.66,2.53Z" style="fill:#263238"></path><path d="M217.28,108.8c-1.31-.76-2.26-.1-2.26,1.57a5.07,5.07,0,0,0,2.26,4.22,2.38,2.38,0,0,0,2.47,0l2.09,3.78a4.53,4.53,0,0,1-4.75-.23,12.11,12.11,0,0,1-5.78-9.84c0-3.71,2.49-5,5.92-3a13.54,13.54,0,0,1,4.61,5l-2.09,1.66A7.37,7.37,0,0,0,217.28,108.8Z" style="fill:#BA68C8"></path><path d="M233.87,121.33c0,3.74-2.53,5-6,3a12.35,12.35,0,0,1-6-10c0-3.74,2.53-5,6-3A12.28,12.28,0,0,1,233.87,121.33Zm-8.29-4.77a5.42,5.42,0,0,0,2.34,4.35c1.24.72,2.24,0,2.24-1.7a5.23,5.23,0,0,0-2.24-4.27C226.66,114.21,225.58,114.83,225.58,116.56Z" style="fill:#BA68C8"></path><path d="M237.9,117.36l4.32,9v-6.48l3.27,1.89v12.61l-3-1.74-4.3-8.92v6.44l-3.29-1.9V115.62Z" style="fill:#BA68C8"></path><path d="M256.18,127.91v3.3l-3.12-1.8v9.32l-3.61-2.09v-9.32l-3.1-1.79v-3.29Z" style="fill:#BA68C8"></path><path d="M263.22,142.81l-4.1-2.37-.56,1.46-3.7-2.14,4.61-9.95,3.71,2.14,4.44,15.18-3.85-2.22Zm-.89-3.5L261.21,135l-1.15,3Z" style="fill:#BA68C8"></path><path d="M273.35,141.17c-1.31-.75-2.26-.1-2.26,1.58a5.09,5.09,0,0,0,2.26,4.22,2.42,2.42,0,0,0,2.48,0l2.09,3.78a4.59,4.59,0,0,1-4.76-.23,12.11,12.11,0,0,1-5.78-9.85c0-3.71,2.5-5,5.92-3a13.76,13.76,0,0,1,4.62,5l-2.09,1.65A7.53,7.53,0,0,0,273.35,141.17Z" style="fill:#BA68C8"></path><path d="M287.78,146.16v3.29l-3.12-1.8V157l-3.61-2.09v-9.32l-3.1-1.79v-3.29Z" style="fill:#BA68C8"></path><path d="M298.45,161.64c.89.51,1.57.11,1.57-1.14v-7.27l3.62,2.08v7.27c0,3.35-2,4.35-5.2,2.52a10.3,10.3,0,0,1-5.29-8.57v-7.27l3.62,2.09v7.27A3.71,3.71,0,0,0,298.45,161.64Z" style="fill:#BA68C8"></path><path d="M309.47,161.68c-.41-.23-.67-.24-.67.14,0,1.58,5.65,3.86,5.65,8.43,0,2.8-2.13,2.81-4.59,1.39a18.27,18.27,0,0,1-5.47-5.17l1.34-2.36a16.08,16.08,0,0,0,4.16,4.36c.53.31.87.31.87-.14,0-1.64-5.66-3.82-5.66-8.25,0-2.52,1.84-3,4.68-1.4a17.42,17.42,0,0,1,4.75,4.23l-1.31,2.42A19.69,19.69,0,0,0,309.47,161.68Z" style="fill:#BA68C8"></path></g><g id="freepik--Character--inject-33"><path d="M316.44,248.56V372.81a8,8,0,0,1-12,6.94l-66.92-38.64-11.86-6.84A26.95,26.95,0,0,1,212.2,311V186.74a8,8,0,0,1,12-6.94L303,225.29A26.87,26.87,0,0,1,316.44,248.56Z" style="fill:#BA68C8"></path><path d="M316.44,248.56V372.81a8,8,0,0,1-12,6.94l-66.92-38.64-11.86-6.84A26.95,26.95,0,0,1,212.2,311V186.74a8,8,0,0,1,12-6.94L303,225.29A26.87,26.87,0,0,1,316.44,248.56Z" style="fill:#fff;opacity:0.5"></path><path d="M277.89,322.08s12.53,20.78,3.48,44.21l-43.88-25.18Z" style="fill:#263238"></path><circle cx="283.92" cy="226.99" r="14.05" transform="translate(23.94 481.05) rotate(-82.98)" style="fill:#263238"></circle><path d="M284,187.59s4.31-7,5.63-6.49-.86,7.18-.86,7.18,6.52,1.36,5.31,3-9.18,1.25-9.18,1.25Z" style="fill:#263238"></path><path d="M287,205.63c-3,22.54-22,22.54-22,22.54L225.2,210.65s-3-2.63-3.92-8.67a26.41,26.41,0,0,1,0-7.46s0-.05,0-.07c1.27-9.48,8.36-19.67,23.8-22.8a50.59,50.59,0,0,1,10.28-1,46.83,46.83,0,0,1,5,.25c12,1.18,20.41,6.78,24.42,15.49a28,28,0,0,1,2,6.15A38.82,38.82,0,0,1,287,205.63Z" style="fill:#263238"></path><path d="M191.45,249.23s-14.13-.49-19.57,13.28c0,0,6,4.05,13.87,0S191.45,249.23,191.45,249.23Z" style="fill:#BA68C8"></path><path d="M191.45,249.23s-14.13-.49-19.57,13.28c0,0,6,4.05,13.87,0S191.45,249.23,191.45,249.23Z" style="opacity:0.5"></path><path d="M191.05,255.86s-4-17.38-6.11-17.59-2.52,5.3-2.35,8.41l-5-10.76a2.71,2.71,0,0,0-3.76-1.21c-5,2.75-13.77,11.11,4.72,31.78Z" style="fill:#945959"></path><path d="M242.25,243.84l-3-.39a17.18,17.18,0,0,0-16,6.72l-17.85,23.76-14-24.7s-1.68,16.8-19.57,13.28l19.21,32.33a14.78,14.78,0,0,0,24.18,1.77l16.44-20.21Z" style="fill:#BA68C8"></path><path d="M280.35,299.29c-4,10.14-4.44,12.12-2,17.19a64.87,64.87,0,0,1,4,11.64s-18.54,20.78-44.93,13l-11.86-6.84a26.56,26.56,0,0,1-6.58-5.36L222.59,302a9.4,9.4,0,0,0-.42-4.21l-3.79-11.11a30.36,30.36,0,0,1,7.52-31.51l12.74-12.45L272.1,247l5,1.43A14.15,14.15,0,0,1,287.18,264C285.54,275.8,282.86,292.92,280.35,299.29Z" style="fill:#BA68C8"></path><path d="M280.35,299.29c-4,10.14-4.44,12.12-2,17.19a64.87,64.87,0,0,1,4,11.64s-18.54,20.78-44.93,13l-11.86-6.84a26.56,26.56,0,0,1-6.58-5.36L222.59,302a9.4,9.4,0,0,0-.42-4.21l-3.79-11.11a30.36,30.36,0,0,1,7.52-31.51l12.74-12.45L272.1,247l5,1.43A14.15,14.15,0,0,1,287.18,264C285.54,275.8,282.86,292.92,280.35,299.29Z" style="opacity:0.5"></path><path d="M260.17,269l-6.7-5.71a5.37,5.37,0,0,0-5.23-1l-8.1,2.79-1.09-4.54a5.38,5.38,0,0,0-6.72-3.91l-3.51,1,5.94-11.38a21.31,21.31,0,0,1,8.59-8.78l2.33-1.28,19.25,1s7.17,3,7.17,9.75l-11.93,22" style="fill:#BA68C8"></path><polygon points="265.01 245.72 245.71 260.76 245.71 212.87 265.01 212.87 265.01 245.72" style="fill:#945959"></polygon><polygon points="246.01 241.77 240.14 265.12 264.93 245.72 246.01 241.77" style="fill:#945959"></polygon><path d="M245.71,238.3A33.78,33.78,0,0,0,265,219.94v-7.07h-19.3Z" style="fill:#703838"></path><path d="M249.87,177.38c-7.32,0-22.88,4.08-24.68,23.24s-.06,34,9.82,35.44,32.84-5.73,35.92-30.53S257,177.38,249.87,177.38Z" style="fill:#945959"></path><polygon points="238.35 208.73 238.35 220.02 231.73 217.99 238.35 208.73" style="fill:#703838"></polygon><circle cx="245.71" cy="210.68" r="2.3" style="fill:#263238"></circle><path d="M232.87,209.08a2.3,2.3,0,1,1-2.3-2.31A2.3,2.3,0,0,1,232.87,209.08Z" style="fill:#263238"></path><path d="M227.76,204.28l4.5-2.67s-1.72-1.79-3.44-.72S227.76,204.28,227.76,204.28Z" style="fill:#263238"></path><path d="M235.24,224.6a9.75,9.75,0,0,0,6.19-1.66s.43,3.27-2.31,3.89S235.24,224.6,235.24,224.6Z" style="fill:#703838"></path><path d="M231.31,183.9s2.75,26.45,38.72,27.28c0,0,10.87-26.29-10.61-34.83S231.31,183.9,231.31,183.9Z" style="fill:#263238"></path><path d="M280.62,207.22h0l0,0h0l-4.42-2.56h0c-1.68-1-4-.86-6.57.62-5.1,2.94-9.24,10.11-9.24,16,0,2.95,1,5,2.72,6h0l4.34,2.5.25.14.15.09v0c1.64.8,3.83.61,6.24-.78,5.1-3,9.24-10.11,9.24-16C283.3,210.25,282.27,208.19,280.62,207.22Z" style="fill:#BA68C8"></path><ellipse cx="274.06" cy="218.51" rx="13.06" ry="7.54" transform="translate(-52.21 346.6) rotate(-60)" style="fill:#BA68C8"></ellipse><ellipse cx="274.06" cy="218.51" rx="13.06" ry="7.54" transform="translate(-52.21 346.6) rotate(-60)" style="opacity:0.5"></ellipse><path d="M282.39,212.77h0l-3-1.75h0c-1.14-.68-2.73-.59-4.49.42a14,14,0,0,0-6.32,10.95c0,2,.71,3.43,1.86,4.09h0l3,1.71a1,1,0,0,0,.17.1l.1.06h0a4.6,4.6,0,0,0,4.28-.54,14,14,0,0,0,6.32-10.94C284.23,214.84,283.53,213.43,282.39,212.77Z" style="fill:#BA68C8"></path><path d="M284.23,216.85a14,14,0,0,1-6.32,10.94c-3.5,2-6.33.38-6.33-3.65a13.94,13.94,0,0,1,6.33-10.94C281.4,211.18,284.23,212.81,284.23,216.85Z" style="fill:#BA68C8"></path><path d="M284.23,216.85a14,14,0,0,1-6.32,10.94c-3.5,2-6.33.38-6.33-3.65a13.94,13.94,0,0,1,6.33-10.94C281.4,211.18,284.23,212.81,284.23,216.85Z" style="opacity:0.30000000000000004"></path><path d="M266.89,172.22a16.64,16.64,0,0,0-10-3.47H256a53.89,53.89,0,0,0-10.93,1c.66,0,1.32,0,2,0h-2v1.86h1.86a24.71,24.71,0,0,1,23.87,24.73v7.87a2.22,2.22,0,0,0,2.45,2.21l.23,0,2-.62h0a1.86,1.86,0,0,1-.41.08,2.45,2.45,0,0,0,2.12-2.48v-7.3C277.17,182.89,271.46,175.79,266.89,172.22Z" style="fill:#BA68C8"></path><path d="M254.3,235.51a5.75,5.75,0,0,1-2.39-.52l-6.25-2.89a.75.75,0,1,1,.62-1.36l6.25,2.89a4.22,4.22,0,0,0,4.82-.9l6-6.2a.75.75,0,0,1,1.06,0,.76.76,0,0,1,0,1.06l-6,6.2A5.69,5.69,0,0,1,254.3,235.51Z" style="fill:#BA68C8"></path><path d="M254.3,235.51a5.75,5.75,0,0,1-2.39-.52l-6.25-2.89a.75.75,0,1,1,.62-1.36l6.25,2.89a4.22,4.22,0,0,0,4.82-.9l6-6.2a.75.75,0,0,1,1.06,0,.76.76,0,0,1,0,1.06l-6,6.2A5.69,5.69,0,0,1,254.3,235.51Z" style="opacity:0.5"></path><path d="M247.3,230a2.92,2.92,0,1,1-2.92-2.92A2.92,2.92,0,0,1,247.3,230Z" style="fill:#BA68C8"></path><path d="M247.3,230a2.92,2.92,0,1,1-2.92-2.92A2.92,2.92,0,0,1,247.3,230Z" style="opacity:0.5"></path><path d="M277.17,196.1v7.3a2.45,2.45,0,0,1-2.12,2.48,2.36,2.36,0,0,1-2.61-2.35V196.1a26.29,26.29,0,0,0-27.36-26.31,53.89,53.89,0,0,1,10.93-1h.87a16.64,16.64,0,0,1,10,3.47C271.46,175.79,277.17,182.89,277.17,196.1Z" style="fill:#BA68C8"></path><path d="M277.17,196.1v7.3a2.45,2.45,0,0,1-2.12,2.48,2.36,2.36,0,0,1-2.61-2.35V196.1a26.29,26.29,0,0,0-27.36-26.31,53.89,53.89,0,0,1,10.93-1h.87a16.64,16.64,0,0,1,10,3.47C271.46,175.79,277.17,182.89,277.17,196.1Z" style="opacity:0.5"></path><path d="M265.93,333.67S261.09,347,278.39,353c0,0,5.65-8.3,0-15.09S265.93,333.67,265.93,333.67Z" style="fill:#BA68C8"></path><path d="M265.93,333.67S261.09,347,278.39,353c0,0,5.65-8.3,0-15.09S265.93,333.67,265.93,333.67Z" style="opacity:0.7000000000000001"></path><path d="M272,334.28s-16.9,6.19-16.81,8.59,7.18.76,7.18.76l-2.59,1.7a15.84,15.84,0,0,0-6.05,7.38h0a2.92,2.92,0,0,0,1.34,3.65l6.42,3.4a3.07,3.07,0,0,0,4.19-1.35h0a6,6,0,0,1,3.51-3c3.49-1.16,10-4.5,12.61-13.64Z" style="fill:#945959"></path><path d="M277.07,248.41s-9,5-4.22,20.18,13.75,38.73,13.75,38.73l-20.67,26.35A15.82,15.82,0,0,1,277,340.31,14,14,0,0,1,278.39,353l25.66-33a23.25,23.25,0,0,0,3.64-21.83l-11-32.12a26.88,26.88,0,0,0-17-16.81Z" style="fill:#BA68C8"></path></g><g id="freepik--Clouds--inject-33"><path d="M329.2,53.48l9.37,5.33V55.49c0-.23,0-.47,0-.7s0-.45,0-.67V54h0c.34-4.39,3.67-6.08,7.73-3.73a15.14,15.14,0,0,1,4.62,4.43c.91-6,5.78-8.12,11.67-4.73,6.54,3.78,11.84,13,11.84,20.52v7.1A3.24,3.24,0,0,0,376,80.42l5.52,3.23a8,8,0,0,1,3.92,6.86,3.27,3.27,0,0,1-4.91,2.83L329.34,63.75A9,9,0,0,1,324.86,56,2.9,2.9,0,0,1,329.2,53.48Z" style="fill:#e6e6e6"></path><path d="M400.63,52.09,407.44,56V53.56c0-.17,0-.34,0-.51s0-.33,0-.49V52.5h0c.25-3.19,2.67-4.42,5.62-2.71A11,11,0,0,1,416.42,53c.67-4.34,4.21-5.91,8.49-3.44,4.76,2.75,8.61,9.43,8.61,14.92v5.17a2.34,2.34,0,0,0,1.16,2l4,2.35a5.78,5.78,0,0,1,2.85,5A2.38,2.38,0,0,1,438,81.08L400.73,59.56a6.51,6.51,0,0,1-3.25-5.63A2.11,2.11,0,0,1,400.63,52.09Z" style="fill:#e6e6e6"></path></g></svg>