<svg xmlns="http://www.w3.org/2000/svg" viewBox="0 0 500 500">
    <g id="freepik--Icons--inject-33">
        <path
            d="M125.15,158.74l-39.77-23a3.35,3.35,0,0,0-3.17-.35h0a1.92,1.92,0,0,0-.31.18l-8.65,5.07.06,0c-1.09.62-1.78,2.06-1.78,4.12V189c0,3.74,2.27,8.09,5.08,9.71l39.77,23a3.18,3.18,0,0,0,3.5.15.18.18,0,0,0-.07.05l8.59-5h0c1.12-.6,1.83-2.06,1.83-4.15V168.45C130.23,164.71,128,160.36,125.15,158.74Z"
            style="fill:#BA68C8"></path>
        <path
            d="M128.81,162.93a10.12,10.12,0,0,0-3.66-4.19l-39.77-23a3.35,3.35,0,0,0-3.17-.35h0a1.92,1.92,0,0,0-.31.18l-8.65,5.07a3.24,3.24,0,0,1,3.36.25l39.77,23a10.3,10.3,0,0,1,3.75,4.38h0Z"
            style="fill:#BA68C8"></path>
        <path
            d="M121.46,217.82c0,2-.64,3.39-1.65,4l8.59-5h0c1.12-.6,1.83-2.06,1.83-4.15V168.45a12.51,12.51,0,0,0-1.42-5.52l-8.68,5.34h0a12.49,12.49,0,0,1,1.33,5.33Z"
            style="fill:#BA68C8"></path>
        <path
            d="M128.81,162.93a10.12,10.12,0,0,0-3.66-4.19l-39.77-23a3.35,3.35,0,0,0-3.17-.35h0a1.92,1.92,0,0,0-.31.18l-8.65,5.07a3.24,3.24,0,0,1,3.36.25l39.77,23a10.3,10.3,0,0,1,3.75,4.38h0Z"
            style="opacity:0.30000000000000004"></path>
        <path
            d="M121.46,217.82c0,2-.64,3.39-1.65,4l8.59-5h0c1.12-.6,1.83-2.06,1.83-4.15V168.45a12.51,12.51,0,0,0-1.42-5.52l-8.68,5.34h0a12.49,12.49,0,0,1,1.33,5.33Z"
            style="opacity:0.6000000000000001"></path>
        <path
            d="M109.8,186.27c0,5.73-2.27,7.68-5.67,5.71a8,8,0,0,1-3.8-5c-1,1.23-2.55,1.31-4.73.05-3.58-2.07-6.4-7-6.4-11.79s2.79-6.44,6.4-4.36a11,11,0,0,1,4.26,4.57v-1.89l3.77,2.18v10.36a3,3,0,0,0,1.33,2.81c1.27.74,2.05-.51,2.05-4.22,0-6.49-4.16-13.37-10.31-16.92s-10.3-1.08-10.3,5.6a21,21,0,0,0,10.19,17.53,11.88,11.88,0,0,0,5.46,1.74l.89,3.45A14.21,14.21,0,0,1,96.59,194c-8-4.63-13.29-13.95-13.29-22.39s5.34-11.5,13.4-6.84C104.49,169.26,109.8,178.25,109.8,186.27Zm-9.88-4.81a7.34,7.34,0,0,0-3.47-6.35c-2-1.17-3.43-.35-3.43,2.37a7.39,7.39,0,0,0,3.43,6.39C98.45,185,99.92,184.27,99.92,181.46Z"
            style="fill:#BA68C8"></path>
        <g style="opacity:0.9">
            <path
                d="M109.8,186.27c0,5.73-2.27,7.68-5.67,5.71a8,8,0,0,1-3.8-5c-1,1.23-2.55,1.31-4.73.05-3.58-2.07-6.4-7-6.4-11.79s2.79-6.44,6.4-4.36a11,11,0,0,1,4.26,4.57v-1.89l3.77,2.18v10.36a3,3,0,0,0,1.33,2.81c1.27.74,2.05-.51,2.05-4.22,0-6.49-4.16-13.37-10.31-16.92s-10.3-1.08-10.3,5.6a21,21,0,0,0,10.19,17.53,11.88,11.88,0,0,0,5.46,1.74l.89,3.45A14.21,14.21,0,0,1,96.59,194c-8-4.63-13.29-13.95-13.29-22.39s5.34-11.5,13.4-6.84C104.49,169.26,109.8,178.25,109.8,186.27Zm-9.88-4.81a7.34,7.34,0,0,0-3.47-6.35c-2-1.17-3.43-.35-3.43,2.37a7.39,7.39,0,0,0,3.43,6.39C98.45,185,99.92,184.27,99.92,181.46Z"
                style="fill:#fff"></path>
        </g>
        <path
            d="M125.15,237.52l-39.77-23a3.31,3.31,0,0,0-3.17-.34h0a1.92,1.92,0,0,0-.31.18l-8.65,5.07.06,0c-1.09.62-1.78,2.06-1.78,4.11v44.22c0,3.75,2.27,8.09,5.08,9.71l39.77,23a3.16,3.16,0,0,0,3.5.15l-.07.06,8.59-5.05h0c1.12-.59,1.83-2,1.83-4.15V247.22C130.23,243.48,128,239.14,125.15,237.52Z"
            style="fill:#BA68C8"></path>
        <path
            d="M128.81,241.71a10.06,10.06,0,0,0-3.66-4.19l-39.77-23a3.31,3.31,0,0,0-3.17-.34h0a1.92,1.92,0,0,0-.31.18l-8.65,5.07a3.23,3.23,0,0,1,3.36.24l39.77,23a10.27,10.27,0,0,1,3.75,4.39h0Z"
            style="fill:#BA68C8"></path>
        <path
            d="M121.46,296.59c0,2-.64,3.39-1.65,4.05l8.59-5.05h0c1.12-.59,1.83-2,1.83-4.15V247.22a12.47,12.47,0,0,0-1.42-5.51l-8.68,5.34h0a12.45,12.45,0,0,1,1.33,5.32Z"
            style="fill:#BA68C8"></path>
        <path
            d="M128.81,241.71a10.06,10.06,0,0,0-3.66-4.19l-39.77-23a3.31,3.31,0,0,0-3.17-.34h0a1.92,1.92,0,0,0-.31.18l-8.65,5.07a3.23,3.23,0,0,1,3.36.24l39.77,23a10.27,10.27,0,0,1,3.75,4.39h0Z"
            style="opacity:0.30000000000000004"></path>
        <path
            d="M121.46,296.59c0,2-.64,3.39-1.65,4.05l8.59-5.05h0c1.12-.59,1.83-2,1.83-4.15V247.22a12.47,12.47,0,0,0-1.42-5.51l-8.68,5.34h0a12.45,12.45,0,0,1,1.33,5.32Z"
            style="opacity:0.6000000000000001"></path>
        <polygon points="92.05 257.29 82.46 241.71 82.46 262.82 92.05 257.29" style="fill:#BA68C8"></polygon>
        <polygon points="100.96 261.78 110.53 278.35 110.53 257.27 100.96 261.78"
            style="fill:#BA68C8"></polygon>
        <path
            d="M83.91,241l9.85,16a.63.63,0,0,1,.11.12.28.28,0,0,1,0,.12L96.8,262l2.48-1.17a.69.69,0,0,1,.13-.11.75.75,0,0,1,.32-.1l10-4.69Z"
            style="fill:#BA68C8"></path>
        <path
            d="M99.51,262.46l-2.68,1.26a.75.75,0,0,1-.33.07.8.8,0,0,1-.69-.38l-2.93-4.76-9.62,5.56,25.89,14.94Z"
            style="fill:#BA68C8"></path>
        <g style="opacity:0.9">
            <polygon points="92.05 257.29 82.46 241.71 82.46 262.82 92.05 257.29" style="fill:#fff"></polygon>
            <polygon points="100.96 261.78 110.53 278.35 110.53 257.27 100.96 261.78"
                style="fill:#fff"></polygon>
            <path
                d="M83.91,241l9.85,16a.63.63,0,0,1,.11.12.28.28,0,0,1,0,.12L96.8,262l2.48-1.17a.69.69,0,0,1,.13-.11.75.75,0,0,1,.32-.1l10-4.69Z"
                style="fill:#fff"></path>
            <path
                d="M99.51,262.46l-2.68,1.26a.75.75,0,0,1-.33.07.8.8,0,0,1-.69-.38l-2.93-4.76-9.62,5.56,25.89,14.94Z"
                style="fill:#fff"></path>
        </g>
        <path
            d="M125.15,80,85.38,57a3.31,3.31,0,0,0-3.17-.34h0a1.92,1.92,0,0,0-.31.18l-8.65,5.07.06,0c-1.09.61-1.78,2.06-1.78,4.11v44.22c0,3.74,2.27,8.09,5.08,9.71l39.77,23a3.16,3.16,0,0,0,3.5.15l-.07.05,8.59-5h0c1.12-.59,1.83-2,1.83-4.15V89.67C130.23,85.93,128,81.58,125.15,80Z"
            style="fill:#BA68C8"></path>
        <path
            d="M128.81,84.16a10.09,10.09,0,0,0-3.66-4.2L85.38,57a3.31,3.31,0,0,0-3.17-.34h0a1.92,1.92,0,0,0-.31.18l-8.65,5.07a3.23,3.23,0,0,1,3.36.24l39.77,23a10.27,10.27,0,0,1,3.75,4.39h0Z"
            style="fill:#BA68C8"></path>
        <path
            d="M121.46,139c0,2-.64,3.39-1.65,4l8.59-5h0c1.12-.59,1.83-2,1.83-4.15V89.67a12.47,12.47,0,0,0-1.42-5.51l-8.68,5.34h0a12.45,12.45,0,0,1,1.33,5.32Z"
            style="fill:#BA68C8"></path>
        <path
            d="M128.81,84.16a10.09,10.09,0,0,0-3.66-4.2L85.38,57a3.31,3.31,0,0,0-3.17-.34h0a1.92,1.92,0,0,0-.31.18l-8.65,5.07a3.23,3.23,0,0,1,3.36.24l39.77,23a10.27,10.27,0,0,1,3.75,4.39h0Z"
            style="opacity:0.30000000000000004"></path>
        <path
            d="M121.46,139c0,2-.64,3.39-1.65,4l8.59-5h0c1.12-.59,1.83-2,1.83-4.15V89.67a12.47,12.47,0,0,0-1.42-5.51l-8.68,5.34h0a12.45,12.45,0,0,1,1.33,5.32Z"
            style="opacity:0.6000000000000001"></path>
        <path
            d="M108.45,120c-1.53-2.52-3.07-5-4.6-7.54a3.92,3.92,0,0,0-2.41-2c-.74-.15-1.48-.32-2.24-.54a1.38,1.38,0,0,1-.65-.56,63.22,63.22,0,0,1-5.93-13.6.75.75,0,0,1,.08-.61c.47-.47,1-.9,1.48-1.32s.73-1.39.38-2.65c-.74-2.67-1.45-5.34-2.19-8a4.38,4.38,0,0,0-2.86-3.32,8.09,8.09,0,0,0-4.9.18c-.61.23-.93.78-.94,1.73.26,1.83.43,3.64.78,5.5q3.7,20.12,17.8,37a2.85,2.85,0,0,0,2.23,1.28,6.72,6.72,0,0,0,4.23-1.63C109.6,123.12,109.51,121.7,108.45,120Z"
            style="fill:#BA68C8"></path>
        <path
            d="M108.33,106.37A21.24,21.24,0,0,0,106,98.13a24.35,24.35,0,0,0-3.75-5.51c-.39-.44-.72-.58-.92-.25s0,.8.38,1.23l.39.45a21.07,21.07,0,0,1,5,11.33,4,4,0,0,0,.09.91,2.43,2.43,0,0,0,.59.91c.21.15.45,0,.62,0C108.34,106.79,108.35,106.58,108.33,106.37Z"
            style="fill:#BA68C8"></path>
        <path
            d="M99.27,98.16a8.45,8.45,0,0,1,2.17,5,3.18,3.18,0,0,0,.31.81c.61.5.91.33.91-.3a11,11,0,0,0-2.81-6.41c-.38-.39-.69-.51-.87-.18A1,1,0,0,0,99.27,98.16Z"
            style="fill:#BA68C8"></path>
        <g style="opacity:0.9">
            <path
                d="M108.45,120c-1.53-2.52-3.07-5-4.6-7.54a3.92,3.92,0,0,0-2.41-2c-.74-.15-1.48-.32-2.24-.54a1.38,1.38,0,0,1-.65-.56,63.22,63.22,0,0,1-5.93-13.6.75.75,0,0,1,.08-.61c.47-.47,1-.9,1.48-1.32s.73-1.39.38-2.65c-.74-2.67-1.45-5.34-2.19-8a4.38,4.38,0,0,0-2.86-3.32,8.09,8.09,0,0,0-4.9.18c-.61.23-.93.78-.94,1.73.26,1.83.43,3.64.78,5.5q3.7,20.12,17.8,37a2.85,2.85,0,0,0,2.23,1.28,6.72,6.72,0,0,0,4.23-1.63C109.6,123.12,109.51,121.7,108.45,120Z"
                style="fill:#fff"></path>
            <path
                d="M108.33,106.37A21.24,21.24,0,0,0,106,98.13a24.35,24.35,0,0,0-3.75-5.51c-.39-.44-.72-.58-.92-.25s0,.8.38,1.23l.39.45a21.07,21.07,0,0,1,5,11.33,4,4,0,0,0,.09.91,2.43,2.43,0,0,0,.59.91c.21.15.45,0,.62,0C108.34,106.79,108.35,106.58,108.33,106.37Z"
                style="fill:#fff"></path>
            <path
                d="M99.27,98.16a8.45,8.45,0,0,1,2.17,5,3.18,3.18,0,0,0,.31.81c.61.5.91.33.91-.3a11,11,0,0,0-2.81-6.41c-.38-.39-.69-.51-.87-.18A1,1,0,0,0,99.27,98.16Z"
                style="fill:#fff"></path>
        </g>
    </g>
</svg>